<?xml version="1.0" standalone="no"?>
<!DOCTYPE svg PUBLIC "-//W3C//DTD SVG 20010904//EN"
 "http://www.w3.org/TR/2001/REC-SVG-20010904/DTD/svg10.dtd">
<svg version="1.0" xmlns="http://www.w3.org/2000/svg"
 width="470.000000pt" height="470.000000pt" viewBox="0 0 470.000000 470.000000"
 preserveAspectRatio="xMidYMid meet">
<metadata>
Created by potrace 1.11, written by Peter Selinger 2001-2013
</metadata>
<g transform="translate(0.000000,470.000000) scale(0.100000,-0.100000)"
fill="#000000" stroke="none">
<path d="M1379 4698 c-1 -2 -2 -148 -3 -325 l-1 -323 69 0 69 0 94 95 c52 52
96 95 99 95 3 0 48 -43 101 -95 l96 -95 67 0 67 0 0 325 0 325 -107 0 -106 0
1 -135 c1 -151 6 -147 -73 -63 l-44 47 -55 -54 c-31 -30 -59 -55 -62 -55 -4 0
-6 59 -6 130 l1 130 -103 0 c-57 0 -104 -1 -104 -2z"/>
<path d="M2125 4570 c0 -126 1 -132 27 -164 l26 -33 -27 -29 c-26 -28 -26 -32
-26 -161 l0 -133 292 0 292 0 -1 105 c-1 88 -4 105 -17 106 -9 1 -83 1 -165 1
l-148 -1 23 27 c13 14 36 38 52 53 15 16 27 31 27 35 0 4 -22 29 -50 56 -27
27 -50 51 -50 53 0 3 74 5 164 5 l164 0 -2 103 -1 102 -290 3 -290 2 0 -130z"/>
<path d="M2799 4688 c-1 -16 -1 -620 0 -630 1 -5 132 -8 291 -8 l290 0 0 132
0 132 -30 31 -30 31 30 29 30 29 0 133 0 133 -290 0 c-225 0 -290 -3 -291 -12z
m278 -256 l-57 -57 56 -56 56 -56 -61 0 -61 1 0 113 0 113 62 0 62 0 -57 -58z"/>
<path d="M624 3698 c4 -40 9 -98 12 -128 3 -30 7 -80 9 -110 6 -86 15 -191 20
-235 2 -22 7 -74 10 -115 3 -41 7 -91 10 -110 2 -19 7 -73 10 -120 4 -47 8
-101 11 -120 2 -19 6 -69 9 -110 3 -41 7 -91 10 -110 2 -19 7 -73 10 -120 3
-47 8 -103 10 -125 5 -39 8 -83 20 -235 3 -41 8 -93 10 -115 5 -41 10 -102 20
-240 3 -44 8 -91 10 -105 2 -14 6 -65 10 -115 3 -49 8 -106 10 -125 2 -19 7
-69 10 -110 3 -41 7 -91 9 -110 3 -19 7 -71 10 -115 4 -44 9 -100 11 -125 2
-25 7 -76 10 -115 3 -38 7 -92 10 -120 3 -27 8 -81 11 -120 4 -38 8 -81 9 -95
2 -14 3 -35 4 -47 1 -14 7 -23 17 -23 8 0 133 -32 277 -70 144 -39 415 -111
602 -161 187 -50 347 -93 355 -95 8 -2 58 -15 111 -28 52 -14 105 -24 115 -22
11 2 304 82 650 176 346 95 656 179 689 188 71 18 78 23 80 59 4 55 16 209 20
238 2 17 7 66 10 110 3 44 8 98 10 120 3 22 7 76 11 120 3 44 7 96 9 115 2 19
6 73 9 119 4 46 8 98 11 115 2 17 7 65 10 106 8 105 15 188 19 235 3 22 7 85
11 140 4 55 9 102 10 105 2 3 7 48 10 100 4 52 8 111 10 130 2 19 6 74 10 121
4 48 8 100 10 115 2 16 6 67 10 114 3 47 8 105 10 130 6 56 12 124 20 220 3
41 8 98 10 125 3 28 7 76 10 108 9 101 15 171 20 222 2 28 7 86 10 130 4 44 8
96 10 115 2 19 7 70 10 113 l6 77 -1736 0 -1737 0 6 -72z"/>
</g>
</svg>
