<?xml version="1.0" encoding="utf-8"?>
<!-- Generator: Adobe Illustrator 16.0.0, SVG Export Plug-In . SVG Version: 6.00 Build 0)  -->
<!DOCTYPE svg PUBLIC "-//W3C//DTD SVG 1.1//EN" "http://www.w3.org/Graphics/SVG/1.1/DTD/svg11.dtd">
<svg version="1.1" id="Ebene_1" xmlns="http://www.w3.org/2000/svg" xmlns:xlink="http://www.w3.org/1999/xlink" x="0px" y="0px"
	 width="220.08px" height="220.08px" viewBox="0 0 220.08 220.08" enable-background="new 0 0 220.08 220.08" xml:space="preserve">
<g>
	
		<image overflow="visible" opacity="0.75" enable-background="new    " width="202" height="232" xlink:href="C54066A5.png"  transform="matrix(1 0 0 1 2.54 -5.4604)">
	</image>
	<g>
		<path fill="#FFFFFF" stroke="#000000" stroke-width="2" stroke-miterlimit="10" d="M49.041,190.373
			c-0.081-0.487-19.268-27.2-19.354-27.69c-5.421-30.871-20.851-68.885-17.913-71.544c2.984-2.702,31.612,3.458,33.14,23.074
			c0.928,11.901,5.542,26.189,7.433,29.75c0.604-4.199-1.287-127.985-0.124-130.62c1.162-2.634,3.704-10.261,8.694-10.261
			c4.989,0,9.027,6.845,9.535,9.926c6.475,39.361,4.585,89.813,9.126,90.714c2.155,0.427,5.028-69.817,10.254-79.621
			c1.14-2.138,1.414-5.012,4.289-5.012c3.712,0,4.409-0.413,7.912,3.87c7.5,15.704,11.42,89.368,11.42,89.368
			s7.894-57.461,13.44-70.572c2.59-3.806,5.795-4.805,7.479-4.805c1.683,0,5.291,2.317,8.676,5.812
			c5.238,39.872-0.664,72.571,4.144,71.926c4.807-0.646,4.932-6.951,15.156-38.027c10.778-37.711,18.278-20.58,19.473-13.916
			c1.762,9.837-6.035,64.186-6.035,64.186l-2.883,15.56c0,0-1.479,26.688-2.723,33.295c-0.931,4.946-0.468,11.573-0.177,14.594
			c0.099,1.015,0.177,13.996,0.177,13.996H51.541"/>
	</g>
</g>
<line fill="none" stroke="#000000" stroke-width="2" stroke-miterlimit="10" x1="52.415" y1="205.29" x2="49.041" y2="190.373"/>
</svg>
