{
  "asset": {
    "generator": "Khronos glTF Blender I/O v1.6.16",
    "version": "2.0"
  },
  "extensionsUsed": [
    "KHR_lights_punctual"
  ],
  "extensionsRequired": [
    "KHR_lights_punctual"
  ],
  "extensions": {
    "KHR_lights_punctual": {
      "lights": [
        {
          "color": [
            1,
            1,
            1
          ],
          "intensity": 1000,
          "type": "point",
          "name": "Light"
        }
      ]
    }
  },
  "scene": 0,
  "scenes": [
    {
      "name": "Scene",
      "nodes": [
        1,
        3,
        8
      ]
    }
  ],
  "nodes": [
    {
      "extensions": {
        "KHR_lights_punctual": {
          "light": 0
        }
      },
      "name": "Light_Orientation",
      "rotation": [
        -0.7071067690849304,
        0,
        0,
        0.7071067690849304
      ]
    },
    {
      "children": [
        0
      ],
      "name": "Light",
      "rotation": [
        0.16907575726509094,
        0.7558803558349609,
        -0.27217137813568115,
        0.570947527885437
      ],
      "translation": [
        2.1812264919281006,
        11.677701950073242,
        8.082435607910156
      ]
    },
    {
      "camera": 0,
      "name": "Camera_Orientation",
      "rotation": [
        -0.7071067690849304,
        0,
        0,
        0.7071067690849304
      ]
    },
    {
      "children": [
        2
      ],
      "name": "Camera",
      "rotation": [
        0.49329426884651184,
        -0.2977380156517029,
        0.18445900082588196,
        0.796233594417572
      ],
      "translation": [
        -6.817134380340576,
        8.009438514709473,
        8.412961959838867
      ]
    },
    {
      "name": "Thumb",
      "rotation": [
        -0.18891210854053497,
        0.26166391372680664,
        0.06309698522090912,
        0.9443849921226501
      ],
      "scale": [
        1.0000001192092896,
        1.0000001192092896,
        1.0000001192092896
      ],
      "translation": [
        -0.19459523260593414,
        0.15643441677093506,
        -0.09359436482191086
      ]
    },
    {
      "children": [
        4
      ],
      "name": "Hand",
      "rotation": [
        0.034474387764930725,
        -0.0003069088561460376,
        0.0010102824307978153,
        0.999405026435852
      ],
      "scale": [
        0.9999999403953552,
        0.9999999403953552,
        0.9999998807907104
      ],
      "translation": [
        -2.3361459433601794e-9,
        1.4481366872787476,
        4.70735717073012e-9
      ]
    },
    {
      "children": [
        5
      ],
      "name": "Elbow",
      "rotation": [
        -0.015045234933495522,
        -0.0006190967396833003,
        0.034860264509916306,
        0.9992787837982178
      ],
      "scale": [
        1,
        1.000000238418579,
        1
      ],
      "translation": [
        3.2156552975948216e-8,
        1.6615512371063232,
        1.414748496131324e-8
      ]
    },
    {
      "children": [
        6
      ],
      "name": "Shoulder",
      "rotation": [
        -0.7068313956260681,
        -0.01646859012544155,
        0.7070262432098389,
        0.015235716477036476
      ],
      "scale": [
        1,
        0.9999999403953552,
        1
      ],
      "translation": [
        -0.04926097020506859,
        4.267672061920166,
        -0.032034557312726974
      ]
    },
    {
      "children": [
        7
      ],
      "mesh": 0,
      "name": "ArmModel",
      "skin": 0
    }
  ],
  "cameras": [
    {
      "name": "Camera",
      "perspective": {
        "aspectRatio": 1.7777777777777777,
        "yfov": 0.39959652046304894,
        "zfar": 100,
        "znear": 0.10000000149011612
      },
      "type": "perspective"
    }
  ],
  "animations": [
    {
      "channels": [
        {
          "sampler": 0,
          "target": {
            "node": 7,
            "path": "translation"
          }
        },
        {
          "sampler": 1,
          "target": {
            "node": 7,
            "path": "rotation"
          }
        },
        {
          "sampler": 2,
          "target": {
            "node": 7,
            "path": "scale"
          }
        },
        {
          "sampler": 3,
          "target": {
            "node": 6,
            "path": "translation"
          }
        },
        {
          "sampler": 4,
          "target": {
            "node": 6,
            "path": "rotation"
          }
        },
        {
          "sampler": 5,
          "target": {
            "node": 6,
            "path": "scale"
          }
        },
        {
          "sampler": 6,
          "target": {
            "node": 5,
            "path": "translation"
          }
        },
        {
          "sampler": 7,
          "target": {
            "node": 5,
            "path": "rotation"
          }
        },
        {
          "sampler": 8,
          "target": {
            "node": 5,
            "path": "scale"
          }
        },
        {
          "sampler": 9,
          "target": {
            "node": 4,
            "path": "translation"
          }
        },
        {
          "sampler": 10,
          "target": {
            "node": 4,
            "path": "rotation"
          }
        },
        {
          "sampler": 11,
          "target": {
            "node": 4,
            "path": "scale"
          }
        }
      ],
      "name": "ArmLift",
      "samplers": [
        {
          "input": 7,
          "interpolation": "LINEAR",
          "output": 8
        },
        {
          "input": 7,
          "interpolation": "LINEAR",
          "output": 9
        },
        {
          "input": 7,
          "interpolation": "LINEAR",
          "output": 10
        },
        {
          "input": 7,
          "interpolation": "LINEAR",
          "output": 11
        },
        {
          "input": 7,
          "interpolation": "LINEAR",
          "output": 12
        },
        {
          "input": 7,
          "interpolation": "LINEAR",
          "output": 13
        },
        {
          "input": 7,
          "interpolation": "LINEAR",
          "output": 14
        },
        {
          "input": 7,
          "interpolation": "LINEAR",
          "output": 15
        },
        {
          "input": 7,
          "interpolation": "LINEAR",
          "output": 16
        },
        {
          "input": 7,
          "interpolation": "LINEAR",
          "output": 17
        },
        {
          "input": 7,
          "interpolation": "LINEAR",
          "output": 18
        },
        {
          "input": 7,
          "interpolation": "LINEAR",
          "output": 19
        }
      ]
    }
  ],
  "meshes": [
    {
      "name": "ArmMesh",
      "primitives": [
        {
          "attributes": {
            "POSITION": 0,
            "NORMAL": 1,
            "TEXCOORD_0": 2,
            "JOINTS_0": 3,
            "WEIGHTS_0": 4
          },
          "indices": 5
        }
      ]
    }
  ],
  "skins": [
    {
      "inverseBindMatrices": 6,
      "joints": [
        7,
        6,
        5,
        4
      ],
      "name": "ArmSkeleton"
    }
  ],
  "accessors": [
    {
      "bufferView": 0,
      "componentType": 5126,
      "count": 199,
      "max": [
        0.36660292744636536,
        4.636044502258301,
        0.32676219940185547
      ],
      "min": [
        -0.4415127635002136,
        0.03893411159515381,
        -0.5714035034179688
      ],
      "type": "VEC3"
    },
    {
      "bufferView": 1,
      "componentType": 5126,
      "count": 199,
      "type": "VEC3"
    },
    {
      "bufferView": 2,
      "componentType": 5126,
      "count": 199,
      "type": "VEC2"
    },
    {
      "bufferView": 3,
      "componentType": 5121,
      "count": 199,
      "type": "VEC4"
    },
    {
      "bufferView": 4,
      "componentType": 5126,
      "count": 199,
      "type": "VEC4"
    },
    {
      "bufferView": 5,
      "componentType": 5123,
      "count": 816,
      "type": "SCALAR"
    },
    {
      "bufferView": 6,
      "componentType": 5126,
      "count": 4,
      "type": "MAT4"
    },
    {
      "bufferView": 7,
      "componentType": 5126,
      "count": 61,
      "max": [
        2.5
      ],
      "min": [
        0
      ],
      "type": "SCALAR"
    },
    {
      "bufferView": 8,
      "componentType": 5126,
      "count": 61,
      "type": "VEC3"
    },
    {
      "bufferView": 9,
      "componentType": 5126,
      "count": 61,
      "type": "VEC4"
    },
    {
      "bufferView": 10,
      "componentType": 5126,
      "count": 61,
      "type": "VEC3"
    },
    {
      "bufferView": 11,
      "componentType": 5126,
      "count": 61,
      "type": "VEC3"
    },
    {
      "bufferView": 12,
      "componentType": 5126,
      "count": 61,
      "type": "VEC4"
    },
    {
      "bufferView": 13,
      "componentType": 5126,
      "count": 61,
      "type": "VEC3"
    },
    {
      "bufferView": 14,
      "componentType": 5126,
      "count": 61,
      "type": "VEC3"
    },
    {
      "bufferView": 15,
      "componentType": 5126,
      "count": 61,
      "type": "VEC4"
    },
    {
      "bufferView": 16,
      "componentType": 5126,
      "count": 61,
      "type": "VEC3"
    },
    {
      "bufferView": 17,
      "componentType": 5126,
      "count": 61,
      "type": "VEC3"
    },
    {
      "bufferView": 18,
      "componentType": 5126,
      "count": 61,
      "type": "VEC4"
    },
    {
      "bufferView": 19,
      "componentType": 5126,
      "count": 61,
      "type": "VEC3"
    }
  ],
  "bufferViews": [
    {
      "buffer": 0,
      "byteLength": 2388,
      "byteOffset": 0
    },
    {
      "buffer": 0,
      "byteLength": 2388,
      "byteOffset": 2388
    },
    {
      "buffer": 0,
      "byteLength": 1592,
      "byteOffset": 4776
    },
    {
      "buffer": 0,
      "byteLength": 796,
      "byteOffset": 6368
    },
    {
      "buffer": 0,
      "byteLength": 3184,
      "byteOffset": 7164
    },
    {
      "buffer": 0,
      "byteLength": 1632,
      "byteOffset": 10348
    },
    {
      "buffer": 0,
      "byteLength": 256,
      "byteOffset": 11980
    },
    {
      "buffer": 0,
      "byteLength": 244,
      "byteOffset": 12236
    },
    {
      "buffer": 0,
      "byteLength": 732,
      "byteOffset": 12480
    },
    {
      "buffer": 0,
      "byteLength": 976,
      "byteOffset": 13212
    },
    {
      "buffer": 0,
      "byteLength": 732,
      "byteOffset": 14188
    },
    {
      "buffer": 0,
      "byteLength": 732,
      "byteOffset": 14920
    },
    {
      "buffer": 0,
      "byteLength": 976,
      "byteOffset": 15652
    },
    {
      "buffer": 0,
      "byteLength": 732,
      "byteOffset": 16628
    },
    {
      "buffer": 0,
      "byteLength": 732,
      "byteOffset": 17360
    },
    {
      "buffer": 0,
      "byteLength": 976,
      "byteOffset": 18092
    },
    {
      "buffer": 0,
      "byteLength": 732,
      "byteOffset": 19068
    },
    {
      "buffer": 0,
      "byteLength": 732,
      "byteOffset": 19800
    },
    {
      "buffer": 0,
      "byteLength": 976,
      "byteOffset": 20532
    },
    {
      "buffer": 0,
      "byteLength": 732,
      "byteOffset": 21508
    }
  ],
  "buffers": [
    {
      "uri": "animated_arm_data.bin",
      "byteLength": 22240
    }
  ]
}