{
	"asset":{
		"generator":"Khronos glTF Blender I/O v3.5.30",
		"version":"2.0"
	},
	"scene":0,
	"scenes":[
		{
			"name":"Scene",
			"nodes":[
				5
			]
		}
	],
	"nodes":[
		{
			"name":"Thumb",
			"rotation":[
				-0.0630970224738121,
				0.18891218304634094,
				0.26166391372680664,
				0.9443849921226501
			],
			"scale":[
				0.9999999403953552,
				1.0000001192092896,
				1.0000001192092896
			],
			"translation":[
				0.09359434992074966,
				0.1945953071117401,
				0.15643435716629028
			]
		},
		{
			"children":[
				0
			],
			"name":"Hand",
			"rotation":[
				-0.48312392830848694,
				0.48180675506591797,
				0.517291247844696,
				0.5165882110595703
			],
			"scale":[
				0.9999997615814209,
				0.9999998211860657,
				0.9999999403953552
			],
			"translation":[
				-9.566029746110871e-09,
				1.4481359720230103,
				9.458744898438454e-11
			]
		},
		{
			"children":[
				1
			],
			"name":"Elbow",
			"rotation":[
				-0.015045231208205223,
				-0.0006189831765368581,
				0.034860264509916306,
				0.9992787837982178
			],
			"scale":[
				0.9999998807907104,
				0.9999999403953552,
				1
			],
			"translation":[
				-3.497825673548505e-08,
				1.6615526676177979,
				-1.5807017916813493e-09
			]
		},
		{
			"children":[
				2
			],
			"name":"Shoulder",
			"rotation":[
				-0.7068313956260681,
				-0.016468554735183716,
				0.7070262432098389,
				0.015235694125294685
			],
			"scale":[
				1,
				0.9999999403953552,
				1
			],
			"translation":[
				-0.04926097020506859,
				4.267672061920166,
				-0.032034557312726974
			]
		},
		{
			"mesh":0,
			"name":"ArmMesh",
			"skin":0
		},
		{
			"children":[
				4,
				3
			],
			"name":"ArmModel"
		}
	],
	"animations":[
		{
			"channels":[
				{
					"sampler":0,
					"target":{
						"node":3,
						"path":"translation"
					}
				},
				{
					"sampler":1,
					"target":{
						"node":3,
						"path":"rotation"
					}
				},
				{
					"sampler":2,
					"target":{
						"node":3,
						"path":"scale"
					}
				},
				{
					"sampler":3,
					"target":{
						"node":2,
						"path":"translation"
					}
				},
				{
					"sampler":4,
					"target":{
						"node":2,
						"path":"rotation"
					}
				},
				{
					"sampler":5,
					"target":{
						"node":2,
						"path":"scale"
					}
				},
				{
					"sampler":6,
					"target":{
						"node":1,
						"path":"translation"
					}
				},
				{
					"sampler":7,
					"target":{
						"node":1,
						"path":"rotation"
					}
				},
				{
					"sampler":8,
					"target":{
						"node":1,
						"path":"scale"
					}
				},
				{
					"sampler":9,
					"target":{
						"node":0,
						"path":"translation"
					}
				},
				{
					"sampler":10,
					"target":{
						"node":0,
						"path":"rotation"
					}
				},
				{
					"sampler":11,
					"target":{
						"node":0,
						"path":"scale"
					}
				}
			],
			"name":"ArmLift",
			"samplers":[
				{
					"input":7,
					"interpolation":"LINEAR",
					"output":8
				},
				{
					"input":7,
					"interpolation":"LINEAR",
					"output":9
				},
				{
					"input":7,
					"interpolation":"LINEAR",
					"output":10
				},
				{
					"input":7,
					"interpolation":"LINEAR",
					"output":11
				},
				{
					"input":7,
					"interpolation":"LINEAR",
					"output":12
				},
				{
					"input":7,
					"interpolation":"LINEAR",
					"output":13
				},
				{
					"input":7,
					"interpolation":"LINEAR",
					"output":14
				},
				{
					"input":7,
					"interpolation":"LINEAR",
					"output":15
				},
				{
					"input":7,
					"interpolation":"LINEAR",
					"output":16
				},
				{
					"input":7,
					"interpolation":"LINEAR",
					"output":17
				},
				{
					"input":7,
					"interpolation":"LINEAR",
					"output":18
				},
				{
					"input":7,
					"interpolation":"LINEAR",
					"output":19
				}
			]
		}
	],
	"meshes":[
		{
			"name":"ArmMesh",
			"primitives":[
				{
					"attributes":{
						"POSITION":0,
						"TEXCOORD_0":1,
						"NORMAL":2,
						"JOINTS_0":3,
						"WEIGHTS_0":4
					},
					"indices":5
				}
			]
		}
	],
	"skins":[
		{
			"inverseBindMatrices":6,
			"joints":[
				3,
				2,
				1,
				0
			],
			"name":"ArmModel"
		}
	],
	"accessors":[
		{
			"bufferView":0,
			"componentType":5126,
			"count":200,
			"max":[
				0.36660292744636536,
				4.636043548583984,
				0.32676219940185547
			],
			"min":[
				-0.44151273369789124,
				0.03893284127116203,
				-0.5714035034179688
			],
			"type":"VEC3"
		},
		{
			"bufferView":1,
			"componentType":5126,
			"count":200,
			"type":"VEC2"
		},
		{
			"bufferView":2,
			"componentType":5126,
			"count":200,
			"type":"VEC3"
		},
		{
			"bufferView":3,
			"componentType":5121,
			"count":200,
			"type":"VEC4"
		},
		{
			"bufferView":4,
			"componentType":5126,
			"count":200,
			"type":"VEC4"
		},
		{
			"bufferView":5,
			"componentType":5123,
			"count":816,
			"type":"SCALAR"
		},
		{
			"bufferView":6,
			"componentType":5126,
			"count":4,
			"type":"MAT4"
		},
		{
			"bufferView":7,
			"componentType":5126,
			"count":61,
			"max":[
				2.5
			],
			"min":[
				0
			],
			"type":"SCALAR"
		},
		{
			"bufferView":8,
			"componentType":5126,
			"count":61,
			"type":"VEC3"
		},
		{
			"bufferView":9,
			"componentType":5126,
			"count":61,
			"type":"VEC4"
		},
		{
			"bufferView":10,
			"componentType":5126,
			"count":61,
			"type":"VEC3"
		},
		{
			"bufferView":11,
			"componentType":5126,
			"count":61,
			"type":"VEC3"
		},
		{
			"bufferView":12,
			"componentType":5126,
			"count":61,
			"type":"VEC4"
		},
		{
			"bufferView":13,
			"componentType":5126,
			"count":61,
			"type":"VEC3"
		},
		{
			"bufferView":14,
			"componentType":5126,
			"count":61,
			"type":"VEC3"
		},
		{
			"bufferView":15,
			"componentType":5126,
			"count":61,
			"type":"VEC4"
		},
		{
			"bufferView":16,
			"componentType":5126,
			"count":61,
			"type":"VEC3"
		},
		{
			"bufferView":17,
			"componentType":5126,
			"count":61,
			"type":"VEC3"
		},
		{
			"bufferView":18,
			"componentType":5126,
			"count":61,
			"type":"VEC4"
		},
		{
			"bufferView":19,
			"componentType":5126,
			"count":61,
			"type":"VEC3"
		}
	],
	"bufferViews":[
		{
			"buffer":0,
			"byteLength":2400,
			"byteOffset":0,
			"target":34962
		},
		{
			"buffer":0,
			"byteLength":1600,
			"byteOffset":2400,
			"target":34962
		},
		{
			"buffer":0,
			"byteLength":2400,
			"byteOffset":4000,
			"target":34962
		},
		{
			"buffer":0,
			"byteLength":800,
			"byteOffset":6400,
			"target":34962
		},
		{
			"buffer":0,
			"byteLength":3200,
			"byteOffset":7200,
			"target":34962
		},
		{
			"buffer":0,
			"byteLength":1632,
			"byteOffset":10400,
			"target":34963
		},
		{
			"buffer":0,
			"byteLength":256,
			"byteOffset":12032
		},
		{
			"buffer":0,
			"byteLength":244,
			"byteOffset":12288
		},
		{
			"buffer":0,
			"byteLength":732,
			"byteOffset":12532
		},
		{
			"buffer":0,
			"byteLength":976,
			"byteOffset":13264
		},
		{
			"buffer":0,
			"byteLength":732,
			"byteOffset":14240
		},
		{
			"buffer":0,
			"byteLength":732,
			"byteOffset":14972
		},
		{
			"buffer":0,
			"byteLength":976,
			"byteOffset":15704
		},
		{
			"buffer":0,
			"byteLength":732,
			"byteOffset":16680
		},
		{
			"buffer":0,
			"byteLength":732,
			"byteOffset":17412
		},
		{
			"buffer":0,
			"byteLength":976,
			"byteOffset":18144
		},
		{
			"buffer":0,
			"byteLength":732,
			"byteOffset":19120
		},
		{
			"buffer":0,
			"byteLength":732,
			"byteOffset":19852
		},
		{
			"buffer":0,
			"byteLength":976,
			"byteOffset":20584
		},
		{
			"buffer":0,
			"byteLength":732,
			"byteOffset":21560
		}
	],
	"buffers":[
		{
			"byteLength":22292,
			"uri":"arm.bin"
		}
	]
}
