{
	"asset":{
		"generator":"Khronos glTF Blender I/O v3.5.30",
		"version":"2.0"
	},
	"scene":0,
	"scenes":[
		{
			"name":"Scene",
			"nodes":[
				6
			]
		}
	],
	"nodes":[
		{
			"name":"Thumb_end",
			"rotation":[
				-9.313223525708736e-10,
				6.332993507385254e-08,
				4.0978193283081055e-08,
				1
			],
			"scale":[
				1,
				1,
				0.9999999403953552
			],
			"translation":[
				-3.3527612686157227e-08,
				0.26664379239082336,
				-2.7008354663848877e-08
			]
		},
		{
			"children":[
				0
			],
			"name":"Thumb",
			"rotation":[
				-0.0630970299243927,
				0.18891243636608124,
				0.26166388392448425,
				0.9443849325180054
			],
			"scale":[
				0.9999998807907104,
				1,
				0.9999998807907104
			],
			"translation":[
				0.09359440952539444,
				0.1945953518152237,
				0.15643459558486938
			]
		},
		{
			"children":[
				1
			],
			"name":"Hand",
			"rotation":[
				-0.4831239581108093,
				0.4818067252635956,
				0.5172911882400513,
				0.5165883302688599
			],
			"scale":[
				1,
				1,
				1.0000001192092896
			],
			"translation":[
				-7.664353773861876e-08,
				1.4481347799301147,
				-3.289460437372327e-08
			]
		},
		{
			"children":[
				2
			],
			"name":"Elbow",
			"rotation":[
				-0.015045234933495522,
				-0.0006189800915308297,
				0.0348602794110775,
				0.9992787837982178
			],
			"scale":[
				0.9999998807907104,
				1,
				0.9999999403953552
			],
			"translation":[
				4.36375557910651e-09,
				1.661553144454956,
				-1.5097612049430609e-09
			]
		},
		{
			"children":[
				3
			],
			"name":"Shoulder",
			"rotation":[
				-0.7068314552307129,
				-0.016468549147248268,
				0.7070261836051941,
				0.015235695987939835
			],
			"scale":[
				1,
				0.9999999403953552,
				1
			],
			"translation":[
				-0.04926096647977829,
				4.267672061920166,
				-0.032034557312726974
			]
		},
		{
			"mesh":0,
			"name":"ArmMesh",
			"skin":0
		},
		{
			"children":[
				5,
				4
			],
			"name":"ArmModel"
		}
	],
	"animations":[
		{
			"channels":[
				{
					"sampler":0,
					"target":{
						"node":4,
						"path":"translation"
					}
				},
				{
					"sampler":1,
					"target":{
						"node":4,
						"path":"rotation"
					}
				},
				{
					"sampler":2,
					"target":{
						"node":4,
						"path":"scale"
					}
				},
				{
					"sampler":3,
					"target":{
						"node":3,
						"path":"translation"
					}
				},
				{
					"sampler":4,
					"target":{
						"node":3,
						"path":"rotation"
					}
				},
				{
					"sampler":5,
					"target":{
						"node":3,
						"path":"scale"
					}
				},
				{
					"sampler":6,
					"target":{
						"node":2,
						"path":"translation"
					}
				},
				{
					"sampler":7,
					"target":{
						"node":2,
						"path":"rotation"
					}
				},
				{
					"sampler":8,
					"target":{
						"node":2,
						"path":"scale"
					}
				},
				{
					"sampler":9,
					"target":{
						"node":1,
						"path":"translation"
					}
				},
				{
					"sampler":10,
					"target":{
						"node":1,
						"path":"rotation"
					}
				},
				{
					"sampler":11,
					"target":{
						"node":1,
						"path":"scale"
					}
				},
				{
					"sampler":12,
					"target":{
						"node":0,
						"path":"translation"
					}
				},
				{
					"sampler":13,
					"target":{
						"node":0,
						"path":"rotation"
					}
				},
				{
					"sampler":14,
					"target":{
						"node":0,
						"path":"scale"
					}
				},
				{
					"sampler":15,
					"target":{
						"node":6,
						"path":"translation"
					}
				},
				{
					"sampler":16,
					"target":{
						"node":6,
						"path":"rotation"
					}
				},
				{
					"sampler":17,
					"target":{
						"node":6,
						"path":"scale"
					}
				}
			],
			"name":"ArmModel|ArmModel|ArmLift_ArmModel",
			"samplers":[
				{
					"input":7,
					"interpolation":"LINEAR",
					"output":8
				},
				{
					"input":7,
					"interpolation":"LINEAR",
					"output":9
				},
				{
					"input":7,
					"interpolation":"LINEAR",
					"output":10
				},
				{
					"input":7,
					"interpolation":"LINEAR",
					"output":11
				},
				{
					"input":7,
					"interpolation":"LINEAR",
					"output":12
				},
				{
					"input":7,
					"interpolation":"LINEAR",
					"output":13
				},
				{
					"input":7,
					"interpolation":"LINEAR",
					"output":14
				},
				{
					"input":7,
					"interpolation":"LINEAR",
					"output":15
				},
				{
					"input":7,
					"interpolation":"LINEAR",
					"output":16
				},
				{
					"input":7,
					"interpolation":"LINEAR",
					"output":17
				},
				{
					"input":7,
					"interpolation":"LINEAR",
					"output":18
				},
				{
					"input":7,
					"interpolation":"LINEAR",
					"output":19
				},
				{
					"input":7,
					"interpolation":"LINEAR",
					"output":20
				},
				{
					"input":7,
					"interpolation":"LINEAR",
					"output":21
				},
				{
					"input":7,
					"interpolation":"LINEAR",
					"output":22
				},
				{
					"input":7,
					"interpolation":"LINEAR",
					"output":23
				},
				{
					"input":7,
					"interpolation":"LINEAR",
					"output":24
				},
				{
					"input":7,
					"interpolation":"LINEAR",
					"output":25
				}
			]
		}
	],
	"meshes":[
		{
			"name":"ArmMesh.001",
			"primitives":[
				{
					"attributes":{
						"POSITION":0,
						"TEXCOORD_0":1,
						"NORMAL":2,
						"JOINTS_0":3,
						"WEIGHTS_0":4
					},
					"indices":5
				}
			]
		}
	],
	"skins":[
		{
			"inverseBindMatrices":6,
			"joints":[
				4,
				3,
				2,
				1,
				0
			],
			"name":"ArmModel"
		}
	],
	"accessors":[
		{
			"bufferView":0,
			"componentType":5126,
			"count":200,
			"max":[
				0.36660289764404297,
				4.63604211807251,
				0.32676148414611816
			],
			"min":[
				-0.4415127635002136,
				0.03893284499645233,
				-0.571403980255127
			],
			"type":"VEC3"
		},
		{
			"bufferView":1,
			"componentType":5126,
			"count":200,
			"type":"VEC2"
		},
		{
			"bufferView":2,
			"componentType":5126,
			"count":200,
			"type":"VEC3"
		},
		{
			"bufferView":3,
			"componentType":5121,
			"count":200,
			"type":"VEC4"
		},
		{
			"bufferView":4,
			"componentType":5126,
			"count":200,
			"type":"VEC4"
		},
		{
			"bufferView":5,
			"componentType":5123,
			"count":816,
			"type":"SCALAR"
		},
		{
			"bufferView":6,
			"componentType":5126,
			"count":5,
			"type":"MAT4"
		},
		{
			"bufferView":7,
			"componentType":5126,
			"count":61,
			"max":[
				2.5416666666666665
			],
			"min":[
				0.041666666666666664
			],
			"type":"SCALAR"
		},
		{
			"bufferView":8,
			"componentType":5126,
			"count":61,
			"type":"VEC3"
		},
		{
			"bufferView":9,
			"componentType":5126,
			"count":61,
			"type":"VEC4"
		},
		{
			"bufferView":10,
			"componentType":5126,
			"count":61,
			"type":"VEC3"
		},
		{
			"bufferView":11,
			"componentType":5126,
			"count":61,
			"type":"VEC3"
		},
		{
			"bufferView":12,
			"componentType":5126,
			"count":61,
			"type":"VEC4"
		},
		{
			"bufferView":13,
			"componentType":5126,
			"count":61,
			"type":"VEC3"
		},
		{
			"bufferView":14,
			"componentType":5126,
			"count":61,
			"type":"VEC3"
		},
		{
			"bufferView":15,
			"componentType":5126,
			"count":61,
			"type":"VEC4"
		},
		{
			"bufferView":16,
			"componentType":5126,
			"count":61,
			"type":"VEC3"
		},
		{
			"bufferView":17,
			"componentType":5126,
			"count":61,
			"type":"VEC3"
		},
		{
			"bufferView":18,
			"componentType":5126,
			"count":61,
			"type":"VEC4"
		},
		{
			"bufferView":19,
			"componentType":5126,
			"count":61,
			"type":"VEC3"
		},
		{
			"bufferView":20,
			"componentType":5126,
			"count":61,
			"type":"VEC3"
		},
		{
			"bufferView":21,
			"componentType":5126,
			"count":61,
			"type":"VEC4"
		},
		{
			"bufferView":22,
			"componentType":5126,
			"count":61,
			"type":"VEC3"
		},
		{
			"bufferView":23,
			"componentType":5126,
			"count":61,
			"type":"VEC3"
		},
		{
			"bufferView":24,
			"componentType":5126,
			"count":61,
			"type":"VEC4"
		},
		{
			"bufferView":25,
			"componentType":5126,
			"count":61,
			"type":"VEC3"
		}
	],
	"bufferViews":[
		{
			"buffer":0,
			"byteLength":2400,
			"byteOffset":0,
			"target":34962
		},
		{
			"buffer":0,
			"byteLength":1600,
			"byteOffset":2400,
			"target":34962
		},
		{
			"buffer":0,
			"byteLength":2400,
			"byteOffset":4000,
			"target":34962
		},
		{
			"buffer":0,
			"byteLength":800,
			"byteOffset":6400,
			"target":34962
		},
		{
			"buffer":0,
			"byteLength":3200,
			"byteOffset":7200,
			"target":34962
		},
		{
			"buffer":0,
			"byteLength":1632,
			"byteOffset":10400,
			"target":34963
		},
		{
			"buffer":0,
			"byteLength":320,
			"byteOffset":12032
		},
		{
			"buffer":0,
			"byteLength":244,
			"byteOffset":12352
		},
		{
			"buffer":0,
			"byteLength":732,
			"byteOffset":12596
		},
		{
			"buffer":0,
			"byteLength":976,
			"byteOffset":13328
		},
		{
			"buffer":0,
			"byteLength":732,
			"byteOffset":14304
		},
		{
			"buffer":0,
			"byteLength":732,
			"byteOffset":15036
		},
		{
			"buffer":0,
			"byteLength":976,
			"byteOffset":15768
		},
		{
			"buffer":0,
			"byteLength":732,
			"byteOffset":16744
		},
		{
			"buffer":0,
			"byteLength":732,
			"byteOffset":17476
		},
		{
			"buffer":0,
			"byteLength":976,
			"byteOffset":18208
		},
		{
			"buffer":0,
			"byteLength":732,
			"byteOffset":19184
		},
		{
			"buffer":0,
			"byteLength":732,
			"byteOffset":19916
		},
		{
			"buffer":0,
			"byteLength":976,
			"byteOffset":20648
		},
		{
			"buffer":0,
			"byteLength":732,
			"byteOffset":21624
		},
		{
			"buffer":0,
			"byteLength":732,
			"byteOffset":22356
		},
		{
			"buffer":0,
			"byteLength":976,
			"byteOffset":23088
		},
		{
			"buffer":0,
			"byteLength":732,
			"byteOffset":24064
		},
		{
			"buffer":0,
			"byteLength":732,
			"byteOffset":24796
		},
		{
			"buffer":0,
			"byteLength":976,
			"byteOffset":25528
		},
		{
			"buffer":0,
			"byteLength":732,
			"byteOffset":26504
		}
	],
	"buffers":[
		{
			"byteLength":27236,
			"uri":"arm_from_fbx.bin"
		}
	]
}
