# Blender v3.3.0 OBJ File: ''
# www.blender.org
mtllib joystick.mtl
o Cylinder
v 0.000000 0.002881 -0.190484
v 0.000000 1.386531 -0.190484
v 0.037162 0.002881 -0.186824
v 0.037162 1.386531 -0.186824
v 0.072895 0.002881 -0.175984
v 0.072895 1.386531 -0.175984
v 0.105827 0.002881 -0.158382
v 0.105827 1.386531 -0.158382
v 0.134693 0.002881 -0.134693
v 0.134693 1.386531 -0.134693
v 0.158382 0.002881 -0.105827
v 0.158382 1.386531 -0.105827
v 0.175984 0.002881 -0.072895
v 0.175984 1.386531 -0.072895
v 0.186824 0.002881 -0.037162
v 0.186824 1.386531 -0.037162
v 0.190484 0.002881 0.000000
v 0.190484 1.386531 0.000000
v 0.186824 0.002881 0.037162
v 0.186824 1.386531 0.037162
v 0.175984 0.002881 0.072895
v 0.175984 1.386531 0.072895
v 0.158382 0.002881 0.105827
v 0.158382 1.386531 0.105827
v 0.134693 0.002881 0.134693
v 0.134693 1.386531 0.134693
v 0.105827 0.002881 0.158382
v 0.105827 1.386531 0.158382
v 0.072895 0.002881 0.175984
v 0.072895 1.386531 0.175984
v 0.037162 0.002881 0.186824
v 0.037162 1.386531 0.186824
v 0.000000 0.002881 0.190484
v 0.000000 1.386531 0.190484
v -0.037162 0.002881 0.186824
v -0.037161 1.386531 0.186824
v -0.072895 0.002881 0.175984
v -0.072895 1.386531 0.175984
v -0.105827 0.002881 0.158382
v -0.105827 1.386531 0.158382
v -0.134693 0.002881 0.134693
v -0.134693 1.386531 0.134693
v -0.158382 0.002881 0.105827
v -0.158382 1.386531 0.105827
v -0.175984 0.002881 0.072895
v -0.175984 1.386531 0.072895
v -0.186824 0.002881 0.037162
v -0.186824 1.386531 0.037162
v -0.190484 0.002881 0.000000
v -0.190484 1.386531 0.000000
v -0.186824 0.002881 -0.037162
v -0.186824 1.386531 -0.037162
v -0.175984 0.002881 -0.072895
v -0.175984 1.386531 -0.072895
v -0.158382 0.002881 -0.105827
v -0.158382 1.386531 -0.105827
v -0.134693 0.002881 -0.134693
v -0.134693 1.386531 -0.134693
v -0.105827 0.002881 -0.158382
v -0.105827 1.386531 -0.158382
v -0.072895 0.002881 -0.175984
v -0.072895 1.386531 -0.175984
v -0.037162 0.002881 -0.186824
v -0.037161 1.386531 -0.186824
v 0.138295 1.591347 -0.695254
v 0.000000 1.591347 -0.708875
v 0.271275 1.591347 -0.654915
v 0.393830 1.591347 -0.589408
v 0.501250 1.591347 -0.501250
v 0.589408 1.591347 -0.393830
v 0.654915 1.591347 -0.271275
v 0.695254 1.591347 -0.138295
v 0.708875 1.591347 -0.000000
v 0.695254 1.591347 0.138295
v 0.654915 1.591347 0.271275
v 0.589408 1.591347 0.393830
v 0.501250 1.591347 0.501250
v 0.393830 1.591347 0.589408
v 0.271275 1.591347 0.654915
v 0.138295 1.591347 0.695254
v 0.000000 1.591347 0.708875
v -0.138295 1.591347 0.695254
v -0.271275 1.591347 0.654915
v -0.393830 1.591347 0.589408
v -0.501250 1.591347 0.501250
v -0.589408 1.591347 0.393830
v -0.654915 1.591347 0.271275
v -0.695254 1.591347 0.138295
v -0.708875 1.591347 -0.000000
v -0.695254 1.591347 -0.138295
v -0.654915 1.591347 -0.271275
v -0.589408 1.591347 -0.393830
v -0.501250 1.591347 -0.501250
v -0.393830 1.591347 -0.589408
v -0.271275 1.591347 -0.654915
v -0.138295 1.591347 -0.695254
v 0.138295 1.741982 -0.695254
v 0.000000 1.741982 -0.708875
v 0.271275 1.741982 -0.654915
v 0.393830 1.741982 -0.589408
v 0.501250 1.741982 -0.501250
v 0.589408 1.741982 -0.393830
v 0.654915 1.741982 -0.271275
v 0.695254 1.741982 -0.138295
v 0.708875 1.741982 -0.000000
v 0.695254 1.741982 0.138295
v 0.654915 1.741982 0.271275
v 0.589408 1.741982 0.393830
v 0.501250 1.741982 0.501250
v 0.393830 1.741982 0.589408
v 0.271275 1.741982 0.654915
v 0.138295 1.741982 0.695254
v 0.000000 1.741982 0.708875
v -0.138295 1.741982 0.695254
v -0.271275 1.741982 0.654915
v -0.393830 1.741982 0.589408
v -0.501250 1.741982 0.501250
v -0.589408 1.741982 0.393830
v -0.654915 1.741982 0.271275
v -0.695254 1.741982 0.138295
v -0.708875 1.741982 -0.000000
v -0.695254 1.741982 -0.138295
v -0.654915 1.741982 -0.271275
v -0.589408 1.741982 -0.393830
v -0.501250 1.741982 -0.501250
v -0.393830 1.741982 -0.589408
v -0.271275 1.741982 -0.654915
v -0.138295 1.741982 -0.695254
v 0.107551 1.794591 -0.540695
v 0.000000 1.794591 -0.551287
v 0.210969 1.794591 -0.509323
v 0.306279 1.794591 -0.458379
v 0.389819 1.794591 -0.389819
v 0.458379 1.794591 -0.306279
v 0.509323 1.794591 -0.210969
v 0.540695 1.794591 -0.107551
v 0.551287 1.794591 -0.000000
v 0.540695 1.794591 0.107551
v 0.509323 1.794591 0.210969
v 0.458379 1.794591 0.306279
v 0.389819 1.794591 0.389819
v 0.306279 1.794591 0.458379
v 0.210969 1.794591 0.509323
v 0.107551 1.794591 0.540695
v 0.000000 1.794591 0.551287
v -0.107551 1.794591 0.540695
v -0.210968 1.794591 0.509323
v -0.306279 1.794591 0.458379
v -0.389819 1.794591 0.389819
v -0.458379 1.794591 0.306279
v -0.509323 1.794591 0.210969
v -0.540694 1.794591 0.107551
v -0.551287 1.794591 -0.000000
v -0.540694 1.794591 -0.107551
v -0.509323 1.794591 -0.210969
v -0.458379 1.794591 -0.306279
v -0.389819 1.794591 -0.389819
v -0.306279 1.794591 -0.458379
v -0.210968 1.794591 -0.509323
v -0.107551 1.794591 -0.540695
vt 1.000000 1.000000
vt 0.968750 0.500000
vt 1.000000 0.500000
vt 0.968750 1.000000
vt 0.937500 0.500000
vt 0.937500 1.000000
vt 0.906250 0.500000
vt 0.906250 1.000000
vt 0.875000 0.500000
vt 0.875000 1.000000
vt 0.843750 0.500000
vt 0.843750 1.000000
vt 0.812500 0.500000
vt 0.812500 1.000000
vt 0.781250 0.500000
vt 0.781250 1.000000
vt 0.750000 0.500000
vt 0.718750 1.000000
vt 0.718750 0.500000
vt 0.687500 1.000000
vt 0.687500 0.500000
vt 0.656250 0.500000
vt 0.656250 1.000000
vt 0.625000 0.500000
vt 0.625000 1.000000
vt 0.593750 0.500000
vt 0.593750 1.000000
vt 0.562500 0.500000
vt 0.531250 1.000000
vt 0.531250 0.500000
vt 0.500000 1.000000
vt 0.500000 0.500000
vt 0.468750 0.500000
vt 0.468750 1.000000
vt 0.437500 0.500000
vt 0.437500 1.000000
vt 0.406250 0.500000
vt 0.375000 1.000000
vt 0.375000 0.500000
vt 0.343750 0.500000
vt 0.343750 1.000000
vt 0.312500 0.500000
vt 0.312500 1.000000
vt 0.281250 0.500000
vt 0.281250 1.000000
vt 0.250000 0.500000
vt 0.250000 1.000000
vt 0.218750 0.500000
vt 0.218750 1.000000
vt 0.187500 0.500000
vt 0.187500 1.000000
vt 0.156250 0.500000
vt 0.156250 1.000000
vt 0.125000 0.500000
vt 0.125000 1.000000
vt 0.093750 0.500000
vt 0.093750 1.000000
vt 0.062500 0.500000
vt 0.343750 1.000000
vt 0.062500 1.000000
vt 0.031250 0.500000
vt 0.031250 1.000000
vt 0.000000 0.500000
vt 0.514612 0.203178
vt 0.550447 0.383337
vt 0.703178 0.485388
vt 0.375000 1.000000
vt 0.343750 1.000000
vt 0.062500 1.000000
vt 0.750000 1.000000
vt 0.781250 1.000000
vt 0.750000 1.000000
vt 0.468750 1.000000
vt 0.218750 1.000000
vt 0.187500 1.000000
vt 0.875000 1.000000
vt 0.593750 1.000000
vt 0.312500 1.000000
vt 0.031250 1.000000
vt 0.718750 1.000000
vt 0.437500 1.000000
vt 0.156250 1.000000
vt 0.843750 1.000000
vt 0.562500 1.000000
vt 0.562500 1.000000
vt 0.281250 1.000000
vt 1.000000 1.000000
vt 0.968750 1.000000
vt 0.000000 1.000000
vt 0.000000 1.000000
vt 0.687500 1.000000
vt 0.406250 1.000000
vt 0.406250 1.000000
vt 0.125000 1.000000
vt 0.812500 1.000000
vt 0.531250 1.000000
vt 0.250000 1.000000
vt 0.937500 1.000000
vt 0.656250 1.000000
vt 0.375000 1.000000
vt 0.093750 1.000000
vt 0.500000 1.000000
vt 0.906250 1.000000
vt 0.625000 1.000000
vt 0.281250 1.000000
vt 0.250000 1.000000
vt 0.250000 1.000000
vt 0.750000 1.000000
vt 0.312500 1.000000
vt 0.718750 1.000000
vt 0.687500 1.000000
vt 0.656250 1.000000
vt 0.218750 1.000000
vt 0.625000 1.000000
vt 0.187500 1.000000
vt 0.593750 1.000000
vt 0.156250 1.000000
vt 0.562500 1.000000
vt 0.968750 1.000000
vt 0.125000 1.000000
vt 0.531250 1.000000
vt 0.937500 1.000000
vt 0.093750 1.000000
vt 0.500000 1.000000
vt 0.906250 1.000000
vt 0.062500 1.000000
vt 0.468750 1.000000
vt 0.875000 1.000000
vt 0.031250 1.000000
vt 0.437500 1.000000
vt 0.843750 1.000000
vt 0.000000 1.000000
vt 0.406250 1.000000
vt 0.812500 1.000000
vt 0.781250 1.000000
vt 0.158156 0.028269
vt 0.471731 0.158156
vt 0.341844 0.471731
vt 0.656250 1.000000
vt 0.218750 1.000000
vt 0.625000 1.000000
vt 0.187500 1.000000
vt 0.593750 1.000000
vt 0.156250 1.000000
vt 0.562500 1.000000
vt 1.000000 1.000000
vt 0.968750 1.000000
vt 0.125000 1.000000
vt 0.531250 1.000000
vt 0.937500 1.000000
vt 0.093750 1.000000
vt 0.500000 1.000000
vt 0.906250 1.000000
vt 0.062500 1.000000
vt 0.468750 1.000000
vt 0.875000 1.000000
vt 0.031250 1.000000
vt 0.437500 1.000000
vt 0.843750 1.000000
vt 0.000000 1.000000
vt 0.406250 1.000000
vt 0.812500 1.000000
vt 0.375000 1.000000
vt 0.781250 1.000000
vt 0.343750 1.000000
vt 0.750000 1.000000
vt 0.312500 1.000000
vt 0.718750 1.000000
vt 0.281250 1.000000
vt 0.687500 1.000000
vt 0.750000 0.490000
vt 0.796822 0.485388
vt 0.841844 0.471731
vt 0.883337 0.449553
vt 0.919706 0.419706
vt 0.985388 0.296822
vt 0.949553 0.383337
vt 0.971731 0.341844
vt 0.990000 0.250000
vt 0.985388 0.203178
vt 0.971731 0.158156
vt 0.949553 0.116663
vt 0.919706 0.080294
vt 0.883337 0.050447
vt 0.841844 0.028269
vt 0.796822 0.014612
vt 0.750000 0.010000
vt 0.703178 0.014612
vt 0.658156 0.028269
vt 0.616663 0.050447
vt 0.580294 0.080294
vt 0.550447 0.116663
vt 0.528269 0.158156
vt 0.510000 0.250000
vt 0.514612 0.296822
vt 0.528269 0.341844
vt 0.580294 0.419706
vt 0.616663 0.449553
vt 0.658156 0.471731
vt 1.000000 1.000000
vt 0.296822 0.485388
vt 0.250000 0.490000
vt 0.203178 0.485388
vt 0.158156 0.471731
vt 0.116663 0.449553
vt 0.080294 0.419706
vt 0.050447 0.383337
vt 0.028269 0.341844
vt 0.014612 0.296822
vt 0.010000 0.250000
vt 0.014612 0.203178
vt 0.028269 0.158156
vt 0.050447 0.116663
vt 0.080294 0.080294
vt 0.116663 0.050447
vt 0.203178 0.014612
vt 0.250000 0.010000
vt 0.296822 0.014612
vt 0.341844 0.028269
vt 0.383337 0.050447
vt 0.419706 0.080294
vt 0.449553 0.116663
vt 0.485388 0.203178
vt 0.490000 0.250000
vt 0.485388 0.296822
vt 0.471731 0.341844
vt 0.449553 0.383337
vt 0.419706 0.419706
vt 0.383337 0.449553
vn 0.0980 -0.0000 -0.9952
vn 0.2903 -0.0000 -0.9569
vn 0.4714 0.0000 -0.8819
vn 0.6344 -0.0000 -0.7730
vn 0.7730 -0.0000 -0.6344
vn 0.8819 -0.0000 -0.4714
vn 0.9569 -0.0000 -0.2903
vn 0.9952 -0.0000 -0.0980
vn 0.9952 -0.0000 0.0980
vn 0.9569 -0.0000 0.2903
vn 0.8819 -0.0000 0.4714
vn 0.7730 -0.0000 0.6344
vn 0.6344 -0.0000 0.7730
vn 0.4714 -0.0000 0.8819
vn 0.2903 -0.0000 0.9569
vn 0.0980 -0.0000 0.9952
vn -0.0980 0.0000 0.9952
vn -0.2903 0.0000 0.9569
vn -0.4714 0.0000 0.8819
vn -0.6344 0.0000 0.7730
vn -0.7730 0.0000 0.6344
vn -0.8819 0.0000 0.4714
vn -0.9569 0.0000 0.2903
vn -0.9952 0.0000 0.0980
vn -0.9952 0.0000 -0.0980
vn -0.9569 0.0000 -0.2903
vn -0.8819 0.0000 -0.4714
vn -0.7730 0.0000 -0.6344
vn -0.6344 0.0000 -0.7730
vn -0.4714 0.0000 -0.8819
vn -0.2852 -0.9294 0.2341
vn -0.2903 0.0000 -0.9569
vn -0.0980 0.0000 -0.9952
vn -0.0000 -1.0000 -0.0000
vn -0.1739 -0.9294 -0.3254
vn 0.3672 -0.9294 -0.0362
vn -0.0362 -0.9294 0.3672
vn -0.3531 -0.9294 -0.1071
vn 0.2341 -0.9294 -0.2852
vn 0.2341 -0.9294 0.2852
vn -0.3254 -0.9294 0.1739
vn -0.1071 -0.9294 -0.3531
vn 0.3672 -0.9294 0.0362
vn -0.1071 -0.9294 0.3531
vn -0.3254 -0.9294 -0.1739
vn 0.2852 -0.9294 -0.2341
vn 0.1739 -0.9294 0.3254
vn -0.3531 -0.9294 0.1071
vn 0.0362 -0.9294 -0.3672
vn -0.0362 -0.9294 -0.3672
vn 0.3531 -0.9294 0.1071
vn -0.1739 -0.9294 0.3254
vn -0.2852 -0.9294 -0.2341
vn 0.3254 -0.9294 -0.1739
vn 0.1071 -0.9294 0.3531
vn -0.3672 -0.9294 0.0362
vn 0.1071 -0.9294 -0.3531
vn 0.3254 -0.9294 0.1739
vn -0.2341 -0.9294 0.2852
vn -0.2341 -0.9294 -0.2852
vn 0.3531 -0.9294 -0.1071
vn 0.0362 -0.9294 0.3672
vn -0.3672 -0.9294 -0.0362
vn 0.1739 -0.9294 -0.3254
vn 0.2852 -0.9294 0.2341
vn -0.3165 0.9481 0.0312
vn 0.0000 1.0000 0.0000
vn 0.2805 0.9481 0.1499
vn -0.3165 0.9481 -0.0312
vn 0.2458 0.9481 0.2018
vn -0.3043 0.9481 -0.0923
vn 0.2018 0.9481 0.2458
vn -0.2805 0.9481 -0.1499
vn 0.1499 0.9481 0.2805
vn 0.0312 0.9481 -0.3165
vn -0.2458 0.9481 -0.2018
vn 0.0923 0.9481 0.3043
vn 0.0923 0.9481 -0.3043
vn -0.2018 0.9481 -0.2458
vn 0.0312 0.9481 0.3165
vn 0.1499 0.9481 -0.2805
vn -0.1499 0.9481 -0.2805
vn -0.0312 0.9481 0.3165
vn 0.2018 0.9481 -0.2458
vn -0.0923 0.9481 -0.3043
vn -0.0923 0.9481 0.3043
vn 0.2458 0.9481 -0.2018
vn -0.0312 0.9481 -0.3165
vn -0.1499 0.9481 0.2805
vn 0.2805 0.9481 -0.1499
vn -0.2018 0.9481 0.2458
vn 0.3043 0.9481 -0.0923
vn -0.2458 0.9481 0.2018
vn 0.3165 0.9481 -0.0312
vn -0.2805 0.9481 0.1499
vn 0.3165 0.9481 0.0312
vn -0.3043 0.9481 0.0923
vn 0.3043 0.9481 0.0923
usemtl None
s off
f 2/1/1 3/2/1 1/3/1
f 4/4/2 5/5/2 3/2/2
f 6/6/3 7/7/3 5/5/3
f 8/8/4 9/9/4 7/7/4
f 10/10/5 11/11/5 9/9/5
f 12/12/6 13/13/6 11/11/6
f 14/14/7 15/15/7 13/13/7
f 16/16/8 17/17/8 15/15/8
f 17/17/9 20/18/9 19/19/9
f 19/19/10 22/20/10 21/21/10
f 22/20/11 23/22/11 21/21/11
f 24/23/12 25/24/12 23/22/12
f 26/25/13 27/26/13 25/24/13
f 28/27/14 29/28/14 27/26/14
f 29/28/15 32/29/15 31/30/15
f 31/30/16 34/31/16 33/32/16
f 34/31/17 35/33/17 33/32/17
f 36/34/18 37/35/18 35/33/18
f 38/36/19 39/37/19 37/35/19
f 39/37/20 42/38/20 41/39/20
f 42/38/21 43/40/21 41/39/21
f 44/41/22 45/42/22 43/40/22
f 46/43/23 47/44/23 45/42/23
f 48/45/24 49/46/24 47/44/24
f 50/47/25 51/48/25 49/46/25
f 52/49/26 53/50/26 51/48/26
f 54/51/27 55/52/27 53/50/27
f 56/53/28 57/54/28 55/52/28
f 58/55/29 59/56/29 57/54/29
f 60/57/30 61/58/30 59/56/30
f 42/38/31 86/59/31 44/41/31
f 62/60/32 63/61/32 61/58/32
f 64/62/33 1/63/33 63/61/33
f 47/64/34 55/65/34 63/66/34
f 86/59/21 117/67/21 118/68/21
f 60/57/35 95/69/35 62/60/35
f 18/70/36 72/71/36 73/72/36
f 34/31/37 82/73/37 36/34/37
f 54/51/38 90/74/38 91/75/38
f 8/8/39 69/76/39 10/10/39
f 26/25/40 78/77/40 28/27/40
f 46/43/41 86/59/41 87/78/41
f 62/60/42 96/79/42 64/62/42
f 18/70/43 74/80/43 20/18/43
f 38/36/44 82/73/44 83/81/44
f 54/51/45 92/82/45 56/53/45
f 10/10/46 70/83/46 12/12/46
f 28/27/47 79/84/47 30/85/47
f 46/43/48 88/86/48 48/45/48
f 4/4/49 66/87/49 65/88/49
f 64/62/50 66/89/50 2/90/50
f 20/18/51 75/91/51 22/20/51
f 38/36/52 84/92/52 40/93/52
f 58/55/53 92/82/53 93/94/53
f 14/14/54 70/83/54 71/95/54
f 32/29/55 79/84/55 80/96/55
f 50/47/56 88/86/56 89/97/56
f 4/4/57 67/98/57 6/6/57
f 22/20/58 76/99/58 24/23/58
f 42/38/59 84/92/59 85/100/59
f 58/55/60 94/101/60 60/57/60
f 16/16/61 71/95/61 72/71/61
f 32/29/62 81/102/62 34/31/62
f 50/47/63 90/74/63 52/49/63
f 8/8/64 67/98/64 68/103/64
f 24/23/65 77/104/65 26/25/65
f 120/105/66 153/106/66 121/107/66
f 72/71/8 105/108/8 73/72/8
f 87/78/22 118/68/22 119/109/22
f 73/72/9 106/110/9 74/80/9
f 88/86/23 119/109/23 120/105/23
f 75/91/10 106/110/10 107/111/10
f 89/97/24 120/105/24 121/107/24
f 76/99/11 107/111/11 108/112/11
f 89/97/25 122/113/25 90/74/25
f 77/104/12 108/112/12 109/114/12
f 90/74/26 123/115/26 91/75/26
f 78/77/13 109/114/13 110/116/13
f 91/75/27 124/117/27 92/82/27
f 78/77/14 111/118/14 79/84/14
f 66/87/1 97/119/1 65/88/1
f 92/82/28 125/120/28 93/94/28
f 80/96/15 111/118/15 112/121/15
f 65/88/2 99/122/2 67/98/2
f 93/94/29 126/123/29 94/101/29
f 81/102/16 112/121/16 113/124/16
f 68/103/3 99/122/3 100/125/3
f 94/101/30 127/126/30 95/69/30
f 82/73/17 113/124/17 114/127/17
f 68/103/4 101/128/4 69/76/4
f 95/69/32 128/129/32 96/79/32
f 82/73/18 115/130/18 83/81/18
f 69/76/5 102/131/5 70/83/5
f 96/79/33 98/132/33 66/89/33
f 83/81/19 116/133/19 84/92/19
f 70/83/6 103/134/6 71/95/6
f 85/100/20 116/133/20 117/67/20
f 71/95/7 104/135/7 72/71/7
f 147/136/67 139/137/67 131/138/67
f 107/111/68 140/139/68 108/112/68
f 122/113/69 153/106/69 154/140/69
f 108/112/70 141/141/70 109/114/70
f 122/113/71 155/142/71 123/115/71
f 109/114/72 142/143/72 110/116/72
f 123/115/73 156/144/73 124/117/73
f 111/118/74 142/143/74 143/145/74
f 97/119/75 130/146/75 129/147/75
f 125/120/76 156/144/76 157/148/76
f 111/118/77 144/149/77 112/121/77
f 99/122/78 129/147/78 131/150/78
f 126/123/79 157/148/79 158/151/79
f 112/121/80 145/152/80 113/124/80
f 99/122/81 132/153/81 100/125/81
f 127/126/82 158/151/82 159/154/82
f 114/127/83 145/152/83 146/155/83
f 101/128/84 132/153/84 133/156/84
f 127/126/85 160/157/85 128/129/85
f 115/130/86 146/155/86 147/158/86
f 102/131/87 133/156/87 134/159/87
f 98/132/88 160/157/88 130/160/88
f 115/130/89 148/161/89 116/133/89
f 102/131/90 135/162/90 103/134/90
f 116/133/91 149/163/91 117/67/91
f 104/135/92 135/162/92 136/164/92
f 117/67/93 150/165/93 118/68/93
f 104/135/94 137/166/94 105/108/94
f 118/68/95 151/167/95 119/109/95
f 106/110/96 137/166/96 138/168/96
f 120/105/97 151/167/97 152/169/97
f 106/110/98 139/170/98 107/111/98
f 2/1/1 4/4/1 3/2/1
f 4/4/2 6/6/2 5/5/2
f 6/6/3 8/8/3 7/7/3
f 8/8/4 10/10/4 9/9/4
f 10/10/5 12/12/5 11/11/5
f 12/12/6 14/14/6 13/13/6
f 14/14/7 16/16/7 15/15/7
f 16/16/8 18/70/8 17/17/8
f 17/17/9 18/70/9 20/18/9
f 19/19/10 20/18/10 22/20/10
f 22/20/11 24/23/11 23/22/11
f 24/23/12 26/25/12 25/24/12
f 26/25/13 28/27/13 27/26/13
f 28/27/14 30/85/14 29/28/14
f 29/28/15 30/85/15 32/29/15
f 31/30/16 32/29/16 34/31/16
f 34/31/17 36/34/17 35/33/17
f 36/34/18 38/36/18 37/35/18
f 38/36/19 40/93/19 39/37/19
f 39/37/20 40/93/20 42/38/20
f 42/38/21 44/41/21 43/40/21
f 44/41/22 46/43/22 45/42/22
f 46/43/23 48/45/23 47/44/23
f 48/45/24 50/47/24 49/46/24
f 50/47/25 52/49/25 51/48/25
f 52/49/26 54/51/26 53/50/26
f 54/51/27 56/53/27 55/52/27
f 56/53/28 58/55/28 57/54/28
f 58/55/29 60/57/29 59/56/29
f 60/57/30 62/60/30 61/58/30
f 42/38/31 85/100/31 86/59/31
f 62/60/32 64/62/32 63/61/32
f 64/62/33 2/90/33 1/63/33
f 63/66/34 1/171/34 3/172/34
f 3/172/34 5/173/34 63/66/34
f 5/173/34 7/174/34 63/66/34
f 7/174/34 9/175/34 15/176/34
f 9/175/34 11/177/34 15/176/34
f 11/177/34 13/178/34 15/176/34
f 15/176/34 17/179/34 19/180/34
f 19/180/34 21/181/34 15/176/34
f 21/181/34 23/182/34 15/176/34
f 23/182/34 25/183/34 27/184/34
f 27/184/34 29/185/34 23/182/34
f 29/185/34 31/186/34 23/182/34
f 31/186/34 33/187/34 35/188/34
f 35/188/34 37/189/34 39/190/34
f 39/190/34 41/191/34 43/192/34
f 43/192/34 45/193/34 47/64/34
f 47/64/34 49/194/34 51/195/34
f 51/195/34 53/196/34 55/65/34
f 55/65/34 57/197/34 59/198/34
f 59/198/34 61/199/34 63/66/34
f 31/186/34 35/188/34 39/190/34
f 39/190/34 43/192/34 47/64/34
f 47/64/34 51/195/34 55/65/34
f 55/65/34 59/198/34 63/66/34
f 63/66/34 7/174/34 31/186/34
f 7/174/34 15/176/34 31/186/34
f 15/176/34 23/182/34 31/186/34
f 31/186/34 39/190/34 63/66/34
f 39/190/34 47/64/34 63/66/34
f 86/59/21 85/100/21 117/67/21
f 60/57/35 94/101/35 95/69/35
f 18/70/36 16/16/36 72/71/36
f 34/31/37 81/102/37 82/73/37
f 54/51/38 52/49/38 90/74/38
f 8/8/39 68/103/39 69/76/39
f 26/25/40 77/104/40 78/77/40
f 46/43/41 44/41/41 86/59/41
f 62/60/42 95/69/42 96/79/42
f 18/70/43 73/72/43 74/80/43
f 38/36/44 36/34/44 82/73/44
f 54/51/45 91/75/45 92/82/45
f 10/10/46 69/76/46 70/83/46
f 28/27/47 78/77/47 79/84/47
f 46/43/48 87/78/48 88/86/48
f 4/4/49 2/1/49 66/87/49
f 64/62/50 96/79/50 66/89/50
f 20/18/51 74/80/51 75/91/51
f 38/36/52 83/81/52 84/92/52
f 58/55/53 56/53/53 92/82/53
f 14/14/54 12/12/54 70/83/54
f 32/29/55 30/85/55 79/84/55
f 50/47/56 48/45/56 88/86/56
f 4/4/57 65/88/57 67/98/57
f 22/20/58 75/91/58 76/99/58
f 42/38/59 40/93/59 84/92/59
f 58/55/60 93/94/60 94/101/60
f 16/16/61 14/14/61 71/95/61
f 32/29/62 80/96/62 81/102/62
f 50/47/63 89/97/63 90/74/63
f 8/8/64 6/6/64 67/98/64
f 24/23/65 76/99/65 77/104/65
f 120/105/66 152/169/66 153/106/66
f 72/71/8 104/135/8 105/108/8
f 87/78/22 86/59/22 118/68/22
f 73/72/9 105/108/9 106/110/9
f 88/86/23 87/78/23 119/109/23
f 75/91/10 74/80/10 106/110/10
f 89/97/24 88/86/24 120/105/24
f 76/99/11 75/91/11 107/111/11
f 89/97/25 121/107/25 122/113/25
f 77/104/12 76/99/12 108/112/12
f 90/74/26 122/113/26 123/115/26
f 78/77/13 77/104/13 109/114/13
f 91/75/27 123/115/27 124/117/27
f 78/77/14 110/116/14 111/118/14
f 66/87/1 98/200/1 97/119/1
f 92/82/28 124/117/28 125/120/28
f 80/96/15 79/84/15 111/118/15
f 65/88/2 97/119/2 99/122/2
f 93/94/29 125/120/29 126/123/29
f 81/102/16 80/96/16 112/121/16
f 68/103/3 67/98/3 99/122/3
f 94/101/30 126/123/30 127/126/30
f 82/73/17 81/102/17 113/124/17
f 68/103/4 100/125/4 101/128/4
f 95/69/32 127/126/32 128/129/32
f 82/73/18 114/127/18 115/130/18
f 69/76/5 101/128/5 102/131/5
f 96/79/33 128/129/33 98/132/33
f 83/81/19 115/130/19 116/133/19
f 70/83/6 102/131/6 103/134/6
f 85/100/20 84/92/20 116/133/20
f 71/95/7 103/134/7 104/135/7
f 131/138/67 129/201/67 130/202/67
f 130/202/67 160/203/67 159/204/67
f 159/204/67 158/205/67 157/206/67
f 157/206/67 156/207/67 159/204/67
f 156/207/67 155/208/67 159/204/67
f 155/208/67 154/209/67 153/210/67
f 153/210/67 152/211/67 151/212/67
f 151/212/67 150/213/67 147/136/67
f 150/213/67 149/214/67 147/136/67
f 149/214/67 148/215/67 147/136/67
f 147/136/67 146/216/67 145/217/67
f 145/217/67 144/218/67 143/219/67
f 143/219/67 142/220/67 141/221/67
f 141/221/67 140/222/67 143/219/67
f 140/222/67 139/137/67 143/219/67
f 139/137/67 138/223/67 137/224/67
f 137/224/67 136/225/67 135/226/67
f 135/226/67 134/227/67 131/138/67
f 134/227/67 133/228/67 131/138/67
f 133/228/67 132/229/67 131/138/67
f 131/138/67 130/202/67 159/204/67
f 155/208/67 153/210/67 147/136/67
f 153/210/67 151/212/67 147/136/67
f 147/136/67 145/217/67 143/219/67
f 139/137/67 137/224/67 131/138/67
f 137/224/67 135/226/67 131/138/67
f 131/138/67 159/204/67 155/208/67
f 147/136/67 143/219/67 139/137/67
f 131/138/67 155/208/67 147/136/67
f 107/111/68 139/170/68 140/139/68
f 122/113/69 121/107/69 153/106/69
f 108/112/70 140/139/70 141/141/70
f 122/113/71 154/140/71 155/142/71
f 109/114/72 141/141/72 142/143/72
f 123/115/73 155/142/73 156/144/73
f 111/118/74 110/116/74 142/143/74
f 97/119/75 98/200/75 130/146/75
f 125/120/76 124/117/76 156/144/76
f 111/118/77 143/145/77 144/149/77
f 99/122/78 97/119/78 129/147/78
f 126/123/79 125/120/79 157/148/79
f 112/121/80 144/149/80 145/152/80
f 99/122/81 131/150/81 132/153/81
f 127/126/82 126/123/82 158/151/82
f 114/127/83 113/124/83 145/152/83
f 101/128/84 100/125/84 132/153/84
f 127/126/85 159/154/85 160/157/85
f 115/130/86 114/127/86 146/155/86
f 102/131/87 101/128/87 133/156/87
f 98/132/88 128/129/88 160/157/88
f 115/130/89 147/158/89 148/161/89
f 102/131/90 134/159/90 135/162/90
f 116/133/91 148/161/91 149/163/91
f 104/135/92 103/134/92 135/162/92
f 117/67/93 149/163/93 150/165/93
f 104/135/94 136/164/94 137/166/94
f 118/68/95 150/165/95 151/167/95
f 106/110/96 105/108/96 137/166/96
f 120/105/97 119/109/97 151/167/97
f 106/110/98 138/168/98 139/170/98
