<?xml version="1.0" encoding="UTF-8" standalone="no"?><svg xmlns="http://www.w3.org/2000/svg" xmlns:xlink="http://www.w3.org/1999/xlink" contentScriptType="application/ecmascript" contentStyleType="text/css" height="1303px" preserveAspectRatio="none" style="width:1381px;height:1303px;" version="1.1" viewBox="0 0 1381 1303" width="1381px" zoomAndPan="magnify"><defs/><g><!--cluster FUDGE--><rect fill="#FFFFFF" height="1268" style="stroke: #000000; stroke-width: 1.5;" width="1348" x="22" y="24"/><text fill="#000000" font-family="sans-serif" font-size="14" font-weight="bold" lengthAdjust="spacingAndGlyphs" textLength="49" x="671.5" y="40.5332">FUDGE</text><!--cluster VectorEditor--><rect fill="#FFFFFF" height="1200" style="stroke: #000000; stroke-width: 1.5;" width="1300" x="46" y="68"/><text fill="#000000" font-family="sans-serif" font-size="14" font-weight="bold" lengthAdjust="spacingAndGlyphs" textLength="88" x="652" y="84.5332">VectorEditor</text><!--class UIHandler--><rect fill="#F8F8F8" height="117.1797" id="UIHandler" style="stroke: #383838; stroke-width: 1.5;" width="135" x="303.5" y="249.5"/><ellipse cx="339.65" cy="265.5" fill="#C2C2C2" rx="11" ry="11" style="stroke: #383838; stroke-width: 1.0;"/><path d="M342.4156,261.375 Q342.5719,261.1563 342.7594,261.0469 Q342.9469,260.9375 343.1656,260.9375 Q343.5406,260.9375 343.775,261.1953 Q344.0094,261.4531 344.0094,262.0625 L344.0094,263.5156 Q344.0094,264.125 343.775,264.3906 Q343.5406,264.6563 343.1656,264.6563 Q342.8219,264.6563 342.6188,264.4531 Q342.4156,264.2656 342.3063,263.75 Q342.2594,263.3906 342.0719,263.2031 Q341.7438,262.8281 341.1344,262.6094 Q340.525,262.3906 339.9,262.3906 Q339.1344,262.3906 338.5016,262.7188 Q337.8688,263.0469 337.3766,263.7969 Q336.8844,264.5469 336.8844,265.5781 L336.8844,266.6719 Q336.8844,267.9063 337.775,268.7266 Q338.6656,269.5469 340.2594,269.5469 Q341.1969,269.5469 341.8531,269.2969 Q342.2438,269.1406 342.6656,268.7031 Q342.9313,268.4375 343.0797,268.3594 Q343.2281,268.2813 343.4313,268.2813 Q343.7594,268.2813 344.0172,268.5391 Q344.275,268.7969 344.275,269.1406 Q344.275,269.4844 343.9313,269.8906 Q343.4313,270.4688 342.6344,270.7969 Q341.5563,271.25 340.2594,271.25 Q338.7438,271.25 337.5406,270.625 Q336.5563,270.125 335.8688,269.0547 Q335.1813,267.9844 335.1813,266.7031 L335.1813,265.5469 Q335.1813,264.2188 335.7984,263.0703 Q336.4156,261.9219 337.5094,261.3047 Q338.6031,260.6875 339.8375,260.6875 Q340.5719,260.6875 341.2203,260.8516 Q341.8688,261.0156 342.4156,261.375 Z "/><text fill="#000000" font-family="sans-serif" font-size="12" lengthAdjust="spacingAndGlyphs" textLength="56" x="358.35" y="270.4102">UIHandler</text><line style="stroke: #383838; stroke-width: 1.5;" x1="304.5" x2="437.5" y1="281.5" y2="281.5"/><line style="stroke: #383838; stroke-width: 1.5;" x1="304.5" x2="437.5" y1="289.5" y2="289.5"/><text fill="#000000" font-family="sans-serif" font-size="11" lengthAdjust="spacingAndGlyphs" textLength="48" x="309.5" y="304.9189">createUI()</text><text fill="#000000" font-family="sans-serif" font-size="11" lengthAdjust="spacingAndGlyphs" textLength="50" x="309.5" y="318.7549">updateUI()</text><text fill="#000000" font-family="sans-serif" font-size="11" lengthAdjust="spacingAndGlyphs" textLength="61" x="309.5" y="332.5908">deselectAll()</text><text fill="#000000" font-family="sans-serif" font-size="11" lengthAdjust="spacingAndGlyphs" textLength="123" x="309.5" y="346.4268">updateSelectedObjectUI()</text><text fill="#000000" font-family="sans-serif" font-size="11" lengthAdjust="spacingAndGlyphs" textLength="114" x="309.5" y="360.2627">updateSelectedObject()</text><!--class Shortcut--><rect fill="#F8F8F8" height="61.8359" id="Shortcut" style="stroke: #383838; stroke-width: 1.5;" width="83" x="433.5" y="655"/><ellipse cx="451.2" cy="671" fill="#B1B1B1" rx="11" ry="11" style="stroke: #383838; stroke-width: 1.0;"/><path d="M452.1531,667.6406 L452.1531,674.2969 L453.8719,674.2969 Q454.4813,674.2969 454.7469,674.5313 Q455.0125,674.7656 455.0125,675.1563 Q455.0125,675.5313 454.7469,675.7656 Q454.4813,676 453.8719,676 L448.7313,676 Q448.1219,676 447.8563,675.7656 Q447.5906,675.5313 447.5906,675.1406 Q447.5906,674.7656 447.8563,674.5313 Q448.1219,674.2969 448.7313,674.2969 L450.45,674.2969 L450.45,667.6406 L448.7313,667.6406 Q448.1219,667.6406 447.8563,667.4063 Q447.5906,667.1719 447.5906,666.7813 Q447.5906,666.4063 447.8563,666.1719 Q448.1219,665.9375 448.7313,665.9375 L453.8719,665.9375 Q454.4813,665.9375 454.7469,666.1719 Q455.0125,666.4063 455.0125,666.7813 Q455.0125,667.1719 454.7469,667.4063 Q454.4813,667.6406 453.8719,667.6406 L452.1531,667.6406 Z "/><text fill="#000000" font-family="sans-serif" font-size="12" font-style="italic" lengthAdjust="spacingAndGlyphs" textLength="45" x="465.8" y="675.9102">Shortcut</text><line style="stroke: #383838; stroke-width: 1.5;" x1="434.5" x2="515.5" y1="687" y2="687"/><text fill="#000000" font-family="sans-serif" font-size="11" lengthAdjust="spacingAndGlyphs" textLength="71" x="439.5" y="702.4189">keys: number[]</text><line style="stroke: #383838; stroke-width: 1.5;" x1="434.5" x2="515.5" y1="708.8359" y2="708.8359"/><!--class Editor--><rect fill="#F8F8F8" height="407.7344" id="Editor" style="stroke: #383838; stroke-width: 1.5;" width="218" x="474" y="104"/><ellipse cx="562.75" cy="120" fill="#C2C2C2" rx="11" ry="11" style="stroke: #383838; stroke-width: 1.0;"/><path d="M565.5156,115.875 Q565.6719,115.6563 565.8594,115.5469 Q566.0469,115.4375 566.2656,115.4375 Q566.6406,115.4375 566.875,115.6953 Q567.1094,115.9531 567.1094,116.5625 L567.1094,118.0156 Q567.1094,118.625 566.875,118.8906 Q566.6406,119.1563 566.2656,119.1563 Q565.9219,119.1563 565.7188,118.9531 Q565.5156,118.7656 565.4063,118.25 Q565.3594,117.8906 565.1719,117.7031 Q564.8438,117.3281 564.2344,117.1094 Q563.625,116.8906 563,116.8906 Q562.2344,116.8906 561.6016,117.2188 Q560.9688,117.5469 560.4766,118.2969 Q559.9844,119.0469 559.9844,120.0781 L559.9844,121.1719 Q559.9844,122.4063 560.875,123.2266 Q561.7656,124.0469 563.3594,124.0469 Q564.2969,124.0469 564.9531,123.7969 Q565.3438,123.6406 565.7656,123.2031 Q566.0313,122.9375 566.1797,122.8594 Q566.3281,122.7813 566.5313,122.7813 Q566.8594,122.7813 567.1172,123.0391 Q567.375,123.2969 567.375,123.6406 Q567.375,123.9844 567.0313,124.3906 Q566.5313,124.9688 565.7344,125.2969 Q564.6563,125.75 563.3594,125.75 Q561.8438,125.75 560.6406,125.125 Q559.6563,124.625 558.9688,123.5547 Q558.2813,122.4844 558.2813,121.2031 L558.2813,120.0469 Q558.2813,118.7188 558.8984,117.5703 Q559.5156,116.4219 560.6094,115.8047 Q561.7031,115.1875 562.9375,115.1875 Q563.6719,115.1875 564.3203,115.3516 Q564.9688,115.5156 565.5156,115.875 Z "/><text fill="#000000" font-family="sans-serif" font-size="12" lengthAdjust="spacingAndGlyphs" textLength="32" x="583.25" y="124.9102">Editor</text><line style="stroke: #383838; stroke-width: 1.5;" x1="475" x2="691" y1="136" y2="136"/><text fill="#000000" font-family="sans-serif" font-size="11" lengthAdjust="spacingAndGlyphs" textLength="75" x="480" y="151.4189">-sketch: Sketch</text><text fill="#000000" font-family="sans-serif" font-size="11" lengthAdjust="spacingAndGlyphs" textLength="138" x="480" y="165.2549">-selectedPaths: SketchPath[]</text><text fill="#000000" font-family="sans-serif" font-size="11" lengthAdjust="spacingAndGlyphs" textLength="142" x="480" y="179.0908">-selectedPoints: SketchPoint[]</text><text fill="#000000" font-family="sans-serif" font-size="11" lengthAdjust="spacingAndGlyphs" textLength="93" x="480" y="192.9268">+selectedTool: Tool</text><text fill="#000000" font-family="sans-serif" font-size="11" lengthAdjust="spacingAndGlyphs" textLength="147" x="480" y="206.7627">-canvas: HTMLCanvasElement</text><text fill="#000000" font-family="sans-serif" font-size="11" lengthAdjust="spacingAndGlyphs" textLength="162" x="480" y="220.5986">-crc: CanvasRenderingContext2D</text><text fill="#000000" font-family="sans-serif" font-size="11" lengthAdjust="spacingAndGlyphs" textLength="72" x="480" y="234.4346">-scale: number</text><text fill="#000000" font-family="sans-serif" font-size="11" lengthAdjust="spacingAndGlyphs" textLength="142" x="480" y="248.2705">-transformationPoint: Vector2</text><text fill="#000000" font-family="sans-serif" font-size="11" lengthAdjust="spacingAndGlyphs" text-decoration="underline" textLength="119" x="480" y="262.1064">+pressedKeys: number[]</text><text fill="#000000" font-family="sans-serif" font-size="11" lengthAdjust="spacingAndGlyphs" textLength="101" x="480" y="275.9424">-uiHandler: UIHandler</text><text fill="#000000" font-family="sans-serif" font-size="11" lengthAdjust="spacingAndGlyphs" textLength="165" x="480" y="289.7783">-showTangentsShortcut: Shortcut</text><text fill="#000000" font-family="sans-serif" font-size="11" lengthAdjust="spacingAndGlyphs" textLength="174" x="480" y="303.6143">-quadraticShapesShortcut: Shortcut</text><text fill="#000000" font-family="sans-serif" font-size="11" lengthAdjust="spacingAndGlyphs" textLength="123" x="480" y="317.4502">+tangentsActive: boolean</text><text fill="#000000" font-family="sans-serif" font-size="11" lengthAdjust="spacingAndGlyphs" textLength="120" x="480" y="331.2861">+changeHistory: sketch[]</text><line style="stroke: #383838; stroke-width: 1.5;" x1="475" x2="691" y1="337.7031" y2="337.7031"/><text fill="#000000" font-family="sans-serif" font-size="11" lengthAdjust="spacingAndGlyphs" textLength="60" x="480" y="353.1221">-redrawAll()</text><text fill="#000000" font-family="sans-serif" font-size="11" lengthAdjust="spacingAndGlyphs" textLength="72" x="480" y="366.958">-mousedown()</text><text fill="#000000" font-family="sans-serif" font-size="11" lengthAdjust="spacingAndGlyphs" textLength="70" x="480" y="380.7939">-mousemove()</text><text fill="#000000" font-family="sans-serif" font-size="11" lengthAdjust="spacingAndGlyphs" textLength="56" x="480" y="394.6299">-mouseup()</text><text fill="#000000" font-family="sans-serif" font-size="11" lengthAdjust="spacingAndGlyphs" textLength="57" x="480" y="408.4658">-keydown()</text><text fill="#000000" font-family="sans-serif" font-size="11" lengthAdjust="spacingAndGlyphs" textLength="41" x="480" y="422.3018">-keyup()</text><text fill="#000000" font-family="sans-serif" font-size="11" lengthAdjust="spacingAndGlyphs" textLength="38" x="480" y="436.1377">-scroll()</text><text fill="#000000" font-family="sans-serif" font-size="11" lengthAdjust="spacingAndGlyphs" textLength="38" x="480" y="449.9736">+undo()</text><text fill="#000000" font-family="sans-serif" font-size="11" lengthAdjust="spacingAndGlyphs" textLength="36" x="480" y="463.8096">+redo()</text><text fill="#000000" font-family="sans-serif" font-size="11" lengthAdjust="spacingAndGlyphs" textLength="121" x="480" y="477.6455">+saveToChangeHistory()</text><text fill="#000000" font-family="sans-serif" font-size="11" lengthAdjust="spacingAndGlyphs" textLength="0" x="483" y="491.4814"/><text fill="#000000" font-family="sans-serif" font-size="11" lengthAdjust="spacingAndGlyphs" text-decoration="underline" textLength="206" x="480" y="505.3174">+isShortcutPressed(_s: Shortcut): boolean</text><!--class ToolManager--><rect fill="#F8F8F8" height="75.6719" id="ToolManager" style="stroke: #383838; stroke-width: 1.5;" width="104" x="727" y="270"/><ellipse cx="742" cy="286" fill="#C2C2C2" rx="11" ry="11" style="stroke: #383838; stroke-width: 1.0;"/><path d="M744.7656,281.875 Q744.9219,281.6563 745.1094,281.5469 Q745.2969,281.4375 745.5156,281.4375 Q745.8906,281.4375 746.125,281.6953 Q746.3594,281.9531 746.3594,282.5625 L746.3594,284.0156 Q746.3594,284.625 746.125,284.8906 Q745.8906,285.1563 745.5156,285.1563 Q745.1719,285.1563 744.9688,284.9531 Q744.7656,284.7656 744.6563,284.25 Q744.6094,283.8906 744.4219,283.7031 Q744.0938,283.3281 743.4844,283.1094 Q742.875,282.8906 742.25,282.8906 Q741.4844,282.8906 740.8516,283.2188 Q740.2188,283.5469 739.7266,284.2969 Q739.2344,285.0469 739.2344,286.0781 L739.2344,287.1719 Q739.2344,288.4063 740.125,289.2266 Q741.0156,290.0469 742.6094,290.0469 Q743.5469,290.0469 744.2031,289.7969 Q744.5938,289.6406 745.0156,289.2031 Q745.2813,288.9375 745.4297,288.8594 Q745.5781,288.7813 745.7813,288.7813 Q746.1094,288.7813 746.3672,289.0391 Q746.625,289.2969 746.625,289.6406 Q746.625,289.9844 746.2813,290.3906 Q745.7813,290.9688 744.9844,291.2969 Q743.9063,291.75 742.6094,291.75 Q741.0938,291.75 739.8906,291.125 Q738.9063,290.625 738.2188,289.5547 Q737.5313,288.4844 737.5313,287.2031 L737.5313,286.0469 Q737.5313,284.7188 738.1484,283.5703 Q738.7656,282.4219 739.8594,281.8047 Q740.9531,281.1875 742.1875,281.1875 Q742.9219,281.1875 743.5703,281.3516 Q744.2188,281.5156 744.7656,281.875 Z "/><text fill="#000000" font-family="sans-serif" font-size="12" lengthAdjust="spacingAndGlyphs" textLength="72" x="756" y="290.9102">ToolManager</text><line style="stroke: #383838; stroke-width: 1.5;" x1="728" x2="830" y1="302" y2="302"/><text fill="#000000" font-family="sans-serif" font-size="11" lengthAdjust="spacingAndGlyphs" text-decoration="underline" textLength="55" x="733" y="317.4189">tools: Tool[]</text><line style="stroke: #383838; stroke-width: 1.5;" x1="728" x2="830" y1="323.8359" y2="323.8359"/><text fill="#000000" font-family="sans-serif" font-size="11" lengthAdjust="spacingAndGlyphs" text-decoration="underline" textLength="65" x="733" y="339.2549">registerTool()</text><!--class Tool--><rect fill="#F8F8F8" height="227.8672" id="Tool" style="stroke: #383838; stroke-width: 1.5;" width="258" x="552" y="572"/><ellipse cx="664.75" cy="588" fill="#CDCDCD" rx="11" ry="11" style="stroke: #383838; stroke-width: 1.0;"/><path d="M666.9375,589.7656 L662.7969,589.7656 L662.375,590.7969 L662.7969,590.7969 Q663.4063,590.7969 663.6719,591.0313 Q663.9375,591.2656 663.9375,591.6563 Q663.9375,592.0313 663.6719,592.2656 Q663.4063,592.5 662.7969,592.5 L660.5,592.5 Q659.8906,592.5 659.6328,592.2656 Q659.375,592.0313 659.375,591.6406 Q659.375,591.2656 659.6484,591.0234 Q659.9219,590.7813 660.5469,590.7969 L663.2188,584.1406 L662.1094,584.1406 Q661.5,584.1406 661.2344,583.9063 Q660.9688,583.6719 660.9688,583.2813 Q660.9688,582.9063 661.2344,582.6719 Q661.5,582.4375 662.1094,582.4375 L665.7813,582.4375 L669.1719,590.7969 Q669.7656,590.7969 669.9531,590.9375 Q670.3438,591.2031 670.3438,591.6563 Q670.3438,592.0313 670.0859,592.2656 Q669.8281,592.5 669.2188,592.5 L666.9219,592.5 Q666.3125,592.5 666.0469,592.2656 Q665.7813,592.0313 665.7813,591.6406 Q665.7813,591.2656 666.0469,591.0313 Q666.3125,590.7969 666.9219,590.7969 L667.3438,590.7969 L666.9375,589.7656 Z M666.2188,588.0625 L664.8594,584.6875 L663.4844,588.0625 L666.2188,588.0625 Z "/><text fill="#000000" font-family="sans-serif" font-size="12" font-style="italic" lengthAdjust="spacingAndGlyphs" textLength="24" x="685.25" y="592.9102">Tool</text><line style="stroke: #383838; stroke-width: 1.5;" x1="553" x2="809" y1="604" y2="604"/><text fill="#000000" font-family="sans-serif" font-size="11" lengthAdjust="spacingAndGlyphs" textLength="59" x="558" y="619.4189">name: string</text><text fill="#000000" font-family="sans-serif" font-size="11" lengthAdjust="spacingAndGlyphs" textLength="96" x="558" y="633.2549">subMenu: UIElement</text><text fill="#000000" font-family="sans-serif" font-size="11" lengthAdjust="spacingAndGlyphs" textLength="87" x="558" y="647.0908">shortcut: Shortcut</text><text fill="#000000" font-family="sans-serif" font-size="11" lengthAdjust="spacingAndGlyphs" textLength="106" x="558" y="660.9268">selectedSubTool: Tool</text><text fill="#000000" font-family="sans-serif" font-size="11" lengthAdjust="spacingAndGlyphs" textLength="76" x="558" y="674.7627">subTools: Tool[]</text><line style="stroke: #383838; stroke-width: 1.5;" x1="553" x2="809" y1="681.1797" y2="681.1797"/><text fill="#000000" font-family="sans-serif" font-size="11" lengthAdjust="spacingAndGlyphs" textLength="68" x="558" y="696.5986">mousedown()</text><text fill="#000000" font-family="sans-serif" font-size="11" lengthAdjust="spacingAndGlyphs" textLength="66" x="558" y="710.4346">mousemove()</text><text fill="#000000" font-family="sans-serif" font-size="11" lengthAdjust="spacingAndGlyphs" textLength="52" x="558" y="724.2705">mouseup()</text><text fill="#000000" font-family="sans-serif" font-size="11" lengthAdjust="spacingAndGlyphs" textLength="66" x="558" y="738.1064">mousescroll()</text><text fill="#000000" font-family="sans-serif" font-size="11" lengthAdjust="spacingAndGlyphs" textLength="141" x="558" y="751.9424">prequisitesFulfilled(): boolean</text><text fill="#000000" font-family="sans-serif" font-size="11" lengthAdjust="spacingAndGlyphs" textLength="246" x="558" y="765.7783">additionalDisplay(crc: CanvasRenderingContext2D)</text><text fill="#000000" font-family="sans-serif" font-size="11" lengthAdjust="spacingAndGlyphs" textLength="155" x="558" y="779.6143">addAdditionalSubMenuOptions()</text><text fill="#000000" font-family="sans-serif" font-size="11" lengthAdjust="spacingAndGlyphs" textLength="25" x="558" y="793.4502">exit()</text><!--class ToolSelect--><rect fill="#F8F8F8" height="117.1797" id="ToolSelect" style="stroke: #383838; stroke-width: 1.5;" width="151" x="62.5" y="922.5"/><ellipse cx="104.95" cy="938.5" fill="#C2C2C2" rx="11" ry="11" style="stroke: #383838; stroke-width: 1.0;"/><path d="M107.7156,934.375 Q107.8719,934.1563 108.0594,934.0469 Q108.2469,933.9375 108.4656,933.9375 Q108.8406,933.9375 109.075,934.1953 Q109.3094,934.4531 109.3094,935.0625 L109.3094,936.5156 Q109.3094,937.125 109.075,937.3906 Q108.8406,937.6563 108.4656,937.6563 Q108.1219,937.6563 107.9188,937.4531 Q107.7156,937.2656 107.6063,936.75 Q107.5594,936.3906 107.3719,936.2031 Q107.0438,935.8281 106.4344,935.6094 Q105.825,935.3906 105.2,935.3906 Q104.4344,935.3906 103.8016,935.7188 Q103.1688,936.0469 102.6766,936.7969 Q102.1844,937.5469 102.1844,938.5781 L102.1844,939.6719 Q102.1844,940.9063 103.075,941.7266 Q103.9656,942.5469 105.5594,942.5469 Q106.4969,942.5469 107.1531,942.2969 Q107.5438,942.1406 107.9656,941.7031 Q108.2313,941.4375 108.3797,941.3594 Q108.5281,941.2813 108.7313,941.2813 Q109.0594,941.2813 109.3172,941.5391 Q109.575,941.7969 109.575,942.1406 Q109.575,942.4844 109.2313,942.8906 Q108.7313,943.4688 107.9344,943.7969 Q106.8563,944.25 105.5594,944.25 Q104.0438,944.25 102.8406,943.625 Q101.8563,943.125 101.1688,942.0547 Q100.4813,940.9844 100.4813,939.7031 L100.4813,938.5469 Q100.4813,937.2188 101.0984,936.0703 Q101.7156,934.9219 102.8094,934.3047 Q103.9031,933.6875 105.1375,933.6875 Q105.8719,933.6875 106.5203,933.8516 Q107.1688,934.0156 107.7156,934.375 Z "/><text fill="#000000" font-family="sans-serif" font-size="12" lengthAdjust="spacingAndGlyphs" textLength="58" x="125.05" y="943.4102">ToolSelect</text><line style="stroke: #383838; stroke-width: 1.5;" x1="63.5" x2="212.5" y1="954.5" y2="954.5"/><text fill="#000000" font-family="sans-serif" font-size="11" lengthAdjust="spacingAndGlyphs" textLength="92" x="68.5" y="969.9189">boxSelect: boolean</text><text fill="#000000" font-family="sans-serif" font-size="11" lengthAdjust="spacingAndGlyphs" textLength="139" x="68.5" y="983.7549">multiSelectShortcut: Shortcut</text><text fill="#000000" font-family="sans-serif" font-size="11" lengthAdjust="spacingAndGlyphs" textLength="78" x="68.5" y="997.5908">move: MoveTool</text><text fill="#000000" font-family="sans-serif" font-size="11" lengthAdjust="spacingAndGlyphs" textLength="104" x="68.5" y="1011.4268">startPosition: Vector2</text><text fill="#000000" font-family="sans-serif" font-size="11" lengthAdjust="spacingAndGlyphs" textLength="117" x="68.5" y="1025.2627">currentPosition: Vector2</text><line style="stroke: #383838; stroke-width: 1.5;" x1="63.5" x2="212.5" y1="1031.6797" y2="1031.6797"/><!--class ToolMove--><rect fill="#F8F8F8" height="61.8359" id="ToolMove" style="stroke: #383838; stroke-width: 1.5;" width="140" x="65" y="1176"/><ellipse cx="105.2" cy="1192" fill="#C2C2C2" rx="11" ry="11" style="stroke: #383838; stroke-width: 1.0;"/><path d="M107.9656,1187.875 Q108.1219,1187.6563 108.3094,1187.5469 Q108.4969,1187.4375 108.7156,1187.4375 Q109.0906,1187.4375 109.325,1187.6953 Q109.5594,1187.9531 109.5594,1188.5625 L109.5594,1190.0156 Q109.5594,1190.625 109.325,1190.8906 Q109.0906,1191.1563 108.7156,1191.1563 Q108.3719,1191.1563 108.1688,1190.9531 Q107.9656,1190.7656 107.8563,1190.25 Q107.8094,1189.8906 107.6219,1189.7031 Q107.2938,1189.3281 106.6844,1189.1094 Q106.075,1188.8906 105.45,1188.8906 Q104.6844,1188.8906 104.0516,1189.2188 Q103.4188,1189.5469 102.9266,1190.2969 Q102.4344,1191.0469 102.4344,1192.0781 L102.4344,1193.1719 Q102.4344,1194.4063 103.325,1195.2266 Q104.2156,1196.0469 105.8094,1196.0469 Q106.7469,1196.0469 107.4031,1195.7969 Q107.7938,1195.6406 108.2156,1195.2031 Q108.4813,1194.9375 108.6297,1194.8594 Q108.7781,1194.7813 108.9813,1194.7813 Q109.3094,1194.7813 109.5672,1195.0391 Q109.825,1195.2969 109.825,1195.6406 Q109.825,1195.9844 109.4813,1196.3906 Q108.9813,1196.9688 108.1844,1197.2969 Q107.1063,1197.75 105.8094,1197.75 Q104.2938,1197.75 103.0906,1197.125 Q102.1063,1196.625 101.4188,1195.5547 Q100.7313,1194.4844 100.7313,1193.2031 L100.7313,1192.0469 Q100.7313,1190.7188 101.3484,1189.5703 Q101.9656,1188.4219 103.0594,1187.8047 Q104.1531,1187.1875 105.3875,1187.1875 Q106.1219,1187.1875 106.7703,1187.3516 Q107.4188,1187.5156 107.9656,1187.875 Z "/><text fill="#000000" font-family="sans-serif" font-size="12" lengthAdjust="spacingAndGlyphs" textLength="52" x="124.8" y="1196.9102">ToolMove</text><line style="stroke: #383838; stroke-width: 1.5;" x1="66" x2="204" y1="1208" y2="1208"/><text fill="#000000" font-family="sans-serif" font-size="11" lengthAdjust="spacingAndGlyphs" textLength="128" x="71" y="1223.4189">-previousPosition: Vector2</text><line style="stroke: #383838; stroke-width: 1.5;" x1="66" x2="204" y1="1229.8359" y2="1229.8359"/><!--class ToolTransform--><rect fill="#F8F8F8" height="241.7031" id="ToolTransform" style="stroke: #383838; stroke-width: 1.5;" width="165" x="286.5" y="860"/><ellipse cx="324.9" cy="876" fill="#C2C2C2" rx="11" ry="11" style="stroke: #383838; stroke-width: 1.0;"/><path d="M327.6656,871.875 Q327.8219,871.6563 328.0094,871.5469 Q328.1969,871.4375 328.4156,871.4375 Q328.7906,871.4375 329.025,871.6953 Q329.2594,871.9531 329.2594,872.5625 L329.2594,874.0156 Q329.2594,874.625 329.025,874.8906 Q328.7906,875.1563 328.4156,875.1563 Q328.0719,875.1563 327.8688,874.9531 Q327.6656,874.7656 327.5563,874.25 Q327.5094,873.8906 327.3219,873.7031 Q326.9938,873.3281 326.3844,873.1094 Q325.775,872.8906 325.15,872.8906 Q324.3844,872.8906 323.7516,873.2188 Q323.1188,873.5469 322.6266,874.2969 Q322.1344,875.0469 322.1344,876.0781 L322.1344,877.1719 Q322.1344,878.4063 323.025,879.2266 Q323.9156,880.0469 325.5094,880.0469 Q326.4469,880.0469 327.1031,879.7969 Q327.4938,879.6406 327.9156,879.2031 Q328.1813,878.9375 328.3297,878.8594 Q328.4781,878.7813 328.6813,878.7813 Q329.0094,878.7813 329.2672,879.0391 Q329.525,879.2969 329.525,879.6406 Q329.525,879.9844 329.1813,880.3906 Q328.6813,880.9688 327.8844,881.2969 Q326.8063,881.75 325.5094,881.75 Q323.9938,881.75 322.7906,881.125 Q321.8063,880.625 321.1188,879.5547 Q320.4313,878.4844 320.4313,877.2031 L320.4313,876.0469 Q320.4313,874.7188 321.0484,873.5703 Q321.6656,872.4219 322.7594,871.8047 Q323.8531,871.1875 325.0875,871.1875 Q325.8219,871.1875 326.4703,871.3516 Q327.1188,871.5156 327.6656,871.875 Z "/><text fill="#000000" font-family="sans-serif" font-size="12" lengthAdjust="spacingAndGlyphs" textLength="81" x="344.1" y="880.9102">ToolTransform</text><line style="stroke: #383838; stroke-width: 1.5;" x1="287.5" x2="450.5" y1="892" y2="892"/><text fill="#000000" font-family="sans-serif" font-size="11" lengthAdjust="spacingAndGlyphs" textLength="101" x="292.5" y="907.4189">scaleUp: SketchPoint</text><text fill="#000000" font-family="sans-serif" font-size="11" lengthAdjust="spacingAndGlyphs" textLength="117" x="292.5" y="921.2549">scaleDown: SketchPoint</text><text fill="#000000" font-family="sans-serif" font-size="11" lengthAdjust="spacingAndGlyphs" textLength="107" x="292.5" y="935.0908">scaleLeft: SketchPoint</text><text fill="#000000" font-family="sans-serif" font-size="11" lengthAdjust="spacingAndGlyphs" textLength="112" x="292.5" y="948.9268">scaleRight: SketchPoint</text><text fill="#000000" font-family="sans-serif" font-size="11" lengthAdjust="spacingAndGlyphs" textLength="120" x="292.5" y="962.7627">scaleUpLeft: SketchPoint</text><text fill="#000000" font-family="sans-serif" font-size="11" lengthAdjust="spacingAndGlyphs" textLength="125" x="292.5" y="976.5986">scaleUpRight: SketchPoint</text><text fill="#000000" font-family="sans-serif" font-size="11" lengthAdjust="spacingAndGlyphs" textLength="136" x="292.5" y="990.4346">scaleDownLeft: SketchPoint</text><text fill="#000000" font-family="sans-serif" font-size="11" lengthAdjust="spacingAndGlyphs" textLength="141" x="292.5" y="1004.2705">scaleDownRight: SketchPoint</text><text fill="#000000" font-family="sans-serif" font-size="11" lengthAdjust="spacingAndGlyphs" textLength="123" x="292.5" y="1018.1064">scalePoints: SketchPoint[]</text><text fill="#000000" font-family="sans-serif" font-size="11" lengthAdjust="spacingAndGlyphs" textLength="153" x="292.5" y="1031.9424">selectedScalePoint: SketchPoint</text><text fill="#000000" font-family="sans-serif" font-size="11" lengthAdjust="spacingAndGlyphs" textLength="0" x="295.5" y="1045.7783"/><text fill="#000000" font-family="sans-serif" font-size="11" lengthAdjust="spacingAndGlyphs" textLength="78" x="292.5" y="1059.6143">move: MoveTool</text><text fill="#000000" font-family="sans-serif" font-size="11" lengthAdjust="spacingAndGlyphs" textLength="85" x="292.5" y="1073.4502">rotate: RotateTool</text><text fill="#000000" font-family="sans-serif" font-size="11" lengthAdjust="spacingAndGlyphs" textLength="79" x="292.5" y="1087.2861">scale: ScaleTool</text><line style="stroke: #383838; stroke-width: 1.5;" x1="287.5" x2="450.5" y1="1093.7031" y2="1093.7031"/><!--class ToolScale--><rect fill="#F8F8F8" height="89.5078" id="ToolScale" style="stroke: #383838; stroke-width: 1.5;" width="140" x="240" y="1162"/><ellipse cx="278.85" cy="1178" fill="#C2C2C2" rx="11" ry="11" style="stroke: #383838; stroke-width: 1.0;"/><path d="M281.6156,1173.875 Q281.7719,1173.6563 281.9594,1173.5469 Q282.1469,1173.4375 282.3656,1173.4375 Q282.7406,1173.4375 282.975,1173.6953 Q283.2094,1173.9531 283.2094,1174.5625 L283.2094,1176.0156 Q283.2094,1176.625 282.975,1176.8906 Q282.7406,1177.1563 282.3656,1177.1563 Q282.0219,1177.1563 281.8188,1176.9531 Q281.6156,1176.7656 281.5063,1176.25 Q281.4594,1175.8906 281.2719,1175.7031 Q280.9438,1175.3281 280.3344,1175.1094 Q279.725,1174.8906 279.1,1174.8906 Q278.3344,1174.8906 277.7016,1175.2188 Q277.0688,1175.5469 276.5766,1176.2969 Q276.0844,1177.0469 276.0844,1178.0781 L276.0844,1179.1719 Q276.0844,1180.4063 276.975,1181.2266 Q277.8656,1182.0469 279.4594,1182.0469 Q280.3969,1182.0469 281.0531,1181.7969 Q281.4438,1181.6406 281.8656,1181.2031 Q282.1313,1180.9375 282.2797,1180.8594 Q282.4281,1180.7813 282.6313,1180.7813 Q282.9594,1180.7813 283.2172,1181.0391 Q283.475,1181.2969 283.475,1181.6406 Q283.475,1181.9844 283.1313,1182.3906 Q282.6313,1182.9688 281.8344,1183.2969 Q280.7563,1183.75 279.4594,1183.75 Q277.9438,1183.75 276.7406,1183.125 Q275.7563,1182.625 275.0688,1181.5547 Q274.3813,1180.4844 274.3813,1179.2031 L274.3813,1178.0469 Q274.3813,1176.7188 274.9984,1175.5703 Q275.6156,1174.4219 276.7094,1173.8047 Q277.8031,1173.1875 279.0375,1173.1875 Q279.7719,1173.1875 280.4203,1173.3516 Q281.0688,1173.5156 281.6156,1173.875 Z "/><text fill="#000000" font-family="sans-serif" font-size="12" lengthAdjust="spacingAndGlyphs" textLength="55" x="298.15" y="1182.9102">ToolScale</text><line style="stroke: #383838; stroke-width: 1.5;" x1="241" x2="379" y1="1194" y2="1194"/><text fill="#000000" font-family="sans-serif" font-size="11" lengthAdjust="spacingAndGlyphs" textLength="128" x="246" y="1209.4189">-previousPosition: Vector2</text><text fill="#000000" font-family="sans-serif" font-size="11" lengthAdjust="spacingAndGlyphs" textLength="120" x="246" y="1223.2549">-referencePoint: Vector2</text><text fill="#000000" font-family="sans-serif" font-size="11" lengthAdjust="spacingAndGlyphs" textLength="100" x="246" y="1237.0908">-mode: "x" | "y" | "xy"</text><line style="stroke: #383838; stroke-width: 1.5;" x1="241" x2="379" y1="1243.5078" y2="1243.5078"/><!--class ToolRotate--><rect fill="#F8F8F8" height="61.8359" id="ToolRotate" style="stroke: #383838; stroke-width: 1.5;" width="140" x="415" y="1176"/><ellipse cx="451.6" cy="1192" fill="#C2C2C2" rx="11" ry="11" style="stroke: #383838; stroke-width: 1.0;"/><path d="M454.3656,1187.875 Q454.5219,1187.6563 454.7094,1187.5469 Q454.8969,1187.4375 455.1156,1187.4375 Q455.4906,1187.4375 455.725,1187.6953 Q455.9594,1187.9531 455.9594,1188.5625 L455.9594,1190.0156 Q455.9594,1190.625 455.725,1190.8906 Q455.4906,1191.1563 455.1156,1191.1563 Q454.7719,1191.1563 454.5688,1190.9531 Q454.3656,1190.7656 454.2563,1190.25 Q454.2094,1189.8906 454.0219,1189.7031 Q453.6938,1189.3281 453.0844,1189.1094 Q452.475,1188.8906 451.85,1188.8906 Q451.0844,1188.8906 450.4516,1189.2188 Q449.8188,1189.5469 449.3266,1190.2969 Q448.8344,1191.0469 448.8344,1192.0781 L448.8344,1193.1719 Q448.8344,1194.4063 449.725,1195.2266 Q450.6156,1196.0469 452.2094,1196.0469 Q453.1469,1196.0469 453.8031,1195.7969 Q454.1938,1195.6406 454.6156,1195.2031 Q454.8813,1194.9375 455.0297,1194.8594 Q455.1781,1194.7813 455.3813,1194.7813 Q455.7094,1194.7813 455.9672,1195.0391 Q456.225,1195.2969 456.225,1195.6406 Q456.225,1195.9844 455.8813,1196.3906 Q455.3813,1196.9688 454.5844,1197.2969 Q453.5063,1197.75 452.2094,1197.75 Q450.6938,1197.75 449.4906,1197.125 Q448.5063,1196.625 447.8188,1195.5547 Q447.1313,1194.4844 447.1313,1193.2031 L447.1313,1192.0469 Q447.1313,1190.7188 447.7484,1189.5703 Q448.3656,1188.4219 449.4594,1187.8047 Q450.5531,1187.1875 451.7875,1187.1875 Q452.5219,1187.1875 453.1703,1187.3516 Q453.8188,1187.5156 454.3656,1187.875 Z "/><text fill="#000000" font-family="sans-serif" font-size="12" lengthAdjust="spacingAndGlyphs" textLength="60" x="470.4" y="1196.9102">ToolRotate</text><line style="stroke: #383838; stroke-width: 1.5;" x1="416" x2="554" y1="1208" y2="1208"/><text fill="#000000" font-family="sans-serif" font-size="11" lengthAdjust="spacingAndGlyphs" textLength="128" x="421" y="1223.4189">-previousPosition: Vector2</text><line style="stroke: #383838; stroke-width: 1.5;" x1="416" x2="554" y1="1229.8359" y2="1229.8359"/><!--class ToolCreateShapes--><rect fill="#F8F8F8" height="117.1797" id="ToolCreateShapes" style="stroke: #383838; stroke-width: 1.5;" width="136" x="561" y="922.5"/><ellipse cx="576" cy="938.5" fill="#C2C2C2" rx="11" ry="11" style="stroke: #383838; stroke-width: 1.0;"/><path d="M578.7656,934.375 Q578.9219,934.1563 579.1094,934.0469 Q579.2969,933.9375 579.5156,933.9375 Q579.8906,933.9375 580.125,934.1953 Q580.3594,934.4531 580.3594,935.0625 L580.3594,936.5156 Q580.3594,937.125 580.125,937.3906 Q579.8906,937.6563 579.5156,937.6563 Q579.1719,937.6563 578.9688,937.4531 Q578.7656,937.2656 578.6563,936.75 Q578.6094,936.3906 578.4219,936.2031 Q578.0938,935.8281 577.4844,935.6094 Q576.875,935.3906 576.25,935.3906 Q575.4844,935.3906 574.8516,935.7188 Q574.2188,936.0469 573.7266,936.7969 Q573.2344,937.5469 573.2344,938.5781 L573.2344,939.6719 Q573.2344,940.9063 574.125,941.7266 Q575.0156,942.5469 576.6094,942.5469 Q577.5469,942.5469 578.2031,942.2969 Q578.5938,942.1406 579.0156,941.7031 Q579.2813,941.4375 579.4297,941.3594 Q579.5781,941.2813 579.7813,941.2813 Q580.1094,941.2813 580.3672,941.5391 Q580.625,941.7969 580.625,942.1406 Q580.625,942.4844 580.2813,942.8906 Q579.7813,943.4688 578.9844,943.7969 Q577.9063,944.25 576.6094,944.25 Q575.0938,944.25 573.8906,943.625 Q572.9063,943.125 572.2188,942.0547 Q571.5313,940.9844 571.5313,939.7031 L571.5313,938.5469 Q571.5313,937.2188 572.1484,936.0703 Q572.7656,934.9219 573.8594,934.3047 Q574.9531,933.6875 576.1875,933.6875 Q576.9219,933.6875 577.5703,933.8516 Q578.2188,934.0156 578.7656,934.375 Z "/><text fill="#000000" font-family="sans-serif" font-size="12" lengthAdjust="spacingAndGlyphs" textLength="104" x="590" y="943.4102">ToolCreateShapes</text><line style="stroke: #383838; stroke-width: 1.5;" x1="562" x2="696" y1="954.5" y2="954.5"/><text fill="#000000" font-family="sans-serif" font-size="11" lengthAdjust="spacingAndGlyphs" textLength="108" x="567" y="969.9189">-startPosition: Vector2</text><text fill="#000000" font-family="sans-serif" font-size="11" lengthAdjust="spacingAndGlyphs" textLength="121" x="567" y="983.7549">-currentPosition: Vector2</text><text fill="#000000" font-family="sans-serif" font-size="11" lengthAdjust="spacingAndGlyphs" text-decoration="underline" textLength="83" x="567" y="997.5908">-shapes: Shape[]</text><text fill="#000000" font-family="sans-serif" font-size="11" lengthAdjust="spacingAndGlyphs" textLength="113" x="567" y="1011.4268">-selectedShape: Shape</text><line style="stroke: #383838; stroke-width: 1.5;" x1="562" x2="696" y1="1017.8438" y2="1017.8438"/><text fill="#000000" font-family="sans-serif" font-size="11" lengthAdjust="spacingAndGlyphs" text-decoration="underline" textLength="82" x="567" y="1033.2627">+registerShape()</text><!--class Shape--><rect fill="#F8F8F8" height="89.5078" id="Shape" style="stroke: #383838; stroke-width: 1.5;" width="309" x="590.5" y="1162"/><ellipse cx="722.75" cy="1178" fill="#B1B1B1" rx="11" ry="11" style="stroke: #383838; stroke-width: 1.0;"/><path d="M723.7031,1174.6406 L723.7031,1181.2969 L725.4219,1181.2969 Q726.0313,1181.2969 726.2969,1181.5313 Q726.5625,1181.7656 726.5625,1182.1563 Q726.5625,1182.5313 726.2969,1182.7656 Q726.0313,1183 725.4219,1183 L720.2813,1183 Q719.6719,1183 719.4063,1182.7656 Q719.1406,1182.5313 719.1406,1182.1406 Q719.1406,1181.7656 719.4063,1181.5313 Q719.6719,1181.2969 720.2813,1181.2969 L722,1181.2969 L722,1174.6406 L720.2813,1174.6406 Q719.6719,1174.6406 719.4063,1174.4063 Q719.1406,1174.1719 719.1406,1173.7813 Q719.1406,1173.4063 719.4063,1173.1719 Q719.6719,1172.9375 720.2813,1172.9375 L725.4219,1172.9375 Q726.0313,1172.9375 726.2969,1173.1719 Q726.5625,1173.4063 726.5625,1173.7813 Q726.5625,1174.1719 726.2969,1174.4063 Q726.0313,1174.6406 725.4219,1174.6406 L723.7031,1174.6406 Z "/><text fill="#000000" font-family="sans-serif" font-size="12" font-style="italic" lengthAdjust="spacingAndGlyphs" textLength="36" x="743.25" y="1182.9102">Shape</text><line style="stroke: #383838; stroke-width: 1.5;" x1="591.5" x2="898.5" y1="1194" y2="1194"/><text fill="#000000" font-family="sans-serif" font-size="11" lengthAdjust="spacingAndGlyphs" textLength="74" x="596.5" y="1209.4189">identifier: string</text><text fill="#000000" font-family="sans-serif" font-size="11" lengthAdjust="spacingAndGlyphs" textLength="134" x="596.5" y="1223.2549">additionalParameters:Object</text><line style="stroke: #383838; stroke-width: 1.5;" x1="591.5" x2="898.5" y1="1229.6719" y2="1229.6719"/><text fill="#000000" font-family="sans-serif" font-size="11" lengthAdjust="spacingAndGlyphs" textLength="297" x="596.5" y="1245.0908">createSketchPath(pos1: Vector2, pos2: Vector2): SketchPath</text><!--class ToolVertexManipulation--><rect fill="#F8F8F8" height="48" id="ToolVertexManipulation" style="stroke: #383838; stroke-width: 1.5;" width="159" x="769.5" y="957"/><ellipse cx="784.5" cy="973" fill="#C2C2C2" rx="11" ry="11" style="stroke: #383838; stroke-width: 1.0;"/><path d="M787.2656,968.875 Q787.4219,968.6563 787.6094,968.5469 Q787.7969,968.4375 788.0156,968.4375 Q788.3906,968.4375 788.625,968.6953 Q788.8594,968.9531 788.8594,969.5625 L788.8594,971.0156 Q788.8594,971.625 788.625,971.8906 Q788.3906,972.1563 788.0156,972.1563 Q787.6719,972.1563 787.4688,971.9531 Q787.2656,971.7656 787.1563,971.25 Q787.1094,970.8906 786.9219,970.7031 Q786.5938,970.3281 785.9844,970.1094 Q785.375,969.8906 784.75,969.8906 Q783.9844,969.8906 783.3516,970.2188 Q782.7188,970.5469 782.2266,971.2969 Q781.7344,972.0469 781.7344,973.0781 L781.7344,974.1719 Q781.7344,975.4063 782.625,976.2266 Q783.5156,977.0469 785.1094,977.0469 Q786.0469,977.0469 786.7031,976.7969 Q787.0938,976.6406 787.5156,976.2031 Q787.7813,975.9375 787.9297,975.8594 Q788.0781,975.7813 788.2813,975.7813 Q788.6094,975.7813 788.8672,976.0391 Q789.125,976.2969 789.125,976.6406 Q789.125,976.9844 788.7813,977.3906 Q788.2813,977.9688 787.4844,978.2969 Q786.4063,978.75 785.1094,978.75 Q783.5938,978.75 782.3906,978.125 Q781.4063,977.625 780.7188,976.5547 Q780.0313,975.4844 780.0313,974.2031 L780.0313,973.0469 Q780.0313,971.7188 780.6484,970.5703 Q781.2656,969.4219 782.3594,968.8047 Q783.4531,968.1875 784.6875,968.1875 Q785.4219,968.1875 786.0703,968.3516 Q786.7188,968.5156 787.2656,968.875 Z "/><text fill="#000000" font-family="sans-serif" font-size="12" lengthAdjust="spacingAndGlyphs" textLength="127" x="798.5" y="977.9102">ToolVertexManipulation</text><line style="stroke: #383838; stroke-width: 1.5;" x1="770.5" x2="927.5" y1="989" y2="989"/><line style="stroke: #383838; stroke-width: 1.5;" x1="770.5" x2="927.5" y1="997" y2="997"/><!--class ToolAddVertex--><rect fill="#F8F8F8" height="48" id="ToolAddVertex" style="stroke: #383838; stroke-width: 1.5;" width="110" x="935" y="1183"/><ellipse cx="950" cy="1199" fill="#C2C2C2" rx="11" ry="11" style="stroke: #383838; stroke-width: 1.0;"/><path d="M952.7656,1194.875 Q952.9219,1194.6563 953.1094,1194.5469 Q953.2969,1194.4375 953.5156,1194.4375 Q953.8906,1194.4375 954.125,1194.6953 Q954.3594,1194.9531 954.3594,1195.5625 L954.3594,1197.0156 Q954.3594,1197.625 954.125,1197.8906 Q953.8906,1198.1563 953.5156,1198.1563 Q953.1719,1198.1563 952.9688,1197.9531 Q952.7656,1197.7656 952.6563,1197.25 Q952.6094,1196.8906 952.4219,1196.7031 Q952.0938,1196.3281 951.4844,1196.1094 Q950.875,1195.8906 950.25,1195.8906 Q949.4844,1195.8906 948.8516,1196.2188 Q948.2188,1196.5469 947.7266,1197.2969 Q947.2344,1198.0469 947.2344,1199.0781 L947.2344,1200.1719 Q947.2344,1201.4063 948.125,1202.2266 Q949.0156,1203.0469 950.6094,1203.0469 Q951.5469,1203.0469 952.2031,1202.7969 Q952.5938,1202.6406 953.0156,1202.2031 Q953.2813,1201.9375 953.4297,1201.8594 Q953.5781,1201.7813 953.7813,1201.7813 Q954.1094,1201.7813 954.3672,1202.0391 Q954.625,1202.2969 954.625,1202.6406 Q954.625,1202.9844 954.2813,1203.3906 Q953.7813,1203.9688 952.9844,1204.2969 Q951.9063,1204.75 950.6094,1204.75 Q949.0938,1204.75 947.8906,1204.125 Q946.9063,1203.625 946.2188,1202.5547 Q945.5313,1201.4844 945.5313,1200.2031 L945.5313,1199.0469 Q945.5313,1197.7188 946.1484,1196.5703 Q946.7656,1195.4219 947.8594,1194.8047 Q948.9531,1194.1875 950.1875,1194.1875 Q950.9219,1194.1875 951.5703,1194.3516 Q952.2188,1194.5156 952.7656,1194.875 Z "/><text fill="#000000" font-family="sans-serif" font-size="12" lengthAdjust="spacingAndGlyphs" textLength="78" x="964" y="1203.9102">ToolAddVertex</text><line style="stroke: #383838; stroke-width: 1.5;" x1="936" x2="1044" y1="1215" y2="1215"/><line style="stroke: #383838; stroke-width: 1.5;" x1="936" x2="1044" y1="1223" y2="1223"/><!--class ToolNewPath--><rect fill="#F8F8F8" height="61.8359" id="ToolNewPath" style="stroke: #383838; stroke-width: 1.5;" width="122" x="1080" y="1176"/><ellipse cx="1102.2" cy="1192" fill="#C2C2C2" rx="11" ry="11" style="stroke: #383838; stroke-width: 1.0;"/><path d="M1104.9656,1187.875 Q1105.1219,1187.6563 1105.3094,1187.5469 Q1105.4969,1187.4375 1105.7156,1187.4375 Q1106.0906,1187.4375 1106.325,1187.6953 Q1106.5594,1187.9531 1106.5594,1188.5625 L1106.5594,1190.0156 Q1106.5594,1190.625 1106.325,1190.8906 Q1106.0906,1191.1563 1105.7156,1191.1563 Q1105.3719,1191.1563 1105.1688,1190.9531 Q1104.9656,1190.7656 1104.8563,1190.25 Q1104.8094,1189.8906 1104.6219,1189.7031 Q1104.2938,1189.3281 1103.6844,1189.1094 Q1103.075,1188.8906 1102.45,1188.8906 Q1101.6844,1188.8906 1101.0516,1189.2188 Q1100.4188,1189.5469 1099.9266,1190.2969 Q1099.4344,1191.0469 1099.4344,1192.0781 L1099.4344,1193.1719 Q1099.4344,1194.4063 1100.325,1195.2266 Q1101.2156,1196.0469 1102.8094,1196.0469 Q1103.7469,1196.0469 1104.4031,1195.7969 Q1104.7938,1195.6406 1105.2156,1195.2031 Q1105.4813,1194.9375 1105.6297,1194.8594 Q1105.7781,1194.7813 1105.9813,1194.7813 Q1106.3094,1194.7813 1106.5672,1195.0391 Q1106.825,1195.2969 1106.825,1195.6406 Q1106.825,1195.9844 1106.4813,1196.3906 Q1105.9813,1196.9688 1105.1844,1197.2969 Q1104.1063,1197.75 1102.8094,1197.75 Q1101.2938,1197.75 1100.0906,1197.125 Q1099.1063,1196.625 1098.4188,1195.5547 Q1097.7313,1194.4844 1097.7313,1193.2031 L1097.7313,1192.0469 Q1097.7313,1190.7188 1098.3484,1189.5703 Q1098.9656,1188.4219 1100.0594,1187.8047 Q1101.1531,1187.1875 1102.3875,1187.1875 Q1103.1219,1187.1875 1103.7703,1187.3516 Q1104.4188,1187.5156 1104.9656,1187.875 Z "/><text fill="#000000" font-family="sans-serif" font-size="12" lengthAdjust="spacingAndGlyphs" textLength="74" x="1117.8" y="1196.9102">ToolNewPath</text><line style="stroke: #383838; stroke-width: 1.5;" x1="1081" x2="1201" y1="1208" y2="1208"/><text fill="#000000" font-family="sans-serif" font-size="11" lengthAdjust="spacingAndGlyphs" textLength="110" x="1086" y="1223.4189">-newPath: SketchPath;</text><line style="stroke: #383838; stroke-width: 1.5;" x1="1081" x2="1201" y1="1229.8359" y2="1229.8359"/><!--class ToolCombine--><rect fill="#F8F8F8" height="48" id="ToolCombine" style="stroke: #383838; stroke-width: 1.5;" width="107" x="1001.5" y="957"/><ellipse cx="1016.5" cy="973" fill="#C2C2C2" rx="11" ry="11" style="stroke: #383838; stroke-width: 1.0;"/><path d="M1019.2656,968.875 Q1019.4219,968.6563 1019.6094,968.5469 Q1019.7969,968.4375 1020.0156,968.4375 Q1020.3906,968.4375 1020.625,968.6953 Q1020.8594,968.9531 1020.8594,969.5625 L1020.8594,971.0156 Q1020.8594,971.625 1020.625,971.8906 Q1020.3906,972.1563 1020.0156,972.1563 Q1019.6719,972.1563 1019.4688,971.9531 Q1019.2656,971.7656 1019.1563,971.25 Q1019.1094,970.8906 1018.9219,970.7031 Q1018.5938,970.3281 1017.9844,970.1094 Q1017.375,969.8906 1016.75,969.8906 Q1015.9844,969.8906 1015.3516,970.2188 Q1014.7188,970.5469 1014.2266,971.2969 Q1013.7344,972.0469 1013.7344,973.0781 L1013.7344,974.1719 Q1013.7344,975.4063 1014.625,976.2266 Q1015.5156,977.0469 1017.1094,977.0469 Q1018.0469,977.0469 1018.7031,976.7969 Q1019.0938,976.6406 1019.5156,976.2031 Q1019.7813,975.9375 1019.9297,975.8594 Q1020.0781,975.7813 1020.2813,975.7813 Q1020.6094,975.7813 1020.8672,976.0391 Q1021.125,976.2969 1021.125,976.6406 Q1021.125,976.9844 1020.7813,977.3906 Q1020.2813,977.9688 1019.4844,978.2969 Q1018.4063,978.75 1017.1094,978.75 Q1015.5938,978.75 1014.3906,978.125 Q1013.4063,977.625 1012.7188,976.5547 Q1012.0313,975.4844 1012.0313,974.2031 L1012.0313,973.0469 Q1012.0313,971.7188 1012.6484,970.5703 Q1013.2656,969.4219 1014.3594,968.8047 Q1015.4531,968.1875 1016.6875,968.1875 Q1017.4219,968.1875 1018.0703,968.3516 Q1018.7188,968.5156 1019.2656,968.875 Z "/><text fill="#000000" font-family="sans-serif" font-size="12" lengthAdjust="spacingAndGlyphs" textLength="75" x="1030.5" y="977.9102">ToolCombine</text><line style="stroke: #383838; stroke-width: 1.5;" x1="1002.5" x2="1107.5" y1="989" y2="989"/><line style="stroke: #383838; stroke-width: 1.5;" x1="1002.5" x2="1107.5" y1="997" y2="997"/><!--class ToolAlign--><rect fill="#F8F8F8" height="61.8359" id="ToolAlign" style="stroke: #383838; stroke-width: 1.5;" width="141" x="1143.5" y="950"/><ellipse cx="1184.6" cy="966" fill="#C2C2C2" rx="11" ry="11" style="stroke: #383838; stroke-width: 1.0;"/><path d="M1187.3656,961.875 Q1187.5219,961.6563 1187.7094,961.5469 Q1187.8969,961.4375 1188.1156,961.4375 Q1188.4906,961.4375 1188.725,961.6953 Q1188.9594,961.9531 1188.9594,962.5625 L1188.9594,964.0156 Q1188.9594,964.625 1188.725,964.8906 Q1188.4906,965.1563 1188.1156,965.1563 Q1187.7719,965.1563 1187.5688,964.9531 Q1187.3656,964.7656 1187.2563,964.25 Q1187.2094,963.8906 1187.0219,963.7031 Q1186.6938,963.3281 1186.0844,963.1094 Q1185.475,962.8906 1184.85,962.8906 Q1184.0844,962.8906 1183.4516,963.2188 Q1182.8188,963.5469 1182.3266,964.2969 Q1181.8344,965.0469 1181.8344,966.0781 L1181.8344,967.1719 Q1181.8344,968.4063 1182.725,969.2266 Q1183.6156,970.0469 1185.2094,970.0469 Q1186.1469,970.0469 1186.8031,969.7969 Q1187.1938,969.6406 1187.6156,969.2031 Q1187.8813,968.9375 1188.0297,968.8594 Q1188.1781,968.7813 1188.3813,968.7813 Q1188.7094,968.7813 1188.9672,969.0391 Q1189.225,969.2969 1189.225,969.6406 Q1189.225,969.9844 1188.8813,970.3906 Q1188.3813,970.9688 1187.5844,971.2969 Q1186.5063,971.75 1185.2094,971.75 Q1183.6938,971.75 1182.4906,971.125 Q1181.5063,970.625 1180.8188,969.5547 Q1180.1313,968.4844 1180.1313,967.2031 L1180.1313,966.0469 Q1180.1313,964.7188 1180.7484,963.5703 Q1181.3656,962.4219 1182.4594,961.8047 Q1183.5531,961.1875 1184.7875,961.1875 Q1185.5219,961.1875 1186.1703,961.3516 Q1186.8188,961.5156 1187.3656,961.875 Z "/><text fill="#000000" font-family="sans-serif" font-size="12" lengthAdjust="spacingAndGlyphs" textLength="51" x="1204.4" y="970.9102">ToolAlign</text><line style="stroke: #383838; stroke-width: 1.5;" x1="1144.5" x2="1283.5" y1="982" y2="982"/><text fill="#000000" font-family="sans-serif" font-size="11" lengthAdjust="spacingAndGlyphs" textLength="129" x="1149.5" y="997.4189">medthod: AlignmentMethod</text><line style="stroke: #383838; stroke-width: 1.5;" x1="1144.5" x2="1283.5" y1="1003.8359" y2="1003.8359"/><ellipse cx="1325" cy="981" fill="#F8F8F8" rx="5" ry="5" style="stroke: #383838; stroke-width: 1.5;"/><text fill="#000000" font-family="sans-serif" font-size="12" lengthAdjust="spacingAndGlyphs" textLength="58" x="1296" y="998.457">UIElement</text><!--link Tool to ToolSelect--><path d="M534.281,799.871 C534.188,799.914 534.094,799.957 534,800 C413.103,855.252 355.571,792.603 241,860 C214.969,875.313 192.291,899.622 174.891,922.369 " fill="none" id="Tool-ToolSelect" style="stroke: #383838; stroke-width: 1.0;"/><polygon fill="none" points="530.904,793.734,551.914,790.979,537.209,806.235,530.904,793.734" style="stroke: #383838; stroke-width: 1.0;"/><!--link Tool to ToolMove--><path d="M534.28,799.868 C534.187,799.912 534.093,799.956 534,800 C424.692,851.328 351.486,771.802 269,860 C194.633,939.517 278.414,1003.993 231,1102 C217.196,1130.534 192.927,1156.719 172.246,1175.677 " fill="none" id="Tool-ToolMove" style="stroke: #383838; stroke-width: 1.0;"/><polygon fill="none" points="530.856,793.758,551.841,790.821,537.268,806.203,530.856,793.758" style="stroke: #383838; stroke-width: 1.0;"/><!--link Tool to ToolTransform--><path d="M536.714,806.845 C516.982,824.306 497.252,842.353 479,860 C469.958,868.742 460.736,878.07 451.67,887.517 " fill="none" id="Tool-ToolTransform" style="stroke: #383838; stroke-width: 1.0;"/><polygon fill="none" points="532.129,801.555,551.778,793.623,541.365,812.077,532.129,801.555" style="stroke: #383838; stroke-width: 1.0;"/><!--link Tool to ToolScale--><path d="M537.725,796.586 C520.14,815.89 504.387,837.184 493,860 C444.737,956.709 525.051,1009.586 469,1102 C457.967,1120.191 417.68,1146.456 380.422,1168.04 " fill="none" id="Tool-ToolScale" style="stroke: #383838; stroke-width: 1.0;"/><polygon fill="none" points="532.932,791.471,551.828,781.882,543.036,801.162,532.932,791.471" style="stroke: #383838; stroke-width: 1.0;"/><!--link Tool to ToolRotate--><path d="M566.446,817.078 C557.549,830.991 549.511,845.408 543,860 C530.156,888.784 500.161,1097.242 489.15,1175.988 " fill="none" id="Tool-ToolRotate" style="stroke: #383838; stroke-width: 1.0;"/><polygon fill="none" points="560.708,813.066,577.679,800.378,572.324,820.88,560.708,813.066" style="stroke: #383838; stroke-width: 1.0;"/><!--link Tool to ToolCreateShapes--><path d="M657.386,820.055 C651.016,855.947 644.454,892.925 639.245,922.272 " fill="none" id="Tool-ToolCreateShapes" style="stroke: #383838; stroke-width: 1.0;"/><polygon fill="none" points="650.508,818.75,660.895,800.281,664.293,821.197,650.508,818.75" style="stroke: #383838; stroke-width: 1.0;"/><!--link Tool to ToolVertexManipulation--><path d="M755.961,817.736 C786.359,870.751 818.354,926.551 835.774,956.933 " fill="none" id="Tool-ToolVertexManipulation" style="stroke: #383838; stroke-width: 1.0;"/><polygon fill="none" points="749.829,821.114,745.953,800.281,761.974,814.15,749.829,821.114" style="stroke: #383838; stroke-width: 1.0;"/><!--link Tool to ToolAddVertex--><path d="M706.929,820.565 C709.378,833.877 711.774,847.197 714,860 C723.323,913.632 717.396,1059.977 752,1102 C801.603,1162.236 846.588,1128.368 917,1162 C929.685,1168.059 943.008,1175.68 954.749,1182.87 " fill="none" id="Tool-ToolAddVertex" style="stroke: #383838; stroke-width: 1.0;"/><polygon fill="none" points="699.961,821.377,703.188,800.434,713.725,818.818,699.961,821.377" style="stroke: #383838; stroke-width: 1.0;"/><!--link Tool to ToolNewPath--><path d="M827.669,752.805 C872.316,779.823 917.158,815.406 946,860 C1005.126,951.419 925.18,1010.383 984,1102 C990.911,1112.764 1048.05,1149.235 1091.42,1175.959 " fill="none" id="Tool-ToolNewPath" style="stroke: #383838; stroke-width: 1.0;"/><polygon fill="none" points="824.037,758.791,810.27,742.683,831.077,746.689,824.037,758.791" style="stroke: #383838; stroke-width: 1.0;"/><!--link Tool to ToolCombine--><path d="M827.938,756.911 C877.627,784.748 931.288,819.793 974,860 C1004.381,888.6 1029.42,930.566 1043.27,956.538 " fill="none" id="Tool-ToolCombine" style="stroke: #383838; stroke-width: 1.0;"/><polygon fill="none" points="824.363,762.934,810.196,747.177,831.097,750.66,824.363,762.934" style="stroke: #383838; stroke-width: 1.0;"/><!--link Tool to ToolAlign--><path d="M829.333,721.797 C921.363,748.643 1038.35,792.759 1126,860 C1157.67,884.296 1183.16,922.974 1198.4,949.825 " fill="none" id="Tool-ToolAlign" style="stroke: #383838; stroke-width: 1.0;"/><polygon fill="none" points="827.417,728.53,810.093,716.329,831.245,715.063,827.417,728.53" style="stroke: #383838; stroke-width: 1.0;"/><!--link ToolManager to Tool--><path d="M769.335,346.081 C755.79,398.05 730.573,494.8 710.539,571.666 " fill="none" id="ToolManager-Tool" style="stroke: #383838; stroke-width: 1.0;"/><text fill="#000000" font-family="sans-serif" font-size="13" lengthAdjust="spacingAndGlyphs" textLength="7" x="705.2885" y="560.9581">n</text><!--link Editor to ToolManager--><path d="M692.102,308 C703.643,308 715.184,308 726.725,308 " fill="none" id="Editor-ToolManager" style="stroke: #383838; stroke-width: 1.0;"/><text fill="#000000" font-family="sans-serif" font-size="13" lengthAdjust="spacingAndGlyphs" textLength="7" x="700.0193" y="304.9543">1</text><text fill="#000000" font-family="sans-serif" font-size="13" lengthAdjust="spacingAndGlyphs" textLength="7" x="711.8816" y="304.4179">1</text><!--link Shortcut to Tool--><path d="M516.844,686 C528.493,686 540.142,686 551.791,686 " fill="none" id="Shortcut-Tool" style="stroke: #383838; stroke-width: 1.0;"/><text fill="#000000" font-family="sans-serif" font-size="13" lengthAdjust="spacingAndGlyphs" textLength="7" x="524.6375" y="682.1644">1</text><text fill="#000000" font-family="sans-serif" font-size="13" lengthAdjust="spacingAndGlyphs" textLength="7" x="537.1188" y="683.0466">1</text><!--link Editor to Tool--><path d="M635.944,512.132 C641.272,532.573 646.537,552.774 651.485,571.76 " fill="none" id="Editor-Tool" style="stroke: #383838; stroke-width: 1.0;"/><text fill="#000000" font-family="sans-serif" font-size="13" lengthAdjust="spacingAndGlyphs" textLength="7" x="642.2668" y="561.0584">1</text><!--link UIHandler to Editor--><path d="M438.906,308 C450.539,308 462.171,308 473.804,308 " fill="none" id="UIHandler-Editor" style="stroke: #383838; stroke-width: 1.0;"/><text fill="#000000" font-family="sans-serif" font-size="13" lengthAdjust="spacingAndGlyphs" textLength="7" x="446.716" y="304.6295">1</text><!--link Tool to Tool--><path d="M810.25,635.235 C830.88,642.664 845,659.586 845,686 C845,712.414 830.88,729.336 810.25,736.765 " fill="none" id="Tool-Tool" style="stroke: #383838; stroke-width: 1.0;"/><text fill="#000000" font-family="sans-serif" font-size="13" lengthAdjust="spacingAndGlyphs" textLength="7" x="817.9246" y="629.3468">1</text><text fill="#000000" font-family="sans-serif" font-size="13" lengthAdjust="spacingAndGlyphs" textLength="7" x="817.9246" y="736.7465">n</text><!--link ToolCreateShapes to Shape--><path d="M658.873,1039.686 C678.609,1077.796 704.078,1126.978 722.188,1161.949 " fill="none" id="ToolCreateShapes-Shape" style="stroke: #383838; stroke-width: 1.0;"/><text fill="#000000" font-family="sans-serif" font-size="13" lengthAdjust="spacingAndGlyphs" textLength="7" x="710.9945" y="1151.0564">n</text><!--link ToolTransform to ToolMove--><path d="M286.422,1074.578 C277.338,1084.007 268.087,1093.305 259,1102 C233.093,1126.79 202.201,1152.709 177.732,1172.471 " fill="none" id="ToolTransform-ToolMove" style="stroke: #383838; stroke-width: 1.0;"/><polygon fill="#383838" points="173.552,1175.837,183.0706,1173.3081,177.4464,1172.7012,178.0533,1167.077,173.552,1175.837" style="stroke: #383838; stroke-width: 1.0;"/><text fill="#000000" font-family="sans-serif" font-size="13" lengthAdjust="spacingAndGlyphs" textLength="56" x="175.7341" y="1159.6084">subaction</text><!--link ToolTransform to ToolScale--><path d="M337.341,1102.197 C332.238,1121.572 327.221,1140.619 322.906,1157.001 " fill="none" id="ToolTransform-ToolScale" style="stroke: #383838; stroke-width: 1.0;"/><polygon fill="#383838" points="321.59,1161.996,327.7497,1154.3111,322.8631,1157.1608,320.0134,1152.2741,321.59,1161.996" style="stroke: #383838; stroke-width: 1.0;"/><text fill="#000000" font-family="sans-serif" font-size="13" lengthAdjust="spacingAndGlyphs" textLength="56" x="262.9747" y="1151.1108">subaction</text><!--link ToolTransform to ToolRotate--><path d="M431.245,1102.197 C444.325,1127.456 457.116,1152.156 466.938,1171.121 " fill="none" id="ToolTransform-ToolRotate" style="stroke: #383838; stroke-width: 1.0;"/><polygon fill="#383838" points="469.369,1175.816,468.781,1165.9847,467.0692,1171.3763,461.6776,1169.6644,469.369,1175.816" style="stroke: #383838; stroke-width: 1.0;"/><text fill="#000000" font-family="sans-serif" font-size="13" lengthAdjust="spacingAndGlyphs" textLength="56" x="404.3701" y="1165.2826">subaction</text><!--link ToolSelect to ToolMove--><path d="M137.227,1039.686 C136.671,1081.199 135.94,1135.848 135.469,1170.959 " fill="none" id="ToolSelect-ToolMove" style="stroke: #383838; stroke-width: 1.0;"/><polygon fill="#383838" points="135.402,1175.994,139.5225,1167.0485,135.4691,1170.9945,131.5232,1166.9411,135.402,1175.994" style="stroke: #383838; stroke-width: 1.0;"/><text fill="#000000" font-family="sans-serif" font-size="13" lengthAdjust="spacingAndGlyphs" textLength="56" x="73.3648" y="1165.013">subaction</text><!--link ToolVertexManipulation to ToolAddVertex--><path d="M863.558,1005.128 C889.748,1046.735 944.684,1134.009 972.729,1178.562 " fill="none" id="ToolVertexManipulation-ToolAddVertex" style="stroke: #383838; stroke-width: 1.0;"/><polygon fill="#383838" points="975.521,1182.998,974.1129,1173.2503,972.8579,1178.7662,967.342,1177.5113,975.521,1182.998" style="stroke: #383838; stroke-width: 1.0;"/><text fill="#000000" font-family="sans-serif" font-size="13" lengthAdjust="spacingAndGlyphs" textLength="56" x="908.6358" y="1172.3376">subaction</text><!--link ToolVertexManipulation to ToolNewPath--><path d="M865.982,1005.306 C885.612,1031.138 919.879,1072.979 956,1102 C998.503,1136.148 1015.48,1135.273 1063,1162 C1069.5,1165.654 1076.29,1169.482 1083.05,1173.291 " fill="none" id="ToolVertexManipulation-ToolNewPath" style="stroke: #383838; stroke-width: 1.0;"/><polygon fill="#383838" points="1087.72,1175.923,1081.8466,1168.0171,1083.3651,1173.4663,1077.9159,1174.9849,1087.72,1175.923" style="stroke: #383838; stroke-width: 1.0;"/><text fill="#000000" font-family="sans-serif" font-size="13" lengthAdjust="spacingAndGlyphs" textLength="56" x="1020.4309" y="1165.2502">subaction</text><!--link Tool to Toollol46--><path d="M810.328,706.715 C972.102,734.038 1235.95,788.272 1302,860 C1333.61,894.329 1327.88,958.278 1325.64,975.585 " fill="none" id="Tool-Toollol46" style="stroke: #383838; stroke-width: 1.0;"/><!--
@startuml VE Classes
skinparam monochrome true
skinparam componentStyle uml2
skinparam classAttributeIconSize 0
skinparam shadowing false
skinparam handwritten false


package FUDGE <<Rectangle>> {
			






	package VectorEditor <<Rectangle>>{
		class UIHandler{
			createUI()
			updateUI()
			deselectAll()
			updateSelectedObjectUI()
			updateSelectedObject()
		}

		interface Shortcut{
			keys: number[]
		}

		class Editor{
			- sketch: Sketch
			- selectedPaths: SketchPath[]
			- selectedPoints: SketchPoint[]
			+ selectedTool: Tool
			- canvas: HTMLCanvasElement
			- crc: CanvasRenderingContext2D
			- scale: number
			- transformationPoint: Vector2
			{static} + pressedKeys: number[]
			- uiHandler: UIHandler
			- showTangentsShortcut: Shortcut
			- quadraticShapesShortcut: Shortcut
			+ tangentsActive: boolean
			+ changeHistory: sketch[]

			- redrawAll()
			- mousedown()
			- mousemove()
			- mouseup()
			- keydown()
			- keyup()
			- scroll()
			+ undo()
			+ redo()
			+ saveToChangeHistory()

			{static} + isShortcutPressed(_s: Shortcut): boolean

		}

		class ToolManager {
			{static} tools: Tool[]
			{static} registerTool()
		}

		abstract Tool{
			name: string
			subMenu: UIElement
			shortcut: Shortcut
			selectedSubTool: Tool
			subTools: Tool[]
			mousedown()
			mousemove()
			mouseup()
			mousescroll()
			prequisitesFulfilled(): boolean
			additionalDisplay(crc: CanvasRenderingContext2D)
			addAdditionalSubMenuOptions()
			exit()
		}

		class ToolSelect extends Tool {
			boxSelect: boolean
			multiSelectShortcut: Shortcut
			move: MoveTool
			startPosition: Vector2
			currentPosition: Vector2
		}
		class ToolMove extends Tool {
			- previousPosition: Vector2
		}
		class ToolTransform extends Tool {
			scaleUp: SketchPoint
			scaleDown: SketchPoint
			scaleLeft: SketchPoint
			scaleRight: SketchPoint
			scaleUpLeft: SketchPoint
			scaleUpRight: SketchPoint
			scaleDownLeft: SketchPoint
			scaleDownRight: SketchPoint
			scalePoints: SketchPoint[]
			selectedScalePoint: SketchPoint
			
			move: MoveTool
			rotate: RotateTool
			scale: ScaleTool
		}
		class ToolScale extends Tool {
			- previousPosition: Vector2
			- referencePoint: Vector2
			- mode: "x" | "y" | "xy"
		}
		class ToolRotate extends Tool {
			- previousPosition: Vector2
		}
		class ToolCreateShapes extends Tool {
			- startPosition: Vector2
			- currentPosition: Vector2
			{static} - shapes: Shape[]
			- selectedShape: Shape
			{static} + registerShape()
		}
		interface Shape {
			identifier: string
			createSketchPath(pos1: Vector2, pos2: Vector2): SketchPath
			additionalParameters:Object
		}
		class ToolVertexManipulation extends Tool {

		}
		class ToolAddVertex extends Tool {

		}
		class ToolNewPath extends Tool {
			- newPath: SketchPath;
		}
		class ToolCombine extends Tool {

		}

		class ToolAlign extends Tool {
			medthod: AlignmentMethod	
		}


		ToolManager - - "n" Tool
		Editor "1"-right-"1" ToolManager
		Shortcut "1" -right- "1" Tool
		Editor - - "1" Tool
		Editor -left- "1" UIHandler
		Tool "1"- -"n" Tool
		ToolCreateShapes - - "n" Shape
		ToolTransform - ->"subaction" ToolMove
		ToolTransform - -> "subaction" ToolScale 
		ToolTransform - -> "subaction" ToolRotate
		ToolSelect - -> "subaction" ToolMove
		ToolVertexManipulation - -> "subaction" ToolAddVertex 
		ToolVertexManipulation - -> "subaction" ToolNewPath
		Tool - -() UIElement
	}






}
@enduml

PlantUML version 1.2019.05(Sat Apr 20 18:45:36 CEST 2019)
(GPL source distribution)
Java Runtime: Java(TM) SE Runtime Environment
JVM: Java HotSpot(TM) 64-Bit Server VM
Java Version: 1.8.0_181-b13
Operating System: Windows 10
OS Version: 10.0
Default Encoding: Cp1252
Language: de
Country: DE
--></g></svg>