<?xml version="1.0" encoding="utf-8"?>
<!-- Generator: Adobe Illustrator 16.0.0, SVG Export Plug-In . SVG Version: 6.00 Build 0)  -->
<!DOCTYPE svg PUBLIC "-//W3C//DTD SVG 1.1//EN" "http://www.w3.org/Graphics/SVG/1.1/DTD/svg11.dtd">
<svg version="1.1" id="Ebene_1" xmlns="http://www.w3.org/2000/svg" xmlns:xlink="http://www.w3.org/1999/xlink" x="0px" y="0px"
	 width="297.95px" height="297.683px" viewBox="0 0 297.95 297.683" enable-background="new 0 0 297.95 297.683"
	 xml:space="preserve">
<g>
	<path fill-rule="evenodd" clip-rule="evenodd" fill="#010101" d="M261.686,141.595c0,34.365-4.708,63.998-5.247,98.359
		c-0.301,19.614-15.761,35.259-35.451,35.459c-27.88,0.282-55.749-2.793-83.677-0.767c-10.48,0.762-17.4-6.457-24.086-12.59
		c-23.148-21.227-45.875-42.925-68.485-64.738c-7.629-7.354-12.9-16.596-3.979-25.936c8.412-8.806,16.781-4.102,24.271,3.071
		c7.145,6.841,14.564,13.401,22.033,19.886c4.251,3.691,8.138,9.008,15.082,5.243c6.164-3.345,9.546-8.077,8.959-15.505
		c-1.966-24.911-3.728-49.842-5.537-74.765c-0.926-12.77-1.985-25.537-2.617-38.327c-0.531-10.748,2.091-21.772,14.502-21.78
		c11.732-0.007,12.751,10.627,13.093,20.781c0.685,20.356,2.33,40.687,3.956,61c0.373,4.638-1.427,12.526,6.43,11.696
		c6.794-0.719,5.166-8.105,5.217-13.058c0.25-25.091,0.248-50.183,0.355-75.275c0.021-4.668-0.386-9.414,0.301-13.987
		c1.326-8.833,2.93-18.116,15.101-17.514c11.046,0.549,13.059,9.486,13.159,17.527c0.254,20.955-0.777,41.921-1.188,62.889
		c-0.168,8.751-0.141,17.508-0.067,26.259c0.046,5.483,0.939,11.264,7.93,10.929c5.911-0.288,6.384-5.617,6.612-10.527
		c0.954-20.359,2.081-40.708,3.046-61.063c0.276-5.827-0.361-11.75,0.454-17.481c1.148-8.106,2.528-17.349,13.543-17.12
		c11.555,0.236,13.745,8.665,13.627,18.392c-0.289,23.918-0.434,47.839-0.616,71.756c-0.024,2.916-0.024,5.842,0.187,8.75
		c0.343,4.771,1.204,10.79,6.375,11.115c6.378,0.4,7.944-5.916,8.148-11.192c0.566-14.576,0.566-29.168,1.009-43.75
		c0.31-10.225,3.66-19.953,15.493-18.931c11.408,0.987,13.296,10.352,12.653,21.019
		C261.361,106.517,261.686,126.446,261.686,141.595C259.869,141.595,263.502,141.595,261.686,141.595z"/>
</g>
</svg>
