<?xml version="1.0" encoding="utf-8"?>
<!-- Generator: Adobe Illustrator 16.0.0, SVG Export Plug-In . SVG Version: 6.00 Build 0)  -->
<!DOCTYPE svg PUBLIC "-//W3C//DTD SVG 1.1//EN" "http://www.w3.org/Graphics/SVG/1.1/DTD/svg11.dtd">
<svg version="1.1" id="Ebene_1" xmlns="http://www.w3.org/2000/svg" xmlns:xlink="http://www.w3.org/1999/xlink" x="0px" y="0px"
	 width="300px" height="300px" viewBox="0 0 300 300" enable-background="new 0 0 300 300" xml:space="preserve">
<g>
	<path fill-rule="evenodd" clip-rule="evenodd" d="M260.728,151.867c0,25.348,0,46.796,0,70.012c-74.723,0-148.807,0-225.012,0
		c0-48.947,0-98.284,0-149.305c47.165,0,93.937,0,143.715,0c0,25.739,0,51.564,0,79.293
		C207.443,151.867,232.565,151.867,260.728,151.867z"/>
	<path fill-rule="evenodd" clip-rule="evenodd" d="M193.127,72.746c22.924,23.074,44.208,44.504,66.982,67.425
		c-22.402,0-43.579,0-66.982,0C193.127,119.172,193.127,97.275,193.127,72.746z"/>
</g>
</svg>
