<?xml version="1.0" encoding="utf-8"?>
<!-- Generator: Adobe Illustrator 16.0.0, SVG Export Plug-In . SVG Version: 6.00 Build 0)  -->
<!DOCTYPE svg PUBLIC "-//W3C//DTD SVG 1.1//EN" "http://www.w3.org/Graphics/SVG/1.1/DTD/svg11.dtd">
<svg version="1.1" id="Ebene_1" xmlns="http://www.w3.org/2000/svg" xmlns:xlink="http://www.w3.org/1999/xlink" x="0px" y="0px"
	 width="300px" height="300px" viewBox="0 0 300 300" enable-background="new 0 0 300 300" xml:space="preserve">
<g>
	<path fill-rule="evenodd" clip-rule="evenodd" d="M197.705,119.555H99.209c0-16.525-1.209-36.221,0-49.354S116,50,120.156,48.306
		h56.642c5.256,2.432,19.202,4.361,20.907,21.963v13.956l29.104-0.104c0-1.236,0-27.922,0-27.922
		c-2.996-2.997-7.125-11.882-18.617-23.375s-31.374-12.564-31.374-12.564h-56.577c0,0-19.792-0.249-32.604,12.562
		S71.69,54.243,69.725,56.209c0,0,0,42.469,0,63.766H49.287v155.588h198.402V119.708h-20.881L197.705,119.555z"/>
</g>
</svg>
