<?xml version="1.0" encoding="utf-8"?>
<!-- Generator: Adobe Illustrator 16.0.0, SVG Export Plug-In . SVG Version: 6.00 Build 0)  -->
<!DOCTYPE svg PUBLIC "-//W3C//DTD SVG 1.1//EN" "http://www.w3.org/Graphics/SVG/1.1/DTD/svg11.dtd">
<svg version="1.1" id="Ebene_1" xmlns="http://www.w3.org/2000/svg" xmlns:xlink="http://www.w3.org/1999/xlink" x="0px" y="0px"
	 width="300px" height="300px" viewBox="0 0 300 300" enable-background="new 0 0 300 300" xml:space="preserve">
<g>
	<path fill-rule="evenodd" clip-rule="evenodd" d="M49.287,119.975c6.871,0,13.344,0,20.438,0c0-21.296,0-63.766,0-63.766
		c1.966-1.966,5.102-10.577,17.913-23.388s32.604-12.562,32.604-12.562c18.87,0,37.6,0,56.577,0c0,0,19.882,1.071,31.374,12.564
		s15.621,20.378,18.617,23.375c0,0,0,41.903,0,63.51c7.17,0,13.889,0,20.881,0c0,52.267,0,103.854,0,155.854
		c-65.912,0-131.946,0-198.402,0C49.287,224.009,49.287,172.303,49.287,119.975z M99.209,119.555c33.095,0,65.766,0,98.496,0
		c0-16.676,0-40.351,0-49.286C196,52.667,182.054,50.737,176.798,48.306c-19.067,0-37.771,0-56.642,0
		C116,50,100.419,57.067,99.209,70.2S99.209,103.029,99.209,119.555z"/>
</g>
</svg>
