# Blender v3.3.0 OBJ File: 'untitled.blend'
# www.blender.org
mtllib backpillow_sofa.mtl
o Cube.003
v -0.537500 -0.187500 -0.637500
v 0.437500 -0.187500 -0.637500
v -0.539412 -0.181307 -0.639413
v -0.530005 -0.189413 -0.639413
v -0.535170 -0.188389 -0.638389
v 0.439413 -0.181307 -0.639413
v 0.440953 -0.190953 -0.623418
v 0.439413 -0.189413 -0.632219
v -0.520697 0.411168 -0.429124
v -0.530005 0.407650 -0.431763
v -0.535170 0.403556 -0.434833
v 0.435170 -0.188389 -0.638389
v 0.430005 -0.189413 -0.639413
v 0.435170 0.403556 -0.434833
v 0.430005 0.407650 -0.431763
v 0.420697 0.411168 -0.429124
v -0.539413 -0.189413 -0.632219
v -0.540953 -0.190953 -0.623418
v -0.543591 0.400328 -0.623463
v -0.541721 0.395659 -0.632389
v -0.521257 0.363151 -0.411761
v -0.536802 0.361269 -0.421557
v -0.520999 0.428853 -0.450123
v -0.530561 0.423806 -0.451417
v -0.536154 0.416883 -0.452574
v -0.520999 -0.182294 -0.415860
v -0.521487 -0.166411 -0.409002
v -0.530175 -0.186317 -0.424838
v -0.530561 -0.181863 -0.419646
v -0.531361 -0.166278 -0.413274
v -0.535502 -0.185665 -0.429138
v -0.536154 -0.181477 -0.424838
v -0.537322 -0.166171 -0.419228
v 0.441721 -0.181477 -0.440674
v 0.430561 -0.181863 -0.643452
v -0.543451 -0.181863 -0.632774
v -0.530561 -0.181863 -0.643452
v 0.436802 0.361269 -0.421557
v 0.421257 0.363151 -0.411761
v 0.436155 0.416883 -0.452574
v 0.430561 0.423806 -0.451417
v 0.420999 0.428853 -0.450123
v 0.435502 -0.185665 -0.429138
v 0.436155 -0.181477 -0.424838
v 0.437322 -0.166171 -0.419229
v 0.430175 -0.186317 -0.424838
v 0.430561 -0.181863 -0.419646
v 0.431361 -0.166278 -0.413274
v 0.420999 -0.182294 -0.415860
v 0.421487 -0.166411 -0.409002
v 0.435502 0.411149 -0.635779
v 0.430175 0.416883 -0.636431
v 0.420786 0.421257 -0.637079
v 0.436155 0.416883 -0.632389
v 0.430992 0.428853 -0.628470
v 0.421257 0.434319 -0.628727
v 0.437322 0.424362 -0.623463
v 0.431361 0.432301 -0.623570
v 0.421487 0.437998 -0.623703
v 0.431720 0.435483 -0.612321
v 0.421713 0.441379 -0.612338
v -0.536154 -0.191721 -0.632389
v -0.530561 -0.193451 -0.632774
v -0.537322 -0.193591 -0.623463
v 0.443452 -0.181863 -0.632774
v -0.520786 0.421257 -0.637079
v -0.530175 0.416883 -0.636431
v -0.535502 0.411149 -0.635779
v -0.536154 0.416883 -0.632389
v -0.521257 0.434319 -0.628727
v -0.530992 0.428853 -0.628470
v -0.521487 0.437998 -0.623703
v -0.531361 0.432301 -0.623570
v -0.537322 0.424362 -0.623463
v -0.521713 0.441379 -0.612338
v -0.531720 0.435483 -0.612321
v 0.430561 -0.193451 -0.632774
v 0.436154 -0.191721 -0.632389
v 0.437322 -0.193591 -0.623463
v 0.441721 0.395659 -0.632389
v 0.443591 0.400328 -0.623463
v -0.541721 -0.181477 -0.440674
vt 0.409783 0.809843
vt 0.389963 0.801050
vt 0.408681 0.816436
vt 0.050750 0.561939
vt 0.948570 0.407449
vt 0.949250 0.561939
vt 0.948283 0.804400
vt 0.957677 0.408681
vt 0.389963 0.801050
vt 0.409783 0.809843
vt 0.408681 0.816436
vt 0.962383 0.804382
vt 0.957677 0.239609
vt 0.957309 0.809843
vt 0.577303 0.821243
vt 0.572534 0.816966
vt 0.581035 0.809843
vt 0.398450 0.239976
vt 0.383368 0.239976
vt 0.387463 0.235988
vt 0.572534 0.794076
vt 0.572534 0.816966
vt 0.581035 0.809843
vt 0.958439 0.254451
vt 0.948570 0.239198
vt 0.957677 0.239609
vt 0.051184 0.826449
vt 0.948368 0.814009
vt 0.051632 0.814009
vt 0.042691 0.383368
vt 0.036996 0.383368
vt 0.037617 0.387463
vt 0.051184 0.577548
vt 0.949035 0.572763
vt 0.948816 0.577548
vt 0.392887 0.797151
vt 0.380244 0.756878
vt 0.032426 0.572492
vt 0.035884 0.572534
vt 0.398450 0.239976
vt 0.581403 0.239609
vt 0.572492 0.230952
vt 0.963004 0.809843
vt 0.966107 0.240138
vt 0.964286 0.234240
vt 0.962066 0.233393
vt 0.585903 0.234240
vt 0.580873 0.232419
vt 0.963004 0.581035
vt 0.962066 0.586750
vt 0.964286 0.585903
vt 0.037934 0.233393
vt 0.035714 0.234240
vt 0.033893 0.240138
vt 0.957147 0.801050
vt 0.948816 0.758670
vt 0.372355 0.254451
vt 0.380244 0.756878
vt 0.037617 0.804382
vt 0.042323 0.239609
vt 0.561924 0.827557
vt 0.964116 0.254554
vt 0.963004 0.239976
vt 0.581035 0.789630
vt 0.051184 0.758670
vt 0.957677 0.581403
vt 0.042323 0.581403
vt 0.963004 0.383368
vt 0.957309 0.383368
vt 0.962383 0.387463
vt 0.042323 0.239609
vt 0.035884 0.254554
vt 0.036996 0.239976
vt 0.957677 0.378423
vt 0.948570 0.374818
vt 0.392887 0.797151
vt 0.581035 0.789630
vt 0.572534 0.794076
vt 0.041913 0.821243
vt 0.042691 0.809843
vt 0.581403 0.239609
vt 0.585903 0.234240
vt 0.587725 0.240138
vt 0.577303 0.821243
vt 0.958439 0.572637
vt 0.958087 0.577303
vt 0.041561 0.254451
vt 0.042852 0.801050
vt 0.042852 0.232419
vt 0.957147 0.587725
vt 0.033893 0.580873
vt 0.035714 0.585903
vt 0.036996 0.581035
vt 0.949035 0.254325
vt 0.051429 0.239198
vt 0.050965 0.254325
vt 0.964116 0.572534
vt 0.041561 0.572637
vt 0.050965 0.572763
vt 0.958780 0.561924
vt 0.561924 0.827557
vt 0.042323 0.408681
vt 0.051717 0.804400
vt 0.051430 0.407449
vt 0.041220 0.561924
vt 0.572637 0.824527
vt 0.572492 0.230952
vt 0.580873 0.232419
vt 0.584264 0.804382
vt 0.587725 0.240138
vt 0.948816 0.826449
vt 0.042323 0.378423
vt 0.378026 0.254554
vt 0.372355 0.254451
vt 0.387463 0.235988
vt 0.383368 0.239976
vt 0.958087 0.821243
vt 0.957147 0.232419
vt 0.966107 0.580873
vt 0.967574 0.572492
vt 0.378026 0.254554
vt 0.051429 0.374818
vt 0.036996 0.809843
vt 0.572637 0.824527
vt 0.037934 0.586750
vt 0.042852 0.587725
vt 0.041913 0.577303
vt 0.584264 0.804382
vn -0.9135 0.3652 0.1791
vn -0.5485 0.4644 0.6953
vn -0.6192 0.7255 0.3004
vn -0.2559 0.9613 -0.1021
vn 0.2349 0.9008 0.3651
vn 0.2559 0.9613 -0.1021
vn 0.2034 0.5681 0.7974
vn 0.6192 0.7255 0.3004
vn 0.5485 0.4644 0.6953
vn 0.9135 0.3652 0.1791
vn 0.5612 0.1585 -0.8124
vn 0.1975 -0.2225 -0.9547
vn 0.2909 0.2747 -0.9165
vn 0.5251 0.5723 -0.6299
vn 0.8812 0.4129 -0.2304
vn 0.7465 0.3470 -0.5677
vn 0.9030 -0.4152 0.1106
vn 0.7607 -0.4179 0.4967
vn 0.5484 -0.7967 0.2540
vn -0.9928 -0.0900 -0.0784
vn -0.8811 0.4129 -0.2304
vn -0.7465 0.3470 -0.5677
vn 0.5461 -0.1724 0.8198
vn 0.1315 -0.6650 0.7352
vn 0.4710 -0.5304 0.7048
vn -0.1903 0.6806 -0.7075
vn 0.1090 0.3135 -0.9433
vn -0.1090 0.3136 -0.9433
vn -0.2471 -0.9027 0.3523
vn -0.7607 -0.4179 0.4967
vn -0.5484 -0.7967 0.2540
vn 0.2354 0.8726 -0.4279
vn 0.1903 0.6806 -0.7075
vn -0.8581 0.2757 0.4331
vn -0.3236 0.0625 0.9441
vn -0.8026 -0.5917 -0.0761
vn -0.3121 -0.9481 -0.0609
vn -0.9030 -0.4152 0.1106
vn -0.9379 -0.2009 -0.2827
vn 0.6540 -0.1830 -0.7340
vn 0.5921 -0.5335 -0.6040
vn 0.3743 -0.6191 -0.6903
vn -0.5921 -0.5335 -0.6040
vn -0.7026 -0.6243 -0.3414
vn 0.4222 -0.8320 -0.3600
vn -0.3743 -0.6191 -0.6903
vn -0.6540 -0.1830 -0.7340
vn 0.4908 0.1271 0.8619
vn 0.3236 0.0625 0.9441
vn -0.5612 0.1585 -0.8124
vn -0.1975 -0.2225 -0.9547
vn 0.7071 0.7041 -0.0657
vn 0.8572 -0.1109 0.5030
vn -0.8603 0.0412 -0.5081
vn -0.4908 0.1271 0.8619
vn 0.1127 -0.9505 -0.2895
vn -0.1127 -0.9505 -0.2895
vn 0.2471 -0.9027 0.3523
vn -0.4710 -0.5304 0.7048
vn -0.8572 -0.1109 0.5030
vn 0.8581 0.2757 0.4331
vn 0.8603 0.0412 -0.5081
vn 0.9929 -0.0900 -0.0784
vn -0.5251 0.5723 -0.6299
vn -0.2909 0.2747 -0.9165
vn 0.9379 -0.2009 -0.2827
vn 0.6157 0.6987 -0.3643
vn -0.5461 -0.1724 0.8198
vn -0.1275 -0.6817 -0.7204
vn 0.1275 -0.6817 -0.7204
vn -0.4222 -0.8320 -0.3600
vn 0.1970 -0.1946 0.9609
vn -0.1315 -0.6650 0.7352
vn -0.1970 -0.1946 0.9609
vn 0.3121 -0.9481 -0.0609
vn -0.6157 0.6987 -0.3643
vn -0.2354 0.8726 -0.4279
vn -0.7071 0.7041 -0.0657
vn -0.2034 0.5681 0.7974
vn -0.2349 0.9008 0.3651
vn 0.8026 -0.5917 -0.0761
vn 0.7026 -0.6243 -0.3414
usemtl (null)
s 1
f 25/1/1 10/2/2 24/3/3
f 75/4/4 42/5/5 61/6/6
f 16/7/7 41/8/8 42/5/5
f 15/9/9 40/10/10 41/11/8
f 51/12/11 35/13/12 52/14/13
f 55/15/14 57/16/15 54/17/16
f 34/18/17 44/19/18 43/20/19
f 19/21/20 74/22/21 69/23/22
f 48/24/23 49/25/24 47/26/25
f 70/27/26 53/28/27 66/29/28
f 28/30/29 32/31/30 31/32/31
f 70/33/26 59/34/32 56/35/33
f 10/2/2 11/36/34 22/37/35
f 31/32/31 18/38/36 64/39/37
f 82/40/38 36/41/39 18/42/36
f 54/43/16 51/12/11 52/14/13
f 6/44/40 2/45/41 12/46/42
f 36/41/39 1/47/43 17/48/44
f 78/49/45 12/50/42 2/51/41
f 5/52/46 1/53/43 3/54/47
f 59/34/32 75/4/4 61/6/6
f 15/55/9 16/7/7 39/56/48
f 48/57/23 38/58/49 15/9/9
f 68/59/50 37/60/51 3/54/47
f 57/16/15 60/61/52 40/10/10
f 45/62/53 47/26/25 44/63/18
f 20/64/54 36/41/39 82/40/38
f 16/7/7 21/65/55 39/56/48
f 77/66/56 28/30/29 63/67/57
f 44/68/18 46/69/58 43/70/19
f 29/71/59 33/72/60 32/73/30
f 46/69/58 47/74/25 49/75/24
f 40/10/10 14/76/61 38/58/49
f 40/10/10 80/77/62 81/78/63
f 71/79/64 66/29/28 67/80/65
f 65/81/66 2/82/41 6/83/40
f 74/22/21 71/84/64 69/23/22
f 56/35/33 58/85/67 55/86/14
f 30/87/68 21/65/55 10/88/2
f 37/60/51 67/80/65 66/29/28
f 35/13/12 4/89/69 37/60/51
f 13/90/70 12/50/42 77/66/56
f 17/91/44 1/92/43 62/93/71
f 50/94/72 26/95/73 49/25/24
f 50/94/72 21/65/55 27/96/74
f 46/69/58 77/66/56 79/97/75
f 70/33/26 73/98/76 72/99/77
f 26/95/73 30/87/68 29/71/59
f 59/34/32 60/100/52 58/85/67
f 25/1/1 24/3/3 76/101/78
f 61/6/6 41/8/8 60/100/52
f 24/102/3 9/103/79 23/104/80
f 16/7/7 23/104/80 9/103/79
f 76/105/78 72/99/77 73/98/76
f 82/40/38 22/37/35 25/1/1
f 24/102/3 75/4/4 76/105/78
f 80/77/62 65/81/66 6/83/40
f 25/1/1 11/36/34 10/2/2
f 75/4/4 23/104/80 42/5/5
f 16/7/7 15/55/9 41/8/8
f 15/9/9 14/76/61 40/10/10
f 51/12/11 6/44/40 35/13/12
f 55/15/14 58/106/67 57/16/15
f 43/20/19 7/107/81 34/18/17
f 7/107/81 8/108/82 65/81/66
f 34/18/17 7/107/81 65/81/66
f 69/23/22 68/109/50 19/21/20
f 68/109/50 3/110/47 20/64/54
f 3/110/47 36/41/39 20/64/54
f 20/64/54 19/21/20 68/109/50
f 48/24/23 50/94/72 49/25/24
f 70/27/26 56/111/33 53/28/27
f 28/30/29 29/112/59 32/31/30
f 70/33/26 72/99/77 59/34/32
f 33/113/60 30/114/68 22/37/35
f 30/114/68 10/2/2 22/37/35
f 62/93/71 63/67/57 64/39/37
f 63/67/57 28/30/29 64/39/37
f 28/30/29 31/32/31 64/39/37
f 17/48/44 18/42/36 36/41/39
f 18/42/36 31/115/31 82/40/38
f 31/115/31 32/116/30 82/40/38
f 52/14/13 53/28/27 55/117/14
f 53/28/27 56/111/33 55/117/14
f 55/117/14 54/43/16 52/14/13
f 12/46/42 13/118/70 35/13/12
f 35/13/12 6/44/40 12/46/42
f 36/41/39 3/110/47 1/47/43
f 2/51/41 8/119/82 78/49/45
f 8/119/82 7/120/81 79/97/75
f 78/49/45 8/119/82 79/97/75
f 3/54/47 37/60/51 5/52/46
f 37/60/51 4/89/69 5/52/46
f 59/34/32 72/99/77 75/4/4
f 50/94/72 48/24/23 39/56/48
f 48/24/23 15/55/9 39/56/48
f 45/121/53 38/58/49 48/57/23
f 38/58/49 14/76/61 15/9/9
f 68/59/50 67/80/65 37/60/51
f 58/106/67 60/61/52 57/16/15
f 60/61/52 41/11/8 40/10/10
f 45/62/53 48/24/23 47/26/25
f 82/40/38 25/1/1 20/64/54
f 25/1/1 74/22/21 19/21/20
f 19/21/20 20/64/54 25/1/1
f 16/7/7 9/103/79 21/65/55
f 77/66/56 46/69/58 28/30/29
f 44/68/18 47/74/25 46/69/58
f 29/71/59 30/87/68 33/72/60
f 49/75/24 26/122/73 28/30/29
f 26/122/73 29/112/59 28/30/29
f 28/30/29 46/69/58 49/75/24
f 38/58/49 45/121/53 34/18/17
f 45/121/53 44/19/18 34/18/17
f 34/18/17 40/10/10 38/58/49
f 81/78/63 57/16/15 40/10/10
f 40/10/10 34/18/17 80/77/62
f 34/18/17 65/81/66 80/77/62
f 68/59/50 69/123/22 67/80/65
f 69/123/22 71/79/64 67/80/65
f 71/79/64 70/27/26 66/29/28
f 65/81/66 8/108/82 2/82/41
f 74/22/21 73/124/76 71/84/64
f 56/35/33 59/34/32 58/85/67
f 27/96/74 21/65/55 30/87/68
f 21/65/55 9/103/79 10/88/2
f 66/29/28 53/28/27 37/60/51
f 53/28/27 52/14/13 35/13/12
f 37/60/51 53/28/27 35/13/12
f 35/13/12 13/118/70 4/89/69
f 78/49/45 77/66/56 12/50/42
f 77/66/56 63/67/57 13/90/70
f 63/67/57 62/93/71 5/125/46
f 5/125/46 4/126/69 63/67/57
f 4/126/69 13/90/70 63/67/57
f 5/125/46 62/93/71 1/92/43
f 62/93/71 64/39/37 17/91/44
f 64/39/37 18/38/36 17/91/44
f 50/94/72 27/96/74 26/95/73
f 50/94/72 39/56/48 21/65/55
f 77/66/56 78/49/45 79/97/75
f 79/97/75 7/120/81 43/70/19
f 43/70/19 46/69/58 79/97/75
f 70/33/26 71/127/64 73/98/76
f 26/95/73 27/96/74 30/87/68
f 59/34/32 61/6/6 60/100/52
f 73/124/76 74/22/21 76/101/78
f 74/22/21 25/1/1 76/101/78
f 61/6/6 42/5/5 41/8/8
f 24/102/3 10/88/2 9/103/79
f 16/7/7 42/5/5 23/104/80
f 76/105/78 75/4/4 72/99/77
f 82/40/38 32/116/30 33/113/60
f 33/113/60 22/37/35 82/40/38
f 22/37/35 11/36/34 25/1/1
f 24/102/3 23/104/80 75/4/4
f 6/83/40 51/128/11 80/77/62
f 51/128/11 54/17/16 81/78/63
f 80/77/62 51/128/11 81/78/63
f 54/17/16 57/16/15 81/78/63
