# Blender v3.3.0 OBJ File: 'untitled.blend'
# www.blender.org
mtllib curtain.mtl
o G-__555717.002_G-__555717
v 1.953512 2.956310 -3.329360
v 1.985862 0.748243 -3.346034
v 1.953513 0.748243 -3.329360
v 1.985861 2.956310 -3.346034
v 1.922626 2.956310 -3.269216
v 1.922627 0.748243 -3.269216
v 1.926651 2.956310 -3.331600
v 1.926652 0.748243 -3.331600
v 1.924156 0.748243 -3.451280
v 1.926740 2.956310 -3.443059
v 1.926740 0.748243 -3.443059
v 1.924155 2.956310 -3.451280
v 1.993421 0.748243 -3.274823
v 1.962791 2.956310 -3.288187
v 1.962791 0.748243 -3.288187
v 1.993420 2.956310 -3.274823
v 2.004428 2.956310 -3.057255
v 2.008990 0.748243 -3.017407
v 2.004428 0.748243 -3.057255
v 2.008990 2.956310 -3.017407
v 2.005147 0.748243 -3.283962
v 2.005146 2.956310 -3.283962
v 2.010136 2.956310 -2.839697
v 2.001316 0.748243 -2.781510
v 2.010137 0.748243 -2.839697
v 2.001315 2.956310 -2.781510
v 1.993815 2.956310 -3.057775
v 1.993816 0.748243 -3.057775
v 2.004905 0.748243 -3.432835
v 2.004178 2.956310 -3.397348
v 2.004178 0.748243 -3.397348
v 2.004904 2.956310 -3.432835
v 1.934926 0.748243 -2.731445
v 1.934926 2.956310 -2.731445
v 1.923850 2.956310 -3.300432
v 1.923850 0.748243 -3.300432
v 1.921755 0.748243 -2.824793
v 1.910136 2.956310 -2.814661
v 1.910137 0.748243 -2.814661
v 1.921754 2.956310 -2.824793
v 1.933024 2.956310 -3.437457
v 1.955689 0.748243 -3.436861
v 1.933024 0.748243 -3.437457
v 1.955688 2.956310 -3.436861
v 1.921272 2.956310 -2.928131
v 1.921273 0.748243 -2.928131
v 1.960129 0.748243 -2.996759
v 1.917337 2.956310 -2.977276
v 1.917338 0.748243 -2.977276
v 1.960128 2.956310 -2.996759
v 1.912406 2.956310 -3.035957
v 1.927537 0.748243 -3.014796
v 1.912407 0.748243 -3.035957
v 1.927536 2.956310 -3.014796
v 1.996437 0.748243 -3.244682
v 1.996286 2.956310 -3.217385
v 1.996287 0.748243 -3.217385
v 1.996436 2.956310 -3.244682
v 1.993443 0.748243 -3.471350
v 1.993442 2.956310 -3.471350
v 1.974651 2.956310 -2.753256
v 1.974651 0.748243 -2.753256
v 1.915214 2.956310 -2.878202
v 1.915118 0.748243 -2.860543
v 1.915215 0.748243 -2.878202
v 1.915117 2.956310 -2.860543
v 2.006457 0.748243 -3.328991
v 2.006456 2.956310 -3.328991
v 1.932797 2.956310 -3.491851
v 1.932798 0.748243 -3.491851
v 1.916207 0.748243 -3.344168
v 1.919314 2.956310 -3.335916
v 1.919314 0.748243 -3.335916
v 1.916206 2.956310 -3.344168
v 1.990288 2.956310 -3.381167
v 1.990289 0.748243 -3.380007
v 1.990289 0.748243 -3.381167
v 1.990288 2.956310 -3.380007
v 1.948701 2.956310 -2.839427
v 1.997469 0.748243 -2.854140
v 1.948702 0.748243 -2.839427
v 1.997468 2.956310 -2.854140
v 1.922663 0.748243 -2.894067
v 1.922662 2.956310 -2.894067
v 1.990867 0.748243 -2.907779
v 1.990867 2.956310 -2.907779
v 1.957471 0.748243 -2.802097
v 1.957470 2.956310 -2.802097
v 1.998518 0.748243 -3.140837
v 1.998517 2.956310 -3.140837
v 1.913772 0.748243 -3.092946
v 1.913771 2.956310 -3.092946
v 1.991413 0.748243 -3.102934
v 1.991412 2.956310 -3.102934
v 1.991893 2.956310 -2.997812
v 1.991894 0.748243 -2.997812
v 1.999504 0.748243 -2.934592
v 1.999504 2.956310 -2.934592
v 1.915253 2.956310 -3.361857
v 1.915253 0.748243 -3.361857
v 1.918555 0.748243 -3.388928
v 1.918555 2.956310 -3.388928
v 1.921193 0.748243 -3.199961
v 1.921193 2.956310 -3.199961
v 1.947567 2.956310 -3.016481
v 1.947567 0.748243 -3.016481
v 2.002847 0.748243 -3.507179
v 2.002846 2.956310 -3.507179
v 1.917197 0.748243 -2.856339
v 1.917196 2.956310 -2.856339
v 1.919614 2.956310 -3.295143
v 1.919615 0.748243 -3.295143
v 1.913545 2.956310 -3.147294
v 1.913546 0.748243 -3.147294
v 1.922293 2.956310 -3.399690
v 1.922294 0.748243 -3.399690
v 1.926607 2.956310 -2.846242
v 1.926608 0.748243 -2.846242
v 2.001940 0.748243 -2.707179
v 2.001939 2.956310 -2.707179
v 1.953513 0.748243 -3.329360
v 1.985862 -0.143690 -3.346034
v 1.953513 -0.143690 -3.329360
v 1.985862 0.748243 -3.346034
v 1.922627 0.748243 -3.269216
v 1.922627 -0.143690 -3.269216
v 1.926652 0.748243 -3.331600
v 1.926652 -0.143690 -3.331600
v 1.924156 -0.143690 -3.451280
v 1.926740 0.748243 -3.443059
v 1.926741 -0.143690 -3.443059
v 1.924156 0.748243 -3.451280
v 1.993421 -0.143690 -3.274823
v 1.962791 0.748243 -3.288187
v 1.962792 -0.143690 -3.288187
v 1.993421 0.748243 -3.274823
v 2.004429 -0.143690 -3.057255
v 2.008990 0.748243 -3.017407
v 2.008991 -0.143690 -3.017407
v 2.004428 0.748243 -3.057255
v 2.005147 -0.143690 -3.283962
v 2.005147 0.748243 -3.283962
v 2.010137 0.748243 -2.839697
v 2.001316 -0.143690 -2.781510
v 2.010137 -0.143690 -2.839697
v 2.001316 0.748243 -2.781510
v 1.993816 0.748243 -3.057775
v 1.993816 -0.143690 -3.057775
v 2.004905 -0.143690 -3.432835
v 2.004178 0.748243 -3.397348
v 2.004179 -0.143690 -3.397348
v 2.004905 0.748243 -3.432835
v 1.934927 -0.143690 -2.731445
v 1.934926 0.748243 -2.731445
v 1.923850 0.748243 -3.300432
v 1.923851 -0.143690 -3.300432
v 1.921755 -0.143690 -2.824793
v 1.910137 0.748243 -2.814661
v 1.910137 -0.143690 -2.814661
v 1.921755 0.748243 -2.824793
v 1.933024 0.748243 -3.437457
v 1.955689 -0.143690 -3.436861
v 1.933025 -0.143690 -3.437457
v 1.955689 0.748243 -3.436861
v 1.921273 0.748243 -2.928131
v 1.921273 -0.143690 -2.928131
v 1.960129 -0.143690 -2.996759
v 1.917338 0.748243 -2.977276
v 1.917338 -0.143690 -2.977276
v 1.960129 0.748243 -2.996759
v 1.912407 0.748243 -3.035957
v 1.927537 -0.143690 -3.014796
v 1.912407 -0.143690 -3.035957
v 1.927537 0.748243 -3.014796
v 1.996437 -0.143690 -3.244682
v 1.996287 0.748243 -3.217385
v 1.996287 -0.143690 -3.217385
v 1.996437 0.748243 -3.244682
v 1.993443 -0.143690 -3.471350
v 1.993443 0.748243 -3.471350
v 1.974651 0.748243 -2.753256
v 1.974652 -0.143690 -2.753256
v 1.915215 0.748243 -2.878202
v 1.915118 -0.143690 -2.860543
v 1.915215 -0.143690 -2.878202
v 1.915118 0.748243 -2.860543
v 2.006457 -0.143690 -3.328990
v 2.006457 0.748243 -3.328990
v 1.932798 0.748243 -3.491851
v 1.932798 -0.143690 -3.491851
v 1.916207 -0.143690 -3.344168
v 1.919314 0.748243 -3.335916
v 1.919315 -0.143690 -3.335916
v 1.916207 0.748243 -3.344168
v 1.990289 0.748243 -3.381167
v 1.990289 -0.143690 -3.380007
v 1.990289 -0.143690 -3.381167
v 1.990289 0.748243 -3.380007
v 1.948702 0.748243 -2.839427
v 1.997469 -0.143690 -2.854140
v 1.948702 -0.143690 -2.839427
v 1.997469 0.748243 -2.854140
v 1.922663 -0.143690 -2.894067
v 1.922663 0.748243 -2.894067
v 1.990868 -0.143690 -2.907779
v 1.955439 0.748243 -2.912560
v 1.955439 -0.143690 -2.912560
v 1.990867 0.748243 -2.907779
v 1.957471 -0.143690 -2.802097
v 1.957471 0.748243 -2.802097
v 1.998518 -0.143690 -3.140837
v 1.998518 0.748243 -3.140837
v 1.913772 -0.143690 -3.092946
v 1.913772 0.748243 -3.092946
v 1.991413 -0.143690 -3.102934
v 1.991413 0.748243 -3.102934
v 1.991894 0.748243 -2.997811
v 1.991894 -0.143690 -2.997811
v 1.999505 -0.143690 -2.934592
v 1.999504 0.748243 -2.934592
v 1.915254 -0.143690 -3.361857
v 1.915253 0.748243 -3.361857
v 1.918555 0.748243 -3.388928
v 1.918555 -0.143690 -3.388928
v 1.921194 -0.143690 -3.199961
v 1.921193 0.748243 -3.199961
v 1.947567 0.748243 -3.016481
v 1.947568 -0.143690 -3.016481
v 2.002847 -0.143690 -3.507179
v 2.002847 0.748243 -3.507179
v 1.917197 -0.143690 -2.856339
v 1.917197 0.748243 -2.856339
v 1.919615 0.748243 -3.295143
v 1.919615 -0.143690 -3.295143
v 1.913546 -0.143690 -3.147294
v 1.913546 0.748243 -3.147294
v 1.922294 0.748243 -3.399690
v 1.922294 -0.143690 -3.399690
v 1.926608 0.748243 -2.846242
v 1.926608 -0.143690 -2.846242
v 2.001940 -0.143690 -2.707179
v 2.001940 0.748243 -2.707179
vt 0.479243 0.393860
vt 0.539653 0.393860
vt 0.539653 0.106140
vt 0.542636 0.106140
vt 0.542636 0.393860
vt 0.469112 0.393860
vt 0.474003 0.393860
vt 0.474003 1.106140
vt 0.458932 0.393860
vt 0.539631 0.393860
vt 0.539631 1.106140
vt 0.551311 0.393860
vt 0.479243 1.106140
vt 0.539653 1.106140
vt 0.539653 0.393860
vt 0.601489 0.393860
vt 0.601489 0.106140
vt 0.593575 0.106140
vt 0.538110 0.106140
vt 0.538110 0.393860
vt 0.555140 0.393860
vt 0.641499 0.106140
vt 0.641499 0.393860
vt 0.659652 0.393860
vt 0.633247 0.393860
vt 0.633247 0.106140
vt 0.617369 0.106140
vt 0.537631 1.106140
vt 0.537631 0.393860
vt 0.460291 0.393860
vt 0.539631 0.106140
vt 0.539631 0.393860
vt 0.551311 0.106140
vt 0.545691 1.106140
vt 0.467763 1.106140
vt 0.467763 0.393860
vt 0.566637 1.106140
vt 0.586784 1.106140
vt 0.586784 0.393860
vt 0.481171 0.393860
vt 0.481171 0.106140
vt 0.455673 0.106140
vt 0.463703 0.106140
vt 0.473078 0.106140
vt 0.473078 0.393860
vt 0.609610 1.106140
vt 0.610129 1.106140
vt 0.610129 0.393860
vt 0.609610 0.393860
vt 0.610129 0.393860
vt 0.610129 0.106140
vt 0.481364 0.393860
vt 0.481364 1.106140
vt 0.356660 1.106140
vt 0.502599 0.393860
vt 0.502599 0.106140
vt 0.485640 0.106140
vt 0.550347 1.106140
vt 0.550347 0.393860
vt 0.536511 0.393860
vt 0.538110 0.393860
vt 0.538110 1.106140
vt 0.555140 1.106140
vt 0.463703 0.393860
vt 0.473078 1.106140
vt 0.461632 0.393860
vt 0.467684 1.106140
vt 0.542486 1.106140
vt 0.542486 0.393860
vt 0.549062 1.106140
vt 0.549062 0.393860
vt 0.536849 0.393860
vt 0.520935 0.393860
vt 0.481364 0.393860
vt 0.481364 0.106140
vt 0.469148 1.106140
vt 0.469148 0.393860
vt 0.461729 0.393860
vt 0.529053 0.393860
vt 0.529053 0.106140
vt 0.505488 0.106140
vt 0.474003 0.106140
vt 0.474003 0.393860
vt 0.458932 0.106140
vt 0.341827 0.393860
vt 0.367861 0.393860
vt 0.367861 0.106140
vt 0.560039 0.393860
vt 0.571640 0.393860
vt 0.571640 0.106140
vt 0.560039 0.393860
vt 0.560039 1.106140
vt 0.571640 1.106140
vt 0.465202 0.393860
vt 0.465202 0.106140
vt 0.447373 0.106140
vt 0.505488 1.106140
vt 0.529053 1.106140
vt 0.529053 0.393860
vt 0.544709 0.393860
vt 0.544709 1.106140
vt 0.460066 1.106140
vt 0.613601 0.393860
vt 0.613601 1.106140
vt 0.618416 1.106140
vt 0.641499 1.106140
vt 0.641499 0.393860
vt 0.637821 0.393860
vt 0.544709 0.106140
vt 0.544709 0.393860
vt 0.460066 0.393860
vt 0.537631 0.393860
vt 0.537631 0.106140
vt 0.460291 0.106140
vt 0.659652 1.106140
vt 0.479469 0.106140
vt 0.479469 0.393860
vt 0.473210 0.393860
vt 0.468244 1.106140
vt 0.468244 0.393860
vt 0.456671 0.393860
vt 0.447373 1.106140
vt 0.465202 1.106140
vt 0.465202 0.393860
vt 0.532102 0.393860
vt 0.499878 0.393860
vt 0.499878 0.106140
vt 0.666510 1.106140
vt 0.666510 0.393860
vt 0.650479 0.393860
vt 0.485640 1.106140
vt 0.502599 1.106140
vt 0.502599 0.393860
vt 0.308569 0.106140
vt 0.308569 0.393860
vt 0.536511 1.106140
vt 0.536511 0.393860
vt 0.468781 0.393860
vt 0.550347 0.393860
vt 0.550347 0.106140
vt 0.536511 0.106140
vt 0.542636 1.106140
vt 0.469112 1.106140
vt 0.469112 0.393860
vt 0.308569 0.393860
vt 0.308569 1.106140
vt 0.520935 1.106140
vt 0.479469 0.393860
vt 0.479469 1.106140
vt 0.473210 1.106140
vt 0.467684 0.393860
vt 0.542486 0.393860
vt 0.542486 0.106140
vt 0.633247 1.106140
vt 0.633247 0.393860
vt 0.617369 0.393860
vt 0.407429 0.393860
vt 0.429418 0.393860
vt 0.429418 0.106140
vt 0.566637 0.393860
vt 0.586784 0.393860
vt 0.586784 0.106140
vt 0.407429 1.106140
vt 0.429418 1.106140
vt 0.429418 0.393860
vt 0.356660 0.393860
vt 0.356660 0.106140
vt 0.341827 1.106140
vt 0.367861 1.106140
vt 0.367861 0.393860
vt 0.549062 0.393860
vt 0.549062 0.106140
vt 0.536849 0.106140
vt 0.377188 0.393860
vt 0.385089 0.393860
vt 0.385089 0.106140
vt 0.468244 0.393860
vt 0.468244 0.106140
vt 0.456671 0.106140
vt 0.545691 0.393860
vt 0.467763 0.393860
vt 0.467763 0.106140
vt 0.532102 1.106140
vt 0.499878 1.106140
vt 0.499878 0.393860
vt 0.501797 0.106140
vt 0.501797 0.393860
vt 0.398323 0.106140
vt 0.377188 1.106140
vt 0.385089 1.106140
vt 0.385089 0.393860
vt 0.481171 1.106140
vt 0.481171 0.393860
vt 0.455673 0.393860
vt 0.536511 0.393860
vt 0.536511 0.106140
vt 0.468781 0.106140
vt 0.666510 0.393860
vt 0.666510 0.106140
vt 0.650479 0.106140
vt 0.637821 0.106140
vt 0.479243 0.106140
vt 0.469112 0.106140
vt 0.493956 0.393860
vt 0.493956 1.106140
vt 0.540025 0.393860
vt 0.540025 1.106140
vt 0.550596 0.393860
vt 0.550596 1.106140
vt 0.458932 1.106140
vt 0.509121 0.393860
vt 0.509121 1.106140
vt 0.470331 0.393860
vt 0.470331 1.106140
vt 0.466112 0.393860
vt 0.466112 1.106140
vt 0.551311 1.106140
vt 0.479243 0.393860
vt 0.618416 0.393860
vt 0.618416 0.106140
vt 0.613601 0.393860
vt 0.613601 0.106140
vt 0.593575 0.393860
vt 0.506468 0.393860
vt 0.506468 0.106140
vt 0.463844 0.393860
vt 0.463844 0.106140
vt 0.555140 0.106140
vt 0.659652 0.106140
vt 0.617369 0.393860
vt 0.460291 1.106140
vt 0.509121 0.106140
vt 0.509121 0.393860
vt 0.470331 0.106140
vt 0.470331 0.393860
vt 0.466112 0.106140
vt 0.466112 0.393860
vt 0.551311 0.393860
vt 0.545691 0.393860
vt 0.566637 0.393860
vt 0.455673 0.393860
vt 0.463703 0.393860
vt 0.495086 0.393860
vt 0.461632 0.106140
vt 0.543663 0.393860
vt 0.556282 0.106140
vt 0.556282 0.393860
vt 0.461632 0.393860
vt 0.543663 0.106140
vt 0.495086 0.106140
vt 0.609610 0.393860
vt 0.609610 0.106140
vt 0.356660 0.393860
vt 0.485640 0.393860
vt 0.536511 1.106140
vt 0.506468 1.106140
vt 0.506468 0.393860
vt 0.463844 1.106140
vt 0.463844 0.393860
vt 0.555140 0.393860
vt 0.495086 0.393860
vt 0.495086 1.106140
vt 0.543663 0.393860
vt 0.543663 1.106140
vt 0.556282 0.393860
vt 0.556282 1.106140
vt 0.473078 0.393860
vt 0.461632 1.106140
vt 0.463703 1.106140
vt 0.467684 0.393860
vt 0.536849 1.106140
vt 0.520935 0.106140
vt 0.410319 1.106140
vt 0.410319 0.393860
vt 0.537088 1.106140
vt 0.398323 0.393860
vt 0.461729 1.106140
vt 0.505488 0.393860
vt 0.493956 0.106140
vt 0.493956 0.393860
vt 0.540025 0.106140
vt 0.540025 0.393860
vt 0.550596 0.106140
vt 0.550596 0.393860
vt 0.458932 0.393860
vt 0.341827 0.106140
vt 0.560039 0.106140
vt 0.571640 0.393860
vt 0.447373 0.393860
vt 0.505488 0.393860
vt 0.460066 0.393860
vt 0.601489 1.106140
vt 0.601489 0.393860
vt 0.593575 1.106140
vt 0.593575 0.393860
vt 0.618416 0.393860
vt 0.637821 1.106140
vt 0.460066 0.106140
vt 0.460291 0.393860
vt 0.659652 0.393860
vt 0.502046 0.393860
vt 0.502046 0.106140
vt 0.551071 0.393860
vt 0.551071 0.106140
vt 0.473210 0.106140
vt 0.547495 1.106140
vt 0.547495 0.393860
vt 0.503821 1.106140
vt 0.503821 0.393860
vt 0.456671 1.106140
vt 0.447373 0.393860
vt 0.532102 0.106140
vt 0.473122 0.106140
vt 0.552617 0.393860
vt 0.589882 0.106140
vt 0.552617 0.106140
vt 0.465812 0.393860
vt 0.473122 0.393860
vt 0.650479 1.106140
vt 0.485640 0.393860
vt 0.468781 1.106140
vt 0.536511 0.393860
vt 0.542636 0.393860
vt 0.520935 0.393860
vt 0.502046 1.106140
vt 0.502046 0.393860
vt 0.551071 1.106140
vt 0.551071 0.393860
vt 0.473210 0.393860
vt 0.467684 0.106140
vt 0.617369 1.106140
vt 0.407429 0.106140
vt 0.566637 0.106140
vt 0.407429 0.393860
vt 0.341827 0.393860
vt 0.536849 0.393860
vt 0.377188 0.106140
vt 0.547495 0.393860
vt 0.547495 0.106140
vt 0.503821 0.393860
vt 0.503821 0.106140
vt 0.456671 0.393860
vt 0.545691 0.106140
vt 0.532102 0.393860
vt 0.473122 0.393860
vt 0.552617 1.106140
vt 0.589883 0.393860
vt 0.552617 0.393860
vt 0.465812 1.106140
vt 0.473122 1.106140
vt 0.410319 0.393860
vt 0.410319 0.106140
vt 0.537088 0.393860
vt 0.469148 0.393860
vt 0.461729 0.106140
vt 0.461729 0.393860
vt 0.469148 0.106140
vt 0.377188 0.393860
vt 0.455673 1.106140
vt 0.468781 0.393860
vt 0.650479 0.393860
vt 0.637821 0.393860
vn -0.4947 -0.0000 -0.8691
vn -0.4742 -0.0000 -0.8804
vn -0.8126 -0.0000 0.5828
vn -0.7758 -0.0000 0.6309
vn -0.4197 -0.0000 0.9077
vn -0.9558 -0.0000 0.2940
vn -0.1250 -0.0000 -0.9922
vn -0.8920 -0.0000 -0.4519
vn -0.9994 -0.0000 -0.0338
vn -0.9787 -0.0000 0.2055
vn -0.4289 -0.0000 -0.9034
vn -0.9548 -0.0000 -0.2971
vn -0.9989 -0.0000 0.0473
vn -0.7423 -0.0000 0.6701
vn -0.9342 -0.0000 -0.3569
vn -0.6865 -0.0000 -0.7271
vn -0.7429 -0.0000 -0.6694
vn -0.8921 -0.0000 -0.4519
vn -0.7833 -0.0000 0.6216
vn -0.6475 -0.0000 0.7621
vn -0.9110 -0.0000 0.4125
vn -0.8226 -0.0000 0.5686
vn -0.5311 -0.0000 0.8473
vn -0.6008 -0.0000 -0.7994
vn -0.9378 -0.0000 -0.3473
vn -0.3798 -0.0000 0.9251
vn -0.9605 -0.0000 -0.2783
vn -0.7932 -0.0000 0.6090
vn -0.8229 0.0009 0.5681
vn -0.5312 -0.0003 0.8472
vn -0.9742 0.0009 0.2255
vn -0.7361 -0.0000 -0.6769
vn -0.7812 -0.0000 -0.6242
vn -0.2638 0.0000 0.9646
vn -0.6172 -0.0000 -0.7868
vn -0.9754 -0.0000 -0.2204
vn -0.7805 -0.0000 0.6252
vn -0.4712 0.0000 -0.8820
vn -0.9597 0.0000 0.2810
vn -0.9611 -0.0000 -0.2761
vn -0.9611 -0.0000 -0.2762
vn -0.6838 -0.0000 0.7297
vn -0.9741 -0.0000 -0.2259
vn -0.4594 -0.0000 -0.8882
vn -0.8399 -0.0000 0.5427
vn -0.3683 -0.0000 0.9297
vn -0.0755 0.0000 -0.9971
vn -0.6837 -0.0000 0.7297
vn -0.1075 -0.0000 0.9942
vn 0.1951 0.0000 0.9808
vn -0.9672 -0.0000 -0.2539
vn -0.8604 -0.0000 0.5096
vn -0.8619 -0.0000 -0.5071
vn -0.9744 -0.0000 0.2249
vn -0.1886 -0.0000 -0.9820
vn -0.5333 -0.0000 -0.8459
vn 0.3953 0.0000 0.9186
vn 0.3334 0.0000 0.9428
vn 0.3504 0.0000 -0.9366
vn -0.2912 -0.0000 -0.9567
vn -0.9742 -0.0000 -0.2259
vn -0.2282 -0.0000 -0.9736
vn -0.2911 -0.0000 -0.9567
vn -0.0031 -0.0000 1.0000
vn -0.2753 0.0000 0.9614
vn -0.8225 -0.0003 0.5687
vn -0.6660 -0.0000 -0.7460
vn -0.0539 -0.0000 0.9985
vn 0.4816 0.0000 -0.8764
vn 0.4817 0.0000 -0.8764
vn -0.3026 -0.0000 0.9531
vn -0.7651 -0.0000 0.6439
vn -0.7651 -0.0000 0.6440
vn -0.7331 -0.0000 -0.6802
usemtl (null)
s 1
f 189/1/1 180/2/2 179/3/2
f 175/4/3 178/5/3 125/6/4
f 52/7/5 54/8/5 53/9/6
f 13/10/7 16/11/7 21/12/8
f 69/13/1 60/14/2 59/15/2
f 222/16/9 221/17/9 191/18/10
f 218/19/11 217/20/11 138/21/12
f 129/22/13 132/23/13 189/24/1
f 152/25/14 149/26/14 151/27/15
f 94/28/16 93/29/16 91/30/17
f 133/31/7 136/32/7 141/33/18
f 98/34/19 45/35/20 46/36/20
f 22/37/18 68/38/21 67/39/21
f 214/40/17 213/41/17 173/42/6
f 231/43/22 240/44/23 239/45/23
f 78/46/24 75/47/25 77/48/25
f 198/49/24 195/50/25 197/51/25
f 33/52/26 34/53/26 38/54/27
f 212/55/28 211/56/28 215/57/16
f 30/58/15 31/59/15 77/60/25
f 96/61/11 95/62/11 20/63/12
f 109/64/29 117/65/30 64/66/31
f 104/67/32 56/68/33 57/69/33
f 58/70/3 55/71/3 57/72/33
f 181/73/34 154/74/26 153/75/26
f 84/76/35 83/77/35 65/78/36
f 226/79/32 225/80/32 235/81/37
f 172/82/5 174/83/5 173/84/6
f 146/85/38 143/86/39 145/87/39
f 125/88/4 233/89/40 234/90/41
f 6/91/4 5/92/4 111/93/41
f 140/94/42 137/95/42 139/96/12
f 113/97/37 104/98/32 103/99/32
f 89/100/28 90/101/28 113/102/37
f 101/103/43 102/104/43 115/105/44
f 12/106/13 9/107/13 11/108/45
f 211/109/28 212/110/28 236/111/37
f 216/112/16 215/113/16 213/114/17
f 9/107/13 12/106/13 69/115/1
f 163/116/46 161/117/46 130/118/45
f 40/119/47 37/120/47 39/121/27
f 20/122/12 17/123/48 19/124/42
f 124/125/49 121/126/50 123/127/50
f 108/128/51 107/129/51 59/130/2
f 94/131/16 90/132/28 89/133/28
f 241/134/52 242/135/52 181/73/34
f 78/136/24 76/137/24 116/138/44
f 150/139/15 151/140/15 197/141/25
f 58/142/3 5/143/4 6/144/4
f 119/145/52 120/146/52 61/147/34
f 43/148/46 41/149/46 10/150/45
f 226/151/32 176/152/33 177/153/33
f 32/154/14 29/155/14 31/156/15
f 165/157/20 168/158/53 169/159/53
f 142/160/18 188/161/21 187/162/21
f 45/163/20 48/164/53 49/165/53
f 154/74/26 158/166/27 159/167/27
f 26/168/38 23/169/39 25/170/39
f 178/171/3 175/172/3 177/173/33
f 186/174/54 183/175/36 185/176/36
f 160/177/47 157/178/47 159/179/27
f 220/180/19 165/181/20 166/182/20
f 4/183/49 1/184/50 3/185/50
f 207/186/55 206/187/55 205/188/56
f 66/189/54 63/190/36 65/191/36
f 92/192/17 91/193/17 53/194/6
f 198/195/24 196/196/24 238/197/44
f 61/147/34 34/53/26 33/52/26
f 230/198/51 229/199/51 179/200/2
f 132/23/13 129/22/13 131/201/45
f 189/1/1 179/3/2 190/202/1
f 175/4/3 125/6/4 126/203/4
f 54/8/5 106/204/57 105/205/57
f 105/205/57 28/206/58 27/207/58
f 27/207/58 19/208/42 17/209/48
f 28/206/58 105/205/57 106/204/57
f 106/204/57 54/8/5 52/7/5
f 27/207/58 28/206/58 19/208/42
f 53/9/6 54/8/5 51/210/6
f 16/11/7 15/211/59 14/212/59
f 14/212/59 36/213/60 35/214/60
f 35/214/60 112/215/41 111/216/41
f 36/213/60 14/212/59 15/211/59
f 15/211/59 16/11/7 13/10/7
f 35/214/60 36/213/60 112/215/41
f 21/12/8 16/11/7 22/217/18
f 69/13/1 59/15/2 70/218/1
f 237/219/44 238/220/44 223/221/61
f 223/221/61 224/222/43 222/16/9
f 238/220/44 224/222/43 223/221/61
f 222/16/9 191/18/10 194/223/10
f 221/17/9 222/16/9 224/222/43
f 217/20/11 218/19/11 170/224/62
f 170/224/62 167/225/62 168/226/53
f 218/19/11 167/225/62 170/224/62
f 168/226/53 167/225/62 169/227/53
f 218/19/11 138/21/12 139/228/12
f 129/22/13 189/24/1 190/229/1
f 152/25/14 151/27/15 150/230/15
f 94/28/16 91/30/17 92/231/17
f 136/32/7 135/232/59 134/233/59
f 134/233/59 156/234/63 155/235/60
f 155/235/60 234/236/41 233/237/40
f 156/234/63 134/233/59 135/232/59
f 135/232/59 136/32/7 133/31/7
f 155/235/60 156/234/63 234/236/41
f 141/33/18 136/32/7 142/238/18
f 98/34/19 46/36/20 97/239/19
f 22/37/18 67/39/21 21/240/8
f 214/40/17 173/42/6 171/241/6
f 232/242/22 231/43/22 239/45/23
f 239/45/23 240/44/23 199/243/64
f 232/242/22 184/244/54 231/43/22
f 202/245/65 145/246/39 143/247/39
f 186/248/54 184/244/54 232/242/22
f 199/243/64 200/249/65 202/245/65
f 202/245/65 200/249/65 145/246/39
f 200/249/65 199/243/64 201/250/64
f 201/250/64 199/243/64 240/44/23
f 78/46/24 77/48/25 76/251/24
f 198/49/24 197/51/25 196/252/24
f 33/52/26 38/54/27 39/253/27
f 212/55/28 215/57/16 216/254/16
f 30/58/15 77/60/25 75/255/25
f 95/62/11 96/61/11 50/256/62
f 50/256/62 47/257/62 48/258/53
f 96/61/11 47/257/62 50/256/62
f 48/258/53 47/257/62 49/259/53
f 96/61/11 20/63/12 18/260/12
f 117/65/30 81/261/64 79/262/64
f 79/262/64 80/263/65 82/264/65
f 82/264/65 25/265/39 23/266/39
f 80/263/65 79/262/64 81/261/64
f 81/261/64 117/65/30 118/267/23
f 82/264/65 80/263/65 25/265/39
f 66/268/54 64/66/31 110/269/66
f 110/269/66 64/66/31 117/65/30
f 118/267/23 117/65/30 109/64/29
f 104/67/32 57/69/33 103/270/32
f 58/70/3 57/72/33 56/271/33
f 181/73/34 153/75/26 182/272/34
f 98/273/19 97/274/19 86/275/67
f 86/275/67 85/276/67 84/76/35
f 97/274/19 85/276/67 86/275/67
f 84/76/35 65/78/36 63/277/36
f 83/77/35 84/76/35 85/276/67
f 226/79/32 235/81/37 236/278/37
f 174/83/5 228/279/57 227/280/57
f 227/280/57 148/281/58 147/282/58
f 147/282/58 137/283/42 140/284/42
f 148/281/58 227/280/57 228/279/57
f 228/279/57 174/83/5 172/82/5
f 147/282/58 148/281/58 137/283/42
f 173/84/6 174/83/5 171/285/6
f 146/85/38 145/87/39 144/286/38
f 125/88/4 234/90/41 126/287/4
f 6/91/4 111/93/41 112/288/41
f 140/94/42 139/96/12 138/289/12
f 113/97/37 103/99/32 114/290/37
f 89/100/28 113/102/37 114/291/37
f 102/104/43 101/103/43 99/292/9
f 99/292/9 100/293/9 74/294/10
f 101/103/43 100/293/9 99/292/9
f 74/294/10 100/293/9 71/295/10
f 101/103/43 115/105/44 116/296/44
f 12/106/13 11/108/45 10/297/45
f 211/109/28 236/111/37 235/298/37
f 216/112/16 213/114/17 214/299/17
f 9/107/13 69/115/1 70/300/1
f 161/117/46 163/116/46 164/301/68
f 164/301/68 162/302/68 152/303/14
f 163/116/46 162/302/68 164/301/68
f 152/303/14 162/302/68 149/304/14
f 163/116/46 130/118/45 131/305/45
f 26/306/38 24/307/38 88/308/69
f 88/308/69 87/309/70 40/119/47
f 24/307/38 87/309/70 88/308/69
f 40/119/47 39/121/27 38/310/27
f 37/120/47 40/119/47 87/309/70
f 20/122/12 19/124/42 18/311/12
f 122/312/49 124/125/49 123/127/50
f 123/127/50 121/126/50 128/313/71
f 122/312/49 188/314/21 124/125/49
f 193/315/72 194/223/10 191/18/10
f 187/316/21 188/314/21 122/312/49
f 128/313/71 192/317/73 193/315/72
f 193/315/72 192/317/73 194/223/10
f 192/317/73 128/313/71 127/318/71
f 127/318/71 128/313/71 121/126/50
f 108/128/51 59/130/2 60/319/2
f 94/131/16 89/133/28 93/320/16
f 241/134/52 181/73/34 182/272/34
f 78/136/24 116/138/44 115/321/44
f 150/139/15 197/141/25 195/322/25
f 58/142/3 6/144/4 55/323/3
f 119/145/52 61/147/34 62/324/34
f 41/149/46 43/148/46 44/325/68
f 44/325/68 42/326/68 32/327/14
f 43/148/46 42/326/68 44/325/68
f 32/327/14 42/326/68 29/328/14
f 43/148/46 10/150/45 11/329/45
f 226/151/32 177/153/33 225/330/32
f 32/154/14 31/156/15 30/331/15
f 165/157/20 169/159/53 166/332/20
f 142/160/18 187/162/21 141/333/18
f 45/163/20 49/165/53 46/334/20
f 154/74/26 159/167/27 153/75/26
f 26/168/38 25/170/39 24/335/38
f 178/171/3 177/173/33 176/336/33
f 186/174/54 185/176/36 184/337/54
f 146/338/38 144/339/38 210/340/70
f 210/340/70 209/341/70 160/177/47
f 144/339/38 209/341/70 210/340/70
f 160/177/47 159/179/27 158/342/27
f 157/178/47 160/177/47 209/341/70
f 220/180/19 166/182/20 219/343/19
f 2/344/49 4/183/49 3/185/50
f 3/185/50 1/184/50 8/345/71
f 2/344/49 68/346/21 4/183/49
f 73/347/73 74/294/10 71/295/10
f 67/348/21 68/346/21 2/344/49
f 8/345/71 72/349/72 73/347/73
f 73/347/73 72/349/72 74/294/10
f 72/349/72 8/345/71 7/350/71
f 7/350/71 8/345/71 1/184/50
f 220/351/19 219/352/19 208/353/56
f 208/353/56 205/188/56 206/187/55
f 219/352/19 205/188/56 208/353/56
f 204/354/74 185/355/36 183/356/36
f 206/187/55 203/357/74 204/354/74
f 204/354/74 203/357/74 185/355/36
f 203/357/74 206/187/55 207/186/55
f 66/189/54 65/191/36 64/358/31
f 92/192/17 53/194/6 51/359/6
f 198/195/24 238/197/44 237/360/44
f 61/147/34 33/52/26 62/324/34
f 230/198/51 179/200/2 180/361/2
f 132/23/13 131/201/45 130/362/45
