# Blender v3.3.0 OBJ File: 'uploads_files_1955404_fancy+spout_cgtrader.blend'
# www.blender.org
o Cube
v -0.095046 2.185572 0.095046
v -0.095046 3.057220 0.095046
v -0.095046 2.185572 -0.095046
v -0.095046 3.057220 -0.095046
v 0.095046 2.185572 0.095046
v 0.095046 3.057220 0.095046
v 0.095046 2.185572 -0.095046
v 0.095046 3.057220 -0.095046
v -0.095046 2.621396 0.095046
v -0.095046 2.621396 -0.095046
v 0.095046 2.621396 -0.095046
v 0.095046 2.621396 0.095046
v -0.095046 2.849406 0.071476
v -0.095046 2.849406 -0.071476
v 0.095046 2.839308 -0.095046
v 0.095046 2.839308 0.095046
v -0.095046 2.938167 0.071476
v -0.095046 2.938167 -0.071476
v 0.095046 2.948264 -0.095046
v 0.095046 2.948264 0.095046
v -0.095046 2.948264 -0.095046
v -0.095046 2.839308 -0.095046
v -0.095046 2.839308 0.095046
v -0.095046 2.948264 0.095046
v -0.490685 2.929276 -0.071476
v -0.437389 2.858297 -0.071476
v -0.437389 2.858297 0.071476
v -0.490685 2.929276 0.071476
v -0.531732 2.893532 -0.071476
v -0.453937 2.850794 -0.071476
v -0.453937 2.850794 0.071476
v -0.531732 2.893532 0.071476
v -0.556318 2.842557 -0.071476
v -0.468339 2.830799 -0.071476
v -0.468339 2.830799 0.071476
v -0.556318 2.842557 0.071476
vt 0.625000 0.000000
vt 0.593750 0.250000
vt 0.593750 0.000000
vt 0.625000 0.250000
vt 0.593750 0.500000
vt 0.625000 0.500000
vt 0.593750 0.750000
vt 0.625000 0.750000
vt 0.593750 1.000000
vt 0.375000 0.500000
vt 0.125000 0.750000
vt 0.125000 0.500000
vt 0.875000 0.500000
vt 0.500000 0.750000
vt 0.375000 1.000000
vt 0.375000 0.750000
vt 0.500000 0.500000
vt 0.500000 0.250000
vt 0.375000 0.250000
vt 0.500000 0.000000
vt 0.375000 0.000000
vt 0.562500 0.750000
vt 0.500000 1.000000
vt 0.562500 0.500000
vt 0.562500 0.250000
vt 0.562500 0.000000
vt 0.562500 1.000000
vt 0.585186 0.008564
vt 0.571064 0.008564
vt 0.571064 0.008564
vt 0.585186 0.241436
vt 0.571064 0.241436
vt 0.585186 0.008564
vt 0.571064 0.008564
vt 0.571064 0.241436
vt 0.585186 0.241436
vt 0.585186 0.241436
vt 0.585186 0.008564
vt 0.585186 0.008564
vt 0.571064 0.241436
vt 0.571064 0.241436
vt 0.571064 0.008564
vt 0.585186 0.241436
vt 0.625000 1.000000
vt 0.875000 0.750000
vn -1.0000 0.0000 0.0000
vn 0.0000 0.0000 -1.0000
vn 1.0000 0.0000 0.0000
vn 0.0000 0.0000 1.0000
vn 0.0000 -1.0000 0.0000
vn 0.0000 1.0000 0.0000
vn -0.0225 0.9997 0.0000
vn -0.0260 -0.9997 0.0000
vn -0.9007 0.4344 0.0000
vn -0.6567 0.7541 0.0000
vn 0.4129 -0.9108 0.0000
vn -0.1325 -0.9912 0.0000
vn 0.8114 -0.5845 0.0000
s off
f 2/1/1 21/2/1 24/3/1
f 4/4/2 19/5/2 21/2/2
f 8/6/3 20/7/3 19/5/3
f 6/8/4 24/9/4 20/7/4
f 7/10/5 1/11/5 3/12/5
f 4/13/6 6/8/6 8/6/6
f 12/14/4 1/15/4 5/16/4
f 11/17/3 5/16/3 7/10/3
f 10/18/2 7/10/2 3/19/2
f 9/20/1 3/19/1 1/21/1
f 16/22/4 9/23/4 12/14/4
f 15/24/3 12/14/3 11/17/3
f 22/25/2 11/17/2 10/18/2
f 23/26/1 10/18/1 9/20/1
f 20/7/4 23/27/4 16/22/4
f 19/5/3 16/22/3 15/24/3
f 21/2/2 15/24/2 22/25/2
f 17/28/4 27/29/4 13/30/4
f 18/31/1 22/25/1 14/32/1
f 13/30/1 22/25/1 23/26/1
f 13/30/1 24/3/1 17/28/1
f 18/31/1 24/3/1 21/2/1
f 28/33/4 31/34/4 27/29/4
f 18/31/2 26/35/2 25/36/2
f 18/31/7 28/33/7 17/28/7
f 13/30/8 26/35/8 14/32/8
f 29/37/9 36/38/9 32/39/9
f 25/36/2 30/40/2 29/37/2
f 25/36/10 32/39/10 28/33/10
f 27/29/11 30/40/11 26/35/11
f 36/38/12 34/41/12 35/42/12
f 31/34/13 34/41/13 30/40/13
f 32/39/4 35/42/4 31/34/4
f 29/37/2 34/41/2 33/43/2
f 2/1/1 4/4/1 21/2/1
f 4/4/2 8/6/2 19/5/2
f 8/6/3 6/8/3 20/7/3
f 6/8/4 2/44/4 24/9/4
f 7/10/5 5/16/5 1/11/5
f 4/13/6 2/45/6 6/8/6
f 12/14/4 9/23/4 1/15/4
f 11/17/3 12/14/3 5/16/3
f 10/18/2 11/17/2 7/10/2
f 9/20/1 10/18/1 3/19/1
f 16/22/4 23/27/4 9/23/4
f 15/24/3 16/22/3 12/14/3
f 22/25/2 15/24/2 11/17/2
f 23/26/1 22/25/1 10/18/1
f 20/7/4 24/9/4 23/27/4
f 19/5/3 20/7/3 16/22/3
f 21/2/2 19/5/2 15/24/2
f 17/28/4 28/33/4 27/29/4
f 18/31/1 21/2/1 22/25/1
f 13/30/1 14/32/1 22/25/1
f 13/30/1 23/26/1 24/3/1
f 18/31/1 17/28/1 24/3/1
f 28/33/4 32/39/4 31/34/4
f 18/31/2 14/32/2 26/35/2
f 18/31/7 25/36/7 28/33/7
f 13/30/8 27/29/8 26/35/8
f 29/37/9 33/43/9 36/38/9
f 25/36/2 26/35/2 30/40/2
f 25/36/10 29/37/10 32/39/10
f 27/29/11 31/34/11 30/40/11
f 36/38/12 33/43/12 34/41/12
f 31/34/13 35/42/13 34/41/13
f 32/39/4 36/38/4 35/42/4
f 29/37/2 30/40/2 34/41/2
