# Blender v3.3.0 OBJ File: 'untitled.blend'
# www.blender.org
mtllib house.mtl
o Cube.022_Cube.040
v -0.156579 0.170021 9.780519
v -1.356580 0.170021 9.780519
v -4.256578 0.170021 9.780519
v -4.256578 0.170021 5.530520
v 3.443421 0.170021 3.830520
v 3.443421 0.170021 5.730520
v -1.356580 0.170021 5.730520
v -0.156579 0.170021 9.980520
v -1.356580 0.170021 3.630519
v 3.643421 0.170021 5.530520
v 3.643421 0.170021 9.780519
v 3.643421 0.170021 3.830520
v -1.356580 0.170021 9.980520
v 3.643421 0.170021 5.730520
v 3.643421 0.170021 9.980520
v -4.256578 0.170021 5.730520
v -0.156579 0.170021 3.630519
v -1.556580 0.170021 5.730520
v -1.356580 0.170021 3.830520
v -1.556580 0.170021 3.630519
v -0.156579 0.170021 3.830520
v 3.643421 0.170021 3.630519
v -1.556580 0.170021 5.530520
v -4.456578 0.170021 5.530520
v 3.443421 0.170021 9.780519
v -4.456578 0.170021 9.980520
v -3.556579 0.170021 5.530520
v -2.556579 0.170021 5.730520
v -2.556579 0.170021 5.530520
v -1.256579 0.170021 3.630519
v -1.256579 0.170021 3.830520
v -0.256580 0.170021 3.630519
v 3.643421 0.170021 9.280520
v -1.256579 0.170021 9.980520
v -1.256579 0.170021 9.780519
v -0.256580 0.170021 9.780519
v 3.443421 0.570021 5.730520
v 3.443421 0.570021 5.530520
v 3.443421 0.570021 3.830520
v 3.443421 0.570021 9.280520
v 3.443421 2.370021 5.530520
v 3.443421 2.370021 3.830520
v 3.443421 2.370021 5.730520
v 3.643421 2.370021 5.730520
v 3.643421 2.370021 9.280520
v -1.256579 2.370021 3.630519
v -0.256580 2.370021 9.980520
v -3.556579 2.370021 5.730520
v -3.556579 2.370021 5.530520
v 3.443421 2.370021 9.280520
v -0.256580 2.370021 9.780519
v -2.556579 2.370021 5.530520
v -0.256580 2.370021 3.630519
v -1.256579 2.370021 9.780519
v -0.156579 3.370021 9.780519
v -0.156579 3.370021 9.980520
v 3.443421 3.370021 5.730520
v -4.256578 3.370021 9.780519
v 3.443421 3.370021 3.830520
v -1.556580 3.370021 3.630519
v -1.356580 3.370021 5.730520
v -1.556580 3.370021 5.730520
v -4.256578 3.370021 5.530520
v 3.643421 3.370021 9.980520
v 3.643421 3.370021 5.730520
v -1.356580 3.370021 3.830520
v -0.156579 3.370021 3.830520
v -0.156579 3.370021 3.630519
v 3.443421 3.370021 9.780519
v 3.643421 3.370021 9.780519
v -1.356580 3.370021 9.980520
v -1.356580 3.370021 9.780519
v -1.356580 3.370021 3.630519
v -4.256578 3.370021 5.730520
v 3.643421 3.370021 3.630519
v -4.456578 3.370021 9.980520
v -1.556580 3.370021 5.530520
v -4.456578 3.370021 5.530520
v 3.443421 0.170021 9.280520
v 3.643421 3.370021 9.280520
v 3.443421 3.370021 9.280520
v 3.643421 0.570021 5.530520
v 3.643421 0.570021 3.830520
v 3.643421 0.570021 5.730520
v 3.643421 0.570021 9.280520
v 3.643421 2.370021 5.530520
v 3.643421 2.370021 3.830520
v -3.556579 0.170021 5.730520
v -0.256580 0.170021 3.830519
v -0.256580 0.170021 9.980520
v -1.256579 2.370021 9.980520
v -2.556579 2.370021 5.730520
v -0.256580 2.370021 3.830519
v -1.256579 2.370021 3.830519
v 3.443421 2.370021 5.880520
v 3.443421 0.570021 5.880520
v 3.643421 0.570021 5.880520
v 3.643421 2.370021 5.880520
vt 0.501267 0.714571
vt 0.353119 0.714571
vt 0.488922 0.591114
vt 0.110501 0.714571
vt 0.135192 0.319509
vt 0.110501 0.319509
vt 0.365465 0.591114
vt 0.353119 0.714571
vt 0.501267 0.714571
vt 0.353119 0.869760
vt 0.365465 0.894452
vt 0.365465 0.869760
vt 0.501267 0.135192
vt 0.488922 0.110501
vt 0.488922 0.135192
vt 0.945712 0.635192
vt 0.970403 0.196921
vt 0.945712 0.196921
vt 0.081514 0.635192
vt -0.004905 0.659884
vt 0.081514 0.659884
vt 0.328428 0.635192
vt 0.204971 0.659884
vt 0.328428 0.659884
vt 0.488922 0.869760
vt 0.501267 0.894452
vt 0.501267 0.869760
vt 0.970403 0.135192
vt 0.945712 0.135192
vt 0.365465 0.135192
vt 0.353119 0.110501
vt 0.353119 0.135192
vt 0.945712 0.635192
vt 0.970403 0.196921
vt 0.945712 0.196921
vt 0.353119 0.714571
vt 0.501267 0.714571
vt 0.365465 0.591114
vt 0.945712 0.869760
vt 0.970403 0.869760
vt 0.970403 0.659884
vt 0.110501 0.714571
vt 0.135192 0.319509
vt 0.110501 0.319509
vt -0.029597 0.714571
vt -0.004905 0.319509
vt -0.029597 0.319509
vt 0.353119 0.635192
vt 0.328428 0.894452
vt 0.353119 0.894452
vt 0.970403 0.635192
vt 0.945712 0.616674
vt 0.945712 0.635192
vt 0.328428 0.894452
vt 0.353119 0.635192
vt 0.353119 0.894452
vt -0.029597 0.659884
vt -0.004905 0.135192
vt 0.970403 0.368892
vt 0.945712 0.319509
vt 0.945712 0.368892
vt 0.970403 0.319509
vt 0.970403 0.714571
vt 0.353119 0.319509
vt -0.029597 0.714571
vt -0.029597 0.319509
vt 0.659884 0.591114
vt 0.635192 0.319509
vt 0.659884 0.319509
vt 0.635192 0.319509
vt 0.196921 0.368892
vt 0.196921 0.319509
vt -0.004905 0.319509
vt 0.353119 0.319509
vt 0.501267 0.894452
vt 0.353119 0.869760
vt 0.501267 0.869760
vt 0.353119 0.714571
vt 0.328428 0.319509
vt 0.353119 0.319509
vt 0.635192 0.714571
vt 0.894452 0.319509
vt 0.635192 0.319509
vt 0.204971 0.591114
vt 0.081514 0.591114
vt -0.004905 0.714571
vt 0.204971 0.659884
vt 0.081514 0.635192
vt 0.081514 0.659884
vt 0.135192 0.714571
vt 0.501267 0.110501
vt 0.353119 0.135192
vt 0.353119 0.110501
vt 0.328428 0.714571
vt 0.353119 0.319509
vt 0.328428 0.319509
vt 0.970403 0.135192
vt 0.970403 0.110501
vt 0.135192 0.714571
vt 0.110501 0.319509
vt 0.135192 0.319509
vt 0.869760 0.714571
vt 0.894452 0.319509
vt 0.869760 0.319509
vt 0.869760 0.319509
vt 0.659884 0.368892
vt 0.659884 0.319509
vt 0.635192 0.714571
vt 0.659884 0.319509
vt 0.635192 0.319509
vt 0.659884 0.591114
vt 0.635192 0.368892
vt 0.635192 0.591114
vt 0.970403 0.319509
vt 0.894452 0.319509
vt 0.869760 0.591114
vt 0.894452 0.591114
vt 0.659884 0.591114
vt 0.869760 0.591114
vt 0.894452 0.714571
vt 0.659884 0.714571
vt 0.659884 0.319509
vt 0.501267 0.714571
vt 0.353119 0.714571
vt 0.488922 0.591114
vt 0.869760 0.714571
vt 0.894452 0.319509
vt 0.869760 0.319509
vt 0.970403 0.319509
vt 0.970403 0.714571
vt 0.635192 0.591114
vt 0.196921 0.714571
vt 0.196921 0.591114
vt 0.204971 0.591114
vt 0.328428 0.714571
vt -0.004905 0.714571
vt 0.635192 0.714571
vt 0.894452 0.714571
vt 0.635192 0.319509
vt 0.659884 0.591114
vt 0.659884 0.319509
vt 0.970403 0.714571
vt 0.501267 0.319509
vt 0.970403 0.319509
vt 0.894452 0.591114
vt 0.869760 0.319509
vt 0.894452 0.319509
vt 0.945712 0.869760
vt 0.970403 0.635192
vt 0.970403 0.894452
vt 0.970403 0.110501
vt 0.970403 0.196921
vt 0.945712 0.635192
vt 0.945712 0.196921
vt -0.029597 0.110501
vt -0.004905 0.135192
vt -0.029597 0.659884
vt 0.945712 0.135192
vt 0.659884 0.714571
vt 0.135192 0.319509
vt 0.894452 0.714571
vt 0.970403 0.591114
vt 0.945712 0.714571
vt 0.945712 0.591114
vt 0.196921 0.368892
vt 0.196921 0.319509
vt 0.135192 0.319509
vt 0.945712 0.714571
vt 0.196921 0.591114
vt 0.635192 0.714571
vt 0.635192 0.319509
vt 0.945712 0.591114
vt 0.970403 0.368892
vt 0.945712 0.368892
vt 0.945712 0.869760
vt 0.970403 0.659884
vt 0.945712 0.659884
vt 0.945712 0.591114
vt 0.970403 0.368892
vt 0.945712 0.368892
vt 0.945712 0.659884
vt 0.970403 0.869760
vt 0.945712 0.869760
vt 0.970403 0.368892
vt 0.945712 0.591114
vt 0.945712 0.368892
vt 0.945712 0.196921
vt 0.945712 0.368892
vt 0.970403 0.591114
vt 0.945712 0.591114
vt 0.135192 0.319509
vt 0.110501 0.591114
vt 0.135192 0.591114
vt 0.488922 0.135192
vt 0.365465 0.110501
vt 0.365465 0.135192
vt 0.135192 0.591114
vt 0.110501 0.319509
vt 0.135192 0.319509
vt 0.488922 0.894452
vt 0.365465 0.869760
vt 0.365465 0.894452
vt 0.970403 0.616674
vt 0.970403 0.635192
vt 0.110501 0.714571
vt 0.659884 0.319509
vt 0.110501 0.319509
vt -0.004905 0.635192
vt 0.328428 0.659884
vt -0.004905 0.659884
vt 0.488922 0.319509
vt 0.501267 0.319509
vt 0.353119 0.319509
vt 0.365465 0.591114
vt 0.365465 0.319509
vt 0.135192 0.714571
vt 0.501267 0.319509
vt 0.488922 0.591114
vt 0.488922 0.319509
vt 0.365465 0.319509
vt 0.501267 0.110501
vt 0.970403 0.635192
vt -0.004905 0.635192
vt 0.204971 0.635192
vt 0.488922 0.894452
vt 0.365465 0.110501
vt 0.365465 0.319509
vt 0.501267 0.319509
vt 0.488922 0.591114
vt 0.488922 0.319509
vt 0.970403 0.894452
vt 0.970403 0.616674
vt 0.328428 0.635192
vt -0.029597 0.110501
vt 0.970403 0.714571
vt 0.635192 0.591114
vt 0.635192 0.368892
vt -0.004905 0.714571
vt 0.894452 0.714571
vt 0.328428 0.319509
vt 0.204971 0.319509
vt 0.081514 0.319509
vt 0.328428 0.714571
vt 0.204971 0.635192
vt 0.501267 0.135192
vt 0.110501 0.714571
vt 0.869760 0.368892
vt 0.659884 0.368892
vt 0.869760 0.368892
vt 0.869760 0.319509
vt 0.616674 0.368892
vt 0.616674 0.591114
vt 0.869760 0.714571
vt 0.869760 0.591114
vt 0.869760 0.319509
vt 0.894452 0.319509
vt 0.635192 0.714571
vt 0.616674 0.591114
vt 0.616674 0.368892
vt 0.488922 0.319509
vt 0.365465 0.591114
vt 0.365465 0.319509
vt 0.204971 0.319509
vt -0.004905 0.319509
vt 0.081514 0.591114
vt 0.081514 0.319509
vt 0.635192 0.319509
vt 0.635192 0.591114
vt 0.869760 0.591114
vt 0.135192 0.714571
vt 0.135192 0.714571
vt 0.196921 0.714571
vt 0.945712 0.319509
vt 0.970403 0.591114
vt 0.970403 0.869760
vt 0.970403 0.591114
vt 0.970403 0.659884
vt 0.970403 0.591114
vt 0.970403 0.196921
vt 0.945712 0.319509
vt 0.970403 0.368892
vt 0.945712 0.714571
vt 0.110501 0.319509
vt 0.488922 0.110501
vt 0.110501 0.591114
vt 0.488922 0.869760
vt 0.945712 0.616674
vt 0.659884 0.714571
vn 0.0000 -0.0000 1.0000
vn -1.0000 0.0000 0.0000
vn 0.0000 0.0000 -1.0000
vn 0.0000 -1.0000 0.0000
vn 0.0000 1.0000 0.0000
vn 1.0000 0.0000 0.0000
usemtl concrete
s off
f 67/1/1 66/2/1 93/3/1
f 56/4/2 1/5/2 8/6/2
f 54/7/3 72/8/3 55/9/3
f 19/10/4 30/11/4 31/12/4
f 1/13/4 90/14/4 36/15/4
f 6/16/4 33/17/4 79/18/4
f 88/19/4 4/20/4 27/21/4
f 18/22/4 29/23/4 23/24/4
f 89/25/4 17/26/4 21/27/4
f 79/18/4 11/28/4 25/29/4
f 35/30/4 13/31/4 2/32/4
f 43/33/4 45/34/4 50/35/4
f 73/36/3 68/37/3 46/38/3
f 5/39/4 12/40/4 10/41/4
f 71/42/2 2/43/2 13/44/2
f 78/45/3 4/46/3 24/47/3
f 7/48/4 20/49/4 9/50/4
f 84/51/4 96/52/4 37/53/4
f 60/54/5 61/55/5 73/56/5
f 24/57/4 4/20/4 3/58/4
f 84/59/3 6/60/3 37/61/3
f 22/62/3 68/37/3 75/63/3
f 13/64/1 76/65/1 26/66/1
f 49/67/6 88/68/6 27/69/6
f 14/70/6 85/71/6 33/72/6
f 3/73/3 72/8/3 2/74/3
f 68/75/5 66/76/5 67/77/5
f 61/78/1 18/79/1 7/80/1
f 62/81/2 20/82/2 18/83/2
f 52/84/3 49/85/3 63/86/3
f 52/87/4 48/88/4 49/89/4
f 71/42/6 2/43/6 72/90/6
f 56/91/5 72/92/5 71/93/5
f 60/94/3 9/95/3 20/96/3
f 70/97/5 56/91/5 64/98/5
f 70/99/6 15/100/6 11/101/6
f 67/102/2 17/103/2 21/104/2
f 11/101/6 33/72/6 85/71/6
f 12/105/6 82/106/6 10/107/6
f 74/108/2 4/109/2 16/110/2
f 41/111/2 37/112/2 43/113/2
f 14/114/1 37/61/1 6/60/1
f 32/115/2 93/116/2 53/117/2
f 86/118/6 87/119/6 75/120/6
f 77/121/6 18/83/6 23/122/6
f 56/123/1 71/124/1 47/125/1
f 66/126/2 9/127/2 19/128/2
f 11/129/3 55/9/3 70/130/3
f 44/131/6 80/132/6 45/133/6
f 92/134/1 62/135/1 74/136/1
f 61/137/6 9/127/6 73/138/6
f 28/139/2 52/140/2 29/141/2
f 64/142/1 8/143/1 15/144/1
f 46/145/6 31/146/6 30/147/6
f 59/148/5 65/149/5 75/150/5
f 15/151/4 1/13/4 11/28/4
f 80/152/5 57/153/5 81/154/5
f 76/155/5 58/156/5 78/157/5
f 70/97/5 81/154/5 69/158/5
f 63/159/6 3/160/6 4/109/6
f 68/161/6 21/104/6 17/103/6
f 44/162/1 57/163/1 43/164/1
f 40/165/2 79/166/2 25/167/2
f 69/168/1 11/129/1 70/130/1
f 50/169/2 57/170/2 43/113/2
f 79/166/2 37/112/2 6/171/2
f 50/172/3 85/173/3 40/174/3
f 42/175/4 86/176/4 41/177/4
f 41/178/3 82/179/3 38/180/3
f 38/181/5 83/182/5 39/183/5
f 97/184/1 95/185/1 96/186/1
f 40/187/5 84/51/5 37/53/5
f 39/188/1 87/189/1 42/190/1
f 36/191/2 47/192/2 51/193/2
f 51/194/4 91/195/4 54/196/4
f 54/197/6 34/198/6 35/199/6
f 53/200/4 94/201/4 46/202/4
f 43/33/5 98/203/5 44/204/5
f 76/205/2 24/206/2 26/207/2
f 74/208/5 77/209/5 63/210/5
f 89/211/1 21/212/1 93/3/1
f 21/212/1 67/1/1 93/3/1
f 66/2/1 19/213/1 94/214/1
f 19/213/1 31/215/1 94/214/1
f 66/2/1 94/214/1 93/3/1
f 56/4/2 55/216/2 1/5/2
f 55/9/3 1/217/3 51/218/3
f 1/217/3 36/219/3 51/218/3
f 35/220/3 2/74/3 54/7/3
f 2/74/3 72/8/3 54/7/3
f 55/9/3 51/218/3 54/7/3
f 19/10/4 9/50/4 30/11/4
f 1/13/4 8/221/4 90/14/4
f 6/16/4 14/222/4 33/17/4
f 88/19/4 16/223/4 4/20/4
f 18/22/4 28/224/4 29/23/4
f 89/25/4 32/225/4 17/26/4
f 79/18/4 33/17/4 11/28/4
f 35/30/4 34/226/4 13/31/4
f 43/33/4 44/204/4 45/34/4
f 30/227/3 9/95/3 46/38/3
f 9/95/3 73/36/3 46/38/3
f 68/37/3 17/228/3 53/229/3
f 17/228/3 32/230/3 53/229/3
f 68/37/3 53/229/3 46/38/3
f 5/39/4 21/27/4 17/26/4
f 17/26/4 22/231/4 5/39/4
f 22/231/4 12/40/4 5/39/4
f 10/41/4 14/222/4 6/16/4
f 10/41/4 6/16/4 5/39/4
f 78/45/3 63/86/3 4/46/3
f 7/48/4 18/22/4 20/49/4
f 84/51/4 97/232/4 96/52/4
f 60/54/5 62/233/5 61/55/5
f 2/32/4 13/31/4 3/58/4
f 13/31/4 26/234/4 3/58/4
f 26/234/4 24/57/4 3/58/4
f 37/61/3 43/164/3 84/59/3
f 84/59/3 43/164/3 44/162/3
f 57/163/3 65/235/3 44/162/3
f 84/59/3 14/114/3 6/60/3
f 22/62/3 17/228/3 68/37/3
f 13/64/1 71/124/1 76/65/1
f 49/67/6 48/236/6 88/68/6
f 14/70/6 84/237/6 85/71/6
f 3/73/3 58/238/3 72/8/3
f 68/75/5 73/56/5 66/76/5
f 61/78/1 62/135/1 18/79/1
f 62/81/2 60/239/2 20/82/2
f 23/240/3 29/241/3 52/84/3
f 49/85/3 27/242/3 4/46/3
f 77/243/3 23/240/3 52/84/3
f 49/85/3 4/46/3 63/86/3
f 77/243/3 52/84/3 63/86/3
f 52/87/4 92/244/4 48/88/4
f 56/91/5 55/245/5 72/92/5
f 60/94/3 73/36/3 9/95/3
f 70/97/5 55/245/5 56/91/5
f 70/99/6 64/246/6 15/100/6
f 67/102/2 68/161/2 17/103/2
f 85/71/6 45/133/6 11/101/6
f 45/133/6 80/132/6 70/99/6
f 11/101/6 45/133/6 70/99/6
f 12/105/6 83/247/6 82/106/6
f 74/108/2 63/159/2 4/109/2
f 38/248/2 39/249/2 5/250/2
f 5/250/2 6/171/2 38/248/2
f 6/171/2 37/112/2 38/248/2
f 37/112/2 96/251/2 95/252/2
f 43/113/2 57/170/2 41/111/2
f 57/170/2 59/253/2 41/111/2
f 37/112/2 95/252/2 43/113/2
f 59/253/2 42/254/2 41/111/2
f 41/111/2 38/248/2 37/112/2
f 14/114/1 84/59/1 37/61/1
f 32/115/2 89/255/2 93/116/2
f 12/105/6 22/256/6 83/247/6
f 22/256/6 75/120/6 87/119/6
f 83/247/6 22/256/6 87/119/6
f 75/120/6 65/257/6 86/118/6
f 65/257/6 44/131/6 86/118/6
f 44/131/6 98/258/6 97/259/6
f 84/237/6 14/70/6 10/107/6
f 44/131/6 97/259/6 84/237/6
f 44/131/6 84/237/6 82/106/6
f 84/237/6 10/107/6 82/106/6
f 82/106/6 86/118/6 44/131/6
f 77/121/6 62/81/6 18/83/6
f 90/260/1 8/143/1 47/125/1
f 8/143/1 56/123/1 47/125/1
f 71/124/1 13/64/1 91/261/1
f 13/64/1 34/262/1 91/261/1
f 71/124/1 91/261/1 47/125/1
f 66/126/2 73/138/2 9/127/2
f 11/129/3 1/217/3 55/9/3
f 44/131/6 65/257/6 80/132/6
f 92/134/1 28/263/1 18/79/1
f 74/136/1 16/264/1 48/265/1
f 16/264/1 88/266/1 48/265/1
f 92/134/1 18/79/1 62/135/1
f 74/136/1 48/265/1 92/134/1
f 61/137/6 7/267/6 9/127/6
f 28/139/2 92/268/2 52/140/2
f 64/142/1 56/123/1 8/143/1
f 46/145/6 94/269/6 31/146/6
f 59/148/5 57/153/5 65/149/5
f 75/150/5 68/75/5 59/148/5
f 68/75/5 67/77/5 59/148/5
f 15/151/4 8/221/4 1/13/4
f 80/152/5 65/149/5 57/153/5
f 76/155/5 71/93/5 58/156/5
f 71/93/5 72/92/5 58/156/5
f 58/156/5 63/210/5 78/157/5
f 70/97/5 80/152/5 81/154/5
f 63/159/6 58/270/6 3/160/6
f 68/161/6 67/102/6 21/104/6
f 25/167/2 69/271/2 50/169/2
f 69/271/2 81/272/2 50/169/2
f 50/169/2 40/165/2 25/167/2
f 69/168/1 25/273/1 11/129/1
f 50/169/2 81/272/2 57/170/2
f 79/166/2 40/165/2 37/112/2
f 50/172/3 45/274/3 85/173/3
f 42/175/4 87/275/4 86/176/4
f 41/178/3 86/276/3 82/179/3
f 38/181/5 82/277/5 83/182/5
f 97/184/1 98/278/1 95/185/1
f 40/187/5 85/279/5 84/51/5
f 67/1/1 21/212/1 42/190/1
f 21/212/1 5/280/1 39/188/1
f 39/188/1 83/281/1 87/189/1
f 21/212/1 39/188/1 42/190/1
f 42/190/1 59/282/1 67/1/1
f 36/191/2 90/283/2 47/192/2
f 51/194/4 47/284/4 91/195/4
f 54/197/6 91/285/6 34/198/6
f 53/200/4 93/286/4 94/201/4
f 43/33/5 95/287/5 98/203/5
f 76/205/2 78/288/2 24/206/2
f 74/208/5 62/233/5 77/209/5
