# Blender v3.3.0 OBJ File: 'untitled.blend'
# www.blender.org
mtllib secondLivingroomTable.mtl
o Cube.014_Cube.031
v -0.469116 0.050000 0.850000
v -0.469116 -0.100000 0.850000
v -0.469116 0.050000 1.142000
v -0.469116 -0.100000 1.142000
v -0.449116 -0.100000 0.850000
v -0.449116 0.050000 0.850000
v -0.469116 0.050000 0.850000
v -0.469116 -0.100000 0.850000
v -1.147116 -0.130000 1.578000
v -1.149116 -0.132000 1.582000
v -1.147116 -0.128000 1.580000
v -1.147116 0.078000 1.580000
v -1.149116 0.082000 1.582000
v -1.147116 0.080000 1.578000
v -1.147116 -0.130000 0.822000
v -1.147116 -0.128000 0.820000
v -1.149116 -0.132000 0.818000
v -1.147116 0.080000 0.822000
v -1.149116 0.082000 0.818000
v -1.147116 0.078000 0.820000
v -0.471116 -0.150000 1.598000
v -0.469116 -0.148000 1.598000
v -0.471116 -0.148000 1.600000
v -0.471116 0.100000 1.598000
v -0.471116 0.098000 1.600000
v -0.469116 0.098000 1.598000
v -0.471116 -0.150000 0.802000
v -0.471116 -0.148000 0.800000
v -0.469116 -0.148000 0.802000
v -0.471116 0.100000 0.802000
v -0.469116 0.098000 0.802000
v -0.471116 0.098000 0.800000
v -1.049558 -0.152000 1.498000
v -1.047558 -0.152000 1.500000
v -1.047558 -0.150000 1.498000
v -1.049558 -0.152000 0.902000
v -1.047558 -0.150000 0.902000
v -1.047558 -0.152000 0.900000
v -0.049558 -0.150000 1.498000
v -0.049558 -0.152000 1.500000
v -0.049558 -0.152000 0.900000
v -0.049558 -0.150000 0.902000
v -1.049558 -0.198000 0.902000
v -1.047558 -0.198000 0.900000
v -1.047558 -0.200000 0.902000
v -1.049558 -0.198000 1.498000
v -1.047558 -0.200000 1.498000
v -1.047558 -0.198000 1.500000
v -0.049558 -0.200000 0.902000
v -0.049558 -0.198000 0.900000
v -0.049558 -0.198000 1.500000
v -0.049558 -0.200000 1.498000
v -1.149116 -0.148000 0.802000
v -1.147116 -0.148000 0.800000
v -1.147116 -0.150000 0.802000
v -1.147116 -0.150000 1.598000
v -1.147116 -0.148000 1.600000
v -1.149116 -0.148000 1.598000
v -1.147116 0.098000 1.600000
v -1.147116 0.100000 1.598000
v -1.149116 0.098000 1.598000
v -1.147116 0.100000 0.802000
v -1.147116 0.098000 0.800000
v -1.149116 0.098000 0.802000
v -1.131116 -0.130000 0.822000
v -1.129116 -0.128000 0.822000
v -1.131116 -0.128000 0.820000
v -1.131116 -0.130000 1.578000
v -1.131116 -0.128000 1.580000
v -1.129116 -0.128000 1.578000
v -1.131116 0.078000 1.580000
v -1.131116 0.080000 1.578000
v -1.129116 0.078000 1.578000
v -1.131116 0.080000 0.822000
v -1.131116 0.078000 0.820000
v -1.129116 0.078000 0.822000
vt 0.740979 0.595689
vt 0.388841 0.582264
vt 0.388841 0.595689
vt 0.247702 0.595689
vt 0.837357 0.582264
vt 0.837357 0.595689
vt 0.837357 0.595689
vt 0.247702 0.582264
vt 0.247702 0.595689
vt 0.837357 0.714953
vt 0.247702 0.541008
vt 0.247702 0.714953
vt 0.247702 0.541008
vt 0.837357 0.714953
vt 0.247702 0.714953
vt 0.599178 0.654644
vt 0.771703 0.610865
vt 0.599178 0.610865
vt 0.601283 0.610865
vt 0.589467 0.654644
vt 0.601283 0.654644
vt 0.246520 0.595689
vt 0.247702 0.596273
vt 0.246520 0.714953
vt 0.247702 0.715537
vt 0.246520 0.582264
vt 0.247702 0.581680
vt 0.246520 0.541008
vt 0.247702 0.540424
vt 0.246520 0.541008
vt 0.837357 0.715537
vt 0.837357 0.540424
vt 0.247702 0.540424
vt 0.246520 0.714953
vt 0.837357 0.715537
vt 0.837357 0.541008
vt 0.246520 0.582264
vt 0.246520 0.595689
vt 0.740979 0.582264
vt 0.247702 0.582264
vt 0.837357 0.582264
vt 0.837357 0.541008
vt 0.771703 0.654644
vt 0.589467 0.610865
vt 0.247702 0.715537
vt 0.837357 0.540424
vt 0.603518 0.877591
vt -0.013408 0.518752
vt -0.013408 0.877591
vt 0.603518 0.760994
vt -0.013408 0.650097
vt 0.603518 0.650097
vt -0.013408 0.877591
vt 0.603518 0.518752
vt 0.603518 0.877591
vt 0.800063 0.668653
vt 0.329757 0.596856
vt 0.800063 0.596856
vt -0.013408 0.760994
vt 0.603518 0.650097
vt -0.013408 0.650097
vt 0.222445 0.751978
vt 0.912381 0.659113
vt 0.222445 0.659113
vt 0.188879 0.662816
vt 0.198333 0.602694
vt 0.188879 0.602694
vt 0.188879 0.738302
vt 0.198333 0.517660
vt 0.188879 0.517660
vt 0.501690 0.521266
vt 0.637583 0.516596
vt 0.492237 0.516596
vt 0.188879 0.602694
vt 0.198333 0.662816
vt 0.188879 0.662816
vt 0.501690 0.744243
vt 0.637583 0.748913
vt 0.628129 0.744243
vt 0.628129 0.521266
vt 0.492237 0.748913
vt 0.502872 0.743075
vt 0.502872 0.743659
vt 0.625766 0.743659
vt 0.626948 0.743659
vt 0.188879 0.602110
vt 0.187698 0.602110
vt 0.626948 0.522434
vt 0.626948 0.521850
vt 0.329757 0.596273
vt 0.328575 0.596856
vt 0.603518 0.517851
vt 0.605343 0.518752
vt 0.603518 0.878492
vt 0.605343 0.877591
vt 0.605343 0.877591
vt 0.603518 0.878492
vt -0.015233 0.650097
vt -0.013408 0.649195
vt -0.013408 0.517851
vt -0.015233 0.518752
vt -0.013408 0.760994
vt -0.013408 0.761895
vt -0.015233 0.760994
vt -0.013408 0.878492
vt -0.015233 0.877591
vt 0.912381 0.658211
vt 0.914206 0.659113
vt 0.198333 0.602110
vt 0.199514 0.602693
vt 0.198333 0.662816
vt 0.198333 0.663399
vt 0.199514 0.662816
vt 0.198333 0.663399
vt 0.199514 0.662816
vt -0.015233 0.877591
vt -0.015233 0.650097
vt -0.015233 0.518752
vt -0.013408 0.518753
vt -0.015233 0.760994
vt 0.801245 0.668653
vt 0.800063 0.596273
vt 0.329757 0.668653
vt 0.328575 0.668653
vt 0.603518 0.649195
vt -0.013408 0.649195
vt 0.502872 0.522434
vt 0.504054 0.743659
vt 0.626948 0.743075
vt 0.187698 0.663399
vt 0.222445 0.658211
vt 0.220620 0.751978
vt 0.220620 0.659113
vt 0.912381 0.752880
vt 0.222445 0.752880
vt 0.198333 0.602694
vt 0.198333 0.602110
vt 0.188879 0.663399
vt 0.188879 0.663399
vt 0.188879 0.602110
vt 0.188879 0.517660
vt 0.198333 0.738302
vt 0.188879 0.738302
vt 0.603518 0.518752
vt 0.603518 0.760994
vt 0.912381 0.751978
vt 0.198333 0.738302
vt -0.013408 0.878492
vt 0.801245 0.596856
vt -0.013408 0.517851
vt 0.199514 0.602693
vt 0.198333 0.517660
vn -1.0000 0.0000 0.0000
vn 0.0000 0.0000 1.0000
vn 0.0000 0.0000 -1.0000
vn 0.0000 -1.0000 0.0000
vn 0.0000 1.0000 0.0000
vn -0.5774 0.5773 0.5773
vn -0.5774 0.5773 -0.5774
vn -0.5774 -0.5773 -0.5774
vn -0.5774 -0.5773 0.5773
vn -0.7071 0.7071 0.0000
vn 0.0000 0.7071 -0.7071
vn 0.0000 0.7071 0.7071
vn -0.7072 -0.7071 0.0000
vn 0.0000 -0.7071 -0.7071
vn 0.0000 -0.7071 0.7071
vn -0.7071 0.0000 0.7071
vn -0.7071 0.0000 -0.7071
vn -0.7071 -0.7071 0.0000
vn -0.7071 0.0000 0.7072
vn 1.0000 0.0000 0.0000
vn -0.9045 0.3015 -0.3015
vn -0.9045 -0.3015 -0.3015
vn -0.9045 0.3015 0.3015
vn -0.9045 -0.3015 0.3015
vn 0.5774 -0.5774 0.5773
vn 0.5773 0.5774 0.5774
vn 0.5773 -0.5774 -0.5774
vn 0.5774 0.5774 -0.5773
vn -0.5773 -0.5774 -0.5773
vn -0.5774 -0.5774 0.5773
vn -0.5773 0.5774 0.5774
vn -0.5774 0.5774 -0.5773
vn -0.5773 0.5774 0.5773
vn -0.5773 0.5774 -0.5773
vn -0.5773 -0.5774 0.5773
vn 0.7071 0.0000 -0.7071
vn 0.7071 -0.7071 0.0000
vn 0.7071 0.7071 0.0000
vn 0.7071 0.0000 0.7071
vn -0.7072 0.7071 0.0000
vn -0.7072 0.0000 -0.7070
usemtl concrete.003
s off
f 36/1/1 46/2/1 33/3/1
f 34/4/2 51/5/2 40/6/2
f 41/7/3 44/8/3 38/9/3
f 49/10/4 47/11/4 45/12/4
f 35/13/5 42/14/5 37/15/5
f 3/16/1 2/17/1 4/18/1
f 5/19/3 7/20/3 6/21/3
f 33/22/6 34/4/6 35/23/6
f 36/24/7 37/15/7 38/25/7
f 43/26/8 44/8/8 45/27/8
f 46/28/9 47/11/9 48/29/9
f 33/30/10 37/15/10 36/24/10
f 38/25/11 42/14/11 41/31/11
f 40/32/12 35/13/12 34/33/12
f 47/11/13 43/34/13 45/12/13
f 45/12/14 50/35/14 49/10/14
f 52/36/15 48/29/15 47/11/15
f 46/37/16 34/4/16 33/22/16
f 36/38/17 44/8/17 43/26/17
f 36/1/1 43/39/1 46/2/1
f 34/4/2 48/40/2 51/5/2
f 41/7/3 50/41/3 44/8/3
f 49/10/4 52/36/4 47/11/4
f 35/13/5 39/42/5 42/14/5
f 3/16/1 1/43/1 2/17/1
f 5/19/3 8/44/3 7/20/3
f 33/30/10 35/13/10 37/15/10
f 38/25/11 37/15/11 42/14/11
f 40/32/12 39/42/12 35/13/12
f 47/11/18 46/28/18 43/34/18
f 45/12/14 44/45/14 50/35/14
f 52/36/15 51/46/15 48/29/15
f 46/37/19 48/40/19 34/4/19
f 36/38/17 38/9/17 44/8/17
usemtl madeira
f 27/47/4 56/48/4 55/49/4
f 25/50/2 57/51/2 23/52/2
f 62/53/5 24/54/5 30/55/5
f 31/56/20 22/57/20 29/58/20
f 63/59/3 28/60/3 54/61/3
f 73/62/1 66/63/1 70/64/1
f 12/65/3 69/66/3 11/67/3
f 18/68/4 72/69/4 14/70/4
f 17/71/1 64/72/1 53/73/1
f 16/74/2 75/75/2 20/76/2
f 10/77/1 61/78/1 13/79/1
f 13/79/1 64/72/1 19/80/1
f 17/71/1 58/81/1 10/77/1
f 9/82/21 10/77/21 11/83/21
f 12/84/22 13/79/22 14/85/22
f 15/86/23 16/74/23 17/87/23
f 18/88/24 19/80/24 20/89/24
f 21/90/25 22/57/25 23/91/25
f 24/54/26 25/92/26 26/93/26
f 27/47/27 28/94/27 29/95/27
f 30/55/28 31/96/28 32/97/28
f 53/98/29 54/61/29 55/99/29
f 56/48/30 57/100/30 58/101/30
f 59/102/31 60/103/31 61/104/31
f 62/53/32 63/105/32 64/106/32
f 65/107/33 66/63/33 67/108/33
f 68/109/34 69/66/34 70/110/34
f 71/111/29 72/112/29 73/113/29
f 74/114/35 75/75/35 76/115/35
f 56/48/18 53/116/18 55/49/18
f 59/102/16 58/117/16 57/51/16
f 62/53/10 61/118/10 60/119/10
f 54/61/17 64/120/17 63/59/17
f 55/49/14 28/94/14 27/47/14
f 30/55/11 63/105/11 62/53/11
f 29/58/36 32/121/36 31/56/36
f 27/122/37 22/57/37 21/90/37
f 24/54/38 31/96/38 30/55/38
f 23/91/39 26/123/39 25/124/39
f 21/125/15 57/51/15 56/126/15
f 60/119/12 25/92/12 24/54/12
f 10/77/40 15/127/40 17/71/40
f 13/79/17 11/128/17 10/77/17
f 19/80/18 14/129/18 13/79/18
f 17/87/16 20/76/16 19/130/16
f 68/131/10 66/63/10 65/107/10
f 71/132/17 70/64/17 69/133/17
f 74/134/18 73/62/18 72/135/18
f 67/136/16 76/115/16 75/75/16
f 65/137/12 16/74/12 15/86/12
f 18/138/15 75/75/15 74/114/15
f 72/112/14 12/65/14 14/139/14
f 9/140/11 69/66/11 68/109/11
f 9/141/5 65/142/5 15/143/5
f 27/47/4 21/144/4 56/48/4
f 25/50/2 59/102/2 57/51/2
f 62/53/5 60/119/5 24/54/5
f 31/56/20 26/123/20 22/57/20
f 63/59/3 32/145/3 28/60/3
f 73/62/1 76/146/1 66/63/1
f 12/65/3 71/111/3 69/66/3
f 18/68/4 74/147/4 72/69/4
f 17/71/1 19/80/1 64/72/1
f 16/74/2 67/136/2 75/75/2
f 10/77/1 58/81/1 61/78/1
f 13/79/1 61/78/1 64/72/1
f 17/71/1 53/73/1 58/81/1
f 56/48/18 58/101/18 53/116/18
f 59/102/16 61/104/16 58/117/16
f 62/53/10 64/106/10 61/118/10
f 54/61/17 53/98/17 64/120/17
f 55/49/14 54/148/14 28/94/14
f 30/55/11 32/97/11 63/105/11
f 29/58/36 28/149/36 32/121/36
f 27/122/37 29/58/37 22/57/37
f 24/54/38 26/93/38 31/96/38
f 23/91/39 22/57/39 26/123/39
f 21/125/15 23/52/15 57/51/15
f 60/119/12 59/150/12 25/92/12
f 10/77/10 9/82/10 15/127/10
f 13/79/41 12/84/41 11/128/41
f 19/80/18 18/88/18 14/129/18
f 17/87/16 16/74/16 20/76/16
f 68/131/10 70/64/10 66/63/10
f 71/132/17 73/62/17 70/64/17
f 74/134/18 76/146/18 73/62/18
f 67/136/16 66/151/16 76/115/16
f 65/137/12 67/136/12 16/74/12
f 18/138/15 20/76/15 75/75/15
f 72/112/14 71/111/14 12/65/14
f 9/140/11 11/67/11 69/66/11
f 9/141/5 68/152/5 65/142/5
