# Blender v3.3.0 OBJ File: 'untitled.blend'
# www.blender.org
o Cube.039_Cube.059
v -0.747991 0.854627 2.290010
v -0.749991 0.854627 2.288010
v -0.747991 0.852628 2.288010
v 0.648009 0.852628 2.288010
v 0.650009 0.854627 2.288010
v 0.648009 0.854627 2.290010
v 0.650009 1.600628 2.288010
v 0.648009 1.602628 2.288010
v 0.648009 1.600628 2.290010
v -0.747991 1.600627 2.290010
v -0.747991 1.602628 2.288010
v -0.749991 1.600627 2.288010
v -0.747991 0.852628 2.272010
v -0.749991 0.854627 2.272010
v -0.747991 0.854627 2.270010
v 0.648009 0.854627 2.270010
v 0.650009 0.854627 2.272010
v 0.648009 0.852628 2.272010
v -0.749991 1.600627 2.272010
v -0.747991 1.602628 2.272010
v -0.747991 1.600627 2.270010
v 0.648009 1.600628 2.270010
v 0.648009 1.602628 2.272010
v 0.650009 1.600628 2.272010
v 0.638009 0.862628 2.268010
v 0.640009 0.864627 2.268010
v 0.642009 0.860627 2.270010
v -0.737991 0.862628 2.268010
v -0.741991 0.860627 2.270010
v -0.739991 0.864627 2.268010
v -0.739991 1.590627 2.268010
v -0.741991 1.594627 2.270010
v -0.737991 1.592628 2.268010
v 0.640009 1.590628 2.268010
v 0.638009 1.592628 2.268010
v 0.642009 1.594628 2.270010
v -0.737991 0.862628 2.252010
v -0.739991 0.864627 2.252010
v -0.737991 0.864627 2.250010
v 0.638009 0.864627 2.250010
v 0.640009 0.864627 2.252010
v 0.638009 0.862628 2.252010
v 0.638009 1.590628 2.250010
v 0.638009 1.592628 2.252010
v 0.640009 1.590628 2.252010
v -0.739991 1.590627 2.252010
v -0.737991 1.592628 2.252010
v -0.737991 1.590627 2.250010
v 0.618009 0.882627 2.252010
v 0.620009 0.884627 2.252010
v 0.622009 0.880627 2.250010
v -0.717991 0.882627 2.252010
v -0.721991 0.880627 2.250010
v -0.719991 0.884627 2.252010
v -0.719991 1.570627 2.252010
v -0.721991 1.574628 2.250010
v -0.717991 1.572628 2.252010
v 0.620009 1.570628 2.252010
v 0.618009 1.572628 2.252010
v 0.622009 1.574628 2.250010
v -0.717991 0.882627 2.268010
v -0.719991 0.884627 2.268010
v -0.717991 0.884627 2.270010
v 0.618009 0.882627 2.268010
v 0.618009 0.884627 2.270010
v 0.620009 0.884627 2.268010
v 0.620009 1.570628 2.268010
v 0.618009 1.570628 2.270010
v 0.618009 1.572628 2.268010
v -0.719991 1.570627 2.268010
v -0.717991 1.572628 2.268010
v -0.717991 1.570627 2.270010
v 0.450009 1.054628 2.292010
v 0.448009 1.052627 2.292010
v 0.452009 1.050627 2.290010
v 0.450009 1.400628 2.292010
v 0.452009 1.404628 2.290010
v 0.448009 1.402628 2.292010
v -0.547991 1.402628 2.292010
v -0.551991 1.404628 2.290010
v -0.549991 1.400628 2.292010
v -0.547991 1.052627 2.292010
v -0.549991 1.054628 2.292010
v -0.551991 1.050627 2.290010
v 0.450009 1.054628 2.338010
v 0.448009 1.054628 2.340010
v 0.448009 1.052627 2.338010
v 0.450009 1.400628 2.338010
v 0.448009 1.402628 2.338010
v 0.448009 1.400628 2.340010
v -0.547991 1.052627 2.338010
v -0.547991 1.054628 2.340010
v -0.549991 1.054628 2.338010
v -0.547991 1.402628 2.338010
v -0.549991 1.400628 2.338010
v -0.547991 1.400628 2.340010
vt 0.625000 0.750000
vt 0.625000 0.750000
vt 0.625000 0.750000
vt 0.625000 0.750000
vt 0.625000 0.750000
vt 0.625000 0.750000
vt 0.625000 0.750000
vt 0.625000 0.750000
vt 0.625000 0.750000
vt 0.625000 0.750000
vt 0.625000 0.750000
vt 0.625000 0.750000
vt 0.625000 0.750000
vt 0.625000 0.750000
vt 0.625000 0.750000
vt 0.625000 0.750000
vt 0.625000 0.750000
vt 0.625000 0.750000
vt 0.625000 0.750000
vt 0.625000 0.750000
vt 0.625000 0.750000
vt 0.625000 0.750000
vt 0.625000 0.750000
vt 0.625000 0.750000
vt 0.625000 0.750000
vt 0.625000 0.750000
vt 0.625000 0.750000
vt 0.625000 0.750000
vt 0.625000 0.750000
vt 0.625000 0.750000
vt 0.625000 0.750000
vt 0.625000 0.750000
vt 0.625000 0.750000
vt 0.625000 0.750000
vt 0.625000 0.750000
vt 0.625000 0.750000
vt 0.625000 0.750000
vt 0.625000 0.750000
vt 0.625000 0.750000
vt 0.625000 0.750000
vt 0.625000 0.750000
vt 0.625000 0.750000
vt 0.625000 0.750000
vt 0.625000 0.750000
vt 0.625000 0.750000
vt 0.625000 0.750000
vt 0.625000 0.750000
vt 0.625000 0.750000
vt 0.625000 0.750000
vt 0.625000 0.750000
vt 0.625000 0.750000
vt 0.625000 0.750000
vt 0.625000 0.750000
vt 0.625000 0.750000
vt 0.625000 0.750000
vt 0.625000 0.750000
vt 0.625000 0.750000
vt 0.625000 0.750000
vt 0.625000 0.750000
vt 0.625000 0.750000
vt 0.625000 0.750000
vt 0.625000 0.750000
vt 0.625000 0.750000
vt 0.625000 0.750000
vt 0.625000 0.750000
vt 0.625000 0.750000
vt 0.625000 0.750000
vt 0.625000 0.750000
vt 0.625000 0.750000
vt 0.625000 0.750000
vt 0.625000 0.750000
vt 0.625000 0.750000
vt 0.625000 0.750000
vt 0.625000 0.750000
vt 0.625000 0.750000
vt 0.625000 0.750000
vt 0.625000 0.750000
vt 0.625000 0.750000
vt 0.625000 0.750000
vt 0.625000 0.750000
vt 0.625000 0.750000
vt 0.625000 0.750000
vt 0.625000 0.750000
vt 0.625000 0.750000
vt 0.625000 0.750000
vt 0.625000 0.750000
vt 0.625000 0.750000
vt 0.625000 0.750000
vt 0.625000 0.750000
vt 0.625000 0.750000
vt 0.625000 0.750000
vt 0.625000 0.750000
vt 0.625000 0.750000
vt 0.625000 0.750000
vt 0.625000 0.750000
vt 0.625000 0.750000
vn 0.0000 0.0000 1.0000
vn -0.0000 1.0000 0.0000
vn 0.0000 0.0000 -1.0000
vn 0.0000 -1.0000 0.0000
vn 1.0000 0.0000 0.0000
vn -1.0000 0.0000 0.0000
vn -0.5774 -0.5773 0.5773
vn 0.5774 -0.5773 0.5773
vn 0.5775 0.5774 0.5772
vn -0.5774 0.5773 0.5773
vn -0.5773 -0.5774 -0.5774
vn 0.5773 -0.5774 -0.5774
vn -0.5773 0.5773 -0.5774
vn 0.5773 0.5774 -0.5774
vn 0.3016 -0.3015 -0.9045
vn -0.3016 -0.3015 -0.9045
vn -0.3015 0.3015 -0.9045
vn 0.3016 0.3015 -0.9045
vn -0.5774 0.5773 -0.5774
vn -0.3014 0.3015 -0.9046
vn 0.3014 0.3015 -0.9046
vn 0.3015 -0.3015 -0.9045
vn -0.3015 -0.3015 -0.9046
vn 0.5775 0.5773 -0.5773
vn -0.5775 0.5773 -0.5773
vn -0.5774 -0.5773 -0.5773
vn 0.5773 -0.5773 -0.5774
vn 0.3016 -0.3015 0.9045
vn 0.3016 0.3015 0.9045
vn -0.3016 0.3015 0.9045
vn -0.3016 -0.3015 0.9045
vn 0.5773 -0.5774 0.5773
vn 0.5774 0.5774 0.5773
vn -0.5773 -0.5774 0.5774
vn -0.5773 0.5774 0.5773
vn 0.0000 -0.7071 0.7071
vn -0.7072 0.0000 0.7070
vn 0.7072 0.0000 0.7070
vn 0.0000 0.7071 0.7071
vn 0.0000 -0.7071 -0.7072
vn -0.7070 0.0000 -0.7072
vn 0.7071 0.0000 -0.7071
vn 0.0000 0.7071 -0.7071
vn 0.7071 0.7071 0.0000
vn -0.7071 0.7071 0.0000
vn -0.7071 -0.7071 0.0000
vn 0.7071 -0.7071 0.0000
vn 0.0000 -0.7071 -0.7071
vn 0.7072 0.0000 -0.7070
vn -0.7072 0.0000 -0.7070
vn 0.7070 0.0000 -0.7072
vn -0.7071 0.0000 -0.7071
vn 0.0000 0.7071 -0.7072
vn 0.7071 0.0000 -0.7072
vn 0.7071 0.0000 0.7071
vn -0.7070 0.0000 0.7072
vn -0.7071 0.0000 0.7071
vn 0.7071 0.0000 0.7072
vn 0.0000 0.7070 -0.7072
vn 0.0000 -0.7072 -0.7071
s off
f 90/1/1 92/2/1 86/3/1
f 35/4/2 47/5/2 33/6/2
f 15/7/3 27/8/3 16/9/3
f 3/10/4 18/11/4 4/12/4
f 10/13/1 77/14/1 9/15/1
f 1/16/1 80/17/1 10/13/1
f 21/18/3 29/19/3 15/7/3
f 16/9/3 36/20/3 22/21/3
f 28/22/4 42/23/4 25/24/4
f 22/21/3 32/25/3 21/18/3
f 59/26/4 71/27/4 57/28/4
f 26/29/5 45/30/5 34/31/5
f 39/32/3 51/33/3 40/34/3
f 31/35/6 38/36/6 30/37/6
f 48/38/3 53/39/3 39/32/3
f 40/34/3 60/40/3 43/41/3
f 52/42/2 64/43/2 49/44/2
f 43/41/3 56/45/3 48/38/3
f 76/46/5 85/47/5 73/48/5
f 50/49/6 67/50/6 58/51/6
f 55/52/5 62/53/5 54/54/5
f 5/55/5 24/56/5 7/57/5
f 8/58/2 20/59/2 11/60/2
f 6/61/1 77/14/1 75/62/1
f 12/63/6 14/64/6 2/65/6
f 79/66/2 89/67/2 78/68/2
f 83/69/6 95/70/6 81/71/6
f 74/72/4 91/73/4 82/74/4
f 1/16/7 2/65/7 3/10/7
f 4/12/8 5/55/8 6/61/8
f 7/57/9 8/58/9 9/15/9
f 10/13/10 11/60/10 12/63/10
f 13/75/11 14/64/11 15/7/11
f 16/9/12 17/76/12 18/11/12
f 19/77/13 20/59/13 21/18/13
f 22/21/14 23/78/14 24/56/14
f 25/24/15 26/29/15 27/8/15
f 28/22/16 29/19/16 30/37/16
f 31/35/17 32/25/17 33/6/17
f 34/31/18 35/4/18 36/20/18
f 37/79/11 38/36/11 39/32/11
f 40/34/12 41/80/12 42/23/12
f 43/41/14 44/81/14 45/30/14
f 46/82/19 47/5/19 48/38/19
f 49/44/20 50/49/20 51/33/20
f 52/42/21 53/39/21 54/54/21
f 55/52/22 56/45/22 57/28/22
f 58/51/23 59/26/23 60/40/23
f 61/83/24 62/53/24 63/84/24
f 64/43/25 65/85/25 66/86/25
f 67/50/26 68/87/26 69/88/26
f 70/89/27 71/27/27 72/90/27
f 73/48/28 74/72/28 75/62/28
f 76/46/29 77/14/29 78/68/29
f 79/66/30 80/17/30 81/71/30
f 82/74/31 83/69/31 84/91/31
f 85/47/32 86/3/32 87/92/32
f 88/93/33 89/67/33 90/1/33
f 91/73/34 92/2/34 93/94/34
f 94/95/35 95/70/35 96/96/35
f 4/12/36 1/16/36 3/10/36
f 2/65/37 10/13/37 12/63/37
f 7/57/38 6/61/38 5/55/38
f 9/15/39 11/60/39 10/13/39
f 16/9/40 13/75/40 15/7/40
f 15/7/41 19/77/41 21/18/41
f 22/21/42 17/76/42 16/9/42
f 23/78/43 21/18/43 20/59/43
f 24/56/44 8/58/44 7/57/44
f 12/63/45 20/59/45 19/77/45
f 3/10/46 14/64/46 13/75/46
f 18/11/47 5/55/47 4/12/47
f 25/24/48 29/19/48 28/22/48
f 34/31/49 27/8/49 26/29/49
f 30/37/50 32/25/50 31/35/50
f 36/20/43 33/6/43 32/25/43
f 40/34/48 37/79/48 39/32/48
f 43/41/51 41/80/51 40/34/51
f 39/32/52 46/82/52 48/38/52
f 44/81/43 48/38/43 47/5/43
f 47/5/45 31/35/45 33/6/45
f 28/22/46 38/36/46 37/79/46
f 26/29/47 42/23/47 41/80/47
f 45/30/44 35/4/44 34/31/44
f 49/44/53 53/39/53 52/42/53
f 58/51/52 51/33/52 50/49/52
f 54/54/54 56/45/54 55/52/54
f 60/40/48 57/28/48 56/45/48
f 69/88/48 72/90/48 71/27/48
f 71/27/47 55/52/47 57/28/47
f 52/42/44 62/53/44 61/83/44
f 50/49/45 64/43/45 66/86/45
f 67/50/46 59/26/46 58/51/46
f 77/14/55 73/48/55 75/62/55
f 75/62/36 82/74/36 84/91/36
f 78/68/39 80/17/39 79/66/39
f 84/91/56 81/71/56 80/17/56
f 88/93/55 86/3/55 85/47/55
f 87/92/36 92/2/36 91/73/36
f 90/1/39 94/95/39 96/96/39
f 93/94/57 96/96/57 95/70/57
f 91/73/46 83/69/46 82/74/46
f 79/66/45 95/70/45 94/95/45
f 85/47/47 74/72/47 73/48/47
f 76/46/44 89/67/44 88/93/44
f 6/61/1 84/91/1 1/16/1
f 90/1/1 96/96/1 92/2/1
f 35/4/2 44/81/2 47/5/2
f 15/7/3 29/19/3 27/8/3
f 3/10/4 13/75/4 18/11/4
f 10/13/1 80/17/1 77/14/1
f 1/16/1 84/91/1 80/17/1
f 21/18/3 32/25/3 29/19/3
f 16/9/3 27/8/3 36/20/3
f 28/22/4 37/79/4 42/23/4
f 22/21/3 36/20/3 32/25/3
f 59/26/4 69/88/4 71/27/4
f 26/29/5 41/80/5 45/30/5
f 39/32/3 53/39/3 51/33/3
f 31/35/6 46/82/6 38/36/6
f 48/38/3 56/45/3 53/39/3
f 40/34/3 51/33/3 60/40/3
f 52/42/2 61/83/2 64/43/2
f 43/41/3 60/40/3 56/45/3
f 76/46/5 88/93/5 85/47/5
f 50/49/6 66/86/6 67/50/6
f 55/52/5 70/89/5 62/53/5
f 5/55/5 17/76/5 24/56/5
f 8/58/2 23/78/2 20/59/2
f 6/61/1 9/15/1 77/14/1
f 12/63/6 19/77/6 14/64/6
f 79/66/2 94/95/2 89/67/2
f 83/69/6 93/94/6 95/70/6
f 74/72/4 87/92/4 91/73/4
f 4/12/36 6/61/36 1/16/36
f 2/65/57 1/16/57 10/13/57
f 7/57/58 9/15/58 6/61/58
f 9/15/39 8/58/39 11/60/39
f 16/9/48 18/11/48 13/75/48
f 15/7/52 14/64/52 19/77/52
f 22/21/54 24/56/54 17/76/54
f 23/78/43 22/21/43 21/18/43
f 24/56/44 23/78/44 8/58/44
f 12/63/45 11/60/45 20/59/45
f 3/10/46 2/65/46 14/64/46
f 18/11/47 17/76/47 5/55/47
f 25/24/48 27/8/48 29/19/48
f 34/31/42 36/20/42 27/8/42
f 30/37/52 29/19/52 32/25/52
f 36/20/43 35/4/43 33/6/43
f 40/34/48 42/23/48 37/79/48
f 43/41/42 45/30/42 41/80/42
f 39/32/52 38/36/52 46/82/52
f 44/81/59 43/41/59 48/38/59
f 47/5/45 46/82/45 31/35/45
f 28/22/46 30/37/46 38/36/46
f 26/29/47 25/24/47 42/23/47
f 45/30/44 44/81/44 35/4/44
f 49/44/43 51/33/43 53/39/43
f 58/51/52 60/40/52 51/33/52
f 54/54/42 53/39/42 56/45/42
f 60/40/48 59/26/48 57/28/48
f 69/88/60 68/87/60 72/90/60
f 71/27/47 70/89/47 55/52/47
f 52/42/44 54/54/44 62/53/44
f 50/49/45 49/44/45 64/43/45
f 67/50/46 69/88/46 59/26/46
f 77/14/38 76/46/38 73/48/38
f 75/62/36 74/72/36 82/74/36
f 78/68/39 77/14/39 80/17/39
f 84/91/37 83/69/37 81/71/37
f 88/93/38 90/1/38 86/3/38
f 87/92/36 86/3/36 92/2/36
f 90/1/39 89/67/39 94/95/39
f 93/94/37 92/2/37 96/96/37
f 91/73/46 93/94/46 83/69/46
f 79/66/45 81/71/45 95/70/45
f 85/47/47 87/92/47 74/72/47
f 76/46/44 78/68/44 89/67/44
f 6/61/1 75/62/1 84/91/1
f 63/84/3 68/87/3 65/85/3
f 65/85/43 61/83/43 63/84/43
f 68/87/52 66/86/52 65/85/52
f 63/84/42 70/89/42 72/90/42
f 63/84/3 72/90/3 68/87/3
f 65/85/43 64/43/43 61/83/43
f 68/87/50 67/50/50 66/86/50
f 63/84/42 62/53/42 70/89/42
