# Blender v3.3.0 OBJ File: 'untitled.blend'
# www.blender.org
mtllib tvFront.mtl
o Cube.038_Cube.058
v -0.749991 0.018516 2.020010
v -1.539464 0.386740 2.020010
v -1.539464 0.018516 2.020010
v 0.630009 0.386740 2.020010
v 0.630009 0.018516 2.020010
v -1.144727 0.018516 2.020010
v -1.144727 0.386740 2.020010
v -0.289991 0.386740 2.020010
v 0.170009 0.018516 2.020010
v -0.289991 0.018516 2.020010
v -1.539464 0.020516 2.002010
v -1.537464 0.018516 2.002010
v -1.541464 0.016516 2.000010
v -1.539464 0.384740 2.002010
v -1.541464 0.388740 2.000010
v -1.537464 0.386740 2.002010
v 0.630009 0.020516 2.002010
v 0.632009 0.016516 2.000010
v 0.628009 0.018516 2.002010
v 0.630009 0.384740 2.002010
v 0.628009 0.386740 2.002010
v 0.632009 0.388740 2.000010
v -1.559464 0.000516 2.398010
v -1.557464 -0.001484 2.398010
v -1.557464 0.000516 2.400010
v -1.559464 0.404740 2.398010
v -1.557464 0.404740 2.400010
v -1.557464 0.406740 2.398010
v 0.650009 0.000516 2.398010
v 0.648009 0.000516 2.400010
v 0.648009 -0.001484 2.398010
v 0.650009 0.404740 2.398010
v 0.648009 0.406740 2.398010
v 0.648009 0.404740 2.400010
v -1.559464 0.404740 2.002010
v -1.557464 0.406740 2.002010
v -1.557464 0.404740 2.000010
v -1.559464 0.000516 2.002010
v -1.557464 0.000516 2.000010
v -1.557464 -0.001484 2.002010
v 0.650009 0.404740 2.002010
v 0.648009 0.404740 2.000010
v 0.648009 0.406740 2.002010
v 0.650009 0.000516 2.002010
v 0.648009 -0.001484 2.002010
v 0.648009 0.000516 2.000010
v -1.539464 0.384740 2.338010
v -1.537464 0.386740 2.338010
v -1.537464 0.384740 2.340010
v -1.539464 0.020516 2.338010
v -1.537464 0.020516 2.340010
v -1.537464 0.018516 2.338010
v 0.630009 0.384740 2.338010
v 0.628009 0.384740 2.340010
v 0.628009 0.386740 2.338010
v 0.630009 0.020516 2.338010
v 0.628009 0.018516 2.338010
v 0.628009 0.020516 2.340010
v 0.177009 0.023516 2.018010
v 0.173009 0.021516 2.020010
v 0.175009 0.025516 2.018010
v 0.177009 0.381740 2.018010
v 0.175009 0.379740 2.018010
v 0.173009 0.383740 2.020010
v 0.625009 0.379740 2.018010
v 0.623009 0.381740 2.018010
v 0.627009 0.383740 2.020010
v 0.625009 0.025516 2.018010
v 0.627009 0.021516 2.020010
v 0.623009 0.023516 2.018010
v -0.742991 0.023516 2.018010
v -0.746991 0.021516 2.020010
v -0.744991 0.025516 2.018010
v -0.742991 0.381740 2.018010
v -0.744991 0.379740 2.018010
v -0.746991 0.383740 2.020010
v -0.296991 0.381740 2.018010
v -0.292991 0.383740 2.020010
v -0.294991 0.379740 2.018010
v -0.296991 0.023516 2.018010
v -0.294991 0.025516 2.018010
v -0.292991 0.021516 2.020010
v -0.282991 0.023516 2.018010
v -0.286991 0.021516 2.020010
v -0.284991 0.025516 2.018010
v -0.282991 0.381740 2.018010
v -0.284991 0.379740 2.018010
v -0.286991 0.383740 2.020010
v 0.163009 0.381740 2.018010
v 0.167009 0.383740 2.020010
v 0.165009 0.379740 2.018010
v 0.163009 0.023516 2.018010
v 0.165009 0.025516 2.018010
v 0.167009 0.021516 2.020010
v 0.625009 0.379740 2.002010
v 0.623009 0.379740 2.000010
v 0.623009 0.381740 2.002010
v 0.625009 0.025516 2.002010
v 0.623009 0.023516 2.002010
v 0.623009 0.025516 2.000010
v -0.296991 0.381740 2.002010
v -0.294991 0.379740 2.002010
v -0.296991 0.379740 2.000010
v -0.742991 0.381740 2.002010
v -0.742991 0.379740 2.000010
v -0.744991 0.379740 2.002010
v -0.296991 0.023516 2.002010
v -0.296991 0.025516 2.000010
v -0.294991 0.025516 2.002010
v -0.742991 0.023516 2.002010
v -0.744991 0.025516 2.002010
v -0.742991 0.025516 2.000010
v 0.177009 0.381740 2.002010
v 0.177009 0.379740 2.000010
v 0.175009 0.379740 2.002010
v 0.163009 0.381740 2.002010
v 0.165009 0.379740 2.002010
v 0.163009 0.379740 2.000010
v -0.282991 0.381740 2.002010
v -0.282991 0.379740 2.000010
v -0.284991 0.379740 2.002010
v 0.177009 0.023516 2.002010
v 0.175009 0.025516 2.002010
v 0.177009 0.025516 2.000010
v 0.163009 0.023516 2.002010
v 0.163009 0.025516 2.000010
v 0.165009 0.025516 2.002010
v -0.282991 0.023516 2.002010
v -0.284991 0.025516 2.002010
v -0.282991 0.025516 2.000010
v -1.132728 0.038516 2.022010
v -1.135841 0.036290 2.020010
v -1.134727 0.040516 2.022010
v -1.132728 0.366740 2.022010
v -1.134727 0.364740 2.022010
v -1.135841 0.368966 2.020010
v -0.771991 0.366740 2.022010
v -0.767991 0.368957 2.020010
v -0.769991 0.364740 2.022010
v -0.771991 0.038516 2.022010
v -0.769991 0.040516 2.022010
v -0.767991 0.036299 2.020010
v -1.519464 0.040516 2.022010
v -1.517464 0.038516 2.022010
v -1.521464 0.036516 2.020010
v -1.519464 0.364740 2.022010
v -1.521464 0.369124 2.020010
v -1.517464 0.366740 2.022010
v -1.156727 0.366740 2.022010
v -1.153527 0.369140 2.020010
v -1.154727 0.364740 2.022010
v -1.156727 0.038516 2.022010
v -1.154727 0.040516 2.022010
v -1.153497 0.036516 2.020010
v -1.519464 0.364740 2.400010
v -1.517464 0.366740 2.400010
v -1.517464 0.038516 2.400010
v -1.519464 0.040516 2.400010
v -1.154727 0.040516 2.400010
v -1.156727 0.038516 2.400010
v -1.134727 0.364740 2.400010
v -1.132728 0.366740 2.400010
v -0.771991 0.366740 2.400010
v -0.769991 0.364740 2.400010
v -0.769991 0.040516 2.400010
v -0.771991 0.038516 2.400010
v -1.132728 0.038516 2.400010
v -1.134727 0.040516 2.400010
v -1.156727 0.366740 2.400010
v -1.154727 0.364740 2.400010
vt 0.890097 0.341206
vt 0.102427 0.485571
vt 0.102427 0.341206
vt 0.882898 0.478485
vt 0.049049 0.307243
vt 0.049049 0.576791
vt 0.109570 0.437873
vt 0.882954 0.557873
vt 0.109570 0.557873
vt 0.393311 0.552159
vt 0.552596 0.557873
vt 0.552596 0.552159
vt 0.557873 0.348349
vt 0.437873 0.478429
vt 0.557873 0.478429
vt 0.721882 0.552159
vt 0.881168 0.557873
vt 0.881168 0.552159
vt 0.552159 0.350134
vt 0.557873 0.476643
vt 0.552159 0.476643
vt 0.552159 0.476643
vt 0.557873 0.350134
vt 0.552159 0.350134
vt 0.552596 0.552159
vt 0.393311 0.557873
vt 0.393311 0.552159
vt 0.882953 0.557873
vt 0.109570 0.437873
vt 0.109570 0.557873
vt 0.552159 0.476643
vt 0.557873 0.350134
vt 0.552159 0.350134
vt 0.552159 0.476643
vt 0.557873 0.350134
vt 0.552159 0.350134
vt 0.881168 0.552159
vt 0.721882 0.557873
vt 0.721882 0.552159
vt 0.393311 0.476643
vt 0.552596 0.350134
vt 0.393311 0.350134
vt 0.557596 0.476643
vt 0.716882 0.350134
vt 0.557596 0.350134
vt 0.556168 0.478071
vt 0.556168 0.348706
vt 0.554025 0.348706
vt 0.552159 0.350134
vt 0.557873 0.476643
vt 0.552159 0.476643
vt 0.557596 0.552159
vt 0.716882 0.557873
vt 0.716882 0.552159
vt 0.716882 0.552159
vt 0.557596 0.557873
vt 0.557596 0.552159
vt 0.552159 0.350134
vt 0.557873 0.476643
vt 0.552159 0.476643
vt 0.883668 0.347634
vt 0.882596 0.348706
vt 0.883668 0.479143
vt 0.721882 0.476643
vt 0.881168 0.350134
vt 0.721882 0.350134
vt 0.719382 0.347634
vt 0.718311 0.348706
vt 0.557873 0.348349
vt 0.557873 0.347634
vt 0.558587 0.347634
vt 0.558587 0.347634
vt 0.557873 0.347634
vt 0.557873 0.479143
vt 0.558587 0.479143
vt 0.108856 0.437873
vt 0.109570 0.437159
vt 0.048279 0.307239
vt 0.049049 0.305797
vt 0.437159 0.478429
vt 0.437873 0.479143
vt 0.437873 0.348349
vt 0.437873 0.347634
vt 0.437159 0.348349
vt 0.721882 0.349420
vt 0.720454 0.348706
vt 0.721168 0.349420
vt 0.721168 0.552159
vt 0.721168 0.551445
vt 0.881882 0.552159
vt 0.881882 0.551445
vt 0.881882 0.350134
vt 0.881168 0.349420
vt 0.393311 0.349420
vt 0.391882 0.348706
vt 0.392596 0.349420
vt 0.552159 0.477357
vt 0.551445 0.477357
vt 0.552159 0.349420
vt 0.551445 0.349420
vt 0.557596 0.349420
vt 0.556882 0.349420
vt 0.552159 0.477357
vt 0.551445 0.477357
vt 0.716882 0.477357
vt 0.718310 0.478071
vt 0.717596 0.476643
vt 0.717596 0.552159
vt 0.717596 0.551445
vt 0.881882 0.476643
vt 0.881168 0.476643
vt 0.881168 0.477357
vt 0.557873 0.350134
vt 0.557873 0.349420
vt 0.558587 0.350134
vt 0.557873 0.477357
vt 0.558587 0.476643
vt 0.393311 0.477357
vt 0.392596 0.476643
vt 0.552596 0.558587
vt 0.553311 0.557873
vt 0.393311 0.557873
vt 0.392596 0.557873
vt 0.393311 0.558587
vt 0.721882 0.558587
vt 0.721168 0.557873
vt 0.716882 0.557873
vt 0.717596 0.557873
vt 0.716882 0.558587
vt 0.557596 0.477357
vt 0.556882 0.476643
vt 0.721882 0.557873
vt 0.721168 0.557873
vt 0.721882 0.558587
vt 0.716882 0.558587
vt 0.717596 0.557873
vt 0.557596 0.557873
vt 0.556882 0.557873
vt 0.557596 0.558587
vt 0.883668 0.558587
vt 0.048279 0.576848
vt 0.882953 0.437873
vt 0.882954 0.437159
vt 0.882898 0.348345
vt 0.882898 0.347596
vt 0.437873 0.348349
vt 0.108856 0.557873
vt 0.881882 0.476643
vt 0.882596 0.478071
vt 0.552596 0.349420
vt 0.721882 0.477357
vt 0.881168 0.477357
vt 0.557596 0.477357
vt 0.716882 0.349420
vt 0.721168 0.350134
vt 0.720454 0.478071
vt 0.721168 0.476643
vt 0.554025 0.478071
vt 0.556882 0.350134
vt 0.556882 0.476643
vt 0.881882 0.350134
vt 0.552596 0.477357
vt 0.552596 0.476643
vt 0.881168 0.557873
vt 0.881168 0.558587
vt 0.716882 0.477357
vt 0.716882 0.476643
vt 0.721882 0.349420
vt 0.881168 0.349420
vt 0.721168 0.476643
vt 0.557873 0.350134
vt 0.557873 0.476643
vt 0.717596 0.350134
vt 0.717596 0.476643
vt 0.392596 0.552159
vt 0.557873 0.349420
vt 0.556882 0.552159
vt 0.881882 0.557873
vt 0.557873 0.477357
vt 0.552159 0.349420
vt 0.717596 0.552159
vt 0.557873 0.477357
vt 0.552159 0.477357
vt 0.721168 0.552159
vt 0.557873 0.478429
vt 0.890096 0.485571
vt 0.882954 0.437873
vt 0.552596 0.557873
vt 0.557873 0.476643
vt 0.557873 0.476643
vt 0.555096 0.347634
vt 0.390811 0.347634
vt 0.555096 0.479143
vt 0.557873 0.350134
vt 0.108856 0.558587
vt 0.437873 0.347634
vt 0.717596 0.350134
vt 0.721168 0.350134
vt 0.392596 0.350134
vt 0.558587 0.350134
vt 0.437873 0.478429
vt 0.616384 0.726703
vt 0.349356 0.446897
vt 0.349357 0.726703
vt 0.064564 0.726703
vt 0.331591 0.446897
vt 0.331591 0.726703
vt 0.061603 0.319083
vt 0.048279 0.305759
vt 0.048279 0.578328
vt 0.964125 0.322044
vt 0.684318 0.562043
vt 0.964125 0.562043
vt 0.349357 0.726703
vt 0.616384 0.446897
vt 0.616384 0.726703
vt 0.543003 0.543569
vt 0.340474 0.578328
vt 0.431343 0.516334
vt 0.964125 0.562043
vt 0.684318 0.322044
vt 0.964125 0.322044
vt 0.964125 0.322044
vt 0.684318 0.562043
vt 0.964125 0.562043
vt 0.331591 0.726703
vt 0.064564 0.446897
vt 0.064564 0.726703
vt 0.333983 0.319083
vt 0.340474 0.305759
vt 0.964125 0.562043
vt 0.684318 0.322044
vt 0.964125 0.322044
vt 0.552596 0.477357
vt 0.553311 0.477357
vt 0.349356 0.320563
vt 0.347052 0.318916
vt 0.347876 0.320563
vt 0.347876 0.726703
vt 0.347876 0.728183
vt 0.616384 0.563524
vt 0.617864 0.562043
vt 0.964125 0.320563
vt 0.965605 0.320563
vt 0.964125 0.320563
vt 0.965605 0.320563
vt 0.063083 0.562043
vt 0.061603 0.565289
vt 0.064564 0.563524
vt 0.331591 0.563524
vt 0.333960 0.565300
vt 0.333072 0.563524
vt 0.964125 0.320563
vt 0.965605 0.320563
vt 0.064564 0.320563
vt 0.331591 0.320563
vt 0.347052 0.565171
vt 0.349356 0.563524
vt 0.393311 0.477357
vt 0.616384 0.320563
vt 0.581078 0.323745
vt 0.392596 0.350134
vt 0.392596 0.476643
vt 0.347876 0.562043
vt 0.333072 0.562043
vt 0.617864 0.446897
vt 0.617864 0.726703
vt 0.347876 0.446897
vt 0.684318 0.563524
vt 0.964125 0.563524
vt 0.684318 0.320563
vt 0.684318 0.320563
vt 0.333072 0.446897
vt 0.333072 0.726703
vt 0.684318 0.320563
vt 0.964125 0.320563
vt 0.684318 0.320563
vt 0.616384 0.446897
vt 0.064564 0.446897
vt 0.684318 0.322044
vt 0.349356 0.446897
vt 0.488626 0.331956
vt 0.632669 0.305759
vt 0.684318 0.562043
vt 0.684318 0.322044
vt 0.331591 0.446897
vt 0.684318 0.562043
vt 0.063083 0.322044
vt 0.347876 0.322044
vt 0.617864 0.322044
vt 0.333072 0.322044
vt 0.416445 0.341206
vt 0.557873 0.485571
vt 0.557873 0.341206
vt 0.416445 0.485571
vt 0.557873 0.341206
vt 0.557873 0.485571
vt 0.630822 0.221670
vt 0.350133 0.218847
vt 0.361701 0.221670
vt 0.353149 0.681829
vt 0.639722 0.293540
vt 0.639433 0.681748
vt 0.630822 0.605108
vt 0.361701 0.605108
vt 0.350133 0.607930
vt 0.102427 0.557873
vt 0.890096 0.416445
vt 0.102427 0.416445
vt 0.627930 0.604755
vt 0.629376 0.604402
vt 0.101713 0.416445
vt 0.102427 0.415730
vt 0.416445 0.485571
vt 0.415730 0.485571
vt 0.416445 0.486286
vt 0.416445 0.341206
vt 0.415730 0.341206
vt 0.416445 0.340492
vt 0.416856 0.485316
vt 0.416814 0.485540
vt 0.415672 0.486463
vt 0.639417 0.682054
vt 0.640863 0.681701
vt 0.558587 0.341206
vt 0.557873 0.340492
vt 0.558587 0.485571
vt 0.557873 0.486286
vt 0.890811 0.557873
vt 0.890096 0.557873
vt 0.890096 0.558587
vt 0.558587 0.485571
vt 0.640863 0.292617
vt 0.415730 0.341206
vt 0.415730 0.485571
vt 0.351718 0.681876
vt 0.364593 0.604755
vt 0.363147 0.222375
vt 0.101713 0.557873
vt 0.353106 0.682054
vt 0.890811 0.416445
vt 0.639738 0.293235
vt 0.642390 0.218847
vt 0.642390 0.607930
vt 0.558587 0.341206
vt 0.102427 0.558587
vt 0.890096 0.415730
vt 0.363147 0.604402
vn 0.0000 0.0000 1.0000
vn 0.0000 0.0000 -1.0000
vn 0.0000 1.0000 0.0000
vn 0.0000 -1.0000 0.0000
vn -1.0000 0.0000 0.0000
vn 1.0000 0.0000 0.0000
vn 0.3014 0.3016 -0.9045
vn -0.3015 0.3015 -0.9046
vn -0.3015 -0.3015 -0.9046
vn 0.5774 -0.5773 -0.5774
vn 0.5774 0.5773 -0.5774
vn -0.5774 -0.5773 -0.5774
vn -0.5774 0.5773 -0.5774
vn -0.3016 -0.3015 -0.9045
vn -0.3015 0.3015 -0.9045
vn 0.3015 0.3015 -0.9045
vn 0.3016 -0.3015 -0.9045
vn -0.3014 0.3015 -0.9046
vn 0.5773 0.5774 -0.5774
vn 0.5773 -0.5774 -0.5774
vn -0.5773 0.5774 -0.5774
vn -0.5773 -0.5774 -0.5774
vn -0.7072 0.0000 -0.7071
vn 0.0000 -0.7071 -0.7071
vn 0.7071 0.0000 -0.7071
vn -0.7071 0.0000 -0.7071
vn 0.0000 0.7071 -0.7071
vn -0.7071 0.7071 0.0000
vn -0.7071 -0.7071 0.0000
vn 0.7071 0.7072 0.0000
vn 0.7070 -0.7072 0.0000
vn 0.7071 0.0000 -0.7072
vn -0.7071 0.0000 -0.7072
vn -0.7070 0.0000 -0.7072
vn 0.7070 0.0000 -0.7072
vn 0.7071 -0.7071 0.0000
vn 0.7071 0.7071 0.0000
vn 0.7072 0.7070 0.0000
vn 0.7072 -0.7070 0.0000
vn 0.3311 0.3310 -0.8836
vn 0.3311 -0.3310 -0.8836
vn -0.2927 -0.2928 -0.9103
vn -0.2927 0.2928 -0.9103
vn 0.2865 -0.2864 -0.9143
vn -0.3189 -0.3188 -0.8926
vn -0.3363 0.3363 -0.8797
vn 0.0000 -0.6683 -0.7439
vn -0.0000 0.6697 -0.7426
vn 0.0000 -0.6426 -0.7662
vn 0.8738 0.0000 -0.4863
vn -0.8574 -0.0001 -0.5146
vn 0.7072 -0.7071 0.0000
vn 0.7072 0.7071 0.0000
vn -0.0000 -0.6697 -0.7426
vn 0.0000 0.6683 -0.7439
vn 0.0000 -0.6402 -0.7682
vn 0.8738 0.0000 -0.4864
vn -0.8516 0.0000 -0.5241
vn 0.3014 -0.3016 -0.9045
vn -0.5774 -0.5773 0.5773
vn -0.5774 0.5773 0.5773
vn 0.5774 -0.5773 0.5773
vn 0.5774 0.5773 0.5773
vn 0.5772 0.5774 -0.5774
vn -0.7072 0.0000 -0.7070
vn -0.7071 0.0000 0.7071
vn 0.7071 0.0000 0.7071
vn 0.0000 0.7071 0.7071
vn 0.0000 -0.7071 0.7071
vn 0.7072 0.0000 -0.7070
vn -0.7072 0.0000 0.7070
vn 0.7072 0.0000 0.7070
usemtl laca_cinza
s off
f 30/1/1 27/2/1 25/3/1
f 54/4/2 51/5/2 49/6/2
f 52/7/3 19/8/3 12/9/3
f 71/10/4 107/11/4 80/12/4
f 17/13/5 53/14/5 20/15/5
f 59/16/4 99/17/4 70/18/4
f 68/19/6 95/20/6 65/21/6
f 87/22/5 129/23/5 85/24/5
f 77/25/3 104/26/3 74/27/3
f 21/28/4 48/29/4 16/30/4
f 63/31/5 123/32/5 61/33/5
f 75/34/5 111/35/5 73/36/5
f 66/37/3 113/38/3 62/39/3
f 105/40/2 108/41/2 112/42/2
f 120/43/2 126/44/2 130/45/2
f 88/46/2 84/47/2 82/48/2
f 93/49/6 117/50/6 91/51/6
f 83/52/4 125/53/4 92/54/4
f 89/55/3 119/56/3 86/57/3
f 81/58/6 102/59/6 79/60/6
f 5/61/2 69/62/2 4/63/2
f 114/64/2 100/65/2 124/66/2
f 9/67/2 84/47/2 94/68/2
f 11/69/7 12/70/7 13/71/7
f 17/13/8 18/72/8 19/73/8
f 20/15/9 21/74/9 22/75/9
f 47/76/10 48/29/10 49/77/10
f 50/78/11 51/5/11 52/79/11
f 53/14/12 54/80/12 55/81/12
f 56/82/13 57/83/13 58/84/13
f 59/85/14 60/86/14 61/87/14
f 62/39/15 63/88/15 64/89/15
f 65/90/16 66/37/16 67/91/16
f 68/92/17 69/62/17 70/93/17
f 71/94/14 72/95/14 73/96/14
f 74/97/18 75/34/18 76/98/18
f 80/99/17 81/58/17 82/100/17
f 83/101/14 84/47/14 85/102/14
f 86/103/15 87/22/15 88/104/15
f 89/105/16 90/106/16 91/107/16
f 92/54/17 93/108/17 94/109/17
f 95/110/19 96/111/19 97/112/19
f 98/113/20 99/114/20 100/115/20
f 101/116/19 102/59/19 103/117/19
f 104/118/21 105/40/21 106/119/21
f 107/11/20 108/120/20 109/121/20
f 110/122/22 111/123/22 112/124/22
f 113/38/21 114/125/21 115/126/21
f 116/127/19 117/128/19 118/129/19
f 119/130/21 120/43/21 121/131/21
f 122/132/22 123/133/22 124/134/22
f 125/53/20 126/135/20 127/136/20
f 128/137/22 129/138/22 130/139/22
f 18/72/23 20/15/23 22/75/23
f 16/30/24 22/140/24 21/28/24
f 51/5/25 47/141/25 49/6/25
f 56/82/26 54/80/26 53/14/26
f 49/77/24 55/142/24 54/143/24
f 52/79/27 58/144/27 57/145/27
f 17/13/28 57/83/28 56/82/28
f 21/74/29 53/14/29 55/81/29
f 50/146/30 12/70/30 11/69/30
f 14/147/31 48/29/31 47/76/31
f 69/62/25 65/148/25 67/149/25
f 72/95/24 80/150/24 82/48/24
f 62/151/27 67/149/27 66/152/27
f 86/153/27 90/106/27 89/105/27
f 60/86/24 70/93/24 69/62/24
f 94/68/24 83/101/24 92/154/24
f 61/155/26 64/156/26 63/157/26
f 82/48/25 79/60/25 78/158/25
f 85/159/26 88/46/26 87/160/26
f 94/68/25 91/107/25 90/106/25
f 98/161/32 96/111/32 95/110/32
f 105/40/27 101/162/27 103/163/27
f 110/122/24 108/120/24 107/11/24
f 114/125/27 97/164/27 96/165/27
f 120/43/27 116/166/27 118/167/27
f 122/168/24 100/65/24 99/169/24
f 128/137/24 126/135/24 125/53/24
f 124/66/33 115/170/33 114/64/33
f 112/42/34 106/119/34 105/40/34
f 109/171/35 103/117/35 102/59/35
f 130/45/33 121/172/33 120/43/33
f 127/173/32 118/167/32 117/174/32
f 111/123/29 71/10/29 73/175/29
f 81/58/36 107/176/36 109/171/36
f 129/138/29 83/52/29 85/177/29
f 93/108/36 125/53/36 127/136/36
f 95/178/37 66/37/37 65/90/37
f 63/88/28 113/38/28 115/126/28
f 104/179/28 75/34/28 74/97/28
f 99/114/36 68/19/36 70/180/36
f 117/128/37 89/55/37 91/181/37
f 87/22/28 119/182/28 121/172/28
f 77/183/37 102/59/37 101/116/37
f 123/133/29 59/16/29 61/184/29
f 14/185/6 50/146/6 11/69/6
f 30/1/1 34/186/1 27/2/1
f 54/4/2 58/144/2 51/5/2
f 52/7/3 57/187/3 19/8/3
f 71/10/4 110/122/4 107/11/4
f 17/13/5 56/82/5 53/14/5
f 59/16/4 122/132/4 99/17/4
f 68/19/6 98/113/6 95/20/6
f 87/22/5 121/172/5 129/23/5
f 77/25/3 101/188/3 104/26/3
f 21/28/4 55/142/4 48/29/4
f 63/31/5 115/189/5 123/32/5
f 75/34/5 106/190/5 111/35/5
f 66/37/3 97/164/3 113/38/3
f 105/40/2 103/163/2 108/41/2
f 120/43/2 118/167/2 126/44/2
f 84/47/2 10/191/2 82/48/2
f 10/191/2 1/192/2 82/48/2
f 1/192/2 72/95/2 82/48/2
f 82/48/2 78/158/2 88/46/2
f 78/158/2 8/193/2 88/46/2
f 93/49/6 127/194/6 117/50/6
f 83/52/4 128/137/4 125/53/4
f 89/55/3 116/127/3 119/56/3
f 81/58/6 109/171/6 102/59/6
f 5/61/2 9/67/2 60/86/2
f 69/62/2 67/149/2 4/63/2
f 5/61/2 60/86/2 69/62/2
f 114/64/2 96/111/2 100/65/2
f 90/106/2 88/46/2 8/193/2
f 8/193/2 4/63/2 64/156/2
f 4/63/2 67/149/2 64/156/2
f 64/156/2 60/86/2 94/68/2
f 60/86/2 9/67/2 94/68/2
f 90/106/2 8/193/2 64/156/2
f 9/67/2 10/191/2 84/47/2
f 94/68/2 90/106/2 64/156/2
f 18/72/26 17/13/26 20/15/26
f 16/30/24 15/195/24 22/140/24
f 51/5/25 50/78/25 47/141/25
f 56/82/26 58/84/26 54/80/26
f 49/77/24 48/29/24 55/142/24
f 52/79/27 51/5/27 58/144/27
f 17/13/28 19/73/28 57/83/28
f 21/74/29 20/15/29 53/14/29
f 50/146/38 52/196/38 12/70/38
f 14/147/39 16/30/39 48/29/39
f 69/62/25 68/92/25 65/148/25
f 72/95/24 71/94/24 80/150/24
f 62/151/27 64/156/27 67/149/27
f 86/153/27 88/46/27 90/106/27
f 60/86/24 59/85/24 70/93/24
f 94/68/24 84/47/24 83/101/24
f 61/155/26 60/86/26 64/156/26
f 82/48/25 81/58/25 79/60/25
f 85/159/26 84/47/26 88/46/26
f 94/68/25 93/197/25 91/107/25
f 98/161/32 100/65/32 96/111/32
f 105/40/27 104/118/27 101/162/27
f 110/122/24 112/124/24 108/120/24
f 114/125/27 113/38/27 97/164/27
f 120/43/27 119/130/27 116/166/27
f 122/168/24 124/66/24 100/65/24
f 128/137/24 130/139/24 126/135/24
f 124/66/33 123/198/33 115/170/33
f 112/42/34 111/199/34 106/119/34
f 109/171/35 108/200/35 103/117/35
f 130/45/33 129/23/33 121/172/33
f 127/173/32 126/44/32 118/167/32
f 111/123/29 110/122/29 71/10/29
f 81/58/36 80/99/36 107/176/36
f 129/138/29 128/137/29 83/52/29
f 93/108/36 92/54/36 125/53/36
f 95/178/37 97/164/37 66/37/37
f 63/88/28 62/39/28 113/38/28
f 104/179/28 106/190/28 75/34/28
f 99/114/36 98/113/36 68/19/36
f 117/128/37 116/127/37 89/55/37
f 87/22/28 86/103/28 119/182/28
f 77/183/37 79/60/37 102/59/37
f 123/133/29 122/132/29 59/16/29
f 14/185/6 47/201/6 50/146/6
usemtl concrete.003
f 137/202/4 162/203/4 134/204/4
f 144/205/3 160/206/3 152/207/3
f 145/208/2 3/209/2 2/210/2
f 141/211/5 164/212/5 139/213/5
f 131/214/3 166/215/3 140/216/3
f 138/217/2 7/218/2 76/219/2
f 146/220/6 158/221/6 143/222/6
f 153/223/5 170/224/5 151/225/5
f 149/226/4 156/227/4 148/228/4
f 154/229/2 6/230/2 145/208/2
f 135/231/6 168/232/6 133/233/6
f 77/234/16 78/158/16 79/235/16
f 131/236/40 132/237/40 133/238/40
f 134/204/41 135/239/41 136/240/41
f 137/241/42 138/217/42 139/242/42
f 140/243/43 141/211/43 142/244/43
f 143/222/16 144/245/16 145/246/16
f 146/247/44 147/248/44 148/249/44
f 149/250/45 150/251/45 151/252/45
f 152/253/46 153/223/46 154/254/46
f 146/247/25 145/208/25 147/248/25
f 154/229/27 144/255/27 152/256/27
f 136/257/47 137/241/47 134/258/47
f 74/259/27 78/158/27 77/234/27
f 132/237/48 140/260/48 142/261/48
f 150/251/49 148/249/49 147/248/49
f 73/262/26 76/219/26 75/263/26
f 135/264/50 132/237/50 136/257/50
f 142/261/26 139/242/26 138/217/26
f 154/229/51 151/265/51 150/251/51
f 164/266/29 137/202/29 139/267/29
f 135/239/52 162/203/52 161/268/52
f 156/269/52 146/220/52 148/270/52
f 144/245/53 158/221/53 157/271/53
f 166/272/28 141/211/28 140/243/28
f 170/273/29 149/226/29 151/274/29
f 160/275/28 153/223/28 152/253/28
f 131/276/37 168/232/37 167/277/37
f 137/202/4 163/278/4 162/203/4
f 144/205/3 157/279/3 160/206/3
f 2/210/2 7/218/2 147/248/2
f 7/218/2 150/251/2 147/248/2
f 147/248/2 145/208/2 2/210/2
f 141/211/5 165/280/5 164/212/5
f 131/214/3 167/281/3 166/215/3
f 72/282/2 1/283/2 142/261/2
f 1/283/2 6/230/2 142/261/2
f 6/230/2 132/237/2 142/261/2
f 138/217/2 136/257/2 7/218/2
f 72/282/2 142/261/2 138/217/2
f 8/193/2 78/158/2 76/219/2
f 76/219/2 72/282/2 138/217/2
f 7/218/2 8/193/2 76/219/2
f 146/220/6 155/284/6 158/221/6
f 153/223/5 159/285/5 170/224/5
f 149/226/4 169/286/4 156/227/4
f 154/229/2 150/251/2 136/257/2
f 150/251/2 7/218/2 136/257/2
f 136/257/2 132/237/2 154/229/2
f 132/237/2 6/230/2 154/229/2
f 6/230/2 3/209/2 145/208/2
f 135/231/6 161/287/6 168/232/6
f 146/247/25 143/288/25 145/208/25
f 154/229/27 145/208/27 144/255/27
f 136/257/54 138/217/54 137/241/54
f 74/259/27 76/219/27 78/158/27
f 132/237/55 131/236/55 140/260/55
f 150/251/56 149/250/56 148/249/56
f 73/262/26 72/282/26 76/219/26
f 135/264/57 133/289/57 132/237/57
f 142/261/26 141/290/26 139/242/26
f 154/229/58 153/291/58 151/265/58
f 164/266/29 163/278/29 137/202/29
f 135/239/36 134/204/36 162/203/36
f 156/269/36 155/284/36 146/220/36
f 144/245/37 143/222/37 158/221/37
f 166/272/28 165/280/28 141/211/28
f 170/273/29 169/286/29 149/226/29
f 160/275/28 159/285/28 153/223/28
f 131/276/53 133/233/53 168/232/53
usemtl madeira
f 23/292/5 35/293/5 38/294/5
f 32/295/6 44/296/6 41/297/6
f 22/298/2 46/299/2 18/300/2
f 28/301/3 43/302/3 36/303/3
f 15/304/2 13/305/2 39/306/2
f 40/307/4 31/308/4 24/309/4
f 14/310/59 15/304/59 16/311/59
f 23/312/60 24/309/60 25/313/60
f 26/314/61 27/315/61 28/316/61
f 29/317/62 30/318/62 31/319/62
f 32/320/63 33/321/63 34/322/63
f 35/323/21 36/303/21 37/324/21
f 38/294/22 39/325/22 40/326/22
f 41/297/64 42/327/64 43/328/64
f 44/329/20 45/330/20 46/331/20
f 39/325/65 35/293/65 37/332/65
f 44/296/25 42/327/25 41/297/25
f 37/324/27 43/302/27 42/333/27
f 40/307/24 46/331/24 45/330/24
f 27/315/66 23/292/66 25/334/66
f 30/318/67 32/295/67 34/335/67
f 34/322/68 28/301/68 27/336/68
f 31/308/69 25/313/69 24/309/69
f 11/337/25 15/304/25 14/310/25
f 13/305/27 19/338/27 18/300/27
f 24/309/29 38/339/29 40/307/29
f 36/303/28 26/340/28 28/301/28
f 29/341/36 45/330/36 44/329/36
f 33/321/37 41/342/37 43/302/37
f 23/292/5 26/314/5 35/293/5
f 32/295/6 29/317/6 44/296/6
f 22/298/2 42/343/2 46/299/2
f 28/301/3 33/321/3 43/302/3
f 13/305/2 18/300/2 46/299/2
f 37/344/2 42/343/2 22/298/2
f 37/344/2 22/298/2 15/304/2
f 13/305/2 46/299/2 39/306/2
f 37/344/2 15/304/2 39/306/2
f 40/307/4 45/330/4 31/308/4
f 39/325/26 38/294/26 35/293/26
f 44/296/70 46/345/70 42/327/70
f 37/324/27 36/303/27 43/302/27
f 40/307/24 39/346/24 46/331/24
f 27/315/71 26/314/71 23/292/71
f 30/318/72 29/317/72 32/295/72
f 34/322/68 33/321/68 28/301/68
f 31/308/69 30/347/69 25/313/69
f 11/337/70 13/305/70 15/304/70
f 13/305/27 12/348/27 19/338/27
f 24/309/29 23/312/29 38/339/29
f 36/303/28 35/323/28 26/340/28
f 29/341/36 31/308/36 45/330/36
f 33/321/37 32/320/37 41/342/37
