# Blender v3.3.0 OBJ File: 'untitled.blend'
# www.blender.org
mtllib woodenback.mtl
o Cube.007_Cube.011
v 5.939600 0.898589 -8.753466
v 5.939600 0.898589 -8.753466
v 5.939600 0.898589 -8.753466
v 5.939600 4.248589 -8.753466
v 5.939600 4.248589 -8.753466
v 5.939600 4.248589 -8.753466
v 5.939600 0.898589 -8.635983
v 5.939600 0.898589 -8.635983
v 5.939600 0.898589 -8.635983
v 5.939600 4.248589 -8.635983
v 5.939600 4.248589 -8.635983
v 5.939600 4.248589 -8.635983
v 3.542600 4.248589 -8.753466
v 3.542600 4.248589 -8.753466
v 3.542600 0.898589 -8.635983
v 3.542600 0.898589 -8.635983
v 4.732600 0.898589 -8.753466
v 4.732600 0.898589 -8.753466
v 4.732600 4.248589 -8.753466
v 4.732600 4.248589 -8.753466
v 4.732600 0.898589 -8.635983
v 4.732600 0.898589 -8.635983
v 4.732600 4.248589 -8.635983
v 4.732600 4.248589 -8.635983
v 3.532599 0.898589 -8.753466
v 3.532599 0.898589 -8.753466
v 3.532599 4.248589 -8.635983
v 3.532599 4.248589 -8.635983
v 1.142590 0.898589 -8.753466
v 1.142590 0.898589 -8.753466
v 1.142590 0.898589 -8.753466
v 1.142590 4.248589 -8.753466
v 1.142590 4.248589 -8.753466
v 1.142590 4.248589 -8.753466
v 1.142590 0.898589 -8.635983
v 1.142590 0.898589 -8.635983
v 1.142590 0.898589 -8.635983
v 1.142590 4.248589 -8.635983
v 1.142590 4.248589 -8.635983
v 1.142590 4.248589 -8.635983
v 2.332590 0.898589 -8.753466
v 2.332590 0.898589 -8.753466
v 2.332590 4.248589 -8.753466
v 2.332590 4.248589 -8.753466
v 2.332590 0.898589 -8.635983
v 2.332590 0.898589 -8.635983
v 2.332590 4.248589 -8.635983
v 2.332590 4.248589 -8.635983
v 1.287600 0.898589 -8.635983
v 1.287600 0.898589 -8.635983
v 1.287600 3.048589 -8.753466
v 1.287600 3.048589 -8.753466
v 1.287600 3.048589 -8.753466
v 1.287600 3.048589 -8.635983
v 1.287600 3.048589 -8.635983
v 1.287600 3.048589 -8.635983
v 2.187599 3.048589 -8.635983
v 2.187599 3.048589 -8.635983
v 2.187599 3.048589 -8.635983
v 2.187599 0.898589 -8.635983
v 2.187599 0.898589 -8.635983
v 2.187599 0.898589 -8.753466
v 2.187599 0.898589 -8.753466
v 1.287600 0.898589 -8.753466
v 1.287600 0.898589 -8.753466
v 2.187599 3.048589 -8.753466
v 2.187599 3.048589 -8.753466
v 2.187599 3.048589 -8.753466
vt 1.086845 0.501474
vt 0.731621 0.498526
vt 1.086845 0.498526
vt 1.447144 0.737856
vt 1.089830 0.243888
vt 1.447144 0.243888
vt 1.089830 0.501474
vt 1.447144 0.498526
vt 1.447144 0.501474
vt 0.502985 0.737856
vt 0.497015 0.243888
vt 0.502985 0.243888
vt 1.089830 0.737856
vt 1.447144 0.243888
vt 1.089830 0.243888
vt 0.728636 0.243888
vt 0.373412 0.737856
vt 0.373412 0.243888
vt 0.373412 0.243888
vt 0.728636 0.737856
vt 0.728636 0.243888
vt 0.058487 0.501474
vt 0.015200 0.498526
vt 0.015200 0.501474
vt 0.728636 0.501474
vt 0.373412 0.498526
vt 0.728636 0.498526
vt 0.373412 0.501474
vt 0.728636 0.498526
vt 0.373412 0.498526
vt 1.086845 0.243888
vt 0.731621 0.737856
vt 0.731621 0.243888
vt 0.327144 0.498526
vt 0.327144 0.501474
vt 0.497015 0.737856
vt 0.497015 0.243888
vt 0.497015 0.243888
vt 0.731621 0.501474
vt 1.086845 0.498526
vt 0.731621 0.498526
vt 0.731621 0.243888
vt 1.086845 0.737856
vt 1.086845 0.243888
vt 0.502985 0.737856
vt 0.502985 0.243888
vt 0.502985 0.243888
vt 0.015200 0.501474
vt 0.370424 0.498526
vt 0.370424 0.501474
vt 0.502985 0.737856
vt 0.502985 0.243888
vt 0.502985 0.243888
vt 0.058487 0.560912
vt 0.327144 0.560912
vt 0.370424 0.737856
vt 0.015200 0.737856
vt 0.370424 0.737856
vt 0.058487 0.560912
vt 0.497015 0.737856
vt 0.502985 0.243888
vt 0.497015 0.243888
vt 0.370424 0.501474
vt 0.502985 0.560912
vt 0.497015 0.243888
vt 0.502985 0.243888
vt 0.502985 0.243888
vt 0.497015 0.560912
vt 0.502985 0.560912
vt 0.327144 0.501474
vt 0.058487 0.498526
vt 0.058487 0.501474
vt 1.447144 0.498526
vt 1.447144 0.498526
vt 1.447144 0.498526
vt 1.447144 0.498526
vt 1.447144 0.498526
vt 0.502985 0.243888
vt 0.502985 0.243888
vt 1.447144 0.501474
vt 1.447144 0.501474
vt 0.015200 0.243888
vt 0.015200 0.243888
vt 0.015200 0.243888
vt 0.497015 0.737856
vt 0.497015 0.737856
vt 0.502985 0.243888
vt 0.502985 0.243888
vt 0.015200 0.501474
vt 0.015200 0.501474
vt 0.058487 0.560912
vt 0.058487 0.560912
vt 0.058487 0.560912
vt 0.058487 0.560912
vt 0.327144 0.560912
vt 0.327144 0.560912
vt 0.327144 0.560912
vt 0.327144 0.560912
vt 0.327144 0.560912
vt 0.502985 0.737856
vt 1.447144 0.501474
vt 1.447144 0.737856
vt 0.731621 0.243888
vt 1.086845 0.243888
vt 0.731621 0.737856
vt 1.086845 0.737856
vt 1.086845 0.737856
vt 0.497015 0.243888
vt 0.502985 0.737856
vt 0.000000 0.000000
vt 0.000000 0.000000
vt 0.000000 0.000000
vt 0.015200 0.737856
vt 0.502985 0.737856
vt 0.502985 0.737856
vt 0.058487 0.243888
vt 0.370424 0.501474
vt 0.015200 0.737856
vt 0.370424 0.737856
vt 0.327144 0.243888
vt 0.327144 0.243888
vt 0.327144 0.498526
vt 0.327144 0.501474
vt 1.089830 0.501474
vt 1.447144 0.501474
vt 1.089830 0.501474
vt 1.089830 0.498526
vt 1.089830 0.498526
vt 1.089830 0.498526
vt 1.086845 0.737856
vt 0.731621 0.737856
vt 0.731621 0.737856
vt 1.086845 0.243888
vt 0.731621 0.243888
vt 0.373412 0.243888
vt 0.728636 0.243888
vt 0.728636 0.737856
vt 0.373412 0.737856
vt 0.373412 0.737856
vt 0.728636 0.243888
vt 0.373412 0.243888
vt 0.373412 0.737856
vt 0.728636 0.737856
vt 0.728636 0.737856
vt 0.000000 0.000000
vt 0.000000 0.000000
vt 0.000000 0.000000
vt 0.058487 0.243888
vt 0.058487 0.243888
vt 0.058487 0.501474
vt 0.058487 0.498526
vt 0.731621 0.501474
vt 1.089830 0.737856
vt 0.497015 0.737856
vt 1.447144 0.737856
vt 0.058487 0.498526
vt 0.373412 0.501474
vt 0.728636 0.501474
vt 0.502985 0.243888
vt 0.502985 0.243888
vt 0.502985 0.737856
vt 0.502985 0.737856
vt 0.497015 0.737856
vt 1.086845 0.501474
vt 0.497015 0.243888
vt 0.497015 0.243888
vt 0.497015 0.737856
vt 0.497015 0.737856
vt 0.502985 0.737856
vt 0.015200 0.498526
vt 0.497015 0.243888
vt 0.497015 0.243888
vt 0.497015 0.737856
vt 0.497015 0.737856
vt 0.502985 0.737856
vt 0.327144 0.243888
vt 0.370424 0.243888
vt 0.058487 0.243888
vt 0.015200 0.243888
vt 0.370424 0.243888
vt 0.370424 0.498526
vt 0.497015 0.560912
vt 0.497015 0.243888
vt 0.327144 0.498526
vt 1.447144 0.501474
vt 1.447144 0.243888
vt 0.000000 0.000000
vt 0.015200 0.737856
vt 0.370424 0.501474
vt 0.327144 0.501474
vt 0.327144 0.243888
vt 1.089830 0.501474
vt 1.089830 0.498526
vt 0.000000 0.000000
vn 0.0000 -1.0000 0.0000
vn 0.0000 0.0000 1.0000
vn -1.0000 0.0000 0.0000
vn 0.0000 0.0000 -1.0000
vn 0.0000 1.0000 0.0000
vn 1.0000 0.0000 0.0000
vn 0.9964 0.0030 -0.0848
vn 0.9964 -0.0030 0.0848
usemtl madeira.003
s off
f 24/1/1 13/2/1 20/3/1
f 5/4/2 17/5/2 3/6/2
f 24/7/1 4/8/1 11/9/1
f 12/10/3 2/11/3 8/12/3
f 23/13/4 7/14/4 21/15/4
f 25/16/2 43/17/2 41/18/2
f 45/19/4 27/20/4 16/21/4
f 50/22/5 29/23/5 37/24/5
f 28/25/1 44/26/1 13/27/1
f 46/28/5 26/29/5 42/30/5
f 17/31/2 14/32/2 25/33/2
f 50/22/1 63/34/1 60/35/1
f 20/36/2 17/37/2 18/38/2
f 15/39/5 18/40/5 26/41/5
f 16/42/4 23/43/4 21/44/4
f 28/45/2 16/46/2 15/47/2
f 38/48/1 44/49/1 47/50/1
f 47/51/2 45/52/2 46/53/2
f 52/54/2 66/55/2 43/56/2
f 39/57/4 48/58/4 55/59/4
f 33/60/6 35/61/6 31/62/6
f 46/63/5 63/34/5 60/35/5
f 54/64/3 64/65/3 50/66/3
f 60/67/6 68/68/6 59/69/6
f 57/70/5 51/71/5 56/72/5
f 1/73/2 2/74/2 3/75/2
f 4/8/2 5/76/2 6/77/2
f 7/78/2 8/12/2 9/79/2
f 10/80/2 11/9/2 12/81/2
f 29/82/2 30/83/2 31/84/2
f 32/85/2 33/60/2 34/86/2
f 35/61/2 36/87/2 37/88/2
f 38/48/2 39/89/2 40/90/2
f 51/91/2 52/54/2 53/92/2
f 54/93/2 55/59/2 56/94/2
f 57/95/2 58/96/2 59/97/2
f 66/55/2 67/98/2 68/99/2
f 8/12/2 10/100/2 12/10/2
f 9/101/2 2/74/2 1/73/2
f 4/8/2 12/81/2 11/9/2
f 3/6/2 6/102/2 5/4/2
f 15/103/2 21/44/2 22/104/2
f 13/105/2 19/106/2 20/107/2
f 29/108/2 35/61/2 37/88/2
f 38/109/2 33/60/2 32/85/2
f 37/110/2 49/111/2 50/112/2
f 34/113/2 31/84/2 30/83/2
f 36/87/2 40/114/2 39/115/2
f 50/116/2 55/59/2 54/93/2
f 47/50/2 39/89/2 38/48/2
f 58/96/2 56/94/2 55/59/2
f 60/35/2 45/117/2 46/63/2
f 32/118/2 43/56/2 44/119/2
f 61/120/2 59/97/2 58/96/2
f 63/121/2 66/55/2 68/99/2
f 68/122/2 57/70/2 59/123/2
f 22/124/2 7/125/2 9/101/2
f 11/9/2 23/126/2 24/7/2
f 1/73/2 17/127/2 18/128/2
f 20/129/2 5/76/2 4/8/2
f 24/130/2 27/131/2 28/132/2
f 18/133/2 25/33/2 26/134/2
f 46/135/2 16/21/2 15/136/2
f 28/137/2 48/138/2 47/139/2
f 26/140/2 41/18/2 42/141/2
f 44/142/2 14/143/2 13/144/2
f 42/145/2 62/146/2 63/147/2
f 64/148/2 30/83/2 29/82/2
f 52/54/2 67/98/2 66/55/2
f 65/149/2 53/92/2 52/54/2
f 54/150/2 51/71/2 53/151/2
f 9/101/5 18/128/5 22/124/5
f 24/1/1 28/152/1 13/2/1
f 5/4/2 19/153/2 17/5/2
f 24/7/1 20/129/1 4/8/1
f 12/10/3 6/154/3 2/11/3
f 23/13/4 10/155/4 7/14/4
f 25/16/2 14/143/2 43/17/2
f 45/19/4 48/138/4 27/20/4
f 50/22/5 64/156/5 29/23/5
f 28/25/1 47/157/1 44/26/1
f 46/28/5 15/158/5 26/29/5
f 17/31/2 19/106/2 14/32/2
f 50/22/1 64/156/1 63/34/1
f 18/38/3 22/159/3 20/36/3
f 22/159/2 21/160/2 20/36/2
f 21/160/2 23/161/2 24/162/2
f 20/36/2 19/163/2 17/37/2
f 21/160/3 24/162/3 20/36/3
f 15/39/5 22/164/5 18/40/5
f 16/42/4 27/131/4 23/43/4
f 15/47/7 26/165/7 28/45/7
f 26/165/2 25/166/2 28/45/2
f 25/166/2 14/167/2 13/168/2
f 28/45/2 27/169/2 16/46/2
f 25/166/8 13/168/8 28/45/8
f 38/48/1 32/170/1 44/49/1
f 46/53/6 42/171/6 47/51/6
f 42/171/2 41/172/2 47/51/2
f 41/172/2 43/173/2 44/174/2
f 47/51/2 48/175/2 45/52/2
f 41/172/6 44/174/6 47/51/6
f 62/176/2 41/177/2 66/55/2
f 41/177/2 43/56/2 66/55/2
f 34/113/2 30/83/2 52/54/2
f 30/83/2 65/149/2 52/54/2
f 34/113/2 52/54/2 43/56/2
f 49/178/4 36/179/4 55/59/4
f 36/179/4 39/57/4 55/59/4
f 48/58/4 45/180/4 58/96/4
f 45/180/4 61/120/4 58/96/4
f 48/58/4 58/96/4 55/59/4
f 33/60/6 40/114/6 35/61/6
f 46/63/5 42/181/5 63/34/5
f 54/64/3 53/182/3 64/65/3
f 60/67/6 63/183/6 68/68/6
f 57/70/5 67/184/5 51/71/5
f 8/12/2 7/78/2 10/100/2
f 9/101/2 8/185/2 2/74/2
f 4/8/2 6/77/2 12/81/2
f 3/6/2 2/186/2 6/102/2
f 15/103/2 16/42/2 21/44/2
f 13/105/2 14/32/2 19/106/2
f 29/108/2 31/62/2 35/61/2
f 38/109/2 40/114/2 33/60/2
f 37/110/2 36/187/2 49/111/2
f 34/113/2 33/188/2 31/84/2
f 36/87/2 35/61/2 40/114/2
f 50/116/2 49/178/2 55/59/2
f 47/50/2 48/189/2 39/89/2
f 58/96/2 57/95/2 56/94/2
f 60/35/2 61/190/2 45/117/2
f 32/118/2 34/113/2 43/56/2
f 61/120/2 60/191/2 59/97/2
f 63/121/2 62/176/2 66/55/2
f 68/122/2 67/184/2 57/70/2
f 22/124/2 21/192/2 7/125/2
f 11/9/2 10/80/2 23/126/2
f 1/73/2 3/75/2 17/127/2
f 20/129/2 19/193/2 5/76/2
f 24/130/2 23/43/2 27/131/2
f 18/133/2 17/31/2 25/33/2
f 46/135/2 45/19/2 16/21/2
f 28/137/2 27/20/2 48/138/2
f 26/140/2 25/16/2 41/18/2
f 44/142/2 43/17/2 14/143/2
f 42/145/2 41/194/2 62/146/2
f 64/148/2 65/149/2 30/83/2
f 52/54/2 51/91/2 67/98/2
f 65/149/2 64/148/2 53/92/2
f 54/150/2 56/72/2 51/71/2
f 9/101/5 1/73/5 18/128/5
