<?xml version="1.0" encoding="utf-8"?>
<!-- Generator: Adobe Illustrator 16.0.0, SVG Export Plug-In . SVG Version: 6.00 Build 0)  -->
<!DOCTYPE svg PUBLIC "-//W3C//DTD SVG 1.1//EN" "http://www.w3.org/Graphics/SVG/1.1/DTD/svg11.dtd">
<svg version="1.1" xmlns="http://www.w3.org/2000/svg" xmlns:xlink="http://www.w3.org/1999/xlink" x="0px" y="0px"
	 width="332.493px" height="381.589px" viewBox="0 0 332.493 381.589" enable-background="new 0 0 332.493 381.589"
	 xml:space="preserve">
<g id="Würfel">
	<path fill="#84300C" d="M0.742,286.126c-1.44-9.708-0.415-90.458,0.001-91.544c0.415-1.085,165.194,95.376,165.194,95.376
		s9.382,91.524-0.002,91.544C156.552,381.521,2.182,295.835,0.742,286.126z"/>
	<path fill="#84300C" d="M331.13,286.126c2.519-11.534,0.954-90.169,0-91.544c-0.954-1.374-165.192,95.376-165.192,95.376
		s-7.941,88.331-0.002,91.544C173.875,384.714,328.612,297.66,331.13,286.126z"/>
	<path fill="#E0AE63" d="M0.742,95.375c-1.37,5.873-0.205,95.534,0.001,99.208c0.206,3.675,150.711,93.858,165.194,95.376
		s-0.001-99.207-0.001-99.207S2.111,89.501,0.742,95.375z"/>
	<path fill="#E0AE63" d="M331.13,194.582c0.842-1.534,2.332-96.537,0-99.207c-2.331-2.67-165.193,95.375-165.193,95.375
		s-8.574,92.9,0.001,99.207S330.288,196.116,331.13,194.582z"/>
	<path fill="#DBA658" d="M0.742,95.375C0.969,87.317,148.677,0,165.936,0S328.651,89.105,331.13,95.375
		c2.479,6.271-147.547,95.375-165.193,95.375S0.515,103.432,0.742,95.375z"/>
</g>
<g id="Krümmel">
	<path fill="#512708" d="M42.009,149.792c-0.732,6.934-8.458,9.744-14.7,6.676c-1.04-0.513-2.039-1.185-2.943-1.998
		c-4.406-5.013-12.07-12.676-8.238-20.34c1.916-5.747,9.579-7.663,14.7-3.739c1.052,0.607,2.047,1.351,3.158,2.151
		c4.448,3.201,7.596,8.646,8.145,13.787C42.237,147.563,42.192,148.724,42.009,149.792z"/>
	<path fill="#512708" d="M49.659,285.103c-8.631,14.322-22.208,0.745-30.049-2.55c-1.206-1.061-2.371-2.178-3.311-3.283
		c-1.408-1.658-2.677-3.401-3.745-5.245c-4.11-7.184-4.11-18.045,1.32-23.475c5.431-8.146,16.292,0,24.01,2.04
		c1.681,1.124,3.241,2.415,4.397,3.736c0.77,0.879,1.507,1.813,2.206,2.797c0.7,0.983,1.361,2.013,1.98,3.085
		c5.42,4.633,2.706,12.778,3.914,18.225C50.216,282.236,49.964,283.799,49.659,285.103z"/>
	<path fill="#512708" d="M149.321,327.908c-2.653,3.274-5.929,4.243-9.188,3.873c-1.087-0.124-2.172-0.396-3.23-0.782
		c-5.237-3.195-10.984-5.111-12.9-10.859c-1.916-9.577,3.832-21.072,15.283-15.699c1.039,0.502,2.001,1.067,2.959,1.546
		c7.663,3.832,9.579,11.497,7.944,19.307C149.975,326.198,149.69,327.063,149.321,327.908z"/>
	<path fill="#512708" d="M145.625,226.92c0.268,3.461-1.444,6.885-4.868,6.885c-10.271,0-15.405-8.56-17.117-17.115
		c0-3.422,1.712-6.85,5.135-6.85c6.848,1.712,11.982,3.428,15.572,10.704C145.301,222.729,145.746,224.937,145.625,226.92z"/>
	<path fill="#512708" d="M83.552,223.657c-3.9,10.221-14.015,3.01-17.807-2.999c-3.792-4.809,0-10.818,3.792-10.818
		c6.322,0,11.378,6.01,14.074,11.507C83.734,222.185,83.703,222.957,83.552,223.657z"/>
	<path fill="#512708" d="M248.232,221.687c-0.133-0.28-0.284-0.529-0.461-0.738c-2-2.392-6.946-1.632-9.547-0.99
		c-2.421,0.601-4.347,2.069-6.019,3.867c-2.526,2.717-6.435,6.951-6.886,10.811c-0.472,4.053,3.499,7.62,7.329,7.884
		c5.003,0.347,9.483-4.35,12.507-7.77c1.706-1.929,3.392-4.126,3.742-6.754C249.115,226.358,249.063,223.435,248.232,221.687z"/>
	<path fill="#512708" d="M313.51,163.18c1.639-7.804-2.193-13.552-7.94-17.383c-9.579-3.832-15.327,5.747-22.265,10.022
		c-1.077,0.779-2.11,1.647-3.075,2.606c-2.896,2.875-5.187,6.574-6.257,11.199c-0.27,1.152-0.378,2.18-0.801,3.259
		c-4.004,7.398-4.004,15.062,3.659,20.809c9.58,3.831,17.243-5.747,25.427-11.257c1.512-1.654,2.87-3.542,3.899-5.564
		c0.516-1.012,1.104-1.345,1.627-1.944c1.617-2.309,3.532-2.309,4.461-6.965C312.735,166.628,313.079,165.178,313.51,163.18z"/>
	<path fill="#512708" d="M198.032,48.921c-1.891-2.77-3.869-6.471-9.177-7.617c-16.259-1.876-28.899,5.212-22.628,14.75
		c5.934,11.1,27.211,2.605,31.514-4.961C197.968,50.378,198.067,49.647,198.032,48.921z"/>
	<path fill="#512708" d="M232,308.609c-0.438-18.277-20.479-8.259-28.512-1.338c-0.979,1.007-1.877,2.096-2.783,3.218
		c-4.065,5.716-6.924,12.557-8.635,19.219c-0.147,1.428-0.132,2.813,0.068,4.116c0.598,3.91,2.852,7.104,7.36,8.606
		c1.503,1.003,3.131,1.504,4.797,1.59c0.833,0.043,1.689-0.035,2.539-0.2c0.849-0.164,1.691-0.413,2.497-0.711
		c5.126-4.182,11.742-6.531,16.847-10.039c1.001-0.762,1.948-1.534,2.798-2.396c6.593-6.277-1.422-12.289,2.294-18.781
		C231.659,310.781,231.906,309.67,232,308.609z"/>
	<path fill="#512708" d="M287.604,107.835c-0.098-3.597-1.438-5.781-3.375-7.229c-0.97-0.723-2.313-1.369-3.413-1.814
		c-10.739-9.41-31.812-11.326-34.984,6.338c-0.128,1.307-0.067,2.64,0.164,3.946c0.925,5.228,4.592,10.033,10.002,11.022
		c0.898,0.383,1.783,0.782,2.771,1.334c1.44,0.133,2.881,0.209,4.235,0.171c2.706-0.076,5.358-0.372,7.873-0.861
		c1.258-0.244,2.571-0.652,3.832-1.103c4.946-1.521,8.778-5.352,11.937-9.988C287.069,108.96,287.38,108.37,287.604,107.835z"/>
	<path fill="#512708" d="M92.841,81.584c0.366-0.658,0.607-1.32,0.733-1.976c0.124-0.655,0.132-1.306,0.03-1.942
		c-6.362-9.613-16.657-8.194-25.147-6.767c-0.751,0.308-1.511,0.634-2.253,0.986c-4.458,2.109-8.561,5.037-4.7,10.357
		c1.287,2.839,3.861,7.097,9.509,6.27c0.912,0.144,1.833,0.242,2.749,0.298C82.024,89.312,90.204,86.325,92.841,81.584z"/>
	<path fill="#512708" d="M182.072,140.344c1.572-5.127,4.255-9.68,2.48-14.658c-5.781-10.168-18.706-16.209-31.243-10.728
		c-0.841,0.142-1.616,0.324-2.658,0.315c-2.082-0.014-4.134,0.092-6.123,0.312c-1.491,0.167-2.417,0.11-3.38,0.12
		c-11.886-0.097-21.938,10.969-20.618,20.712c1.776,4.979,8.238,7.998,15.851,9.031c0.841,0.308,1.715,0.607,2.621,0.881
		c0.911,0.291,1.854,0.56,2.828,0.805c4.674,1.177,9.515,1.676,14.16,1.575c1.55-0.034,3.063-0.105,4.524-0.174
		c8.162,2.087,13.075-2.253,19.149-5.674C180.572,142.071,181.377,141.228,182.072,140.344z"/>
	<g>
	</g>
	<g>
	</g>
	<g>
	</g>
	<g>
	</g>
	<g>
	</g>
</g>
</svg>
