<?xml version="1.0" encoding="UTF-8" standalone="no"?><svg xmlns="http://www.w3.org/2000/svg" xmlns:xlink="http://www.w3.org/1999/xlink" contentScriptType="application/ecmascript" contentStyleType="text/css" height="1350px" preserveAspectRatio="none" style="width:471px;height:1350px;" version="1.1" viewBox="0 0 471 1350" width="471px" zoomAndPan="magnify"><defs><filter height="300%" id="f33nw0hzkps3h" width="300%" x="-1" y="-1"><feGaussianBlur result="blurOut" stdDeviation="2.0"/><feColorMatrix in="blurOut" result="blurOut2" type="matrix" values="0 0 0 0 0 0 0 0 0 0 0 0 0 0 0 0 0 0 .4 0"/><feOffset dx="4.0" dy="4.0" in="blurOut2" result="blurOut3"/><feBlend in="SourceGraphic" in2="blurOut3" mode="normal"/></filter></defs><g><text fill="#000000" font-family="sans-serif" font-size="18" lengthAdjust="spacingAndGlyphs" textLength="47" x="211.375" y="28.6855">Editor</text><rect fill="#FFFFFF" filter="url(#f33nw0hzkps3h)" height="970.3027" style="stroke: #000000; stroke-width: 2.0;" width="450.75" x="10" y="33.2168"/><path d="M78,34.2168 L78,43.8262 L68,53.8262 L10,53.8262 " fill="none" style="stroke: #000000; stroke-width: 2.0;"/><text fill="#000000" font-family="sans-serif" font-size="14" lengthAdjust="spacingAndGlyphs" textLength="58" x="13" y="48.75">redrawAll</text><ellipse cx="255.75" cy="73.8262" fill="#000000" filter="url(#f33nw0hzkps3h)" rx="10" ry="10" style="stroke: none; stroke-width: 1.0;"/><rect fill="#F8F8F8" filter="url(#f33nw0hzkps3h)" height="35.0938" rx="12.5" ry="12.5" style="stroke: #383838; stroke-width: 1.5;" width="93" x="209.25" y="103.8262"/><text fill="#000000" font-family="sans-serif" font-size="12" lengthAdjust="spacingAndGlyphs" textLength="73" x="219.25" y="126.2832">reset Canvas</text><rect fill="#F8F8F8" filter="url(#f33nw0hzkps3h)" height="35.0938" rx="12.5" ry="12.5" style="stroke: #383838; stroke-width: 1.5;" width="237" x="137.25" y="158.9199"/><text fill="#000000" font-family="sans-serif" font-size="12" lengthAdjust="spacingAndGlyphs" textLength="217" x="147.25" y="181.377">translate Canvas to transformationPoint</text><rect fill="#F8F8F8" filter="url(#f33nw0hzkps3h)" height="35.0938" rx="12.5" ry="12.5" style="stroke: #383838; stroke-width: 1.5;" width="82" x="214.75" y="214.0137"/><text fill="#000000" font-family="sans-serif" font-size="12" lengthAdjust="spacingAndGlyphs" textLength="62" x="224.75" y="236.4707">apply scale</text><rect fill="#F8F8F8" filter="url(#f33nw0hzkps3h)" height="35.0938" style="stroke: #383838; stroke-width: 1.5;" width="257" x="127.25" y="326.0264"/><text fill="#000000" font-family="sans-serif" font-size="12" lengthAdjust="spacingAndGlyphs" textLength="237" x="137.25" y="348.4834">isSelected: boolean = is p in selectedPaths</text><rect fill="#F8F8F8" filter="url(#f33nw0hzkps3h)" height="35.0938" rx="12.5" ry="12.5" style="stroke: #383838; stroke-width: 1.5;" width="90" x="210.75" y="381.1201"/><text fill="#000000" font-family="sans-serif" font-size="12" lengthAdjust="spacingAndGlyphs" textLength="70" x="220.75" y="403.5771">crc alpha = 1</text><rect fill="#F8F8F8" filter="url(#f33nw0hzkps3h)" height="35.0938" rx="12.5" ry="12.5" style="stroke: #383838; stroke-width: 1.5;" width="100" x="205.75" y="485.1318"/><text fill="#000000" font-family="sans-serif" font-size="12" lengthAdjust="spacingAndGlyphs" textLength="80" x="215.75" y="507.5889">crc alpha = 0.5</text><polygon fill="#F8F8F8" filter="url(#f33nw0hzkps3h)" points="255.75,436.2139,255.75,436.2139,267.75,448.2139,255.75,460.2139,255.75,460.2139,243.75,448.2139,255.75,436.2139" style="stroke: #383838; stroke-width: 1.5;"/><text fill="#000000" font-family="sans-serif" font-size="11" lengthAdjust="spacingAndGlyphs" textLength="196" x="259.75" y="471.6328">[!isSelected &amp;&amp; selectedPaths.length &gt; 0]</text><polygon fill="#F8F8F8" filter="url(#f33nw0hzkps3h)" points="255.75,540.2256,267.75,552.2256,255.75,564.2256,243.75,552.2256,255.75,540.2256" style="stroke: #383838; stroke-width: 1.5;"/><rect fill="#F8F8F8" filter="url(#f33nw0hzkps3h)" height="35.0938" rx="12.5" ry="12.5" style="stroke: #383838; stroke-width: 1.5;" width="168" x="171.75" y="584.2256"/><text fill="#000000" font-family="sans-serif" font-size="12" lengthAdjust="spacingAndGlyphs" textLength="148" x="181.75" y="606.6826">p.draw(crc, isSelected) ₼</text><polygon fill="#F8F8F8" filter="url(#f33nw0hzkps3h)" points="243.75,269.1074,267.75,269.1074,279.75,281.1074,267.75,293.1074,243.75,293.1074,231.75,281.1074,243.75,269.1074" style="stroke: #383838; stroke-width: 1.5;"/><text fill="#000000" font-family="sans-serif" font-size="11" lengthAdjust="spacingAndGlyphs" textLength="55" x="259.75" y="304.5264">[p of paths]</text><text fill="#000000" font-family="sans-serif" font-size="11" lengthAdjust="spacingAndGlyphs" textLength="0" x="257.25" y="285.6084"/><polygon fill="#F8F8F8" filter="url(#f33nw0hzkps3h)" points="255.75,718.2383,255.75,718.2383,267.75,730.2383,255.75,742.2383,255.75,742.2383,243.75,730.2383,255.75,718.2383" style="stroke: #383838; stroke-width: 1.5;"/><text fill="#000000" font-family="sans-serif" font-size="11" lengthAdjust="spacingAndGlyphs" textLength="76" x="167.75" y="727.8213">[point is Vertex]</text><rect fill="#F8F8F8" filter="url(#f33nw0hzkps3h)" height="35.0938" rx="12.5" ry="12.5" style="stroke: #383838; stroke-width: 1.5;" width="213" x="54" y="752.2383"/><text fill="#000000" font-family="sans-serif" font-size="12" lengthAdjust="spacingAndGlyphs" textLength="193" x="64" y="774.6953">point.draw(crc, true, tangentsActive)</text><rect fill="#F8F8F8" filter="url(#f33nw0hzkps3h)" height="35.0938" rx="12.5" ry="12.5" style="stroke: #383838; stroke-width: 1.5;" width="128" x="287" y="752.2383"/><text fill="#000000" font-family="sans-serif" font-size="12" lengthAdjust="spacingAndGlyphs" textLength="108" x="297" y="774.6953">point.draw(crc, true)</text><polygon fill="#F8F8F8" filter="url(#f33nw0hzkps3h)" points="255.75,793.332,267.75,805.332,255.75,817.332,243.75,805.332,255.75,793.332" style="stroke: #383838; stroke-width: 1.5;"/><polygon fill="#F8F8F8" filter="url(#f33nw0hzkps3h)" points="243.75,661.3193,267.75,661.3193,279.75,673.3193,267.75,685.3193,243.75,685.3193,231.75,673.3193,243.75,661.3193" style="stroke: #383838; stroke-width: 1.5;"/><text fill="#000000" font-family="sans-serif" font-size="11" lengthAdjust="spacingAndGlyphs" textLength="115" x="259.75" y="696.7383">[point of selectedPoints]</text><text fill="#000000" font-family="sans-serif" font-size="11" lengthAdjust="spacingAndGlyphs" textLength="0" x="257.25" y="677.8203"/><rect fill="#F8F8F8" filter="url(#f33nw0hzkps3h)" height="35.0938" rx="12.5" ry="12.5" style="stroke: #383838; stroke-width: 1.5;" width="222" x="144.75" y="859.332"/><text fill="#000000" font-family="sans-serif" font-size="12" lengthAdjust="spacingAndGlyphs" textLength="202" x="154.75" y="881.7891">selectedAction.additionalDisplay(crc)</text><rect fill="#F8F8F8" filter="url(#f33nw0hzkps3h)" height="35.0938" rx="12.5" ry="12.5" style="stroke: #383838; stroke-width: 1.5;" width="182" x="164.75" y="914.4258"/><text fill="#000000" font-family="sans-serif" font-size="12" lengthAdjust="spacingAndGlyphs" textLength="162" x="174.75" y="936.8828">drawTransformationPoint ₼</text><ellipse cx="255.75" cy="980.5195" fill="#FFFFFF" filter="url(#f33nw0hzkps3h)" rx="11" ry="11" style="stroke: #000000; stroke-width: 1.0;"/><ellipse cx="255.75" cy="980.5195" fill="#000000" rx="6" ry="6" style="stroke: #7F7F7F; stroke-width: 1.0;"/><rect fill="#FFFFFF" filter="url(#f33nw0hzkps3h)" height="324.9844" style="stroke: #000000; stroke-width: 2.0;" width="299" x="106.25" y="1014.0957"/><path d="M274.25,1015.0957 L274.25,1024.7051 L264.25,1034.7051 L106.25,1034.7051 " fill="none" style="stroke: #000000; stroke-width: 2.0;"/><text fill="#000000" font-family="sans-serif" font-size="14" lengthAdjust="spacingAndGlyphs" textLength="158" x="109.25" y="1029.6289">drawTransformationPoint</text><ellipse cx="255.75" cy="1054.7051" fill="#000000" filter="url(#f33nw0hzkps3h)" rx="10" ry="10" style="stroke: none; stroke-width: 1.0;"/><rect fill="#F8F8F8" filter="url(#f33nw0hzkps3h)" height="35.0938" style="stroke: #383838; stroke-width: 1.5;" width="172" x="169.75" y="1084.7051"/><text fill="#000000" font-family="sans-serif" font-size="12" lengthAdjust="spacingAndGlyphs" textLength="152" x="179.75" y="1107.1621">transformationPath: Path2D</text><rect fill="#F8F8F8" filter="url(#f33nw0hzkps3h)" height="35.0938" rx="12.5" ry="12.5" style="stroke: #383838; stroke-width: 1.5;" width="279" x="116.25" y="1139.7988"/><text fill="#000000" font-family="sans-serif" font-size="12" lengthAdjust="spacingAndGlyphs" textLength="259" x="126.25" y="1162.2559">draw Plus at the position of transformationPoint</text><rect fill="#F8F8F8" filter="url(#f33nw0hzkps3h)" height="35.0938" rx="12.5" ry="12.5" style="stroke: #383838; stroke-width: 1.5;" width="214" x="148.75" y="1194.8926"/><text fill="#000000" font-family="sans-serif" font-size="12" lengthAdjust="spacingAndGlyphs" textLength="194" x="158.75" y="1217.3496">set color to black and line width to 1</text><rect fill="#F8F8F8" filter="url(#f33nw0hzkps3h)" height="35.0938" rx="12.5" ry="12.5" style="stroke: #383838; stroke-width: 1.5;" width="162" x="174.75" y="1249.9863"/><text fill="#000000" font-family="sans-serif" font-size="12" lengthAdjust="spacingAndGlyphs" textLength="142" x="184.75" y="1272.4434">stroke transformationPath</text><ellipse cx="255.75" cy="1316.0801" fill="#FFFFFF" filter="url(#f33nw0hzkps3h)" rx="11" ry="11" style="stroke: #000000; stroke-width: 1.0;"/><ellipse cx="255.75" cy="1316.0801" fill="#000000" rx="6" ry="6" style="stroke: #7F7F7F; stroke-width: 1.0;"/><line style="stroke: #383838; stroke-width: 1.5;" x1="255.75" x2="255.75" y1="83.8262" y2="103.8262"/><polygon fill="#383838" points="251.75,93.8262,255.75,103.8262,259.75,93.8262,255.75,97.8262" style="stroke: #383838; stroke-width: 1.0;"/><line style="stroke: #383838; stroke-width: 1.5;" x1="255.75" x2="255.75" y1="138.9199" y2="158.9199"/><polygon fill="#383838" points="251.75,148.9199,255.75,158.9199,259.75,148.9199,255.75,152.9199" style="stroke: #383838; stroke-width: 1.0;"/><line style="stroke: #383838; stroke-width: 1.5;" x1="255.75" x2="255.75" y1="194.0137" y2="214.0137"/><polygon fill="#383838" points="251.75,204.0137,255.75,214.0137,259.75,204.0137,255.75,208.0137" style="stroke: #383838; stroke-width: 1.0;"/><line style="stroke: #383838; stroke-width: 1.5;" x1="255.75" x2="255.75" y1="361.1201" y2="381.1201"/><polygon fill="#383838" points="251.75,371.1201,255.75,381.1201,259.75,371.1201,255.75,375.1201" style="stroke: #383838; stroke-width: 1.0;"/><line style="stroke: #383838; stroke-width: 1.5;" x1="255.75" x2="255.75" y1="460.2139" y2="485.1318"/><polygon fill="#383838" points="251.75,475.1318,255.75,485.1318,259.75,475.1318,255.75,479.1318" style="stroke: #383838; stroke-width: 1.0;"/><line style="stroke: #383838; stroke-width: 1.5;" x1="267.75" x2="315.75" y1="448.2139" y2="448.2139"/><polygon fill="#383838" points="311.75,492.6787,315.75,502.6787,319.75,492.6787,315.75,496.6787" style="stroke: #383838; stroke-width: 1.5;"/><line style="stroke: #383838; stroke-width: 1.5;" x1="315.75" x2="315.75" y1="448.2139" y2="552.2256"/><line style="stroke: #383838; stroke-width: 1.5;" x1="315.75" x2="267.75" y1="552.2256" y2="552.2256"/><polygon fill="#383838" points="277.75,548.2256,267.75,552.2256,277.75,556.2256,273.75,552.2256" style="stroke: #383838; stroke-width: 1.0;"/><line style="stroke: #383838; stroke-width: 1.5;" x1="255.75" x2="255.75" y1="520.2256" y2="540.2256"/><polygon fill="#383838" points="251.75,530.2256,255.75,540.2256,259.75,530.2256,255.75,534.2256" style="stroke: #383838; stroke-width: 1.0;"/><line style="stroke: #383838; stroke-width: 1.5;" x1="255.75" x2="255.75" y1="416.2139" y2="436.2139"/><polygon fill="#383838" points="251.75,426.2139,255.75,436.2139,259.75,426.2139,255.75,430.2139" style="stroke: #383838; stroke-width: 1.0;"/><line style="stroke: #383838; stroke-width: 1.5;" x1="255.75" x2="255.75" y1="564.2256" y2="584.2256"/><polygon fill="#383838" points="251.75,574.2256,255.75,584.2256,259.75,574.2256,255.75,578.2256" style="stroke: #383838; stroke-width: 1.0;"/><line style="stroke: #383838; stroke-width: 1.5;" x1="255.75" x2="255.75" y1="293.1074" y2="326.0264"/><polygon fill="#383838" points="251.75,316.0264,255.75,326.0264,259.75,316.0264,255.75,320.0264" style="stroke: #383838; stroke-width: 1.0;"/><line style="stroke: #383838; stroke-width: 1.5;" x1="255.75" x2="255.75" y1="619.3193" y2="629.3193"/><line style="stroke: #383838; stroke-width: 1.5;" x1="255.75" x2="396.25" y1="629.3193" y2="629.3193"/><polygon fill="#383838" points="392.25,458.7139,396.25,448.7139,400.25,458.7139,396.25,454.7139" style="stroke: #383838; stroke-width: 1.5;"/><line style="stroke: #383838; stroke-width: 1.5;" x1="396.25" x2="396.25" y1="281.1074" y2="629.3193"/><line style="stroke: #383838; stroke-width: 1.5;" x1="396.25" x2="279.75" y1="281.1074" y2="281.1074"/><polygon fill="#383838" points="289.75,277.1074,279.75,281.1074,289.75,285.1074,285.75,281.1074" style="stroke: #383838; stroke-width: 1.0;"/><line style="stroke: #383838; stroke-width: 1.5;" x1="231.75" x2="115.25" y1="281.1074" y2="281.1074"/><polygon fill="#383838" points="111.25,444.7139,115.25,454.7139,119.25,444.7139,115.25,448.7139" style="stroke: #383838; stroke-width: 1.5;"/><line style="stroke: #383838; stroke-width: 1.5;" x1="115.25" x2="115.25" y1="281.1074" y2="641.3193"/><line style="stroke: #383838; stroke-width: 1.5;" x1="115.25" x2="255.75" y1="641.3193" y2="641.3193"/><line style="stroke: #383838; stroke-width: 1.5;" x1="255.75" x2="255.75" y1="641.3193" y2="661.3193"/><polygon fill="#383838" points="251.75,651.3193,255.75,661.3193,259.75,651.3193,255.75,655.3193" style="stroke: #383838; stroke-width: 1.0;"/><line style="stroke: #383838; stroke-width: 1.5;" x1="255.75" x2="255.75" y1="249.1074" y2="269.1074"/><polygon fill="#383838" points="251.75,259.1074,255.75,269.1074,259.75,259.1074,255.75,263.1074" style="stroke: #383838; stroke-width: 1.0;"/><line style="stroke: #383838; stroke-width: 1.5;" x1="243.75" x2="160.5" y1="730.2383" y2="730.2383"/><line style="stroke: #383838; stroke-width: 1.5;" x1="160.5" x2="160.5" y1="730.2383" y2="752.2383"/><polygon fill="#383838" points="156.5,742.2383,160.5,752.2383,164.5,742.2383,160.5,746.2383" style="stroke: #383838; stroke-width: 1.0;"/><line style="stroke: #383838; stroke-width: 1.5;" x1="267.75" x2="351" y1="730.2383" y2="730.2383"/><line style="stroke: #383838; stroke-width: 1.5;" x1="351" x2="351" y1="730.2383" y2="752.2383"/><polygon fill="#383838" points="347,742.2383,351,752.2383,355,742.2383,351,746.2383" style="stroke: #383838; stroke-width: 1.0;"/><line style="stroke: #383838; stroke-width: 1.5;" x1="160.5" x2="160.5" y1="787.332" y2="805.332"/><line style="stroke: #383838; stroke-width: 1.5;" x1="160.5" x2="243.75" y1="805.332" y2="805.332"/><polygon fill="#383838" points="233.75,801.332,243.75,805.332,233.75,809.332,237.75,805.332" style="stroke: #383838; stroke-width: 1.0;"/><line style="stroke: #383838; stroke-width: 1.5;" x1="351" x2="351" y1="787.332" y2="805.332"/><line style="stroke: #383838; stroke-width: 1.5;" x1="351" x2="267.75" y1="805.332" y2="805.332"/><polygon fill="#383838" points="277.75,801.332,267.75,805.332,277.75,809.332,273.75,805.332" style="stroke: #383838; stroke-width: 1.0;"/><line style="stroke: #383838; stroke-width: 1.5;" x1="255.75" x2="255.75" y1="685.3193" y2="718.2383"/><polygon fill="#383838" points="251.75,708.2383,255.75,718.2383,259.75,708.2383,255.75,712.2383" style="stroke: #383838; stroke-width: 1.0;"/><line style="stroke: #383838; stroke-width: 1.5;" x1="255.75" x2="255.75" y1="817.332" y2="827.332"/><line style="stroke: #383838; stroke-width: 1.5;" x1="255.75" x2="437" y1="827.332" y2="827.332"/><polygon fill="#383838" points="433,758.8672,437,748.8672,441,758.8672,437,754.8672" style="stroke: #383838; stroke-width: 1.5;"/><line style="stroke: #383838; stroke-width: 1.5;" x1="437" x2="437" y1="673.3193" y2="827.332"/><line style="stroke: #383838; stroke-width: 1.5;" x1="437" x2="279.75" y1="673.3193" y2="673.3193"/><polygon fill="#383838" points="289.75,669.3193,279.75,673.3193,289.75,677.3193,285.75,673.3193" style="stroke: #383838; stroke-width: 1.0;"/><line style="stroke: #383838; stroke-width: 1.5;" x1="231.75" x2="32" y1="673.3193" y2="673.3193"/><polygon fill="#383838" points="28,744.8672,32,754.8672,36,744.8672,32,748.8672" style="stroke: #383838; stroke-width: 1.5;"/><line style="stroke: #383838; stroke-width: 1.5;" x1="32" x2="32" y1="673.3193" y2="839.332"/><line style="stroke: #383838; stroke-width: 1.5;" x1="32" x2="255.75" y1="839.332" y2="839.332"/><line style="stroke: #383838; stroke-width: 1.5;" x1="255.75" x2="255.75" y1="839.332" y2="859.332"/><polygon fill="#383838" points="251.75,849.332,255.75,859.332,259.75,849.332,255.75,853.332" style="stroke: #383838; stroke-width: 1.0;"/><line style="stroke: #383838; stroke-width: 1.5;" x1="255.75" x2="255.75" y1="894.4258" y2="914.4258"/><polygon fill="#383838" points="251.75,904.4258,255.75,914.4258,259.75,904.4258,255.75,908.4258" style="stroke: #383838; stroke-width: 1.0;"/><line style="stroke: #383838; stroke-width: 1.5;" x1="255.75" x2="255.75" y1="949.5195" y2="969.5195"/><polygon fill="#383838" points="251.75,959.5195,255.75,969.5195,259.75,959.5195,255.75,963.5195" style="stroke: #383838; stroke-width: 1.0;"/><line style="stroke: #383838; stroke-width: 1.5;" x1="255.75" x2="255.75" y1="1064.7051" y2="1084.7051"/><polygon fill="#383838" points="251.75,1074.7051,255.75,1084.7051,259.75,1074.7051,255.75,1078.7051" style="stroke: #383838; stroke-width: 1.0;"/><line style="stroke: #383838; stroke-width: 1.5;" x1="255.75" x2="255.75" y1="1119.7988" y2="1139.7988"/><polygon fill="#383838" points="251.75,1129.7988,255.75,1139.7988,259.75,1129.7988,255.75,1133.7988" style="stroke: #383838; stroke-width: 1.0;"/><line style="stroke: #383838; stroke-width: 1.5;" x1="255.75" x2="255.75" y1="1174.8926" y2="1194.8926"/><polygon fill="#383838" points="251.75,1184.8926,255.75,1194.8926,259.75,1184.8926,255.75,1188.8926" style="stroke: #383838; stroke-width: 1.0;"/><line style="stroke: #383838; stroke-width: 1.5;" x1="255.75" x2="255.75" y1="1229.9863" y2="1249.9863"/><polygon fill="#383838" points="251.75,1239.9863,255.75,1249.9863,259.75,1239.9863,255.75,1243.9863" style="stroke: #383838; stroke-width: 1.0;"/><line style="stroke: #383838; stroke-width: 1.5;" x1="255.75" x2="255.75" y1="1285.0801" y2="1305.0801"/><polygon fill="#383838" points="251.75,1295.0801,255.75,1305.0801,259.75,1295.0801,255.75,1299.0801" style="stroke: #383838; stroke-width: 1.0;"/><!--
@startuml redrawAll
skinparam monochrome true

title Editor

partition redrawAll {
	start
	:reset Canvas;
	:translate Canvas to transformationPoint;
	:apply scale;

	while() is ([p of paths])
		:isSelected: boolean = is p in selectedPaths]
			:crc alpha = 1;
		if() then ([!isSelected && selectedPaths.length > 0])
			:crc alpha = 0.5;
		endif
		:p.draw(crc, isSelected) ₼;
	endwhile

	while() is ([point of selectedPoints])
		if() then ([point is Vertex])
			:point.draw(crc, true, tangentsActive);
		else
			:point.draw(crc, true);
		endif
	endwhile

	:selectedAction.additionalDisplay(crc);
	:drawTransformationPoint ₼;

	stop 
}
break

partition drawTransformationPoint {
	start
	:transformationPath: Path2D]
	:draw Plus at the position of transformationPoint;
	:set color to black and line width to 1;
	:stroke transformationPath;
	stop
}
@enduml

PlantUML version 1.2019.05(Sat Apr 20 18:45:36 CEST 2019)
(GPL source distribution)
Java Runtime: Java(TM) SE Runtime Environment
JVM: Java HotSpot(TM) 64-Bit Server VM
Java Version: 1.8.0_181-b13
Operating System: Windows 10
OS Version: 10.0
Default Encoding: Cp1252
Language: de
Country: DE
--></g></svg>