<?xml version="1.0" encoding="UTF-8" standalone="no"?><svg xmlns="http://www.w3.org/2000/svg" xmlns:xlink="http://www.w3.org/1999/xlink" contentScriptType="application/ecmascript" contentStyleType="text/css" height="1416px" preserveAspectRatio="none" style="width:981px;height:1416px;" version="1.1" viewBox="0 0 981 1416" width="981px" zoomAndPan="magnify"><defs/><g><!--cluster FUDGE--><rect fill="#FFFFFF" height="1381" style="stroke: #000000; stroke-width: 1.5;" width="948" x="22" y="24"/><text fill="#000000" font-family="sans-serif" font-size="14" font-weight="bold" lengthAdjust="spacingAndGlyphs" textLength="49" x="471.5" y="40.5332">FUDGE</text><!--cluster Transfer--><polygon fill="#FFFFFF" points="50,68,115,68,122,91.6094,856,91.6094,856,445,50,445,50,68" style="stroke: #000000; stroke-width: 1.5;"/><line style="stroke: #000000; stroke-width: 1.5;" x1="50" x2="122" y1="91.6094" y2="91.6094"/><text fill="#000000" font-family="sans-serif" font-size="14" font-weight="bold" lengthAdjust="spacingAndGlyphs" textLength="59" x="54" y="84.5332">Transfer</text><!--cluster Mutable--><rect fill="#FFFFFF" height="309" style="stroke: #000000; stroke-width: 1.5;" width="758" x="74" y="112"/><text fill="#000000" font-family="sans-serif" font-size="14" font-weight="bold" lengthAdjust="spacingAndGlyphs" textLength="57" x="424.5" y="128.5332">Mutable</text><!--cluster Math--><polygon fill="#FFFFFF" points="46,492,87,492,94,515.6094,152,515.6094,152,592,46,592,46,492" style="stroke: #000000; stroke-width: 1.5;"/><line style="stroke: #000000; stroke-width: 1.5;" x1="46" x2="94" y1="515.6094" y2="515.6094"/><text fill="#000000" font-family="sans-serif" font-size="14" font-weight="bold" lengthAdjust="spacingAndGlyphs" textLength="35" x="50" y="508.5332">Math</text><!--cluster SketchTypes--><rect fill="#FFFFFF" height="903" style="stroke: #000000; stroke-width: 1.5;" width="770" x="176" y="478"/><text fill="#000000" font-family="sans-serif" font-size="14" font-weight="bold" lengthAdjust="spacingAndGlyphs" textLength="89" x="516.5" y="494.5332">SketchTypes</text><!--class Mutator--><rect fill="#F8F8F8" height="48" id="Mutator" style="stroke: #383838; stroke-width: 1.5;" width="72" x="317" y="148"/><ellipse cx="332" cy="164" fill="#B1B1B1" rx="11" ry="11" style="stroke: #383838; stroke-width: 1.0;"/><path d="M332.9531,160.6406 L332.9531,167.2969 L334.6719,167.2969 Q335.2813,167.2969 335.5469,167.5313 Q335.8125,167.7656 335.8125,168.1563 Q335.8125,168.5313 335.5469,168.7656 Q335.2813,169 334.6719,169 L329.5313,169 Q328.9219,169 328.6563,168.7656 Q328.3906,168.5313 328.3906,168.1406 Q328.3906,167.7656 328.6563,167.5313 Q328.9219,167.2969 329.5313,167.2969 L331.25,167.2969 L331.25,160.6406 L329.5313,160.6406 Q328.9219,160.6406 328.6563,160.4063 Q328.3906,160.1719 328.3906,159.7813 Q328.3906,159.4063 328.6563,159.1719 Q328.9219,158.9375 329.5313,158.9375 L334.6719,158.9375 Q335.2813,158.9375 335.5469,159.1719 Q335.8125,159.4063 335.8125,159.7813 Q335.8125,160.1719 335.5469,160.4063 Q335.2813,160.6406 334.6719,160.6406 L332.9531,160.6406 Z "/><text fill="#000000" font-family="sans-serif" font-size="12" font-style="italic" lengthAdjust="spacingAndGlyphs" textLength="40" x="346" y="168.9102">Mutator</text><line style="stroke: #383838; stroke-width: 1.5;" x1="318" x2="388" y1="180" y2="180"/><line style="stroke: #383838; stroke-width: 1.5;" x1="318" x2="388" y1="188" y2="188"/><!--class MutatorForAnimation--><rect fill="#F8F8F8" height="48" id="MutatorForAnimation" style="stroke: #383838; stroke-width: 1.5;" width="146" x="90" y="315.5"/><ellipse cx="105" cy="331.5" fill="#B1B1B1" rx="11" ry="11" style="stroke: #383838; stroke-width: 1.0;"/><path d="M105.9531,328.1406 L105.9531,334.7969 L107.6719,334.7969 Q108.2813,334.7969 108.5469,335.0313 Q108.8125,335.2656 108.8125,335.6563 Q108.8125,336.0313 108.5469,336.2656 Q108.2813,336.5 107.6719,336.5 L102.5313,336.5 Q101.9219,336.5 101.6563,336.2656 Q101.3906,336.0313 101.3906,335.6406 Q101.3906,335.2656 101.6563,335.0313 Q101.9219,334.7969 102.5313,334.7969 L104.25,334.7969 L104.25,328.1406 L102.5313,328.1406 Q101.9219,328.1406 101.6563,327.9063 Q101.3906,327.6719 101.3906,327.2813 Q101.3906,326.9063 101.6563,326.6719 Q101.9219,326.4375 102.5313,326.4375 L107.6719,326.4375 Q108.2813,326.4375 108.5469,326.6719 Q108.8125,326.9063 108.8125,327.2813 Q108.8125,327.6719 108.5469,327.9063 Q108.2813,328.1406 107.6719,328.1406 L105.9531,328.1406 Z "/><text fill="#000000" font-family="sans-serif" font-size="12" font-style="italic" lengthAdjust="spacingAndGlyphs" textLength="114" x="119" y="336.4102">MutatorForAnimation</text><line style="stroke: #383838; stroke-width: 1.5;" x1="91" x2="235" y1="347.5" y2="347.5"/><line style="stroke: #383838; stroke-width: 1.5;" x1="91" x2="235" y1="355.5" y2="355.5"/><!--class MutatorForUserInterface--><rect fill="#F8F8F8" height="48" id="MutatorForUserInterface" style="stroke: #383838; stroke-width: 1.5;" width="164" x="271" y="315.5"/><ellipse cx="286" cy="331.5" fill="#B1B1B1" rx="11" ry="11" style="stroke: #383838; stroke-width: 1.0;"/><path d="M286.9531,328.1406 L286.9531,334.7969 L288.6719,334.7969 Q289.2813,334.7969 289.5469,335.0313 Q289.8125,335.2656 289.8125,335.6563 Q289.8125,336.0313 289.5469,336.2656 Q289.2813,336.5 288.6719,336.5 L283.5313,336.5 Q282.9219,336.5 282.6563,336.2656 Q282.3906,336.0313 282.3906,335.6406 Q282.3906,335.2656 282.6563,335.0313 Q282.9219,334.7969 283.5313,334.7969 L285.25,334.7969 L285.25,328.1406 L283.5313,328.1406 Q282.9219,328.1406 282.6563,327.9063 Q282.3906,327.6719 282.3906,327.2813 Q282.3906,326.9063 282.6563,326.6719 Q282.9219,326.4375 283.5313,326.4375 L288.6719,326.4375 Q289.2813,326.4375 289.5469,326.6719 Q289.8125,326.9063 289.8125,327.2813 Q289.8125,327.6719 289.5469,327.9063 Q289.2813,328.1406 288.6719,328.1406 L286.9531,328.1406 Z "/><text fill="#000000" font-family="sans-serif" font-size="12" font-style="italic" lengthAdjust="spacingAndGlyphs" textLength="132" x="300" y="336.4102">MutatorForUserInterface</text><line style="stroke: #383838; stroke-width: 1.5;" x1="272" x2="434" y1="347.5" y2="347.5"/><line style="stroke: #383838; stroke-width: 1.5;" x1="272" x2="434" y1="355.5" y2="355.5"/><!--class Mutable--><rect fill="#F8F8F8" height="131.0156" id="Mutable" style="stroke: #383838; stroke-width: 1.5;" width="345" x="470.5" y="274"/><ellipse cx="616.75" cy="290" fill="#CDCDCD" rx="11" ry="11" style="stroke: #383838; stroke-width: 1.0;"/><path d="M618.9375,291.7656 L614.7969,291.7656 L614.375,292.7969 L614.7969,292.7969 Q615.4063,292.7969 615.6719,293.0313 Q615.9375,293.2656 615.9375,293.6563 Q615.9375,294.0313 615.6719,294.2656 Q615.4063,294.5 614.7969,294.5 L612.5,294.5 Q611.8906,294.5 611.6328,294.2656 Q611.375,294.0313 611.375,293.6406 Q611.375,293.2656 611.6484,293.0234 Q611.9219,292.7813 612.5469,292.7969 L615.2188,286.1406 L614.1094,286.1406 Q613.5,286.1406 613.2344,285.9063 Q612.9688,285.6719 612.9688,285.2813 Q612.9688,284.9063 613.2344,284.6719 Q613.5,284.4375 614.1094,284.4375 L617.7813,284.4375 L621.1719,292.7969 Q621.7656,292.7969 621.9531,292.9375 Q622.3438,293.2031 622.3438,293.6563 Q622.3438,294.0313 622.0859,294.2656 Q621.8281,294.5 621.2188,294.5 L618.9219,294.5 Q618.3125,294.5 618.0469,294.2656 Q617.7813,294.0313 617.7813,293.6406 Q617.7813,293.2656 618.0469,293.0313 Q618.3125,292.7969 618.9219,292.7969 L619.3438,292.7969 L618.9375,291.7656 Z M618.2188,290.0625 L616.8594,286.6875 L615.4844,290.0625 L618.2188,290.0625 Z "/><text fill="#000000" font-family="sans-serif" font-size="12" font-style="italic" lengthAdjust="spacingAndGlyphs" textLength="44" x="637.25" y="294.9102">Mutable</text><line style="stroke: #383838; stroke-width: 1.5;" x1="471.5" x2="814.5" y1="306" y2="306"/><line style="stroke: #383838; stroke-width: 1.5;" x1="471.5" x2="814.5" y1="314" y2="314"/><text fill="#000000" font-family="sans-serif" font-size="11" lengthAdjust="spacingAndGlyphs" textLength="107" x="476.5" y="329.4189">+getMutator(): Mutator</text><text fill="#000000" font-family="sans-serif" font-size="11" lengthAdjust="spacingAndGlyphs" textLength="233" x="476.5" y="343.2549">+getMutatorForAnimation(): MutatorForAnimation</text><text fill="#000000" font-family="sans-serif" font-size="11" lengthAdjust="spacingAndGlyphs" textLength="271" x="476.5" y="357.0908">+getMutatorForUserInterface(): MutatorForUserInterface</text><text fill="#000000" font-family="sans-serif" font-size="11" lengthAdjust="spacingAndGlyphs" textLength="333" x="476.5" y="370.9268">+getMutatorAttributeTypes(_mutator: Mutator): MutatorAttributeTypes</text><text fill="#000000" font-family="sans-serif" font-size="11" lengthAdjust="spacingAndGlyphs" textLength="193" x="476.5" y="384.7627">+updateMutator(_mutator: Mutator): void</text><text fill="#000000" font-family="sans-serif" font-size="11" lengthAdjust="spacingAndGlyphs" textLength="156" x="476.5" y="398.5986">#mutate(_mutator: Mutator): void</text><!--class Vector2--><rect fill="#F8F8F8" height="48" id="Vector2" style="stroke: #383838; stroke-width: 1.5;" width="73" x="62.5" y="528"/><ellipse cx="77.5" cy="544" fill="#C2C2C2" rx="11" ry="11" style="stroke: #383838; stroke-width: 1.0;"/><path d="M80.2656,539.875 Q80.4219,539.6563 80.6094,539.5469 Q80.7969,539.4375 81.0156,539.4375 Q81.3906,539.4375 81.625,539.6953 Q81.8594,539.9531 81.8594,540.5625 L81.8594,542.0156 Q81.8594,542.625 81.625,542.8906 Q81.3906,543.1563 81.0156,543.1563 Q80.6719,543.1563 80.4688,542.9531 Q80.2656,542.7656 80.1563,542.25 Q80.1094,541.8906 79.9219,541.7031 Q79.5938,541.3281 78.9844,541.1094 Q78.375,540.8906 77.75,540.8906 Q76.9844,540.8906 76.3516,541.2188 Q75.7188,541.5469 75.2266,542.2969 Q74.7344,543.0469 74.7344,544.0781 L74.7344,545.1719 Q74.7344,546.4063 75.625,547.2266 Q76.5156,548.0469 78.1094,548.0469 Q79.0469,548.0469 79.7031,547.7969 Q80.0938,547.6406 80.5156,547.2031 Q80.7813,546.9375 80.9297,546.8594 Q81.0781,546.7813 81.2813,546.7813 Q81.6094,546.7813 81.8672,547.0391 Q82.125,547.2969 82.125,547.6406 Q82.125,547.9844 81.7813,548.3906 Q81.2813,548.9688 80.4844,549.2969 Q79.4063,549.75 78.1094,549.75 Q76.5938,549.75 75.3906,549.125 Q74.4063,548.625 73.7188,547.5547 Q73.0313,546.4844 73.0313,545.2031 L73.0313,544.0469 Q73.0313,542.7188 73.6484,541.5703 Q74.2656,540.4219 75.3594,539.8047 Q76.4531,539.1875 77.6875,539.1875 Q78.4219,539.1875 79.0703,539.3516 Q79.7188,539.5156 80.2656,539.875 Z "/><text fill="#000000" font-family="sans-serif" font-size="12" lengthAdjust="spacingAndGlyphs" textLength="41" x="91.5" y="548.9102">Vector2</text><line style="stroke: #383838; stroke-width: 1.5;" x1="63.5" x2="134.5" y1="560" y2="560"/><line style="stroke: #383838; stroke-width: 1.5;" x1="63.5" x2="134.5" y1="568" y2="568"/><!--class Sketch--><rect fill="#F8F8F8" height="75.6719" id="Sketch" style="stroke: #383838; stroke-width: 1.5;" width="123" x="581.5" y="514"/><ellipse cx="620.8" cy="530" fill="#C2C2C2" rx="11" ry="11" style="stroke: #383838; stroke-width: 1.0;"/><path d="M623.5656,525.875 Q623.7219,525.6563 623.9094,525.5469 Q624.0969,525.4375 624.3156,525.4375 Q624.6906,525.4375 624.925,525.6953 Q625.1594,525.9531 625.1594,526.5625 L625.1594,528.0156 Q625.1594,528.625 624.925,528.8906 Q624.6906,529.1563 624.3156,529.1563 Q623.9719,529.1563 623.7688,528.9531 Q623.5656,528.7656 623.4563,528.25 Q623.4094,527.8906 623.2219,527.7031 Q622.8938,527.3281 622.2844,527.1094 Q621.675,526.8906 621.05,526.8906 Q620.2844,526.8906 619.6516,527.2188 Q619.0188,527.5469 618.5266,528.2969 Q618.0344,529.0469 618.0344,530.0781 L618.0344,531.1719 Q618.0344,532.4063 618.925,533.2266 Q619.8156,534.0469 621.4094,534.0469 Q622.3469,534.0469 623.0031,533.7969 Q623.3938,533.6406 623.8156,533.2031 Q624.0813,532.9375 624.2297,532.8594 Q624.3781,532.7813 624.5813,532.7813 Q624.9094,532.7813 625.1672,533.0391 Q625.425,533.2969 625.425,533.6406 Q625.425,533.9844 625.0813,534.3906 Q624.5813,534.9688 623.7844,535.2969 Q622.7063,535.75 621.4094,535.75 Q619.8938,535.75 618.6906,535.125 Q617.7063,534.625 617.0188,533.5547 Q616.3313,532.4844 616.3313,531.2031 L616.3313,530.0469 Q616.3313,528.7188 616.9484,527.5703 Q617.5656,526.4219 618.6594,525.8047 Q619.7531,525.1875 620.9875,525.1875 Q621.7219,525.1875 622.3703,525.3516 Q623.0188,525.5156 623.5656,525.875 Z "/><text fill="#000000" font-family="sans-serif" font-size="12" lengthAdjust="spacingAndGlyphs" textLength="37" x="640.2" y="534.9102">Sketch</text><line style="stroke: #383838; stroke-width: 1.5;" x1="582.5" x2="703.5" y1="546" y2="546"/><text fill="#000000" font-family="sans-serif" font-size="11" lengthAdjust="spacingAndGlyphs" textLength="111" x="587.5" y="561.4189">objects: SketchObject[]</text><text fill="#000000" font-family="sans-serif" font-size="11" lengthAdjust="spacingAndGlyphs" textLength="79" x="587.5" y="575.2549">export params...</text><line style="stroke: #383838; stroke-width: 1.5;" x1="582.5" x2="703.5" y1="581.6719" y2="581.6719"/><!--class SketchObject--><rect fill="#F8F8F8" height="131.0156" id="SketchObject" style="stroke: #383838; stroke-width: 1.5;" width="240" x="621" y="651"/><ellipse cx="700.75" cy="667" fill="#C2C2C2" rx="11" ry="11" style="stroke: #383838; stroke-width: 1.0;"/><path d="M703.5156,662.875 Q703.6719,662.6563 703.8594,662.5469 Q704.0469,662.4375 704.2656,662.4375 Q704.6406,662.4375 704.875,662.6953 Q705.1094,662.9531 705.1094,663.5625 L705.1094,665.0156 Q705.1094,665.625 704.875,665.8906 Q704.6406,666.1563 704.2656,666.1563 Q703.9219,666.1563 703.7188,665.9531 Q703.5156,665.7656 703.4063,665.25 Q703.3594,664.8906 703.1719,664.7031 Q702.8438,664.3281 702.2344,664.1094 Q701.625,663.8906 701,663.8906 Q700.2344,663.8906 699.6016,664.2188 Q698.9688,664.5469 698.4766,665.2969 Q697.9844,666.0469 697.9844,667.0781 L697.9844,668.1719 Q697.9844,669.4063 698.875,670.2266 Q699.7656,671.0469 701.3594,671.0469 Q702.2969,671.0469 702.9531,670.7969 Q703.3438,670.6406 703.7656,670.2031 Q704.0313,669.9375 704.1797,669.8594 Q704.3281,669.7813 704.5313,669.7813 Q704.8594,669.7813 705.1172,670.0391 Q705.375,670.2969 705.375,670.6406 Q705.375,670.9844 705.0313,671.3906 Q704.5313,671.9688 703.7344,672.2969 Q702.6563,672.75 701.3594,672.75 Q699.8438,672.75 698.6406,672.125 Q697.6563,671.625 696.9688,670.5547 Q696.2813,669.4844 696.2813,668.2031 L696.2813,667.0469 Q696.2813,665.7188 696.8984,664.5703 Q697.5156,663.4219 698.6094,662.8047 Q699.7031,662.1875 700.9375,662.1875 Q701.6719,662.1875 702.3203,662.3516 Q702.9688,662.5156 703.5156,662.875 Z "/><text fill="#000000" font-family="sans-serif" font-size="12" lengthAdjust="spacingAndGlyphs" textLength="72" x="721.25" y="671.9102">SketchObject</text><line style="stroke: #383838; stroke-width: 1.5;" x1="622" x2="860" y1="683" y2="683"/><text fill="#000000" font-family="sans-serif" font-size="11" lengthAdjust="spacingAndGlyphs" textLength="228" x="627" y="698.4189">+color: string | CanvasGradient | CanvasPattern</text><text fill="#000000" font-family="sans-serif" font-size="11" lengthAdjust="spacingAndGlyphs" textLength="66" x="627" y="712.2549">+name: String</text><text fill="#000000" font-family="sans-serif" font-size="11" lengthAdjust="spacingAndGlyphs" textLength="74" x="627" y="726.0908">+order: number</text><text fill="#000000" font-family="sans-serif" font-size="11" lengthAdjust="spacingAndGlyphs" textLength="91" x="627" y="739.9268">+lineWidth: number</text><text fill="#000000" font-family="sans-serif" font-size="11" lengthAdjust="spacingAndGlyphs" textLength="79" x="627" y="753.7627">#path2d: Path2D</text><line style="stroke: #383838; stroke-width: 1.5;" x1="622" x2="860" y1="760.1797" y2="760.1797"/><text fill="#000000" font-family="sans-serif" font-size="11" lengthAdjust="spacingAndGlyphs" text-decoration="underline" textLength="227" x="627" y="775.5986">sort(a: SketchObject, b: SketchObject): number</text><!--class SketchPath--><rect fill="#F8F8F8" height="144.8516" id="SketchPath" style="stroke: #383838; stroke-width: 1.5;" width="351" x="578.5" y="843"/><ellipse cx="718.75" cy="859" fill="#C2C2C2" rx="11" ry="11" style="stroke: #383838; stroke-width: 1.0;"/><path d="M721.5156,854.875 Q721.6719,854.6563 721.8594,854.5469 Q722.0469,854.4375 722.2656,854.4375 Q722.6406,854.4375 722.875,854.6953 Q723.1094,854.9531 723.1094,855.5625 L723.1094,857.0156 Q723.1094,857.625 722.875,857.8906 Q722.6406,858.1563 722.2656,858.1563 Q721.9219,858.1563 721.7188,857.9531 Q721.5156,857.7656 721.4063,857.25 Q721.3594,856.8906 721.1719,856.7031 Q720.8438,856.3281 720.2344,856.1094 Q719.625,855.8906 719,855.8906 Q718.2344,855.8906 717.6016,856.2188 Q716.9688,856.5469 716.4766,857.2969 Q715.9844,858.0469 715.9844,859.0781 L715.9844,860.1719 Q715.9844,861.4063 716.875,862.2266 Q717.7656,863.0469 719.3594,863.0469 Q720.2969,863.0469 720.9531,862.7969 Q721.3438,862.6406 721.7656,862.2031 Q722.0313,861.9375 722.1797,861.8594 Q722.3281,861.7813 722.5313,861.7813 Q722.8594,861.7813 723.1172,862.0391 Q723.375,862.2969 723.375,862.6406 Q723.375,862.9844 723.0313,863.3906 Q722.5313,863.9688 721.7344,864.2969 Q720.6563,864.75 719.3594,864.75 Q717.8438,864.75 716.6406,864.125 Q715.6563,863.625 714.9688,862.5547 Q714.2813,861.4844 714.2813,860.2031 L714.2813,859.0469 Q714.2813,857.7188 714.8984,856.5703 Q715.5156,855.4219 716.6094,854.8047 Q717.7031,854.1875 718.9375,854.1875 Q719.6719,854.1875 720.3203,854.3516 Q720.9688,854.5156 721.5156,854.875 Z "/><text fill="#000000" font-family="sans-serif" font-size="12" lengthAdjust="spacingAndGlyphs" textLength="62" x="739.25" y="863.9102">SketchPath</text><line style="stroke: #383838; stroke-width: 1.5;" x1="579.5" x2="928.5" y1="875" y2="875"/><text fill="#000000" font-family="sans-serif" font-size="11" lengthAdjust="spacingAndGlyphs" textLength="80" x="584.5" y="890.4189">-closed: boolean</text><text fill="#000000" font-family="sans-serif" font-size="11" lengthAdjust="spacingAndGlyphs" textLength="113" x="584.5" y="904.2549">+points: SketchVertex[]</text><text fill="#000000" font-family="sans-serif" font-size="11" lengthAdjust="spacingAndGlyphs" textLength="239" x="584.5" y="918.0908">+fillColor: string | CanvasGradient | CanvasPattern</text><line style="stroke: #383838; stroke-width: 1.5;" x1="579.5" x2="928.5" y1="924.5078" y2="924.5078"/><text fill="#000000" font-family="sans-serif" font-size="11" lengthAdjust="spacingAndGlyphs" textLength="339" x="584.5" y="939.9268">draw(context: CanvasRenderingContext2D, selected: boolean = false)</text><text fill="#000000" font-family="sans-serif" font-size="11" lengthAdjust="spacingAndGlyphs" textLength="85" x="584.5" y="953.7627">generatePath2D()</text><text fill="#000000" font-family="sans-serif" font-size="11" lengthAdjust="spacingAndGlyphs" textLength="287" x="584.5" y="967.5986">addVertexAtPos(vertex: SketchVertex, index: number = -1)</text><text fill="#000000" font-family="sans-serif" font-size="11" lengthAdjust="spacingAndGlyphs" textLength="85" x="584.5" y="981.4346">move(d: Vector2)</text><!--class SketchPoint--><rect fill="#F8F8F8" height="117.1797" id="SketchPoint" style="stroke: #383838; stroke-width: 1.5;" width="351" x="192.5" y="857"/><ellipse cx="331.25" cy="873" fill="#C2C2C2" rx="11" ry="11" style="stroke: #383838; stroke-width: 1.0;"/><path d="M334.0156,868.875 Q334.1719,868.6563 334.3594,868.5469 Q334.5469,868.4375 334.7656,868.4375 Q335.1406,868.4375 335.375,868.6953 Q335.6094,868.9531 335.6094,869.5625 L335.6094,871.0156 Q335.6094,871.625 335.375,871.8906 Q335.1406,872.1563 334.7656,872.1563 Q334.4219,872.1563 334.2188,871.9531 Q334.0156,871.7656 333.9063,871.25 Q333.8594,870.8906 333.6719,870.7031 Q333.3438,870.3281 332.7344,870.1094 Q332.125,869.8906 331.5,869.8906 Q330.7344,869.8906 330.1016,870.2188 Q329.4688,870.5469 328.9766,871.2969 Q328.4844,872.0469 328.4844,873.0781 L328.4844,874.1719 Q328.4844,875.4063 329.375,876.2266 Q330.2656,877.0469 331.8594,877.0469 Q332.7969,877.0469 333.4531,876.7969 Q333.8438,876.6406 334.2656,876.2031 Q334.5313,875.9375 334.6797,875.8594 Q334.8281,875.7813 335.0313,875.7813 Q335.3594,875.7813 335.6172,876.0391 Q335.875,876.2969 335.875,876.6406 Q335.875,876.9844 335.5313,877.3906 Q335.0313,877.9688 334.2344,878.2969 Q333.1563,878.75 331.8594,878.75 Q330.3438,878.75 329.1406,878.125 Q328.1563,877.625 327.4688,876.5547 Q326.7813,875.4844 326.7813,874.2031 L326.7813,873.0469 Q326.7813,871.7188 327.3984,870.5703 Q328.0156,869.4219 329.1094,868.8047 Q330.2031,868.1875 331.4375,868.1875 Q332.1719,868.1875 332.8203,868.3516 Q333.4688,868.5156 334.0156,868.875 Z "/><text fill="#000000" font-family="sans-serif" font-size="12" lengthAdjust="spacingAndGlyphs" textLength="65" x="351.75" y="877.9102">SketchPoint</text><line style="stroke: #383838; stroke-width: 1.5;" x1="193.5" x2="542.5" y1="889" y2="889"/><text fill="#000000" font-family="sans-serif" font-size="11" lengthAdjust="spacingAndGlyphs" textLength="79" x="198.5" y="904.4189">#path2d: Path2D</text><line style="stroke: #383838; stroke-width: 1.5;" x1="193.5" x2="542.5" y1="910.8359" y2="910.8359"/><text fill="#000000" font-family="sans-serif" font-size="11" lengthAdjust="spacingAndGlyphs" textLength="125" x="198.5" y="926.2549">generatePath2D(): Path2D</text><text fill="#000000" font-family="sans-serif" font-size="11" lengthAdjust="spacingAndGlyphs" textLength="339" x="198.5" y="940.0908">draw(context: CanvasRenderingContext2D, selected: boolean = false)</text><text fill="#000000" font-family="sans-serif" font-size="11" lengthAdjust="spacingAndGlyphs" textLength="102" x="198.5" y="953.9268">move(delta: Vector2)</text><text fill="#000000" font-family="sans-serif" font-size="11" lengthAdjust="spacingAndGlyphs" textLength="131" x="198.5" y="967.7627">moveTo(newPos: Vector2)</text><!--class SketchVertex--><rect fill="#F8F8F8" height="144.8516" id="SketchVertex" style="stroke: #383838; stroke-width: 1.5;" width="510" x="404" y="1066"/><ellipse cx="619.75" cy="1082" fill="#C2C2C2" rx="11" ry="11" style="stroke: #383838; stroke-width: 1.0;"/><path d="M622.5156,1077.875 Q622.6719,1077.6563 622.8594,1077.5469 Q623.0469,1077.4375 623.2656,1077.4375 Q623.6406,1077.4375 623.875,1077.6953 Q624.1094,1077.9531 624.1094,1078.5625 L624.1094,1080.0156 Q624.1094,1080.625 623.875,1080.8906 Q623.6406,1081.1563 623.2656,1081.1563 Q622.9219,1081.1563 622.7188,1080.9531 Q622.5156,1080.7656 622.4063,1080.25 Q622.3594,1079.8906 622.1719,1079.7031 Q621.8438,1079.3281 621.2344,1079.1094 Q620.625,1078.8906 620,1078.8906 Q619.2344,1078.8906 618.6016,1079.2188 Q617.9688,1079.5469 617.4766,1080.2969 Q616.9844,1081.0469 616.9844,1082.0781 L616.9844,1083.1719 Q616.9844,1084.4063 617.875,1085.2266 Q618.7656,1086.0469 620.3594,1086.0469 Q621.2969,1086.0469 621.9531,1085.7969 Q622.3438,1085.6406 622.7656,1085.2031 Q623.0313,1084.9375 623.1797,1084.8594 Q623.3281,1084.7813 623.5313,1084.7813 Q623.8594,1084.7813 624.1172,1085.0391 Q624.375,1085.2969 624.375,1085.6406 Q624.375,1085.9844 624.0313,1086.3906 Q623.5313,1086.9688 622.7344,1087.2969 Q621.6563,1087.75 620.3594,1087.75 Q618.8438,1087.75 617.6406,1087.125 Q616.6563,1086.625 615.9688,1085.5547 Q615.2813,1084.4844 615.2813,1083.2031 L615.2813,1082.0469 Q615.2813,1080.7188 615.8984,1079.5703 Q616.5156,1078.4219 617.6094,1077.8047 Q618.7031,1077.1875 619.9375,1077.1875 Q620.6719,1077.1875 621.3203,1077.3516 Q621.9688,1077.5156 622.5156,1077.875 Z "/><text fill="#000000" font-family="sans-serif" font-size="12" lengthAdjust="spacingAndGlyphs" textLength="70" x="640.25" y="1086.9102">SketchVertex</text><line style="stroke: #383838; stroke-width: 1.5;" x1="405" x2="913" y1="1098" y2="1098"/><text fill="#000000" font-family="sans-serif" font-size="11" lengthAdjust="spacingAndGlyphs" textLength="88" x="410" y="1113.4189">activated: boolean</text><text fill="#000000" font-family="sans-serif" font-size="11" lengthAdjust="spacingAndGlyphs" textLength="112" x="410" y="1127.2549">tangentIn: TangentPoint</text><text fill="#000000" font-family="sans-serif" font-size="11" lengthAdjust="spacingAndGlyphs" textLength="121" x="410" y="1141.0908">tangentOut: TangentPoint</text><text fill="#000000" font-family="sans-serif" font-size="11" lengthAdjust="spacingAndGlyphs" textLength="97" x="410" y="1154.9268">+parent: SketchPath</text><line style="stroke: #383838; stroke-width: 1.5;" x1="405" x2="913" y1="1161.3438" y2="1161.3438"/><text fill="#000000" font-family="sans-serif" font-size="11" lengthAdjust="spacingAndGlyphs" textLength="498" x="410" y="1176.7627">draw(context: CanvasRenderingContext2D, selected: boolean = false, showTangents: boolean = false)</text><text fill="#000000" font-family="sans-serif" font-size="11" lengthAdjust="spacingAndGlyphs" textLength="148" x="410" y="1190.5986">move(dx: number, dy: number)</text><text fill="#000000" font-family="sans-serif" font-size="11" lengthAdjust="spacingAndGlyphs" textLength="46" x="410" y="1204.4346">activate()</text><!--class SketchTangentPoint--><rect fill="#F8F8F8" height="75.6719" id="SketchTangentPoint" style="stroke: #383838; stroke-width: 1.5;" width="142" x="380" y="1289"/><ellipse cx="395" cy="1305" fill="#C2C2C2" rx="11" ry="11" style="stroke: #383838; stroke-width: 1.0;"/><path d="M397.7656,1300.875 Q397.9219,1300.6563 398.1094,1300.5469 Q398.2969,1300.4375 398.5156,1300.4375 Q398.8906,1300.4375 399.125,1300.6953 Q399.3594,1300.9531 399.3594,1301.5625 L399.3594,1303.0156 Q399.3594,1303.625 399.125,1303.8906 Q398.8906,1304.1563 398.5156,1304.1563 Q398.1719,1304.1563 397.9688,1303.9531 Q397.7656,1303.7656 397.6563,1303.25 Q397.6094,1302.8906 397.4219,1302.7031 Q397.0938,1302.3281 396.4844,1302.1094 Q395.875,1301.8906 395.25,1301.8906 Q394.4844,1301.8906 393.8516,1302.2188 Q393.2188,1302.5469 392.7266,1303.2969 Q392.2344,1304.0469 392.2344,1305.0781 L392.2344,1306.1719 Q392.2344,1307.4063 393.125,1308.2266 Q394.0156,1309.0469 395.6094,1309.0469 Q396.5469,1309.0469 397.2031,1308.7969 Q397.5938,1308.6406 398.0156,1308.2031 Q398.2813,1307.9375 398.4297,1307.8594 Q398.5781,1307.7813 398.7813,1307.7813 Q399.1094,1307.7813 399.3672,1308.0391 Q399.625,1308.2969 399.625,1308.6406 Q399.625,1308.9844 399.2813,1309.3906 Q398.7813,1309.9688 397.9844,1310.2969 Q396.9063,1310.75 395.6094,1310.75 Q394.0938,1310.75 392.8906,1310.125 Q391.9063,1309.625 391.2188,1308.5547 Q390.5313,1307.4844 390.5313,1306.2031 L390.5313,1305.0469 Q390.5313,1303.7188 391.1484,1302.5703 Q391.7656,1301.4219 392.8594,1300.8047 Q393.9531,1300.1875 395.1875,1300.1875 Q395.9219,1300.1875 396.5703,1300.3516 Q397.2188,1300.5156 397.7656,1300.875 Z "/><text fill="#000000" font-family="sans-serif" font-size="12" lengthAdjust="spacingAndGlyphs" textLength="110" x="409" y="1309.9102">SketchTangentPoint</text><line style="stroke: #383838; stroke-width: 1.5;" x1="381" x2="521" y1="1321" y2="1321"/><text fill="#000000" font-family="sans-serif" font-size="11" lengthAdjust="spacingAndGlyphs" textLength="109" x="386" y="1336.4189">+parent: SketchVertex</text><line style="stroke: #383838; stroke-width: 1.5;" x1="381" x2="521" y1="1342.8359" y2="1342.8359"/><text fill="#000000" font-family="sans-serif" font-size="11" lengthAdjust="spacingAndGlyphs" textLength="125" x="386" y="1358.2549">generatePath2D(): Path2D</text><!--link Mutator to MutatorForAnimation--><path d="M311.287,209.33 C274.189,241.65 221.069,287.92 189.5,315.42 " fill="none" id="Mutator-MutatorForAnimation" style="stroke: #383838; stroke-width: 1.0;"/><polygon fill="none" points="306.903,203.87,326.581,196.01,316.098,214.43,306.903,203.87" style="stroke: #383838; stroke-width: 1.0;"/><!--link Mutator to MutatorForUserInterface--><path d="M353,216.03 C353,247.79 353,289.77 353,315.42 " fill="none" id="Mutator-MutatorForUserInterface" style="stroke: #383838; stroke-width: 1.0;"/><polygon fill="none" points="346,216.01,353,196.01,360,216.01,346,216.01" style="stroke: #383838; stroke-width: 1.0;"/><!--link Mutator to Mutable--><path d="M389.142,193.63 C424.368,213.73 479.793,245.36 529.879,273.94 " fill="none" id="Mutator-Mutable" style="stroke: #383838; stroke-width: 1.0;"/><text fill="#000000" font-family="sans-serif" font-size="13" lengthAdjust="spacingAndGlyphs" textLength="28" x="473" y="240.4951">uses</text><!--link Mutable to Vector2--><path d="M536.591,415.32 C510.363,430.362 481.572,444.226 453,453 C394.046,471.104 231.902,443.955 176,470 C149.267,482.455 127.134,508.675 113.563,527.924 " fill="none" id="Mutable-Vector2" style="stroke: #383838; stroke-width: 1.0;"/><polygon fill="none" points="533.098,409.25,553.864,405.04,540.258,421.284,533.098,409.25" style="stroke: #383838; stroke-width: 1.0;"/><!--link Mutable to Sketch--><path d="M643,425.342 C643,456.095 643,489.265 643,513.799 " fill="none" id="Mutable-Sketch" style="stroke: #383838; stroke-width: 1.0;"/><polygon fill="none" points="636,425.088,643,405.09,650,425.087,636,425.088" style="stroke: #383838; stroke-width: 1.0;"/><!--link Mutable to SketchObject--><path d="M700.783,422.468 C709.212,437.683 716.792,453.879 722,470 C741.123,529.187 744.646,600.4 744.125,650.849 " fill="none" id="Mutable-SketchObject" style="stroke: #383838; stroke-width: 1.0;"/><polygon fill="none" points="694.686,425.909,690.588,405.12,706.756,418.82,694.686,425.909" style="stroke: #383838; stroke-width: 1.0;"/><!--link SketchObject to SketchPath--><path d="M746.584,802.114 C747.476,815.634 748.391,829.509 749.262,842.695 " fill="none" id="SketchObject-SketchPath" style="stroke: #383838; stroke-width: 1.0;"/><polygon fill="none" points="739.589,802.423,745.257,782.005,753.559,801.501,739.589,802.423" style="stroke: #383838; stroke-width: 1.0;"/><!--link Vector2 to SketchPoint--><path d="M128.347,592.438 C175.916,656.364 270.072,782.897 325.143,856.905 " fill="none" id="Vector2-SketchPoint" style="stroke: #383838; stroke-width: 1.0;"/><polygon fill="none" points="122.56,596.387,116.236,576.163,133.792,588.03,122.56,596.387" style="stroke: #383838; stroke-width: 1.0;"/><!--link SketchPoint to SketchVertex--><path d="M460.059,986.414 C493.403,1011.738 531.096,1040.364 564.636,1065.835 " fill="none" id="SketchPoint-SketchVertex" style="stroke: #383838; stroke-width: 1.0;"/><polygon fill="none" points="455.771,991.947,444.077,974.276,464.238,980.798,455.771,991.947" style="stroke: #383838; stroke-width: 1.0;"/><!--link SketchPoint to SketchTangentPoint--><path d="M363.79,994.498 C362.725,1054.816 366.044,1139.772 387,1211 C395.158,1238.729 410.881,1267.134 424.7,1288.776 " fill="none" id="SketchPoint-SketchTangentPoint" style="stroke: #383838; stroke-width: 1.0;"/><polygon fill="none" points="356.8,994.06,364.328,974.253,370.795,994.432,356.8,994.06" style="stroke: #383838; stroke-width: 1.0;"/><!--link Sketch to SketchObject--><path d="M665.483,590.281 C676.333,608.272 689.665,630.378 702.092,650.984 " fill="none" id="Sketch-SketchObject" style="stroke: #383838; stroke-width: 1.0;"/><text fill="#000000" font-family="sans-serif" font-size="13" lengthAdjust="spacingAndGlyphs" textLength="7" x="690.1886" y="639.9983">n</text><!--link SketchPath to SketchVertex--><path d="M723.156,988.252 C712.483,1013.082 700.525,1040.899 689.851,1065.73 " fill="none" id="SketchPath-SketchVertex" style="stroke: #383838; stroke-width: 1.0;"/><text fill="#000000" font-family="sans-serif" font-size="13" lengthAdjust="spacingAndGlyphs" textLength="46" x="710" y="1032.4951">made of</text><text fill="#000000" font-family="sans-serif" font-size="13" lengthAdjust="spacingAndGlyphs" textLength="7" x="712.8826" y="1009.4676">1</text><text fill="#000000" font-family="sans-serif" font-size="13" lengthAdjust="spacingAndGlyphs" textLength="7" x="685.6716" y="1054.9215">n</text><!--link SketchVertex to SketchTangentPoint--><path d="M579.177,1211.072 C549.619,1237.575 517.303,1266.55 492.514,1288.777 " fill="none" id="SketchVertex-SketchTangentPoint" style="stroke: #383838; stroke-width: 1.0;"/><text fill="#000000" font-family="sans-serif" font-size="13" lengthAdjust="spacingAndGlyphs" textLength="21" x="543" y="1255.4951">has</text><text fill="#000000" font-family="sans-serif" font-size="13" lengthAdjust="spacingAndGlyphs" textLength="7" x="564.2353" y="1232.2705">1</text><text fill="#000000" font-family="sans-serif" font-size="13" lengthAdjust="spacingAndGlyphs" textLength="7" x="492.2852" y="1278.0992">2</text><!--
@startuml VE Classes
skinparam monochrome true
skinparam componentStyle uml2
skinparam classAttributeIconSize 0
skinparam shadowing false
skinparam handwritten false


package FUDGE <<Rectangle>> {
	package Transfer {
		package Mutable <<Rectangle>>{
			interface Mutator

			interface MutatorForAnimation extends Mutator
			interface MutatorForUserInterface extends Mutator
			abstract class Mutable {
				+ getMutator(): Mutator
				+ getMutatorForAnimation(): MutatorForAnimation
				+ getMutatorForUserInterface(): MutatorForUserInterface
				+ getMutatorAttributeTypes(_mutator: Mutator): MutatorAttributeTypes
				+ updateMutator(_mutator: Mutator): void
				# mutate(_mutator: Mutator): void
			}
		}
	}
	Mutable -up- Mutator: uses

	package Math {
		class Vector2 extends Mutable{


		}
	}











			






	package SketchTypes <<Rectangle>>{
		class Sketch extends Mutable {
			objects: SketchObject[]
			export params...
		}

		class SketchObject extends Mutable{
			+ color: string | CanvasGradient | CanvasPattern
			+ name: String
			+ order: number
			+ lineWidth: number
			# path2d: Path2D
			{static} sort(a: SketchObject, b: SketchObject): number
		}

		class SketchPath extends SketchObject {
			- closed: boolean
			+ points: SketchVertex[]
			+ fillColor: string | CanvasGradient | CanvasPattern
			draw(context: CanvasRenderingContext2D, selected: boolean = false)
			generatePath2D()
			addVertexAtPos(vertex: SketchVertex, index: number = -1)
			move(d: Vector2)
		}

		class SketchPoint extends Vector2{
			# path2d: Path2D
			generatePath2D(): Path2D
			draw(context: CanvasRenderingContext2D, selected: boolean = false)
			move(delta: Vector2)
			moveTo(newPos: Vector2)
		}

		class SketchVertex extends SketchPoint {
			activated: boolean
			tangentIn: TangentPoint
			tangentOut: TangentPoint
			+ parent: SketchPath
			draw(context: CanvasRenderingContext2D, selected: boolean = false, showTangents: boolean = false)
			move(dx: number, dy: number)
			activate()
		}

		class SketchTangentPoint extends SketchPoint {
			+ parent: SketchVertex
			generatePath2D(): Path2D
		}

		Sketch - - "n" SketchObject
		SketchPath "1" - - "n" SketchVertex : made of
		SketchVertex "1" - - "2" SketchTangentPoint : has
	}
}
@enduml

PlantUML version 1.2019.05(Sat Apr 20 18:45:36 CEST 2019)
(GPL source distribution)
Java Runtime: Java(TM) SE Runtime Environment
JVM: Java HotSpot(TM) 64-Bit Server VM
Java Version: 1.8.0_181-b13
Operating System: Windows 10
OS Version: 10.0
Default Encoding: Cp1252
Language: de
Country: DE
--></g></svg>