<?xml version="1.0" encoding="UTF-8" standalone="no"?><svg xmlns="http://www.w3.org/2000/svg" xmlns:xlink="http://www.w3.org/1999/xlink" contentScriptType="application/ecmascript" contentStyleType="text/css" height="380px" preserveAspectRatio="none" style="width:778px;height:380px;" version="1.1" viewBox="0 0 778 380" width="778px" zoomAndPan="magnify"><defs/><g><!--cluster FUDGE--><rect fill="#FFFFFF" height="345" style="stroke: #000000; stroke-width: 1.5;" width="532" x="22" y="24"/><text fill="#000000" font-family="sans-serif" font-size="14" font-weight="bold" lengthAdjust="spacingAndGlyphs" textLength="49" x="263.5" y="40.5332">FUDGE</text><!--cluster UI--><polygon fill="#FFFFFF" points="46,68,66,68,73,91.6094,530,91.6094,530,345,46,345,46,68" style="stroke: #000000; stroke-width: 1.5;"/><line style="stroke: #000000; stroke-width: 1.5;" x1="46" x2="73" y1="91.6094" y2="91.6094"/><text fill="#000000" font-family="sans-serif" font-size="14" font-weight="bold" lengthAdjust="spacingAndGlyphs" textLength="14" x="50" y="84.5332">UI</text><!--cluster DOM--><polygon fill="#FFFFFF" points="578,95.5,618,95.5,625,119.1094,756,119.1094,756,195.5,578,195.5,578,95.5" style="stroke: #000000; stroke-width: 1.5;"/><line style="stroke: #000000; stroke-width: 1.5;" x1="578" x2="625" y1="119.1094" y2="119.1094"/><text fill="#000000" font-family="sans-serif" font-size="14" font-weight="bold" lengthAdjust="spacingAndGlyphs" textLength="34" x="582" y="112.0332">DOM</text><!--class UIElement--><rect fill="#F8F8F8" height="103.3438" id="UIElement" style="stroke: #383838; stroke-width: 1.5;" width="111" x="402.5" y="104"/><ellipse cx="426.5" cy="120" fill="#B1B1B1" rx="11" ry="11" style="stroke: #383838; stroke-width: 1.0;"/><path d="M427.4531,116.6406 L427.4531,123.2969 L429.1719,123.2969 Q429.7813,123.2969 430.0469,123.5313 Q430.3125,123.7656 430.3125,124.1563 Q430.3125,124.5313 430.0469,124.7656 Q429.7813,125 429.1719,125 L424.0313,125 Q423.4219,125 423.1563,124.7656 Q422.8906,124.5313 422.8906,124.1406 Q422.8906,123.7656 423.1563,123.5313 Q423.4219,123.2969 424.0313,123.2969 L425.75,123.2969 L425.75,116.6406 L424.0313,116.6406 Q423.4219,116.6406 423.1563,116.4063 Q422.8906,116.1719 422.8906,115.7813 Q422.8906,115.4063 423.1563,115.1719 Q423.4219,114.9375 424.0313,114.9375 L429.1719,114.9375 Q429.7813,114.9375 430.0469,115.1719 Q430.3125,115.4063 430.3125,115.7813 Q430.3125,116.1719 430.0469,116.4063 Q429.7813,116.6406 429.1719,116.6406 L427.4531,116.6406 Z "/><text fill="#000000" font-family="sans-serif" font-size="12" font-style="italic" lengthAdjust="spacingAndGlyphs" textLength="59" x="442.5" y="124.9102">UIElement</text><line style="stroke: #383838; stroke-width: 1.5;" x1="403.5" x2="512.5" y1="136" y2="136"/><text fill="#000000" font-family="sans-serif" font-size="11" lengthAdjust="spacingAndGlyphs" textLength="59" x="408.5" y="151.4189">name: string</text><text fill="#000000" font-family="sans-serif" font-size="11" lengthAdjust="spacingAndGlyphs" textLength="61" x="408.5" y="165.2549">hover: string</text><text fill="#000000" font-family="sans-serif" font-size="11" lengthAdjust="spacingAndGlyphs" textLength="53" x="408.5" y="179.0908">help: string</text><text fill="#000000" font-family="sans-serif" font-size="11" lengthAdjust="spacingAndGlyphs" textLength="99" x="408.5" y="192.9268">extendedHelp: string</text><line style="stroke: #383838; stroke-width: 1.5;" x1="403.5" x2="512.5" y1="199.3438" y2="199.3438"/><!--class UIButton--><rect fill="#F8F8F8" height="61.8359" id="UIButton" style="stroke: #383838; stroke-width: 1.5;" width="127" x="386.5" y="267"/><ellipse cx="423.1" cy="283" fill="#C2C2C2" rx="11" ry="11" style="stroke: #383838; stroke-width: 1.0;"/><path d="M425.8656,278.875 Q426.0219,278.6563 426.2094,278.5469 Q426.3969,278.4375 426.6156,278.4375 Q426.9906,278.4375 427.225,278.6953 Q427.4594,278.9531 427.4594,279.5625 L427.4594,281.0156 Q427.4594,281.625 427.225,281.8906 Q426.9906,282.1563 426.6156,282.1563 Q426.2719,282.1563 426.0688,281.9531 Q425.8656,281.7656 425.7563,281.25 Q425.7094,280.8906 425.5219,280.7031 Q425.1938,280.3281 424.5844,280.1094 Q423.975,279.8906 423.35,279.8906 Q422.5844,279.8906 421.9516,280.2188 Q421.3188,280.5469 420.8266,281.2969 Q420.3344,282.0469 420.3344,283.0781 L420.3344,284.1719 Q420.3344,285.4063 421.225,286.2266 Q422.1156,287.0469 423.7094,287.0469 Q424.6469,287.0469 425.3031,286.7969 Q425.6938,286.6406 426.1156,286.2031 Q426.3813,285.9375 426.5297,285.8594 Q426.6781,285.7813 426.8813,285.7813 Q427.2094,285.7813 427.4672,286.0391 Q427.725,286.2969 427.725,286.6406 Q427.725,286.9844 427.3813,287.3906 Q426.8813,287.9688 426.0844,288.2969 Q425.0063,288.75 423.7094,288.75 Q422.1938,288.75 420.9906,288.125 Q420.0063,287.625 419.3188,286.5547 Q418.6313,285.4844 418.6313,284.2031 L418.6313,283.0469 Q418.6313,281.7188 419.2484,280.5703 Q419.8656,279.4219 420.9594,278.8047 Q422.0531,278.1875 423.2875,278.1875 Q424.0219,278.1875 424.6703,278.3516 Q425.3188,278.5156 425.8656,278.875 Z "/><text fill="#000000" font-family="sans-serif" font-size="12" lengthAdjust="spacingAndGlyphs" textLength="47" x="441.9" y="287.9102">UIButton</text><line style="stroke: #383838; stroke-width: 1.5;" x1="387.5" x2="512.5" y1="299" y2="299"/><text fill="#000000" font-family="sans-serif" font-size="11" lengthAdjust="spacingAndGlyphs" textLength="115" x="392.5" y="314.4189">functionToCall: Function</text><line style="stroke: #383838; stroke-width: 1.5;" x1="387.5" x2="512.5" y1="320.8359" y2="320.8359"/><!--class UIGenerator--><rect fill="#F8F8F8" height="75.6719" id="UIGenerator" style="stroke: #383838; stroke-width: 1.5;" width="305" x="62.5" y="117.5"/><ellipse cx="177.25" cy="133.5" fill="#C2C2C2" rx="11" ry="11" style="stroke: #383838; stroke-width: 1.0;"/><path d="M180.0156,129.375 Q180.1719,129.1563 180.3594,129.0469 Q180.5469,128.9375 180.7656,128.9375 Q181.1406,128.9375 181.375,129.1953 Q181.6094,129.4531 181.6094,130.0625 L181.6094,131.5156 Q181.6094,132.125 181.375,132.3906 Q181.1406,132.6563 180.7656,132.6563 Q180.4219,132.6563 180.2188,132.4531 Q180.0156,132.2656 179.9063,131.75 Q179.8594,131.3906 179.6719,131.2031 Q179.3438,130.8281 178.7344,130.6094 Q178.125,130.3906 177.5,130.3906 Q176.7344,130.3906 176.1016,130.7188 Q175.4688,131.0469 174.9766,131.7969 Q174.4844,132.5469 174.4844,133.5781 L174.4844,134.6719 Q174.4844,135.9063 175.375,136.7266 Q176.2656,137.5469 177.8594,137.5469 Q178.7969,137.5469 179.4531,137.2969 Q179.8438,137.1406 180.2656,136.7031 Q180.5313,136.4375 180.6797,136.3594 Q180.8281,136.2813 181.0313,136.2813 Q181.3594,136.2813 181.6172,136.5391 Q181.875,136.7969 181.875,137.1406 Q181.875,137.4844 181.5313,137.8906 Q181.0313,138.4688 180.2344,138.7969 Q179.1563,139.25 177.8594,139.25 Q176.3438,139.25 175.1406,138.625 Q174.1563,138.125 173.4688,137.0547 Q172.7813,135.9844 172.7813,134.7031 L172.7813,133.5469 Q172.7813,132.2188 173.3984,131.0703 Q174.0156,129.9219 175.1094,129.3047 Q176.2031,128.6875 177.4375,128.6875 Q178.1719,128.6875 178.8203,128.8516 Q179.4688,129.0156 180.0156,129.375 Z "/><text fill="#000000" font-family="sans-serif" font-size="12" lengthAdjust="spacingAndGlyphs" textLength="67" x="197.75" y="138.4102">UIGenerator</text><line style="stroke: #383838; stroke-width: 1.5;" x1="63.5" x2="366.5" y1="149.5" y2="149.5"/><line style="stroke: #383838; stroke-width: 1.5;" x1="63.5" x2="366.5" y1="157.5" y2="157.5"/><text fill="#000000" font-family="sans-serif" font-size="11" lengthAdjust="spacingAndGlyphs" textLength="125" x="68.5" y="172.9189">createButton(...): UIButton</text><text fill="#000000" font-family="sans-serif" font-size="11" lengthAdjust="spacingAndGlyphs" textLength="293" x="68.5" y="186.7549">createUIElementFromMutator(mutator: Mutator): HTMLElement</text><!--class DOM.HTMLButtonElement--><rect fill="#F8F8F8" height="48" id="DOM.HTMLButtonElement" style="stroke: #383838; stroke-width: 1.5;" width="145" x="594.5" y="131.5"/><ellipse cx="609.5" cy="147.5" fill="#C2C2C2" rx="11" ry="11" style="stroke: #383838; stroke-width: 1.0;"/><path d="M612.2656,143.375 Q612.4219,143.1563 612.6094,143.0469 Q612.7969,142.9375 613.0156,142.9375 Q613.3906,142.9375 613.625,143.1953 Q613.8594,143.4531 613.8594,144.0625 L613.8594,145.5156 Q613.8594,146.125 613.625,146.3906 Q613.3906,146.6563 613.0156,146.6563 Q612.6719,146.6563 612.4688,146.4531 Q612.2656,146.2656 612.1563,145.75 Q612.1094,145.3906 611.9219,145.2031 Q611.5938,144.8281 610.9844,144.6094 Q610.375,144.3906 609.75,144.3906 Q608.9844,144.3906 608.3516,144.7188 Q607.7188,145.0469 607.2266,145.7969 Q606.7344,146.5469 606.7344,147.5781 L606.7344,148.6719 Q606.7344,149.9063 607.625,150.7266 Q608.5156,151.5469 610.1094,151.5469 Q611.0469,151.5469 611.7031,151.2969 Q612.0938,151.1406 612.5156,150.7031 Q612.7813,150.4375 612.9297,150.3594 Q613.0781,150.2813 613.2813,150.2813 Q613.6094,150.2813 613.8672,150.5391 Q614.125,150.7969 614.125,151.1406 Q614.125,151.4844 613.7813,151.8906 Q613.2813,152.4688 612.4844,152.7969 Q611.4063,153.25 610.1094,153.25 Q608.5938,153.25 607.3906,152.625 Q606.4063,152.125 605.7188,151.0547 Q605.0313,149.9844 605.0313,148.7031 L605.0313,147.5469 Q605.0313,146.2188 605.6484,145.0703 Q606.2656,143.9219 607.3594,143.3047 Q608.4531,142.6875 609.6875,142.6875 Q610.4219,142.6875 611.0703,142.8516 Q611.7188,143.0156 612.2656,143.375 Z "/><text fill="#000000" font-family="sans-serif" font-size="12" lengthAdjust="spacingAndGlyphs" textLength="113" x="623.5" y="152.4102">HTMLButtonElement</text><line style="stroke: #383838; stroke-width: 1.5;" x1="595.5" x2="738.5" y1="163.5" y2="163.5"/><line style="stroke: #383838; stroke-width: 1.5;" x1="595.5" x2="738.5" y1="171.5" y2="171.5"/><!--link DOM.HTMLButtonElement to UIButton--><path d="M614.013,190.807 C578.064,214.083 530.986,244.564 496.494,266.897 " fill="none" id="DOM.HTMLButtonElement-UIButton" style="stroke: #383838; stroke-width: 1.0;"/><polygon fill="none" points="610.574,184.695,631.167,179.701,618.183,196.447,610.574,184.695" style="stroke: #383838; stroke-width: 1.0;"/><!--link UIElement to UIButton--><path d="M453.965,227.361 C453.174,241.264 452.384,255.134 451.72,266.795 " fill="none" id="UIElement-UIButton" style="stroke: #383838; stroke-width: 1.0; stroke-dasharray: 7.0,7.0;"/><polygon fill="none" points="446.986,226.793,455.112,207.224,460.963,227.589,446.986,226.793" style="stroke: #383838; stroke-width: 1.0;"/><!--
@startuml VE Classes
skinparam monochrome true
skinparam componentStyle uml2
skinparam classAttributeIconSize 0
skinparam shadowing false
skinparam handwritten false


package FUDGE <<Rectangle>> {





	package UI {
		interface UIElement{
			name: string
			hover: string
			help: string
			extendedHelp: string
		}
		class UIButton extends DOM.HTMLButtonElement implements UIElement {
			functionToCall: Function
		}

		class UIGenerator {
			createButton(...): UIButton
			createUIElementFromMutator(mutator: Mutator): HTMLElement
		}
	}









			












}
@enduml

PlantUML version 1.2019.05(Sat Apr 20 18:45:36 CEST 2019)
(GPL source distribution)
Java Runtime: Java(TM) SE Runtime Environment
JVM: Java HotSpot(TM) 64-Bit Server VM
Java Version: 1.8.0_181-b13
Operating System: Windows 10
OS Version: 10.0
Default Encoding: Cp1252
Language: de
Country: DE
--></g></svg>