<?xml version="1.0" encoding="utf-8"?>
<!-- Generator: Adobe Illustrator 16.0.0, SVG Export Plug-In . SVG Version: 6.00 Build 0)  -->
<!DOCTYPE svg PUBLIC "-//W3C//DTD SVG 1.1//EN" "http://www.w3.org/Graphics/SVG/1.1/DTD/svg11.dtd">
<svg version="1.1" id="Ebene_1" xmlns="http://www.w3.org/2000/svg" xmlns:xlink="http://www.w3.org/1999/xlink" x="0px" y="0px"
	 width="220.08px" height="220.08px" viewBox="0 0 220.08 220.08" enable-background="new 0 0 220.08 220.08" xml:space="preserve">
<g>
	
		<image overflow="visible" opacity="0.75" enable-background="new    " width="203" height="232" xlink:href="848C48FF.png"  transform="matrix(1 0 0 1 2.54 -5.4609)">
	</image>
	<g>
		<path fill="#FFFFFF" stroke="#000000" stroke-width="5" stroke-miterlimit="10" d="M55.023,203.896
			c-0.081-0.488-20.417-38.535-20.503-39.025c-5.421-30.871-20.851-68.885-17.913-71.545c2.984-2.702,31.612,3.458,33.14,23.074
			c0.928,11.9,5.542,26.189,7.433,29.75c0.604-4.199-3.803-127.641-2.64-130.276C55.702,13.239,60.76,5.268,65.75,5.268
			c4.989,0,11.949,5.857,12.457,8.938c2.633,23.669,5.667,101,5.667,101s-0.865-28.517,3.511-38.728
			c1-2.333,1.627-7.526,12.879-7.526c3.708,0,9.534,2.956,11.943,7.253c4.9,8.741,2.645,22.446,4.655,22.223
			c3-0.333,1.078-13.27,5.574-19.493c1.661-2.3,5.65-5.257,10.845-6.647c4.678,0.446,13.259,2.917,13.923,9.583
			c1.33,4-0.664,20,2.669,20.667c2.249-3.511,3.089-9.176,5.251-13.534c2.208-4.453,5.797-7.542,13.678-5.575
			c8.041,2.442,6.441,8.381,7.405,16.108c1.604,12.848-0.334,31.667-0.334,31.667s-1.944,35.98-3,47
			c-0.93,4.945-1.5,28.354-1.5,28.354H56.374L55.023,203.896z"/>
	</g>
</g>
<path fill="#FFFFFF" stroke="#000000" stroke-width="5" stroke-miterlimit="10" d="M245.54,112.54"/>
</svg>
