<?xml version="1.0" encoding="utf-8"?>
<!-- Generator: Adobe Illustrator 16.0.0, SVG Export Plug-In . SVG Version: 6.00 Build 0)  -->
<!DOCTYPE svg PUBLIC "-//W3C//DTD SVG 1.1//EN" "http://www.w3.org/Graphics/SVG/1.1/DTD/svg11.dtd">
<svg version="1.1" id="Ebene_1" xmlns="http://www.w3.org/2000/svg" xmlns:xlink="http://www.w3.org/1999/xlink" x="0px" y="0px"
	 width="220.08px" height="220.08px" viewBox="0 0 220.08 220.08" enable-background="new 0 0 220.08 220.08" xml:space="preserve">
<g>
	
		<image overflow="visible" opacity="0.75" width="203" height="232" xlink:href="848C48FF.png"  transform="matrix(1 0 0 1 2.54 -5.46)">
	</image>
	<g>
		<path fill="#FFFFFF" d="M49.041,190.373c-0.081-0.487-19.268-27.2-19.354-27.691c-5.421-30.87-20.851-68.884-17.913-71.544
			c2.984-2.702,31.612,3.458,33.14,23.074c0.928,11.901,5.542,26.189,7.433,29.75c0.604-4.199-1.287-127.985-0.124-130.62
			c1.162-2.634,3.704-10.261,8.694-10.261c4.989,0,9.027,6.845,9.535,9.926c6.475,39.361,4.585,89.813,9.126,90.714
			c2.155,0.427-0.413-21.637,3.963-31.848c1-2.333,2.748-9.833,14-9.833s11.667,3.333,14.167,7.667
			c7.5,15.704,0.824,41.575,1.745,42.621s3.039-21.676,8.588-34.787c2.59-3.806,10.316-4.5,12-4.5c1.682,0,10.833,1.833,14.5,8
			s2.65,41,3.5,41c1.167,0,2.167-1.833,3-10c4.833-24.333,20.895-17.411,26.447-13.206s-5.703,28.095-5.703,28.095l-2.883,15.559
			c0,0-1.479,26.688-2.723,33.295c-0.93,4.946-0.467,11.574-0.176,14.594c0.098,1.014,0.176,13.996,0.176,13.996H51.541"/>
	</g>
</g>
</svg>
