<?xml version="1.0" encoding="utf-8"?>
<!-- Generator: Adobe Illustrator 16.0.0, SVG Export Plug-In . SVG Version: 6.00 Build 0)  -->
<!DOCTYPE svg PUBLIC "-//W3C//DTD SVG 1.1//EN" "http://www.w3.org/Graphics/SVG/1.1/DTD/svg11.dtd">
<svg version="1.1" id="Ebene_1" xmlns="http://www.w3.org/2000/svg" xmlns:xlink="http://www.w3.org/1999/xlink" x="0px" y="0px"
	 width="117.985px" height="117.985px" viewBox="0 0 117.985 117.985" enable-background="new 0 0 117.985 117.985"
	 xml:space="preserve">
<g>
	<path display="none" fill-rule="evenodd" clip-rule="evenodd" fill="#FFFFFF" d="M1,1c39.662,0,79.323,0,118.985,0
		c0,39.662,0,79.323,0,118.985c-39.662,0-79.323,0-118.985,0C1,80.323,1,40.662,1,1z M25.455,71.504c0,7.204,0,13.729,0,20.835
		c2.64-1.646,4.712-2.938,6.775-4.224c1.511,0.964,2.878,1.898,4.303,2.733c15.606,9.154,37.469,7.14,48.6-4.595
		c3.425-3.61,6.182-7.661,5.677-13.44c-3.688-0.302-7.105-0.582-10.456-0.855c-3.75,17.607-29.343,19.36-38.107,10.45
		c1.866-1.592,3.731-3.181,6.268-5.344C40.423,75.112,33.09,73.345,25.455,71.504z M35.57,50.091
		c4.579-10.276,14.561-16.058,24.238-15.85c5.068,0.109,10.054,1.861,14.135,5.471c-1.877,1.625-3.736,3.234-6.251,5.411
		c8.056,1.927,15.488,3.707,23.084,5.524c0-7.076,0-13.622,0-20.822c-2.586,1.611-4.638,2.89-6.783,4.226
		c-1.455-0.924-2.816-1.843-4.229-2.678c-6.005-3.554-13.056-6.432-20.098-6.685c-9.904-0.355-19.79,3.502-26.719,9.428
		c-4.517,3.864-7.581,8.587-7.93,15.318C28.86,49.674,32.279,49.887,35.57,50.091z"/>
	<path fill="#FF0000" stroke="#FF0000" stroke-miterlimit="10" d="M26.455,58.504l21.06,7.561l-6.268,5.344
		c6.42,10.926,32.49,15.926,38.107-10.45c3.351,0.273,6.768,0.554,10.456,0.855c0.076,6.187-1.582,10.549-3.677,14.44
		C80,87.75,57.993,102,35.533,80.849c-1.425-0.835-2.792-2.77-4.303-3.733c-2.063,1.286-4.135,2.577-6.775,4.224L26.455,58.504z"/>
</g>
<path fill="#FF0000" stroke="#FF0000" stroke-miterlimit="10" d="M89.844,56.44l-21.06-7.561l6.269-5.344
	c-6.42-10.926-32.49-15.926-38.107,10.45c-3.351-0.273-6.768-0.554-10.456-0.855c-0.505-5.779,4.677-14.44,4.677-14.44
	c4.8-10.413,27.141-25.746,49.6-4.595c1.426,0.835,2.793,2.77,4.304,3.733c2.063-1.286,4.136-2.577,6.774-4.224L89.844,56.44z"/>
<path fill="#FF0000" stroke="#FF0000" stroke-miterlimit="10" d="M89.813,56.721l-21.06-7.561l6.268-5.344
	c-6.42-10.926-32.489-15.926-38.106,10.45c-3.351-0.273-6.768-0.554-10.456-0.855c-0.076-6.187,1.582-10.549,3.677-14.44
	c6.133-11.496,28.141-25.746,50.6-4.595c1.425,0.835,2.792,2.77,4.304,3.733c2.063-1.286,4.135-2.577,6.774-4.224L89.813,56.721z"/>
</svg>
