<?xml version="1.0" encoding="UTF-8" standalone="no"?><svg xmlns="http://www.w3.org/2000/svg" xmlns:xlink="http://www.w3.org/1999/xlink" contentScriptType="application/ecmascript" contentStyleType="text/css" height="964px" preserveAspectRatio="none" style="width:1198px;height:964px;" version="1.1" viewBox="0 0 1198 964" width="1198px" zoomAndPan="magnify"><defs/><g><!--cluster FUDGE--><rect fill="#FFFFFF" height="929" style="stroke: #000000; stroke-width: 1.5;" width="1165" x="22" y="24"/><text fill="#000000" font-family="sans-serif" font-size="14" font-weight="bold" lengthAdjust="spacingAndGlyphs" textLength="49" x="580" y="40.5332">FUDGE</text><!--cluster Transfer--><polygon fill="#FFFFFF" points="473.5,290,538.5,290,545.5,313.6094,628.5,313.6094,628.5,458,473.5,458,473.5,290" style="stroke: #000000; stroke-width: 1.5;"/><line style="stroke: #000000; stroke-width: 1.5;" x1="473.5" x2="545.5" y1="313.6094" y2="313.6094"/><text fill="#000000" font-family="sans-serif" font-size="14" font-weight="bold" lengthAdjust="spacingAndGlyphs" textLength="59" x="477.5" y="306.5332">Transfer</text><!--cluster Mutable--><rect fill="#FFFFFF" height="100" style="stroke: #000000; stroke-width: 1.5;" width="107" x="497.5" y="334"/><text fill="#000000" font-family="sans-serif" font-size="14" font-weight="bold" lengthAdjust="spacingAndGlyphs" textLength="57" x="522.5" y="350.5332">Mutable</text><!--cluster Components--><rect fill="#FFFFFF" height="198" style="stroke: #000000; stroke-width: 1.5;" width="537" x="108" y="68"/><text fill="#000000" font-family="sans-serif" font-size="14" font-weight="bold" lengthAdjust="spacingAndGlyphs" textLength="89" x="332" y="84.5332">Components</text><!--cluster Animation--><rect fill="#FFFFFF" height="447" style="stroke: #000000; stroke-width: 1.5;" width="1117" x="46" y="482"/><text fill="#000000" font-family="sans-serif" font-size="14" font-weight="bold" lengthAdjust="spacingAndGlyphs" textLength="69" x="570" y="498.5332">Animation</text><!--class Mutable--><rect fill="#F8F8F8" height="48" id="Mutable" style="stroke: #383838; stroke-width: 1.5;" width="75" x="513.5" y="370"/><ellipse cx="528.5" cy="386" fill="#C2C2C2" rx="11" ry="11" style="stroke: #383838; stroke-width: 1.0;"/><path d="M531.2656,381.875 Q531.4219,381.6563 531.6094,381.5469 Q531.7969,381.4375 532.0156,381.4375 Q532.3906,381.4375 532.625,381.6953 Q532.8594,381.9531 532.8594,382.5625 L532.8594,384.0156 Q532.8594,384.625 532.625,384.8906 Q532.3906,385.1563 532.0156,385.1563 Q531.6719,385.1563 531.4688,384.9531 Q531.2656,384.7656 531.1563,384.25 Q531.1094,383.8906 530.9219,383.7031 Q530.5938,383.3281 529.9844,383.1094 Q529.375,382.8906 528.75,382.8906 Q527.9844,382.8906 527.3516,383.2188 Q526.7188,383.5469 526.2266,384.2969 Q525.7344,385.0469 525.7344,386.0781 L525.7344,387.1719 Q525.7344,388.4063 526.625,389.2266 Q527.5156,390.0469 529.1094,390.0469 Q530.0469,390.0469 530.7031,389.7969 Q531.0938,389.6406 531.5156,389.2031 Q531.7813,388.9375 531.9297,388.8594 Q532.0781,388.7813 532.2813,388.7813 Q532.6094,388.7813 532.8672,389.0391 Q533.125,389.2969 533.125,389.6406 Q533.125,389.9844 532.7813,390.3906 Q532.2813,390.9688 531.4844,391.2969 Q530.4063,391.75 529.1094,391.75 Q527.5938,391.75 526.3906,391.125 Q525.4063,390.625 524.7188,389.5547 Q524.0313,388.4844 524.0313,387.2031 L524.0313,386.0469 Q524.0313,384.7188 524.6484,383.5703 Q525.2656,382.4219 526.3594,381.8047 Q527.4531,381.1875 528.6875,381.1875 Q529.4219,381.1875 530.0703,381.3516 Q530.7188,381.5156 531.2656,381.875 Z "/><text fill="#000000" font-family="sans-serif" font-size="12" lengthAdjust="spacingAndGlyphs" textLength="43" x="542.5" y="390.9102">Mutable</text><line style="stroke: #383838; stroke-width: 1.5;" x1="514.5" x2="587.5" y1="402" y2="402"/><line style="stroke: #383838; stroke-width: 1.5;" x1="514.5" x2="587.5" y1="410" y2="410"/><!--class Component--><rect fill="#F8F8F8" height="48" id="Component" style="stroke: #383838; stroke-width: 1.5;" width="97" x="124" y="153"/><ellipse cx="139" cy="169" fill="#CDCDCD" rx="11" ry="11" style="stroke: #383838; stroke-width: 1.0;"/><path d="M141.1875,170.7656 L137.0469,170.7656 L136.625,171.7969 L137.0469,171.7969 Q137.6563,171.7969 137.9219,172.0313 Q138.1875,172.2656 138.1875,172.6563 Q138.1875,173.0313 137.9219,173.2656 Q137.6563,173.5 137.0469,173.5 L134.75,173.5 Q134.1406,173.5 133.8828,173.2656 Q133.625,173.0313 133.625,172.6406 Q133.625,172.2656 133.8984,172.0234 Q134.1719,171.7813 134.7969,171.7969 L137.4688,165.1406 L136.3594,165.1406 Q135.75,165.1406 135.4844,164.9063 Q135.2188,164.6719 135.2188,164.2813 Q135.2188,163.9063 135.4844,163.6719 Q135.75,163.4375 136.3594,163.4375 L140.0313,163.4375 L143.4219,171.7969 Q144.0156,171.7969 144.2031,171.9375 Q144.5938,172.2031 144.5938,172.6563 Q144.5938,173.0313 144.3359,173.2656 Q144.0781,173.5 143.4688,173.5 L141.1719,173.5 Q140.5625,173.5 140.2969,173.2656 Q140.0313,173.0313 140.0313,172.6406 Q140.0313,172.2656 140.2969,172.0313 Q140.5625,171.7969 141.1719,171.7969 L141.5938,171.7969 L141.1875,170.7656 Z M140.4688,169.0625 L139.1094,165.6875 L137.7344,169.0625 L140.4688,169.0625 Z "/><text fill="#000000" font-family="sans-serif" font-size="12" font-style="italic" lengthAdjust="spacingAndGlyphs" textLength="65" x="153" y="173.9102">Component</text><line style="stroke: #383838; stroke-width: 1.5;" x1="125" x2="220" y1="185" y2="185"/><line style="stroke: #383838; stroke-width: 1.5;" x1="125" x2="220" y1="193" y2="193"/><!--class ComponentAnimator--><rect fill="#F8F8F8" height="144.8516" id="ComponentAnimator" style="stroke: #383838; stroke-width: 1.5;" width="156" x="473" y="104.5"/><ellipse cx="492.5" cy="120.5" fill="#C2C2C2" rx="11" ry="11" style="stroke: #383838; stroke-width: 1.0;"/><path d="M495.2656,116.375 Q495.4219,116.1563 495.6094,116.0469 Q495.7969,115.9375 496.0156,115.9375 Q496.3906,115.9375 496.625,116.1953 Q496.8594,116.4531 496.8594,117.0625 L496.8594,118.5156 Q496.8594,119.125 496.625,119.3906 Q496.3906,119.6563 496.0156,119.6563 Q495.6719,119.6563 495.4688,119.4531 Q495.2656,119.2656 495.1563,118.75 Q495.1094,118.3906 494.9219,118.2031 Q494.5938,117.8281 493.9844,117.6094 Q493.375,117.3906 492.75,117.3906 Q491.9844,117.3906 491.3516,117.7188 Q490.7188,118.0469 490.2266,118.7969 Q489.7344,119.5469 489.7344,120.5781 L489.7344,121.6719 Q489.7344,122.9063 490.625,123.7266 Q491.5156,124.5469 493.1094,124.5469 Q494.0469,124.5469 494.7031,124.2969 Q495.0938,124.1406 495.5156,123.7031 Q495.7813,123.4375 495.9297,123.3594 Q496.0781,123.2813 496.2813,123.2813 Q496.6094,123.2813 496.8672,123.5391 Q497.125,123.7969 497.125,124.1406 Q497.125,124.4844 496.7813,124.8906 Q496.2813,125.4688 495.4844,125.7969 Q494.4063,126.25 493.1094,126.25 Q491.5938,126.25 490.3906,125.625 Q489.4063,125.125 488.7188,124.0547 Q488.0313,122.9844 488.0313,121.7031 L488.0313,120.5469 Q488.0313,119.2188 488.6484,118.0703 Q489.2656,116.9219 490.3594,116.3047 Q491.4531,115.6875 492.6875,115.6875 Q493.4219,115.6875 494.0703,115.8516 Q494.7188,116.0156 495.2656,116.375 Z "/><text fill="#000000" font-family="sans-serif" font-size="12" lengthAdjust="spacingAndGlyphs" textLength="114" x="507.5" y="125.4102">ComponentAnimator</text><line style="stroke: #383838; stroke-width: 1.5;" x1="474" x2="628" y1="136.5" y2="136.5"/><text fill="#000000" font-family="sans-serif" font-size="11" lengthAdjust="spacingAndGlyphs" textLength="81" x="479" y="151.9189">+speed: number;</text><text fill="#000000" font-family="sans-serif" font-size="11" lengthAdjust="spacingAndGlyphs" textLength="141" x="479" y="165.7549">+currentAnimation: Animation</text><text fill="#000000" font-family="sans-serif" font-size="11" lengthAdjust="spacingAndGlyphs" textLength="127" x="479" y="179.5908">+nextAnimation: Animation</text><text fill="#000000" font-family="sans-serif" font-size="11" lengthAdjust="spacingAndGlyphs" textLength="144" x="479" y="193.4268">+syncChildrenSpeed: boolean</text><text fill="#000000" font-family="sans-serif" font-size="11" lengthAdjust="spacingAndGlyphs" textLength="108" x="479" y="207.2627">-parentSpeed: number</text><line style="stroke: #383838; stroke-width: 1.5;" x1="474" x2="628" y1="213.6797" y2="213.6797"/><text fill="#000000" font-family="sans-serif" font-size="11" lengthAdjust="spacingAndGlyphs" textLength="112" x="479" y="229.0986">#setTime(time: number)</text><text fill="#000000" font-family="sans-serif" font-size="11" lengthAdjust="spacingAndGlyphs" textLength="93" x="479" y="242.9346">+play(name: string)</text><!--class Animation--><rect fill="#F8F8F8" height="214.0313" id="Animation" style="stroke: #383838; stroke-width: 1.5;" width="221" x="62" y="518"/><ellipse cx="140.75" cy="534" fill="#C2C2C2" rx="11" ry="11" style="stroke: #383838; stroke-width: 1.0;"/><path d="M143.5156,529.875 Q143.6719,529.6563 143.8594,529.5469 Q144.0469,529.4375 144.2656,529.4375 Q144.6406,529.4375 144.875,529.6953 Q145.1094,529.9531 145.1094,530.5625 L145.1094,532.0156 Q145.1094,532.625 144.875,532.8906 Q144.6406,533.1563 144.2656,533.1563 Q143.9219,533.1563 143.7188,532.9531 Q143.5156,532.7656 143.4063,532.25 Q143.3594,531.8906 143.1719,531.7031 Q142.8438,531.3281 142.2344,531.1094 Q141.625,530.8906 141,530.8906 Q140.2344,530.8906 139.6016,531.2188 Q138.9688,531.5469 138.4766,532.2969 Q137.9844,533.0469 137.9844,534.0781 L137.9844,535.1719 Q137.9844,536.4063 138.875,537.2266 Q139.7656,538.0469 141.3594,538.0469 Q142.2969,538.0469 142.9531,537.7969 Q143.3438,537.6406 143.7656,537.2031 Q144.0313,536.9375 144.1797,536.8594 Q144.3281,536.7813 144.5313,536.7813 Q144.8594,536.7813 145.1172,537.0391 Q145.375,537.2969 145.375,537.6406 Q145.375,537.9844 145.0313,538.3906 Q144.5313,538.9688 143.7344,539.2969 Q142.6563,539.75 141.3594,539.75 Q139.8438,539.75 138.6406,539.125 Q137.6563,538.625 136.9688,537.5547 Q136.2813,536.4844 136.2813,535.2031 L136.2813,534.0469 Q136.2813,532.7188 136.8984,531.5703 Q137.5156,530.4219 138.6094,529.8047 Q139.7031,529.1875 140.9375,529.1875 Q141.6719,529.1875 142.3203,529.3516 Q142.9688,529.5156 143.5156,529.875 Z "/><text fill="#000000" font-family="sans-serif" font-size="12" lengthAdjust="spacingAndGlyphs" textLength="55" x="161.25" y="538.9102">Animation</text><line style="stroke: #383838; stroke-width: 1.5;" x1="63" x2="282" y1="550" y2="550"/><text fill="#000000" font-family="sans-serif" font-size="11" lengthAdjust="spacingAndGlyphs" textLength="65" x="68" y="565.4189">+name: string</text><text fill="#000000" font-family="sans-serif" font-size="11" lengthAdjust="spacingAndGlyphs" textLength="185" x="68" y="579.2549">+animatedObject: MutatorForAnimation</text><text fill="#000000" font-family="sans-serif" font-size="11" lengthAdjust="spacingAndGlyphs" textLength="209" x="68" y="593.0908">+sequences: {[property: string]: Sequence}</text><text fill="#000000" font-family="sans-serif" font-size="11" lengthAdjust="spacingAndGlyphs" textLength="92" x="68" y="606.9268">+startTime: number</text><text fill="#000000" font-family="sans-serif" font-size="11" lengthAdjust="spacingAndGlyphs" textLength="87" x="68" y="620.7627">+totaltime: number</text><text fill="#000000" font-family="sans-serif" font-size="11" lengthAdjust="spacingAndGlyphs" textLength="78" x="68" y="634.5986">+events: Event[]</text><text fill="#000000" font-family="sans-serif" font-size="11" lengthAdjust="spacingAndGlyphs" textLength="72" x="68" y="648.4346">+labels: Label[]</text><text fill="#000000" font-family="sans-serif" font-size="11" lengthAdjust="spacingAndGlyphs" textLength="115" x="68" y="662.2705">+playMode: PLAYMODE</text><text fill="#000000" font-family="sans-serif" font-size="11" lengthAdjust="spacingAndGlyphs" textLength="64" x="68" y="676.1064">+fps: number</text><text fill="#000000" font-family="sans-serif" font-size="11" lengthAdjust="spacingAndGlyphs" textLength="66" x="68" y="689.9424">+sps: number</text><line style="stroke: #383838; stroke-width: 1.5;" x1="63" x2="282" y1="696.3594" y2="696.3594"/><text fill="#000000" font-family="sans-serif" font-size="11" lengthAdjust="spacingAndGlyphs" textLength="47" x="68" y="711.7783">+update()</text><text fill="#000000" font-family="sans-serif" font-size="11" lengthAdjust="spacingAndGlyphs" textLength="74" x="68" y="725.6143">-checkEvents()</text><!--class Sequence--><rect fill="#F8F8F8" height="103.3438" id="Sequence" style="stroke: #383838; stroke-width: 1.5;" width="176" x="463" y="740.5"/><ellipse cx="518.75" cy="756.5" fill="#C2C2C2" rx="11" ry="11" style="stroke: #383838; stroke-width: 1.0;"/><path d="M521.5156,752.375 Q521.6719,752.1563 521.8594,752.0469 Q522.0469,751.9375 522.2656,751.9375 Q522.6406,751.9375 522.875,752.1953 Q523.1094,752.4531 523.1094,753.0625 L523.1094,754.5156 Q523.1094,755.125 522.875,755.3906 Q522.6406,755.6563 522.2656,755.6563 Q521.9219,755.6563 521.7188,755.4531 Q521.5156,755.2656 521.4063,754.75 Q521.3594,754.3906 521.1719,754.2031 Q520.8438,753.8281 520.2344,753.6094 Q519.625,753.3906 519,753.3906 Q518.2344,753.3906 517.6016,753.7188 Q516.9688,754.0469 516.4766,754.7969 Q515.9844,755.5469 515.9844,756.5781 L515.9844,757.6719 Q515.9844,758.9063 516.875,759.7266 Q517.7656,760.5469 519.3594,760.5469 Q520.2969,760.5469 520.9531,760.2969 Q521.3438,760.1406 521.7656,759.7031 Q522.0313,759.4375 522.1797,759.3594 Q522.3281,759.2813 522.5313,759.2813 Q522.8594,759.2813 523.1172,759.5391 Q523.375,759.7969 523.375,760.1406 Q523.375,760.4844 523.0313,760.8906 Q522.5313,761.4688 521.7344,761.7969 Q520.6563,762.25 519.3594,762.25 Q517.8438,762.25 516.6406,761.625 Q515.6563,761.125 514.9688,760.0547 Q514.2813,758.9844 514.2813,757.7031 L514.2813,756.5469 Q514.2813,755.2188 514.8984,754.0703 Q515.5156,752.9219 516.6094,752.3047 Q517.7031,751.6875 518.9375,751.6875 Q519.6719,751.6875 520.3203,751.8516 Q520.9688,752.0156 521.5156,752.375 Z "/><text fill="#000000" font-family="sans-serif" font-size="12" lengthAdjust="spacingAndGlyphs" textLength="56" x="539.25" y="761.4102">Sequence</text><line style="stroke: #383838; stroke-width: 1.5;" x1="464" x2="638" y1="772.5" y2="772.5"/><text fill="#000000" font-family="sans-serif" font-size="11" lengthAdjust="spacingAndGlyphs" textLength="60" x="469" y="787.9189">+keys: Key[]</text><line style="stroke: #383838; stroke-width: 1.5;" x1="464" x2="638" y1="794.3359" y2="794.3359"/><text fill="#000000" font-family="sans-serif" font-size="11" lengthAdjust="spacingAndGlyphs" textLength="164" x="469" y="809.7549">+evaluate(_time: number): number</text><text fill="#000000" font-family="sans-serif" font-size="11" lengthAdjust="spacingAndGlyphs" textLength="96" x="469" y="823.5908">+addKey(_key:Key)</text><text fill="#000000" font-family="sans-serif" font-size="11" lengthAdjust="spacingAndGlyphs" textLength="114" x="469" y="837.4268">+removeKey(_key:Key)</text><!--class Key--><rect fill="#F8F8F8" height="214.0313" id="Key" style="stroke: #383838; stroke-width: 1.5;" width="156" x="754" y="596"/><ellipse cx="817.75" cy="612" fill="#C2C2C2" rx="11" ry="11" style="stroke: #383838; stroke-width: 1.0;"/><path d="M820.5156,607.875 Q820.6719,607.6563 820.8594,607.5469 Q821.0469,607.4375 821.2656,607.4375 Q821.6406,607.4375 821.875,607.6953 Q822.1094,607.9531 822.1094,608.5625 L822.1094,610.0156 Q822.1094,610.625 821.875,610.8906 Q821.6406,611.1563 821.2656,611.1563 Q820.9219,611.1563 820.7188,610.9531 Q820.5156,610.7656 820.4063,610.25 Q820.3594,609.8906 820.1719,609.7031 Q819.8438,609.3281 819.2344,609.1094 Q818.625,608.8906 818,608.8906 Q817.2344,608.8906 816.6016,609.2188 Q815.9688,609.5469 815.4766,610.2969 Q814.9844,611.0469 814.9844,612.0781 L814.9844,613.1719 Q814.9844,614.4063 815.875,615.2266 Q816.7656,616.0469 818.3594,616.0469 Q819.2969,616.0469 819.9531,615.7969 Q820.3438,615.6406 820.7656,615.2031 Q821.0313,614.9375 821.1797,614.8594 Q821.3281,614.7813 821.5313,614.7813 Q821.8594,614.7813 822.1172,615.0391 Q822.375,615.2969 822.375,615.6406 Q822.375,615.9844 822.0313,616.3906 Q821.5313,616.9688 820.7344,617.2969 Q819.6563,617.75 818.3594,617.75 Q816.8438,617.75 815.6406,617.125 Q814.6563,616.625 813.9688,615.5547 Q813.2813,614.4844 813.2813,613.2031 L813.2813,612.0469 Q813.2813,610.7188 813.8984,609.5703 Q814.5156,608.4219 815.6094,607.8047 Q816.7031,607.1875 817.9375,607.1875 Q818.6719,607.1875 819.3203,607.3516 Q819.9688,607.5156 820.5156,607.875 Z "/><text fill="#000000" font-family="sans-serif" font-size="12" lengthAdjust="spacingAndGlyphs" textLength="20" x="838.25" y="616.9102">Key</text><line style="stroke: #383838; stroke-width: 1.5;" x1="755" x2="909" y1="628" y2="628"/><text fill="#000000" font-family="sans-serif" font-size="11" lengthAdjust="spacingAndGlyphs" textLength="67" x="760" y="643.4189">+time: number</text><text fill="#000000" font-family="sans-serif" font-size="11" lengthAdjust="spacingAndGlyphs" textLength="74" x="760" y="657.2549">+value: number</text><text fill="#000000" font-family="sans-serif" font-size="11" lengthAdjust="spacingAndGlyphs" textLength="80" x="760" y="671.0908">-slopeIn: number</text><text fill="#000000" font-family="sans-serif" font-size="11" lengthAdjust="spacingAndGlyphs" textLength="89" x="760" y="684.9268">-slopeOut: number</text><text fill="#000000" font-family="sans-serif" font-size="11" lengthAdjust="spacingAndGlyphs" textLength="100" x="760" y="698.7627">+functionIn: Function</text><text fill="#000000" font-family="sans-serif" font-size="11" lengthAdjust="spacingAndGlyphs" textLength="109" x="760" y="712.5986">+functionOut: Function</text><text fill="#000000" font-family="sans-serif" font-size="11" lengthAdjust="spacingAndGlyphs" textLength="81" x="760" y="726.4346">-broken: boolean</text><text fill="#000000" font-family="sans-serif" font-size="11" lengthAdjust="spacingAndGlyphs" textLength="79" x="760" y="740.2705">+path2d: Path2D</text><line style="stroke: #383838; stroke-width: 1.5;" x1="755" x2="909" y1="746.6875" y2="746.6875"/><text fill="#000000" font-family="sans-serif" font-size="11" lengthAdjust="spacingAndGlyphs" textLength="135" x="760" y="762.1064">+setSlopeIn(_slope:number)</text><text fill="#000000" font-family="sans-serif" font-size="11" lengthAdjust="spacingAndGlyphs" textLength="144" x="760" y="775.9424">+setSlopeOut(_slope:number)</text><text fill="#000000" font-family="sans-serif" font-size="11" lengthAdjust="spacingAndGlyphs" textLength="91" x="760" y="789.7783">+generatePath2D()</text><text fill="#000000" font-family="sans-serif" font-size="11" lengthAdjust="spacingAndGlyphs" text-decoration="underline" textLength="101" x="760" y="803.6143">+sort(a: Key, b: Key)</text><!--class Function--><rect fill="#F8F8F8" height="186.3594" id="Function" style="stroke: #383838; stroke-width: 1.5;" width="176" x="971" y="610"/><ellipse cx="1031.25" cy="626" fill="#C2C2C2" rx="11" ry="11" style="stroke: #383838; stroke-width: 1.0;"/><path d="M1034.0156,621.875 Q1034.1719,621.6563 1034.3594,621.5469 Q1034.5469,621.4375 1034.7656,621.4375 Q1035.1406,621.4375 1035.375,621.6953 Q1035.6094,621.9531 1035.6094,622.5625 L1035.6094,624.0156 Q1035.6094,624.625 1035.375,624.8906 Q1035.1406,625.1563 1034.7656,625.1563 Q1034.4219,625.1563 1034.2188,624.9531 Q1034.0156,624.7656 1033.9063,624.25 Q1033.8594,623.8906 1033.6719,623.7031 Q1033.3438,623.3281 1032.7344,623.1094 Q1032.125,622.8906 1031.5,622.8906 Q1030.7344,622.8906 1030.1016,623.2188 Q1029.4688,623.5469 1028.9766,624.2969 Q1028.4844,625.0469 1028.4844,626.0781 L1028.4844,627.1719 Q1028.4844,628.4063 1029.375,629.2266 Q1030.2656,630.0469 1031.8594,630.0469 Q1032.7969,630.0469 1033.4531,629.7969 Q1033.8438,629.6406 1034.2656,629.2031 Q1034.5313,628.9375 1034.6797,628.8594 Q1034.8281,628.7813 1035.0313,628.7813 Q1035.3594,628.7813 1035.6172,629.0391 Q1035.875,629.2969 1035.875,629.6406 Q1035.875,629.9844 1035.5313,630.3906 Q1035.0313,630.9688 1034.2344,631.2969 Q1033.1563,631.75 1031.8594,631.75 Q1030.3438,631.75 1029.1406,631.125 Q1028.1563,630.625 1027.4688,629.5547 Q1026.7813,628.4844 1026.7813,627.2031 L1026.7813,626.0469 Q1026.7813,624.7188 1027.3984,623.5703 Q1028.0156,622.4219 1029.1094,621.8047 Q1030.2031,621.1875 1031.4375,621.1875 Q1032.1719,621.1875 1032.8203,621.3516 Q1033.4688,621.5156 1034.0156,621.875 Z "/><text fill="#000000" font-family="sans-serif" font-size="12" lengthAdjust="spacingAndGlyphs" textLength="47" x="1051.75" y="630.9102">Function</text><line style="stroke: #383838; stroke-width: 1.5;" x1="972" x2="1146" y1="642" y2="642"/><text fill="#000000" font-family="sans-serif" font-size="11" lengthAdjust="spacingAndGlyphs" textLength="52" x="977" y="657.4189">-a: number</text><text fill="#000000" font-family="sans-serif" font-size="11" lengthAdjust="spacingAndGlyphs" textLength="52" x="977" y="671.2549">-b: number</text><text fill="#000000" font-family="sans-serif" font-size="11" lengthAdjust="spacingAndGlyphs" textLength="52" x="977" y="685.0908">-c: number</text><text fill="#000000" font-family="sans-serif" font-size="11" lengthAdjust="spacingAndGlyphs" textLength="52" x="977" y="698.9268">-d: number</text><text fill="#000000" font-family="sans-serif" font-size="11" lengthAdjust="spacingAndGlyphs" textLength="63" x="977" y="712.7627">-keyOut: Key</text><text fill="#000000" font-family="sans-serif" font-size="11" lengthAdjust="spacingAndGlyphs" textLength="54" x="977" y="726.5986">-keyIn: Key</text><line style="stroke: #383838; stroke-width: 1.5;" x1="972" x2="1146" y1="733.0156" y2="733.0156"/><text fill="#000000" font-family="sans-serif" font-size="11" lengthAdjust="spacingAndGlyphs" textLength="164" x="977" y="748.4346">+evaluate(_time: number): number</text><text fill="#000000" font-family="sans-serif" font-size="11" lengthAdjust="spacingAndGlyphs" textLength="55" x="977" y="762.2705">-calculate()</text><text fill="#000000" font-family="sans-serif" font-size="11" lengthAdjust="spacingAndGlyphs" textLength="77" x="977" y="776.1064">-setKeyIn(_key)</text><text fill="#000000" font-family="sans-serif" font-size="11" lengthAdjust="spacingAndGlyphs" textLength="86" x="977" y="789.9424">-setKeyOut(_key)</text><!--class PLAYMODE--><rect fill="#F8F8F8" height="144.8516" id="PLAYMODE" style="stroke: #383838; stroke-width: 1.5;" width="128" x="108.5" y="767.5"/><ellipse cx="137.9" cy="783.5" fill="#ABABAB" rx="11" ry="11" style="stroke: #383838; stroke-width: 1.0;"/><path d="M136.7594,784.2969 L136.7594,786.7969 L141.0875,786.7969 L141.0875,785.875 Q141.0875,785.2656 141.3297,785 Q141.5719,784.7344 141.9469,784.7344 Q142.3219,784.7344 142.5563,785 Q142.7906,785.2656 142.7906,785.875 L142.7906,788.5 L134.7906,788.5 Q134.1656,788.5 133.9078,788.2656 Q133.65,788.0313 133.65,787.6406 Q133.65,787.2656 133.9156,787.0313 Q134.1813,786.7969 134.7906,786.7969 L135.0563,786.7969 L135.0563,780.1406 L134.7906,780.1406 Q134.1656,780.1406 133.9078,779.9063 Q133.65,779.6719 133.65,779.2813 Q133.65,778.9063 133.9078,778.6719 Q134.1656,778.4375 134.7906,778.4375 L142.4156,778.4375 L142.4156,781.0313 Q142.4156,781.6406 142.1891,781.8984 Q141.9625,782.1563 141.5719,782.1563 Q141.1969,782.1563 140.9625,781.8984 Q140.7281,781.6406 140.7281,781.0313 L140.7281,780.1406 L136.7594,780.1406 L136.7594,782.5938 L138.2438,782.5938 Q138.2438,781.9375 138.3688,781.75 Q138.6344,781.3438 139.1031,781.3438 Q139.4781,781.3438 139.7125,781.6016 Q139.9469,781.8594 139.9469,782.4688 L139.9469,784.4375 Q139.9469,784.9844 139.8219,785.1719 Q139.5563,785.5625 139.1031,785.5625 Q138.6344,785.5625 138.3688,785.1563 Q138.2438,784.9688 138.2438,784.2969 L136.7594,784.2969 Z "/><text fill="#000000" font-family="sans-serif" font-size="12" lengthAdjust="spacingAndGlyphs" textLength="64" x="155.1" y="788.4102">PLAYMODE</text><line style="stroke: #383838; stroke-width: 1.5;" x1="109.5" x2="235.5" y1="799.5" y2="799.5"/><text fill="#000000" font-family="sans-serif" font-size="11" lengthAdjust="spacingAndGlyphs" textLength="37" x="114.5" y="814.9189">INHERIT</text><text fill="#000000" font-family="sans-serif" font-size="11" lengthAdjust="spacingAndGlyphs" textLength="28" x="114.5" y="828.7549">LOOP</text><text fill="#000000" font-family="sans-serif" font-size="11" lengthAdjust="spacingAndGlyphs" textLength="52" x="114.5" y="842.5908">PINGPONG</text><text fill="#000000" font-family="sans-serif" font-size="11" lengthAdjust="spacingAndGlyphs" textLength="56" x="114.5" y="856.4268">PLAYONCE</text><text fill="#000000" font-family="sans-serif" font-size="11" lengthAdjust="spacingAndGlyphs" textLength="116" x="114.5" y="870.2627">PLAYONCESTOPAFTER</text><text fill="#000000" font-family="sans-serif" font-size="11" lengthAdjust="spacingAndGlyphs" textLength="75" x="114.5" y="884.0986">REVERSELOOP</text><text fill="#000000" font-family="sans-serif" font-size="11" lengthAdjust="spacingAndGlyphs" textLength="27" x="114.5" y="897.9346">STOP</text><line style="stroke: #383838; stroke-width: 1.5;" x1="109.5" x2="235.5" y1="904.3516" y2="904.3516"/><!--class Label--><rect fill="#F8F8F8" height="75.6719" id="Label" style="stroke: #383838; stroke-width: 1.5;" width="73" x="514.5" y="629"/><ellipse cx="534" cy="645" fill="#C2C2C2" rx="11" ry="11" style="stroke: #383838; stroke-width: 1.0;"/><path d="M536.7656,640.875 Q536.9219,640.6563 537.1094,640.5469 Q537.2969,640.4375 537.5156,640.4375 Q537.8906,640.4375 538.125,640.6953 Q538.3594,640.9531 538.3594,641.5625 L538.3594,643.0156 Q538.3594,643.625 538.125,643.8906 Q537.8906,644.1563 537.5156,644.1563 Q537.1719,644.1563 536.9688,643.9531 Q536.7656,643.7656 536.6563,643.25 Q536.6094,642.8906 536.4219,642.7031 Q536.0938,642.3281 535.4844,642.1094 Q534.875,641.8906 534.25,641.8906 Q533.4844,641.8906 532.8516,642.2188 Q532.2188,642.5469 531.7266,643.2969 Q531.2344,644.0469 531.2344,645.0781 L531.2344,646.1719 Q531.2344,647.4063 532.125,648.2266 Q533.0156,649.0469 534.6094,649.0469 Q535.5469,649.0469 536.2031,648.7969 Q536.5938,648.6406 537.0156,648.2031 Q537.2813,647.9375 537.4297,647.8594 Q537.5781,647.7813 537.7813,647.7813 Q538.1094,647.7813 538.3672,648.0391 Q538.625,648.2969 538.625,648.6406 Q538.625,648.9844 538.2813,649.3906 Q537.7813,649.9688 536.9844,650.2969 Q535.9063,650.75 534.6094,650.75 Q533.0938,650.75 531.8906,650.125 Q530.9063,649.625 530.2188,648.5547 Q529.5313,647.4844 529.5313,646.2031 L529.5313,645.0469 Q529.5313,643.7188 530.1484,642.5703 Q530.7656,641.4219 531.8594,640.8047 Q532.9531,640.1875 534.1875,640.1875 Q534.9219,640.1875 535.5703,640.3516 Q536.2188,640.5156 536.7656,640.875 Z "/><text fill="#000000" font-family="sans-serif" font-size="12" lengthAdjust="spacingAndGlyphs" textLength="31" x="549" y="649.9102">Label</text><line style="stroke: #383838; stroke-width: 1.5;" x1="515.5" x2="586.5" y1="661" y2="661"/><text fill="#000000" font-family="sans-serif" font-size="11" lengthAdjust="spacingAndGlyphs" textLength="61" x="520.5" y="676.4189">time: number</text><text fill="#000000" font-family="sans-serif" font-size="11" lengthAdjust="spacingAndGlyphs" textLength="59" x="520.5" y="690.2549">name: string</text><line style="stroke: #383838; stroke-width: 1.5;" x1="515.5" x2="586.5" y1="696.6719" y2="696.6719"/><!--class AnimationEvent--><rect fill="#F8F8F8" height="75.6719" id="AnimationEvent" style="stroke: #383838; stroke-width: 1.5;" width="117" x="492.5" y="518"/><ellipse cx="507.5" cy="534" fill="#C2C2C2" rx="11" ry="11" style="stroke: #383838; stroke-width: 1.0;"/><path d="M510.2656,529.875 Q510.4219,529.6563 510.6094,529.5469 Q510.7969,529.4375 511.0156,529.4375 Q511.3906,529.4375 511.625,529.6953 Q511.8594,529.9531 511.8594,530.5625 L511.8594,532.0156 Q511.8594,532.625 511.625,532.8906 Q511.3906,533.1563 511.0156,533.1563 Q510.6719,533.1563 510.4688,532.9531 Q510.2656,532.7656 510.1563,532.25 Q510.1094,531.8906 509.9219,531.7031 Q509.5938,531.3281 508.9844,531.1094 Q508.375,530.8906 507.75,530.8906 Q506.9844,530.8906 506.3516,531.2188 Q505.7188,531.5469 505.2266,532.2969 Q504.7344,533.0469 504.7344,534.0781 L504.7344,535.1719 Q504.7344,536.4063 505.625,537.2266 Q506.5156,538.0469 508.1094,538.0469 Q509.0469,538.0469 509.7031,537.7969 Q510.0938,537.6406 510.5156,537.2031 Q510.7813,536.9375 510.9297,536.8594 Q511.0781,536.7813 511.2813,536.7813 Q511.6094,536.7813 511.8672,537.0391 Q512.125,537.2969 512.125,537.6406 Q512.125,537.9844 511.7813,538.3906 Q511.2813,538.9688 510.4844,539.2969 Q509.4063,539.75 508.1094,539.75 Q506.5938,539.75 505.3906,539.125 Q504.4063,538.625 503.7188,537.5547 Q503.0313,536.4844 503.0313,535.2031 L503.0313,534.0469 Q503.0313,532.7188 503.6484,531.5703 Q504.2656,530.4219 505.3594,529.8047 Q506.4531,529.1875 507.6875,529.1875 Q508.4219,529.1875 509.0703,529.3516 Q509.7188,529.5156 510.2656,529.875 Z "/><text fill="#000000" font-family="sans-serif" font-size="12" lengthAdjust="spacingAndGlyphs" textLength="85" x="521.5" y="538.9102">AnimationEvent</text><line style="stroke: #383838; stroke-width: 1.5;" x1="493.5" x2="608.5" y1="550" y2="550"/><text fill="#000000" font-family="sans-serif" font-size="11" lengthAdjust="spacingAndGlyphs" textLength="59" x="498.5" y="565.4189">name: string</text><text fill="#000000" font-family="sans-serif" font-size="11" lengthAdjust="spacingAndGlyphs" textLength="61" x="498.5" y="579.2549">time: number</text><line style="stroke: #383838; stroke-width: 1.5;" x1="493.5" x2="608.5" y1="585.6719" y2="585.6719"/><!--link Component to ComponentAnimator--><path d="M241.488,177 C306.57,177 404.643,177 472.673,177 " fill="none" id="Component-ComponentAnimator" style="stroke: #383838; stroke-width: 1.0;"/><polygon fill="none" points="241.184,184,221.184,177,241.184,170,241.184,184" style="stroke: #383838; stroke-width: 1.0;"/><!--link Mutable to Sequence--><path d="M495.203,416.227 C453.147,436.306 398.508,470.305 373,519.5 C334.948,592.888 329.143,635.426 373,705.5 C393.051,737.537 428.735,758.013 462.915,770.948 " fill="none" id="Mutable-Sequence" style="stroke: #383838; stroke-width: 1.0;"/><polygon fill="none" points="492.382,409.82,513.491,407.976,498.139,422.582,492.382,409.82" style="stroke: #383838; stroke-width: 1.0;"/><!--link Mutable to Key--><path d="M589.042,433.096 C608.258,453.507 632.037,478.965 653,502 C686.413,538.714 722.831,579.668 753.972,614.98 " fill="none" id="Mutable-Key" style="stroke: #383838; stroke-width: 1.0;"/><polygon fill="none" points="583.69,437.624,575.055,418.274,593.872,428.015,583.69,437.624" style="stroke: #383838; stroke-width: 1.0;"/><!--link Animation to ComponentAnimator--><path d="M263.442,517.978 C333.159,435.021 427.88,322.311 488.983,249.604 " fill="none" id="Animation-ComponentAnimator" style="stroke: #383838; stroke-width: 1.0;"/><text fill="#000000" font-family="sans-serif" font-size="13" lengthAdjust="spacingAndGlyphs" textLength="7" x="262.8635" y="507.038">n</text><text fill="#000000" font-family="sans-serif" font-size="13" lengthAdjust="spacingAndGlyphs" textLength="7" x="475.7384" y="270.8055">1</text><!--link Animation to Sequence--><path d="M283.158,673.64 C340.359,699.012 409.36,729.618 462.865,753.35 " fill="none" id="Animation-Sequence" style="stroke: #383838; stroke-width: 1.0;"/><text fill="#000000" font-family="sans-serif" font-size="13" lengthAdjust="spacingAndGlyphs" textLength="36" x="355" y="684.4951">stores</text><text fill="#000000" font-family="sans-serif" font-size="13" lengthAdjust="spacingAndGlyphs" textLength="7" x="447.9901" y="764.2115">n</text><!--link Animation to Mutable--><path d="M283.158,557.72 C353.132,514.787 440.764,461.021 496.085,427.079 " fill="none" id="Animation-Mutable" style="stroke: #383838; stroke-width: 1.0;"/><polygon fill="none" points="492.484,421.076,513.192,416.583,499.805,433.009,492.484,421.076" style="stroke: #383838; stroke-width: 1.0;"/><!--link Sequence to Key--><path d="M639.13,764.206 C675.904,752.475 718.357,738.933 753.967,727.573 " fill="none" id="Sequence-Key" style="stroke: #383838; stroke-width: 1.0;"/><text fill="#000000" font-family="sans-serif" font-size="13" lengthAdjust="spacingAndGlyphs" textLength="53" x="670" y="735.4951">manages</text><text fill="#000000" font-family="sans-serif" font-size="13" lengthAdjust="spacingAndGlyphs" textLength="7" x="738.9411" y="744.2903">n</text><!--link Key to Function--><path d="M910.117,703 C929.708,703 950.893,703 970.94,703 " fill="none" id="Key-Function" style="stroke: #383838; stroke-width: 1.0;"/><text fill="#000000" font-family="sans-serif" font-size="13" lengthAdjust="spacingAndGlyphs" textLength="7" x="917.8961" y="717.2729">2</text><text fill="#000000" font-family="sans-serif" font-size="13" lengthAdjust="spacingAndGlyphs" textLength="7" x="956.0716" y="717.1823">2</text><!--link Animation to AnimationEvent--><path d="M283.158,604.903 C351.539,592.371 436.783,576.749 492.257,566.582 " fill="none" id="Animation-AnimationEvent" style="stroke: #383838; stroke-width: 1.0;"/><text fill="#000000" font-family="sans-serif" font-size="13" lengthAdjust="spacingAndGlyphs" textLength="118" x="314" y="574.4951">stores and executes</text><text fill="#000000" font-family="sans-serif" font-size="13" lengthAdjust="spacingAndGlyphs" textLength="7" x="477.6711" y="582.3832">n</text><!--link Animation to Label--><path d="M283.158,637.233 C361.308,645.951 461.482,657.125 514.073,662.992 " fill="none" id="Animation-Label" style="stroke: #383838; stroke-width: 1.0;"/><text fill="#000000" font-family="sans-serif" font-size="13" lengthAdjust="spacingAndGlyphs" textLength="36" x="355" y="637.4951">stores</text><text fill="#000000" font-family="sans-serif" font-size="13" lengthAdjust="spacingAndGlyphs" textLength="7" x="499.6193" y="677.2858">n</text><!--link PLAYMODE to Animation--><path d="M172.5,767.354 C172.5,755.583 172.5,743.813 172.5,732.043 " fill="none" id="PLAYMODE-Animation" style="stroke: #383838; stroke-width: 1.0;"/><!--
@startuml Animation Editor Class Diagram
skinparam monochrome true
skinparam componentStyle uml2
skinparam classAttributeIconSize 0
skinparam shadowing false
skinparam handwritten false


left to right direction
package FUDGE <<Rectangle>> {
	package Transfer {
		package Mutable <<Rectangle>>{
			class Mutable {

			}
		}
	}
	package Components <<Rectangle>> {
		abstract Component {

		}
		class ComponentAnimator extends Component{
			+ speed: number;
			+ currentAnimation: Animation
			+ nextAnimation: Animation
			+ syncChildrenSpeed: boolean
			- parentSpeed: number
			# setTime(time: number)
			+ play(name: string)
		}
	}



	package Animation <<Rectangle>> {

		class Animation {
			+ name: string
			+ animatedObject: MutatorForAnimation
			+ sequences: {[property: string]: Sequence}
			+ startTime: number
			+ totaltime: number
			+ events: Event[]
			+ labels: Label[]
			+ playMode: PLAYMODE
			+ fps: number
			+ sps: number		
			+ update()
			- checkEvents()
		}

		class Sequence extends Mutable {
			+ keys: Key[]
			+ evaluate(_time: number): number
			+ addKey(_key:Key)
			+ removeKey(_key:Key)
		}

		class Key extends Mutable {
			+ time: number
			+ value: number
			- slopeIn: number
			- slopeOut: number
			+ functionIn: Function
			+ functionOut: Function
			- broken: boolean
			+ path2d: Path2D
			+ setSlopeIn(_slope:number)
			+ setSlopeOut(_slope:number)
			+ generatePath2D()
			{static} + sort(a: Key, b: Key)
		}

		class Function {
			- a: number
			- b: number
			- c: number
			- d: number
			- keyOut: Key
			- keyIn: Key
			+ evaluate(_time: number): number
			- calculate()
			- setKeyIn(_key)
			- setKeyOut(_key)
		}

		enum PLAYMODE{
			INHERIT
			LOOP
			PINGPONG
			PLAYONCE
			PLAYONCESTOPAFTER
			REVERSELOOP
			STOP
		}

		class Label {
			time: number
			name: string
		}

		class AnimationEvent {
			name: string
			time: number
		}

		ComponentAnimator "1" -up- "n" Animation
		Animation - - "n" Sequence : stores
		Animation - -|> Mutable
		Sequence - - "n" Key : manages
		Key "2" - - "2" Function
		Animation - - "n" AnimationEvent : stores and executes
		Animation - - "n" Label : stores
		Animation -left- PLAYMODE
	}

			

		
		 
		
		
}
@enduml

PlantUML version 1.2019.05(Sat Apr 20 18:45:36 CEST 2019)
(GPL source distribution)
Java Runtime: Java(TM) SE Runtime Environment
JVM: Java HotSpot(TM) 64-Bit Server VM
Java Version: 1.8.0_181-b13
Operating System: Windows 10
OS Version: 10.0
Default Encoding: Cp1252
Language: de
Country: DE
--></g></svg>