<?xml version="1.0" encoding="UTF-8" standalone="no"?><svg xmlns="http://www.w3.org/2000/svg" xmlns:xlink="http://www.w3.org/1999/xlink" contentScriptType="application/ecmascript" contentStyleType="text/css" height="1076px" preserveAspectRatio="none" style="width:232px;height:1076px;" version="1.1" viewBox="0 0 232 1076" width="232px" zoomAndPan="magnify"><defs><filter height="300%" id="f1kqgisuqhigam" width="300%" x="-1" y="-1"><feGaussianBlur result="blurOut" stdDeviation="2.0"/><feColorMatrix in="blurOut" result="blurOut2" type="matrix" values="0 0 0 0 0 0 0 0 0 0 0 0 0 0 0 0 0 0 .4 0"/><feOffset dx="4.0" dy="4.0" in="blurOut2" result="blurOut3"/><feBlend in="SourceGraphic" in2="blurOut3" mode="normal"/></filter></defs><g><text fill="#000000" font-family="sans-serif" font-size="18" lengthAdjust="spacingAndGlyphs" textLength="31" x="99.5" y="28.6855">Key</text><rect fill="#FFFFFF" filter="url(#f1kqgisuqhigam)" height="229.8906" style="stroke: #000000; stroke-width: 2.0;" width="153" x="39" y="33.2168"/><path d="M115,34.2168 L115,43.8262 L105,53.8262 L39,53.8262 " fill="none" style="stroke: #000000; stroke-width: 2.0;"/><text fill="#000000" font-family="sans-serif" font-size="14" lengthAdjust="spacingAndGlyphs" textLength="66" x="42" y="48.75">setSlopeIn</text><rect fill="#F8F8F8" filter="url(#f1kqgisuqhigam)" height="35.0938" rx="12.5" ry="12.5" style="stroke: #383838; stroke-width: 1.5;" width="110" x="60.5" y="63.8262"/><text fill="#000000" font-family="sans-serif" font-size="12" lengthAdjust="spacingAndGlyphs" textLength="90" x="70.5" y="86.2832">_slope: number]</text><rect fill="#F8F8F8" filter="url(#f1kqgisuqhigam)" height="35.0938" rx="12.5" ry="12.5" style="stroke: #383838; stroke-width: 1.5;" width="112" x="59.5" y="118.9199"/><text fill="#000000" font-family="sans-serif" font-size="12" lengthAdjust="spacingAndGlyphs" textLength="92" x="69.5" y="141.377">slopeIn = _slope</text><rect fill="#F8F8F8" filter="url(#f1kqgisuqhigam)" height="35.0938" rx="12.5" ry="12.5" style="stroke: #383838; stroke-width: 1.5;" width="133" x="49" y="174.0137"/><text fill="#000000" font-family="sans-serif" font-size="12" lengthAdjust="spacingAndGlyphs" textLength="113" x="59" y="196.4707">functionIn.calculate()</text><ellipse cx="115.5" cy="240.1074" fill="#FFFFFF" filter="url(#f1kqgisuqhigam)" rx="11" ry="11" style="stroke: #000000; stroke-width: 1.0;"/><ellipse cx="115.5" cy="240.1074" fill="#000000" rx="6" ry="6" style="stroke: #7F7F7F; stroke-width: 1.0;"/><rect fill="#FFFFFF" filter="url(#f1kqgisuqhigam)" height="229.8906" style="stroke: #000000; stroke-width: 2.0;" width="162" x="34.5" y="273.6836"/><path d="M122.5,274.6836 L122.5,284.293 L112.5,294.293 L34.5,294.293 " fill="none" style="stroke: #000000; stroke-width: 2.0;"/><text fill="#000000" font-family="sans-serif" font-size="14" lengthAdjust="spacingAndGlyphs" textLength="78" x="37.5" y="289.2168">setSlopeOut</text><rect fill="#F8F8F8" filter="url(#f1kqgisuqhigam)" height="35.0938" rx="12.5" ry="12.5" style="stroke: #383838; stroke-width: 1.5;" width="110" x="60.5" y="304.293"/><text fill="#000000" font-family="sans-serif" font-size="12" lengthAdjust="spacingAndGlyphs" textLength="90" x="70.5" y="326.75">_slope: number]</text><rect fill="#F8F8F8" filter="url(#f1kqgisuqhigam)" height="35.0938" rx="12.5" ry="12.5" style="stroke: #383838; stroke-width: 1.5;" width="121" x="55" y="359.3867"/><text fill="#000000" font-family="sans-serif" font-size="12" lengthAdjust="spacingAndGlyphs" textLength="101" x="65" y="381.8438">slopeOut = _slope</text><rect fill="#F8F8F8" filter="url(#f1kqgisuqhigam)" height="35.0938" rx="12.5" ry="12.5" style="stroke: #383838; stroke-width: 1.5;" width="142" x="44.5" y="414.4805"/><text fill="#000000" font-family="sans-serif" font-size="12" lengthAdjust="spacingAndGlyphs" textLength="122" x="54.5" y="436.9375">functionOut.calculate()</text><ellipse cx="115.5" cy="480.5742" fill="#FFFFFF" filter="url(#f1kqgisuqhigam)" rx="11" ry="11" style="stroke: #000000; stroke-width: 1.0;"/><ellipse cx="115.5" cy="480.5742" fill="#000000" rx="6" ry="6" style="stroke: #7F7F7F; stroke-width: 1.0;"/><rect fill="#FFFFFF" filter="url(#f1kqgisuqhigam)" height="147.8906" style="stroke: #000000; stroke-width: 2.0;" width="118" x="56.5" y="514.1504"/><path d="M90.5,515.1504 L90.5,524.7598 L80.5,534.7598 L56.5,534.7598 " fill="none" style="stroke: #000000; stroke-width: 2.0;"/><text fill="#000000" font-family="sans-serif" font-size="14" lengthAdjust="spacingAndGlyphs" textLength="24" x="59.5" y="529.6836">sort</text><rect fill="#F8F8F8" filter="url(#f1kqgisuqhigam)" height="50.1875" style="stroke: #383838; stroke-width: 1.5;" width="53" x="89" y="544.7598"/><text fill="#000000" font-family="sans-serif" font-size="12" lengthAdjust="spacingAndGlyphs" textLength="33" x="99" y="567.2168">a: Key</text><text fill="#000000" font-family="sans-serif" font-size="12" lengthAdjust="spacingAndGlyphs" textLength="33" x="99" y="582.3105">b: Key</text><rect fill="#F8F8F8" filter="url(#f1kqgisuqhigam)" height="35.0938" style="stroke: #383838; stroke-width: 1.5;" width="98" x="66.5" y="614.9473"/><text fill="#000000" font-family="sans-serif" font-size="12" lengthAdjust="spacingAndGlyphs" textLength="78" x="76.5" y="637.4043">a.time - b.time</text><rect fill="#FFFFFF" filter="url(#f1kqgisuqhigam)" height="392.9961" style="stroke: #000000; stroke-width: 2.0;" width="211" x="10" y="672.6172"/><path d="M124,673.6172 L124,683.2266 L114,693.2266 L10,693.2266 " fill="none" style="stroke: #000000; stroke-width: 2.0;"/><text fill="#000000" font-family="sans-serif" font-size="14" lengthAdjust="spacingAndGlyphs" textLength="104" x="13" y="688.1504">generatePath2D</text><rect fill="#F8F8F8" filter="url(#f1kqgisuqhigam)" height="35.0938" style="stroke: #383838; stroke-width: 1.5;" width="119" x="56" y="703.2266"/><text fill="#000000" font-family="sans-serif" font-size="12" lengthAdjust="spacingAndGlyphs" textLength="99" x="66" y="725.6836">_y: number = NaN</text><rect fill="#F8F8F8" filter="url(#f1kqgisuqhigam)" height="35.0938" rx="12.5" ry="12.5" style="stroke: #383838; stroke-width: 1.5;" width="74" x="78.5" y="807.2383"/><text fill="#000000" font-family="sans-serif" font-size="12" lengthAdjust="spacingAndGlyphs" textLength="54" x="88.5" y="829.6953">_y = value</text><polygon fill="#F8F8F8" filter="url(#f1kqgisuqhigam)" points="115.5,758.3203,115.5,758.3203,127.5,770.3203,115.5,782.3203,115.5,782.3203,103.5,770.3203,115.5,758.3203" style="stroke: #383838; stroke-width: 1.5;"/><text fill="#000000" font-family="sans-serif" font-size="11" lengthAdjust="spacingAndGlyphs" textLength="20" x="119.5" y="793.7393">[!_y]</text><polygon fill="#F8F8F8" filter="url(#f1kqgisuqhigam)" points="115.5,862.332,127.5,874.332,115.5,886.332,103.5,874.332,115.5,862.332" style="stroke: #383838; stroke-width: 1.5;"/><rect fill="#F8F8F8" filter="url(#f1kqgisuqhigam)" height="35.0938" rx="12.5" ry="12.5" style="stroke: #383838; stroke-width: 1.5;" width="146" x="42.5" y="906.332"/><text fill="#000000" font-family="sans-serif" font-size="12" lengthAdjust="spacingAndGlyphs" textLength="126" x="52.5" y="928.7891">path2d = new Path2D()</text><rect fill="#F8F8F8" filter="url(#f1kqgisuqhigam)" height="50.1875" rx="12.5" ry="12.5" style="stroke: #383838; stroke-width: 1.5;" width="191" x="20" y="961.4258"/><text fill="#000000" font-family="sans-serif" font-size="12" lengthAdjust="spacingAndGlyphs" textLength="171" x="30" y="983.8828">draw diamond shape in path2d</text><text fill="#000000" font-family="sans-serif" font-size="12" lengthAdjust="spacingAndGlyphs" textLength="106" x="30" y="998.9766">at x = time and y=_y</text><ellipse cx="115.5" cy="1042.6133" fill="#FFFFFF" filter="url(#f1kqgisuqhigam)" rx="11" ry="11" style="stroke: #000000; stroke-width: 1.0;"/><ellipse cx="115.5" cy="1042.6133" fill="#000000" rx="6" ry="6" style="stroke: #7F7F7F; stroke-width: 1.0;"/><line style="stroke: #383838; stroke-width: 1.5;" x1="115.5" x2="115.5" y1="98.9199" y2="118.9199"/><polygon fill="#383838" points="111.5,108.9199,115.5,118.9199,119.5,108.9199,115.5,112.9199" style="stroke: #383838; stroke-width: 1.0;"/><line style="stroke: #383838; stroke-width: 1.5;" x1="115.5" x2="115.5" y1="154.0137" y2="174.0137"/><polygon fill="#383838" points="111.5,164.0137,115.5,174.0137,119.5,164.0137,115.5,168.0137" style="stroke: #383838; stroke-width: 1.0;"/><line style="stroke: #383838; stroke-width: 1.5;" x1="115.5" x2="115.5" y1="209.1074" y2="229.1074"/><polygon fill="#383838" points="111.5,219.1074,115.5,229.1074,119.5,219.1074,115.5,223.1074" style="stroke: #383838; stroke-width: 1.0;"/><line style="stroke: #383838; stroke-width: 1.5;" x1="115.5" x2="115.5" y1="339.3867" y2="359.3867"/><polygon fill="#383838" points="111.5,349.3867,115.5,359.3867,119.5,349.3867,115.5,353.3867" style="stroke: #383838; stroke-width: 1.0;"/><line style="stroke: #383838; stroke-width: 1.5;" x1="115.5" x2="115.5" y1="394.4805" y2="414.4805"/><polygon fill="#383838" points="111.5,404.4805,115.5,414.4805,119.5,404.4805,115.5,408.4805" style="stroke: #383838; stroke-width: 1.0;"/><line style="stroke: #383838; stroke-width: 1.5;" x1="115.5" x2="115.5" y1="449.5742" y2="469.5742"/><polygon fill="#383838" points="111.5,459.5742,115.5,469.5742,119.5,459.5742,115.5,463.5742" style="stroke: #383838; stroke-width: 1.0;"/><line style="stroke: #383838; stroke-width: 1.5;" x1="115.5" x2="115.5" y1="594.9473" y2="614.9473"/><polygon fill="#383838" points="111.5,604.9473,115.5,614.9473,119.5,604.9473,115.5,608.9473" style="stroke: #383838; stroke-width: 1.0;"/><line style="stroke: #383838; stroke-width: 1.5;" x1="115.5" x2="115.5" y1="782.3203" y2="807.2383"/><polygon fill="#383838" points="111.5,797.2383,115.5,807.2383,119.5,797.2383,115.5,801.2383" style="stroke: #383838; stroke-width: 1.0;"/><line style="stroke: #383838; stroke-width: 1.5;" x1="127.5" x2="162.5" y1="770.3203" y2="770.3203"/><polygon fill="#383838" points="158.5,814.7852,162.5,824.7852,166.5,814.7852,162.5,818.7852" style="stroke: #383838; stroke-width: 1.5;"/><line style="stroke: #383838; stroke-width: 1.5;" x1="162.5" x2="162.5" y1="770.3203" y2="874.332"/><line style="stroke: #383838; stroke-width: 1.5;" x1="162.5" x2="127.5" y1="874.332" y2="874.332"/><polygon fill="#383838" points="137.5,870.332,127.5,874.332,137.5,878.332,133.5,874.332" style="stroke: #383838; stroke-width: 1.0;"/><line style="stroke: #383838; stroke-width: 1.5;" x1="115.5" x2="115.5" y1="842.332" y2="862.332"/><polygon fill="#383838" points="111.5,852.332,115.5,862.332,119.5,852.332,115.5,856.332" style="stroke: #383838; stroke-width: 1.0;"/><line style="stroke: #383838; stroke-width: 1.5;" x1="115.5" x2="115.5" y1="738.3203" y2="758.3203"/><polygon fill="#383838" points="111.5,748.3203,115.5,758.3203,119.5,748.3203,115.5,752.3203" style="stroke: #383838; stroke-width: 1.0;"/><line style="stroke: #383838; stroke-width: 1.5;" x1="115.5" x2="115.5" y1="886.332" y2="906.332"/><polygon fill="#383838" points="111.5,896.332,115.5,906.332,119.5,896.332,115.5,900.332" style="stroke: #383838; stroke-width: 1.0;"/><line style="stroke: #383838; stroke-width: 1.5;" x1="115.5" x2="115.5" y1="941.4258" y2="961.4258"/><polygon fill="#383838" points="111.5,951.4258,115.5,961.4258,119.5,951.4258,115.5,955.4258" style="stroke: #383838; stroke-width: 1.0;"/><line style="stroke: #383838; stroke-width: 1.5;" x1="115.5" x2="115.5" y1="1011.6133" y2="1031.6133"/><polygon fill="#383838" points="111.5,1021.6133,115.5,1031.6133,119.5,1021.6133,115.5,1025.6133" style="stroke: #383838; stroke-width: 1.0;"/><!--
@startuml Key
skinparam monochrome true

title Key

partition setSlopeIn {
	:_slope: number];
	:slopeIn = _slope;
	:functionIn.calculate();
	stop
}

partition setSlopeOut {
	:_slope: number];
	:slopeOut = _slope;
	:functionOut.calculate();
	stop
}

partition sort {
	:a: Key
	b: Key]
	:a.time - b.time]
	detach
}

partition generatePath2D {
	:_y: number = NaN]
	if() then ([!_y])
		:_y = value;
	endif
	:path2d = new Path2D();
	:draw diamond shape in path2d
	at x = time and y=_y;
	stop
}

@enduml

PlantUML version 1.2019.05(Sat Apr 20 18:45:36 CEST 2019)
(GPL source distribution)
Java Runtime: Java(TM) SE Runtime Environment
JVM: Java HotSpot(TM) 64-Bit Server VM
Java Version: 1.8.0_181-b13
Operating System: Windows 10
OS Version: 10.0
Default Encoding: Cp1252
Language: de
Country: DE
--></g></svg>