<?xml version="1.0" encoding="utf-8"?>
<!-- Generator: Adobe Illustrator 16.0.0, SVG Export Plug-In . SVG Version: 6.00 Build 0)  -->
<!DOCTYPE svg PUBLIC "-//W3C//DTD SVG 1.1//EN" "http://www.w3.org/Graphics/SVG/1.1/DTD/svg11.dtd">
<svg version="1.1" id="Ebene_1" xmlns="http://www.w3.org/2000/svg" xmlns:xlink="http://www.w3.org/1999/xlink" x="0px" y="0px"
	 width="220.08px" height="220.08px" viewBox="0 0 220.08 220.08" enable-background="new 0 0 220.08 220.08" xml:space="preserve">
<g>
	
		<image overflow="visible" opacity="0.75" width="202" height="232" xlink:href="CB2DCFF5.png"  transform="matrix(1 0 0 1 2.541 -4.96)">
	</image>
	<g>
		<path d="M49.041,190.373c-0.081-0.487-19.268-27.2-19.354-27.691c-5.421-30.87-20.851-68.884-17.913-71.544
			c2.984-2.702,31.612,3.458,33.14,23.074c0.928,11.901,5.542,26.189,7.433,29.75c0.604-4.199-1.287-127.985-0.124-130.62
			c1.162-2.634,3.704-10.261,8.694-10.261c4.989,0,9.027,6.845,9.535,9.926c6.475,39.361,4.585,89.813,9.126,90.714
			c2.155,0.427,5.028-69.817,10.254-79.621c1.14-2.138,1.414-5.012,4.289-5.012c3.712,0,4.409-0.413,7.912,3.87
			c7.5,15.704,11.42,89.368,11.42,89.368s7.893-57.461,13.441-70.572c2.59-3.806,5.795-4.805,7.479-4.805
			c1.682,0,5.291,2.317,8.676,5.812c5.238,39.872-0.664,72.571,4.143,71.925s4.932-6.95,15.156-38.027
			c10.779-37.711,18.279-20.58,19.473-13.916c1.762,9.837-6.035,64.186-6.035,64.186l-2.883,15.559c0,0-1.479,26.688-2.723,33.295
			c-0.93,4.946-0.467,11.574-0.176,14.594c0.098,1.014,0.176,13.996,0.176,13.996H51.541"/>
	</g>
</g>
</svg>
