<?xml version="1.0" encoding="utf-8"?>
<!-- Generator: Adobe Illustrator 16.0.0, SVG Export Plug-In . SVG Version: 6.00 Build 0)  -->
<!DOCTYPE svg PUBLIC "-//W3C//DTD SVG 1.1//EN" "http://www.w3.org/Graphics/SVG/1.1/DTD/svg11.dtd">
<svg version="1.1" id="Ebene_1" xmlns="http://www.w3.org/2000/svg" xmlns:xlink="http://www.w3.org/1999/xlink" x="0px" y="0px"
	 width="353.928px" height="251.73px" viewBox="-50.734 0 353.928 251.73" enable-background="new -50.734 0 353.928 251.73"
	 xml:space="preserve">
<g>
	<g>
		<polygon points="207.228,127.905 171.922,107.552 171.922,118.087 137.359,118.087 137.359,83.893 147.895,83.893 127.537,48.587 
			107.183,83.893 117.719,83.893 117.719,118.087 82.522,118.087 82.522,107.552 47.216,127.909 82.522,148.263 82.522,137.727 
			117.719,137.727 117.719,172.657 107.183,172.657 127.541,207.962 147.895,172.657 137.359,172.657 137.359,137.727 
			171.922,137.727 171.922,148.263 		"/>
		<polygon fill="none" stroke="#000000" stroke-width="2" stroke-miterlimit="10" points="207.228,127.905 171.922,107.552 
			171.922,118.087 137.359,118.087 137.359,83.893 147.895,83.893 127.537,48.587 107.183,83.893 117.719,83.893 117.719,118.087 
			82.522,118.087 82.522,107.552 47.216,127.909 82.522,148.263 82.522,137.727 117.719,137.727 117.719,172.657 107.183,172.657 
			127.541,207.962 147.895,172.657 137.359,172.657 137.359,137.727 171.922,137.727 171.922,148.263 		"/>
	</g>
</g>
<g>
	<g>
		<g>
			<g>
				<path d="M135.888,39.415c17.855,1.548,33.784,7.725,45.963,16.73l-22.6,17.778L232.179,91.5l-0.788-65.521l-21.566,15.189
					c-18.207-14.982-43.197-25.329-71.476-27.779C77.693,8.133,24.991,41.134,20.646,87.094l34.347,2.979
					C57.974,58.531,94.264,35.807,135.888,39.415z"/>
				<path fill="none" stroke="#000000" stroke-width="2" stroke-miterlimit="10" d="M135.888,39.415
					c17.855,1.548,33.784,7.725,45.963,16.73l-22.6,17.778L232.179,91.5l-0.788-65.521l-21.566,15.189
					c-18.207-14.982-43.197-25.329-71.476-27.779C77.693,8.133,24.991,41.134,20.646,87.094l34.347,2.979
					C57.974,58.531,94.264,35.807,135.888,39.415z"/>
			</g>
			<g>
				<path d="M198.169,162.275c-2.98,31.539-39.271,54.263-80.896,50.655c-17.856-1.552-33.787-7.726-45.963-16.729l22.599-17.781
					l-72.928-17.571l0.789,65.521l21.564-15.192c18.208,14.983,43.197,25.329,71.478,27.783
					c60.653,5.254,113.355-27.745,117.704-73.706L198.169,162.275z"/>
				<path fill="none" stroke="#000000" stroke-width="2" stroke-miterlimit="10" d="M198.169,162.275
					c-2.98,31.539-39.271,54.263-80.896,50.655c-17.856-1.552-33.787-7.726-45.963-16.729l22.599-17.781l-72.928-17.571
					l0.789,65.521l21.564-15.192c18.208,14.983,43.197,25.329,71.478,27.783c60.653,5.254,113.355-27.745,117.704-73.706
					L198.169,162.275z"/>
			</g>
		</g>
	</g>
</g>
<polyline fill="none" stroke="#000000" stroke-width="10" stroke-miterlimit="10" points="14.618,5.245 -45.734,5.25 
	-45.734,65.115 "/>
<polyline fill="none" stroke="#000000" stroke-width="10" stroke-miterlimit="10" points="14.618,248.73 -45.734,248.725 
	-45.734,188.86 "/>
<line fill="none" stroke="#000000" stroke-width="10" stroke-miterlimit="10" x1="-45.734" y1="5.245" x2="14.618" y2="5.25"/>
<polyline fill="none" stroke="#000000" stroke-width="10" stroke-miterlimit="10" points="237.843,5.245 298.194,5.25 
	298.194,65.115 "/>
<line fill="none" stroke="#000000" stroke-width="10" stroke-miterlimit="10" x1="298.194" y1="5.245" x2="237.843" y2="5.25"/>
<polygon stroke="#000000" stroke-width="10" stroke-miterlimit="10" points="237.843,247.492 298.194,247.487 298.194,187.622 "/>
</svg>
