<?xml version="1.0" encoding="utf-8"?>
<!-- Generator: Adobe Illustrator 16.0.0, SVG Export Plug-In . SVG Version: 6.00 Build 0)  -->
<!DOCTYPE svg PUBLIC "-//W3C//DTD SVG 1.1//EN" "http://www.w3.org/Graphics/SVG/1.1/DTD/svg11.dtd">
<svg version="1.1" id="Ebene_1" xmlns="http://www.w3.org/2000/svg" xmlns:xlink="http://www.w3.org/1999/xlink" x="0px" y="0px"
	 width="252.736px" height="251.73px" viewBox="0 0 252.736 251.73" enable-background="new 0 0 252.736 251.73"
	 xml:space="preserve">
<g>
	
		<image overflow="visible" opacity="0.75" enable-background="new    " width="267" height="267" xlink:href="D35A50A7.png"  transform="matrix(1 0 0 1 -0.1321 -0.635)">
	</image>
</g>
<g>
	
		<image overflow="visible" opacity="0.75" enable-background="new    " width="47" height="47" xlink:href="D35A50A5.png"  transform="matrix(1 0 0 1 -7.1321 -7.635)">
	</image>
</g>
<g>
	
		<image overflow="visible" opacity="0.75" enable-background="new    " width="47" height="47" xlink:href="D35A50AB.png"  transform="matrix(1 0 0 1 226.8679 -7.635)">
	</image>
</g>
<g>
	
		<image overflow="visible" opacity="0.75" enable-background="new    " width="47" height="47" xlink:href="D35A50AD.png"  transform="matrix(1 0 0 1 226.8679 226.365)">
	</image>
</g>
<g>
	
		<image overflow="visible" opacity="0.75" enable-background="new    " width="47" height="47" xlink:href="D35A50AF.png"  transform="matrix(1 0 0 1 -7.1321 226.365)">
	</image>
</g>
<g>
	
		<image overflow="visible" opacity="0.75" enable-background="new    " width="195" height="194" xlink:href="D35A50AC.png"  transform="matrix(1 0 0 1 36.8679 38.365)">
	</image>
</g>
<g>
	
		<image overflow="visible" opacity="0.75" enable-background="new    " width="245" height="260" xlink:href="D35A50A4.png"  transform="matrix(1 0 0 1 10.8679 3.365)">
	</image>
	
		<image overflow="visible" width="1044" height="1044" xlink:href="D35A50A6.png"  transform="matrix(0.24 0 0 0.24 1.2156 0.9226)">
	</image>
</g>
</svg>
