<?xml version="1.0" encoding="utf-8"?>
<!-- Generator: Adobe Illustrator 16.0.0, SVG Export Plug-In . SVG Version: 6.00 Build 0)  -->
<!DOCTYPE svg PUBLIC "-//W3C//DTD SVG 1.1//EN" "http://www.w3.org/Graphics/SVG/1.1/DTD/svg11.dtd">
<svg version="1.1" id="Ebene_1" xmlns="http://www.w3.org/2000/svg" xmlns:xlink="http://www.w3.org/1999/xlink" x="0px" y="0px"
	 width="252.737px" height="251.73px" viewBox="0 0 252.737 251.73" enable-background="new 0 0 252.737 251.73"
	 xml:space="preserve">
<g id="Pfeil_26">
	<rect x="140.869" y="93.133" display="none" fill="none" width="111.868" height="64.303"/>
	<g>
		<polygon fill="#1D1D1B" points="140.869,140.794 196.972,140.794 196.972,157.436 252.737,125.282 196.972,93.133 
			196.972,109.775 140.869,109.775 		"/>
	</g>
</g>
<g id="Pfeil_26_3_">
	<rect y="93.133" fill="none" width="111.869" height="64.303"/>
	<g>
		<polygon fill="#1D1D1B" points="142.093,109.775 55.766,109.775 55.766,93.133 0,125.287 55.766,157.436 55.766,140.794 
			142.093,140.794 		"/>
	</g>
</g>
<g id="Pfeil_26_2_">
	<rect x="94.717" fill="none" width="64.303" height="111.869"/>
	<g>
		<polygon fill="#1D1D1B" points="142.378,111.869 142.378,55.766 159.02,55.766 126.866,0 94.717,55.766 111.359,55.766 
			111.359,111.869 		"/>
	</g>
</g>
<g id="Pfeil_26_1_">
	<rect x="94.717" y="139.862" fill="none" width="64.303" height="111.868"/>
	<g>
		<polygon fill="#1D1D1B" points="111.359,139.862 111.359,195.966 94.717,195.966 126.871,251.73 159.02,195.966 142.378,195.966 
			142.378,139.862 		"/>
	</g>
</g>
<circle display="none" fill="none" stroke="#1D1D1B" stroke-miterlimit="10" cx="126.426" cy="126.134" r="126"/>
</svg>
