<?xml version="1.0" encoding="utf-8"?>
<!-- Generator: Adobe Illustrator 16.0.0, SVG Export Plug-In . SVG Version: 6.00 Build 0)  -->
<!DOCTYPE svg PUBLIC "-//W3C//DTD SVG 1.1//EN" "http://www.w3.org/Graphics/SVG/1.1/DTD/svg11.dtd">
<svg version="1.1" id="Ebene_1" xmlns="http://www.w3.org/2000/svg" xmlns:xlink="http://www.w3.org/1999/xlink" x="0px" y="0px"
	 width="252.736px" height="251.73px" viewBox="0 0 252.736 251.73" enable-background="new 0 0 252.736 251.73"
	 xml:space="preserve">
<g>
	
		<image overflow="visible" opacity="0.75" enable-background="new    " width="267" height="267" xlink:href="118396F.png"  transform="matrix(1 0 0 1 -0.1321 -0.635)">
	</image>
	<g>
		<g>
			<path fill="#FFFFFF" d="M244.426,244.134h-236v-236h236V244.134z M10.426,242.134h232v-232h-232V242.134z"/>
		</g>
	</g>
</g>
<g>
	
		<image overflow="visible" opacity="0.75" enable-background="new    " width="47" height="47" xlink:href="118396D.png"  transform="matrix(1 0 0 1 -7.1321 -7.635)">
	</image>
	<g>
		<g>
			<circle cx="9.427" cy="9.133" r="7.21"/>
		</g>
		<g>
			<path fill="#FFFFFF" d="M9.427,17.343c-4.527,0-8.21-3.683-8.21-8.21s3.683-8.21,8.21-8.21c4.527,0,8.211,3.683,8.211,8.21
				S13.954,17.343,9.427,17.343z M9.427,2.923c-3.424,0-6.21,2.786-6.21,6.21s2.786,6.21,6.21,6.21c3.425,0,6.211-2.786,6.211-6.21
				S12.851,2.923,9.427,2.923z"/>
		</g>
	</g>
</g>
<g>
	
		<image overflow="visible" opacity="0.75" enable-background="new    " width="47" height="47" xlink:href="1183973.png"  transform="matrix(1 0 0 1 226.8679 -7.635)">
	</image>
	<g>
		<g>
			<circle cx="243.427" cy="9.133" r="7.21"/>
		</g>
		<g>
			<path fill="#FFFFFF" d="M243.427,17.343c-4.527,0-8.21-3.683-8.21-8.21s3.683-8.21,8.21-8.21s8.211,3.683,8.211,8.21
				S247.954,17.343,243.427,17.343z M243.427,2.923c-3.424,0-6.21,2.786-6.21,6.21s2.786,6.21,6.21,6.21
				c3.425,0,6.211-2.786,6.211-6.21S246.851,2.923,243.427,2.923z"/>
		</g>
	</g>
</g>
<g>
	
		<image overflow="visible" opacity="0.75" enable-background="new    " width="47" height="47" xlink:href="1183975.png"  transform="matrix(1 0 0 1 226.8679 226.365)">
	</image>
	<g>
		<g>
			<circle cx="243.426" cy="243.134" r="7.21"/>
		</g>
		<g>
			<path fill="#FFFFFF" d="M243.426,251.344c-4.527,0-8.21-3.683-8.21-8.21s3.683-8.21,8.21-8.21s8.21,3.683,8.21,8.21
				S247.953,251.344,243.426,251.344z M243.426,236.924c-3.424,0-6.21,2.786-6.21,6.21s2.786,6.21,6.21,6.21s6.21-2.786,6.21-6.21
				S246.849,236.924,243.426,236.924z"/>
		</g>
	</g>
</g>
<g>
	
		<image overflow="visible" opacity="0.75" enable-background="new    " width="47" height="47" xlink:href="1183977.png"  transform="matrix(1 0 0 1 -7.1321 226.365)">
	</image>
	<g>
		<g>
			<circle cx="9.426" cy="243.134" r="7.21"/>
		</g>
		<g>
			<path fill="#FFFFFF" d="M9.426,251.344c-4.527,0-8.21-3.683-8.21-8.21s3.683-8.21,8.21-8.21s8.21,3.683,8.21,8.21
				S13.952,251.344,9.426,251.344z M9.426,236.924c-3.424,0-6.21,2.786-6.21,6.21s2.786,6.21,6.21,6.21s6.21-2.786,6.21-6.21
				S12.85,236.924,9.426,236.924z"/>
		</g>
	</g>
</g>
<g>
	
		<image overflow="visible" opacity="0.75" enable-background="new    " width="195" height="194" xlink:href="1183974.png"  transform="matrix(1 0 0 1 36.8679 38.365)">
	</image>
	<g>
		<g>
			<polygon fill="#FFFFFF" points="207.228,127.905 171.922,107.552 171.922,118.087 137.359,118.087 137.359,83.893 
				147.895,83.893 127.537,48.587 107.183,83.893 117.719,83.893 117.719,118.087 82.522,118.087 82.522,107.552 47.216,127.909 
				82.522,148.263 82.522,137.727 117.719,137.727 117.719,172.657 107.183,172.657 127.541,207.962 147.895,172.657 
				137.359,172.657 137.359,137.727 171.922,137.727 171.922,148.263 			"/>
		</g>
		<g>
			<path d="M127.541,209.964l-22.088-38.307h11.266v-32.93H83.522v11.267l-38.309-22.085l38.309-22.088v11.266h33.196V84.893
				h-11.266l22.084-38.309l22.089,38.309h-11.267v32.193h32.563v-11.266l38.309,22.084l-38.309,22.09v-11.268h-32.563v32.93h11.267
				L127.541,209.964z M108.914,173.657l18.626,32.303l18.624-32.303h-9.806v-36.93h36.563v9.806l32.305-18.628l-32.305-18.623v9.804
				h-36.563V82.893h9.806l-18.628-32.305l-18.623,32.305h9.804v36.193H81.522v-9.804l-32.305,18.626l32.305,18.624v-9.806h37.196
				v36.93H108.914z"/>
		</g>
	</g>
</g>
<g>
	
		<image overflow="visible" opacity="0.75" enable-background="new    " width="245" height="260" xlink:href="118397C.png"  transform="matrix(1 0 0 1 10.8679 3.365)">
	</image>
	<g>
		<g>
			<g>
				<g>
					<path fill="#FFFFFF" d="M135.888,39.415c17.856,1.548,33.785,7.724,45.963,16.73l-22.599,17.779L232.179,91.5l-0.788-65.521
						l-21.566,15.19c-18.207-14.983-43.197-25.329-71.476-27.78C77.693,8.133,24.991,41.134,20.646,87.094l34.347,2.979
						C57.974,58.531,94.264,35.807,135.888,39.415z"/>
				</g>
				<g>
					<path d="M233.195,92.773l-76.182-18.359l23.181-18.237c-12.438-8.879-27.756-14.324-44.392-15.766
						c-2.854-0.247-5.742-0.373-8.584-0.373c-37.906,0-68.529,21.55-71.23,50.128l-0.093,0.988l-36.339-3.151l0.095-1.003
						c4.051-42.848,49.634-75.16,106.031-75.16c4.221,0,8.512,0.187,12.753,0.554c27.104,2.349,52.438,12.116,71.435,27.521
						l22.499-15.847L233.195,92.773z M161.492,73.435l69.672,16.791l-0.75-62.335l-20.636,14.535l-0.589-0.484
						c-18.75-15.431-43.939-25.217-70.926-27.556c-4.185-0.362-8.417-0.546-12.582-0.546c-54.917,0-99.371,31.029-103.938,72.346
						l32.357,2.806C57.5,59.874,88.71,38.038,127.219,38.038c2.899,0,5.845,0.128,8.756,0.38
						c17.482,1.515,33.552,7.367,46.472,16.922l1.054,0.78L161.492,73.435z"/>
				</g>
			</g>
			<g>
				<g>
					<path fill="#FFFFFF" d="M198.169,162.275c-2.981,31.539-39.271,54.263-80.896,50.655c-17.856-1.551-33.787-7.725-45.963-16.729
						l22.599-17.781l-72.928-17.572l0.789,65.521l21.565-15.192c18.208,14.983,43.197,25.329,71.477,27.783
						c60.654,5.254,113.356-27.745,117.704-73.706L198.169,162.275z"/>
				</g>
				<g>
					<path d="M127.484,240.509c-0.004,0-0.007,0-0.011,0c-4.223,0-8.511-0.187-12.748-0.554
						c-27.104-2.352-52.439-12.119-71.435-27.524l-22.498,15.849l-0.828-68.705l76.182,18.356l-23.18,18.239
						c12.433,8.875,27.751,14.319,44.392,15.765c2.854,0.247,5.74,0.373,8.578,0.373c0.002,0,0.004,0,0.006,0
						c37.906-0.003,68.529-21.553,71.23-50.126l0.093-0.988l36.341,3.15l-0.096,1.003
						C229.459,208.197,183.877,240.509,127.484,240.509z M43.383,209.919l0.588,0.484c18.75,15.43,43.94,25.218,70.928,27.56
						c4.179,0.361,8.41,0.546,12.575,0.546c54.918,0.004,99.375-31.026,103.944-72.348l-32.357-2.805
						c-3.398,29.113-34.608,50.948-73.117,50.951c-0.002,0-0.004,0-0.007,0c-2.895,0-5.838-0.128-8.75-0.381
						c-17.487-1.519-33.556-7.37-46.471-16.922l-1.054-0.779l22.008-17.316l-69.673-16.788l0.75,62.336L43.383,209.919z"/>
				</g>
			</g>
		</g>
	</g>
</g>
</svg>
