<?xml version="1.0" encoding="utf-8"?>
<!-- Generator: Adobe Illustrator 16.0.0, SVG Export Plug-In . SVG Version: 6.00 Build 0)  -->
<!DOCTYPE svg PUBLIC "-//W3C//DTD SVG 1.1//EN" "http://www.w3.org/Graphics/SVG/1.1/DTD/svg11.dtd">
<svg version="1.1" id="Ebene_1" xmlns="http://www.w3.org/2000/svg" xmlns:xlink="http://www.w3.org/1999/xlink" x="0px" y="0px"
	 width="252.736px" height="251.73px" viewBox="0 0 252.736 251.73" enable-background="new 0 0 252.736 251.73"
	 xml:space="preserve">
<g display="none">
	
		<image display="inline" overflow="visible" opacity="0.75" enable-background="new    " width="267" height="267" xlink:href="25A1F600.png"  transform="matrix(1 0 0 1 -0.1321 -0.635)">
	</image>
	<g display="inline">
		<rect x="9.426" y="9.134" fill="none" stroke="#FFFFFF" stroke-width="2" stroke-miterlimit="10" width="234" height="234"/>
	</g>
</g>
<g>
	<g>
		<polygon points="207.228,127.905 171.922,107.552 171.922,118.087 137.359,118.087 137.359,83.893 147.895,83.893 127.537,48.587 
			107.183,83.893 117.719,83.893 117.719,118.087 82.522,118.087 82.522,107.552 47.216,127.909 82.522,148.263 82.522,137.727 
			117.719,137.727 117.719,172.657 107.183,172.657 127.541,207.962 147.895,172.657 137.359,172.657 137.359,137.727 
			171.922,137.727 171.922,148.263 		"/>
		<polygon fill="none" stroke="#000000" stroke-width="2" stroke-miterlimit="10" points="207.228,127.905 171.922,107.552 
			171.922,118.087 137.359,118.087 137.359,83.893 147.895,83.893 127.537,48.587 107.183,83.893 117.719,83.893 117.719,118.087 
			82.522,118.087 82.522,107.552 47.216,127.909 82.522,148.263 82.522,137.727 117.719,137.727 117.719,172.657 107.183,172.657 
			127.541,207.962 147.895,172.657 137.359,172.657 137.359,137.727 171.922,137.727 171.922,148.263 		"/>
	</g>
</g>
<g>
	<g>
		<g>
			<g>
				<path d="M135.888,39.415c17.856,1.548,33.785,7.724,45.963,16.73l-22.599,17.779L232.179,91.5l-0.788-65.521l-21.566,15.19
					c-18.207-14.983-43.197-25.329-71.476-27.78C77.693,8.133,24.991,41.134,20.646,87.094l34.347,2.979
					C57.974,58.531,94.264,35.807,135.888,39.415z"/>
				<path fill="none" stroke="#000000" stroke-width="2" stroke-miterlimit="10" d="M135.888,39.415
					c17.856,1.548,33.785,7.724,45.963,16.73l-22.599,17.779L232.179,91.5l-0.788-65.521l-21.566,15.19
					c-18.207-14.983-43.197-25.329-71.476-27.78C77.693,8.133,24.991,41.134,20.646,87.094l34.347,2.979
					C57.974,58.531,94.264,35.807,135.888,39.415z"/>
			</g>
			<g>
				<path d="M198.169,162.275c-2.981,31.539-39.271,54.263-80.896,50.655c-17.856-1.551-33.787-7.725-45.963-16.729l22.599-17.781
					l-72.928-17.572l0.789,65.521l21.565-15.192c18.208,14.983,43.197,25.329,71.477,27.783
					c60.654,5.254,113.356-27.745,117.704-73.706L198.169,162.275z"/>
				<path fill="none" stroke="#000000" stroke-width="2" stroke-miterlimit="10" d="M198.169,162.275
					c-2.981,31.539-39.271,54.263-80.896,50.655c-17.856-1.551-33.787-7.725-45.963-16.729l22.599-17.781l-72.928-17.572
					l0.789,65.521l21.565-15.192c18.208,14.983,43.197,25.329,71.477,27.783c60.654,5.254,113.356-27.745,117.704-73.706
					L198.169,162.275z"/>
			</g>
		</g>
	</g>
</g>
<circle stroke="#FFFFFF" stroke-width="5" stroke-miterlimit="10" cx="14.612" cy="236.621" r="20.744"/>
<circle stroke="#FFFFFF" stroke-width="5" stroke-miterlimit="10" cx="238.337" cy="15.896" r="21.364"/>
<circle stroke="#FFFFFF" stroke-width="5" stroke-miterlimit="10" cx="14.612" cy="10.621" r="20.744"/>
<circle stroke="#FFFFFF" stroke-width="5" stroke-miterlimit="10" cx="238.337" cy="240.896" r="21.364"/>
</svg>
