<?xml version="1.0" encoding="utf-8"?>
<!-- Generator: Adobe Illustrator 16.0.0, SVG Export Plug-In . SVG Version: 6.00 Build 0)  -->
<!DOCTYPE svg PUBLIC "-//W3C//DTD SVG 1.1//EN" "http://www.w3.org/Graphics/SVG/1.1/DTD/svg11.dtd">
<svg version="1.1" id="Ebene_1" xmlns="http://www.w3.org/2000/svg" xmlns:xlink="http://www.w3.org/1999/xlink" x="0px" y="0px"
	 width="220.08px" height="220.08px" viewBox="0 0 220.08 220.08" enable-background="new 0 0 220.08 220.08" xml:space="preserve">
<path stroke="#FFFFFF" stroke-width="0.8075" stroke-miterlimit="10" d="M28.875,151.839c-4.88-29.337-19.937-66.28-17.124-68.828
	c2.813-2.547,29.8,3.261,31.241,21.752c0.875,11.219,5.225,24.689,7.008,28.044c0.57-3.958-1.213-120.652-0.117-123.135
	C50.977,7.191,53.374,0,58.078,0c4.704,0,8.51,6.453,8.988,9.357c6.104,37.105,4.322,84.667,8.603,85.517
	c2.031,0.402-1.236-17.676,3.691-26.917c1.074-2.015,13.487-0.406,16.198-0.406c3.5,0,5.87,1.429,7.458,3.648
	c5.517,7.705,4.588,31.789,4.588,31.789s1.385-24.759,8.022-26.693c2.96-2.691,5.196-2.376,6.782-2.376
	c1.585,0,5.256,0.031,8.446,3.325c10.401,16.238,6.909,25.94,8.555,27.968c1.645,2.027-2.582-11.641,4.761-17.757
	c4.703-4.908,11.597-2.77,12.337-2.77c12.482,0,9.856,32.068,9.856,32.068l-2.717,14.667c0,0-1.396,25.159-2.566,31.388
	c-1.172,6.228,0,15.285,0,15.285H48.241"/>
</svg>
