<?xml version="1.0" encoding="utf-8"?>
<!-- Generator: Adobe Illustrator 16.0.0, SVG Export Plug-In . SVG Version: 6.00 Build 0)  -->
<!DOCTYPE svg PUBLIC "-//W3C//DTD SVG 1.1//EN" "http://www.w3.org/Graphics/SVG/1.1/DTD/svg11.dtd">
<svg version="1.1" id="Ebene_1" xmlns="http://www.w3.org/2000/svg" xmlns:xlink="http://www.w3.org/1999/xlink" x="0px" y="0px"
	 width="252.737px" height="251.73px" viewBox="0 0 252.737 251.73" enable-background="new 0 0 252.737 251.73"
	 xml:space="preserve">
<g id="Pfeil_26" display="none">
	<rect x="140.869" y="93.133" fill="none" width="111.868" height="64.303"/>
	<g display="inline">
		<polygon fill="#1D1D1B" points="140.197,141.494 195.946,141.494 195.946,158.03 251.36,126.08 195.946,94.134 195.946,110.669 
			140.197,110.669 		"/>
	</g>
</g>
<g id="Pfeil_26_3_" display="none">
	<rect y="93.133" display="inline" fill="none" width="111.869" height="64.303"/>
	<g display="inline">
		<polygon fill="#1D1D1B" points="141.413,110.669 55.63,110.669 55.63,94.134 0.216,126.084 55.63,158.03 55.63,141.494 
			141.413,141.494 		"/>
	</g>
</g>
<g id="Pfeil_26_2_" display="none">
	<rect x="106.931" y="44.736" display="inline" fill="none" width="41.151" height="71.591"/>
	<g display="inline">
		<polygon fill="#1D1D1B" points="141.697,112.751 141.697,57.001 158.234,57.001 126.283,1.587 94.336,57.001 110.873,57.001 
			110.873,112.751 		"/>
	</g>
</g>
<g id="Pfeil_26_1_" display="none">
	<rect x="106.931" y="134.242" display="inline" fill="none" width="41.151" height="71.591"/>
	<g display="inline">
		<polygon fill="#1D1D1B" points="110.873,140.568 110.873,196.318 94.336,196.318 126.287,251.73 158.234,196.318 141.697,196.318 
			141.697,140.568 		"/>
	</g>
</g>
<circle display="none" fill="none" stroke="#1D1D1B" stroke-miterlimit="10" cx="126.426" cy="126.134" r="126"/>
<g id="Neu_laden">
	<path d="M163.49,178.201"/>
	<path d="M96.97,77.189"/>
	<path d="M48.426,87.763c3.316-35.076,43.676-60.348,89.966-56.335c19.859,1.722,37.574,8.588,51.117,18.606l-25.131,19.774
		l81.104,19.544l-0.878-72.868L220.62,33.381c-20.249-16.665-48.041-28.169-79.49-30.897C73.673-3.361,15.062,33.339,10.229,84.453"
		/>
	<path d="M207.658,165.839c-3.316,35.075-43.675,60.348-89.966,56.334c-19.859-1.723-37.575-8.588-51.116-18.605l25.131-19.774
		l-81.104-19.545l0.878,72.868l23.984-16.896c20.25,16.664,48.04,28.17,79.49,30.898c67.456,5.844,126.067-30.855,130.9-81.97"/>
</g>
<rect x="9.426" y="9.134" display="none" fill="none" stroke="#1D1D1B" stroke-width="4" stroke-miterlimit="10" width="234" height="234"/>
<circle display="none" fill="#1D1D1B" stroke="#1D1D1B" stroke-miterlimit="10" cx="9.427" cy="9.133" r="7.21"/>
<circle display="none" fill="#1D1D1B" stroke="#1D1D1B" stroke-miterlimit="10" cx="243.427" cy="9.133" r="7.21"/>
<circle display="none" fill="#1D1D1B" stroke="#1D1D1B" stroke-miterlimit="10" cx="243.426" cy="243.134" r="7.21"/>
<circle display="none" fill="#1D1D1B" stroke="#1D1D1B" stroke-miterlimit="10" cx="9.426" cy="243.134" r="7.21"/>
</svg>
