<svg xmlns="http://www.w3.org/2000/svg" width="183" height="183" viewBox="0 0 183 183" class="undefined">
  <path d="M22.4 93.7l45.5 16.3 -13.5 11.5c13.9 23.6 70.2 34.4 82.3-22.6 7.2 0.6 14.6 1.2 22.6 1.8 1.1 12.5-10.1 31.2-10.1 31.2 -10.4 22.5-58.6 55.6-107.2 9.9 -3.1-1.8-6-6-9.3-8.1 -4.5 2.8-8.9 5.6-14.6 9.1L22.4 93.7z" class="IconMainColor"/>
  <path d="M159.3 89.2l-45.5-16.3 13.5-11.5c-13.9-23.6-70.2-34.4-82.3 22.6 -7.2-0.6-14.6-1.2-22.6-1.8C21.4 69.6 32.6 50.9 32.6 50.9c10.4-22.5 58.6-55.6 107.2-9.9 3.1 1.8 6 6 9.3 8.1 4.5-2.8 8.9-5.6 14.6-9.1L159.3 89.2z" class="IconMainColor"/>
</svg>

