<svg xmlns="http://www.w3.org/2000/svg" width="354" height="354" viewBox="0 0 354 354" class="undefined">
<style>
  .IconHighlight{
    fill:#FFF;
  }
</style>
    <path d="M257.7 113.3c0 77.6 0 154.9 0 232.4 -53.8 0-107.4 0-161.4 0 0-77.3 0-154.7 0-232.4C150 113.3 203.7 113.3 257.7 113.3zM185.6 318.7c0-59.8 0-119.1 0-178.5 -6 0-11.6 0-17.4 0 0 59.6 0 118.9 0 178.5C174.1 318.7 179.7 318.7 185.6 318.7zM123.3 140.2c0 59.8 0 119.2 0 178.5 3 0 5.6 0 8.4 0 0-59.6 0-119 0-178.5C128.9 140.2 126.2 140.2 123.3 140.2zM222.3 140.2c0 59.8 0 119.1 0 178.5 2.9 0 5.5 0 8.4 0 0-59.6 0-118.9 0-178.5C227.9 140.2 225.3 140.2 222.3 140.2z" class="IconMainColor"/>
    <path d="M96.2 94.6c0-14.6 0-28.8 0-43.4 2.8 0 5.4 0 8.5 0 0-3.1 0-5.8 0-9.1 3.2 0 6 0 9 0 0-3.1 0-5.7 0-8.7 9.1 0 17.8 0 27.1 0 0 5.6 0 11.3 0 17.3 24.1 0 47.7 0 71.9 0 0-5.6 0-11.3 0-17.4 9.3 0 18 0 27.1 0 0.1 2.6 0.2 5.2 0.4 8.4 2.7 0 5.4 0 8.7 0 0 3.3 0 6 0 9 3.2 0.2 6 0.3 8.9 0.5 0 14.5 0 28.8 0 43.4C204 94.6 150.3 94.6 96.2 94.6z" class="IconMainColor"/>
    <path d="M195.1 6.3c0 5.9 0 11.5 0 17.5 2.9 0 5.5 0 8.5 0 0 3.1 0 5.8 0 8.8 -17.6 0-35.3 0-53.3 0 0-2.7 0-5.4 0-8.5 2.7 0 5.3 0 8.4 0 0-6 0-11.8 0-17.8C170.9 6.3 182.6 6.3 195.1 6.3z" class="IconMainColor"/>
    <path d="M185.6 318.7c-5.9 0-11.5 0-17.4 0 0-59.6 0-118.9 0-178.5 5.8 0 11.4 0 17.4 0C185.6 199.6 185.6 258.9 185.6 318.7z" class="IconHighlight"/>
    <path d="M123.3 140.2c2.9 0 5.5 0 8.4 0 0 59.6 0 118.9 0 178.5 -2.8 0-5.4 0-8.4 0C123.3 259.4 123.3 200 123.3 140.2z" class="IconHighlight"/>
    <path d="M222.3 140.2c2.9 0 5.6 0 8.4 0 0 59.6 0 118.9 0 178.5 -2.9 0-5.5 0-8.4 0C222.3 259.3 222.3 200 222.3 140.2z" class="IconHighlight"/>
  <rect x="140.8" y="33.4" width="71.9" height="17.3" class="IconHighlight"/>
</svg>
