<?xml version="1.0" encoding="UTF-8" standalone="no"?><svg xmlns="http://www.w3.org/2000/svg" xmlns:xlink="http://www.w3.org/1999/xlink" contentScriptType="application/ecmascript" contentStyleType="text/css" height="1308px" preserveAspectRatio="none" style="width:906px;height:1308px;" version="1.1" viewBox="0 0 906 1308" width="906px" zoomAndPan="magnify"><defs><filter height="300%" id="f5sf0eoe59m37" width="300%" x="-1" y="-1"><feGaussianBlur result="blurOut" stdDeviation="2.0"/><feColorMatrix in="blurOut" result="blurOut2" type="matrix" values="0 0 0 0 0 0 0 0 0 0 0 0 0 0 0 0 0 0 .4 0"/><feOffset dx="4.0" dy="4.0" in="blurOut2" result="blurOut3"/><feBlend in="SourceGraphic" in2="blurOut3" mode="normal"/></filter></defs><g><text fill="#000000" font-family="sans-serif" font-size="18" lengthAdjust="spacingAndGlyphs" textLength="78" x="413" y="28.6855">Animation</text><rect fill="#FFFFFF" filter="url(#f5sf0eoe59m37)" height="722.4775" style="stroke: #000000; stroke-width: 2.0;" width="492" x="221" y="33.2168"/><path d="M275,34.2168 L275,43.8262 L265,53.8262 L221,53.8262 " fill="none" style="stroke: #000000; stroke-width: 2.0;"/><text fill="#000000" font-family="sans-serif" font-size="14" lengthAdjust="spacingAndGlyphs" textLength="44" x="224" y="48.75">update</text><rect fill="#F8F8F8" filter="url(#f5sf0eoe59m37)" height="35.0938" style="stroke: #383838; stroke-width: 1.5;" width="100" x="418.5" y="63.8262"/><text fill="#000000" font-family="sans-serif" font-size="12" lengthAdjust="spacingAndGlyphs" textLength="80" x="428.5" y="86.2832">_time: number</text><rect fill="#F8F8F8" filter="url(#f5sf0eoe59m37)" height="35.0938" rx="12.5" ry="12.5" style="stroke: #383838; stroke-width: 1.5;" width="124" x="406.5" y="167.8379"/><text fill="#000000" font-family="sans-serif" font-size="12" lengthAdjust="spacingAndGlyphs" textLength="104" x="416.5" y="190.2949">set ranOnce to true</text><polygon fill="#F8F8F8" filter="url(#f5sf0eoe59m37)" points="468.5,118.9199,468.5,118.9199,480.5,130.9199,468.5,142.9199,468.5,142.9199,456.5,130.9199,468.5,118.9199" style="stroke: #383838; stroke-width: 1.5;"/><text fill="#000000" font-family="sans-serif" font-size="11" lengthAdjust="spacingAndGlyphs" textLength="28" x="472.5" y="154.3389">[time ]</text><polygon fill="#F8F8F8" filter="url(#f5sf0eoe59m37)" points="468.5,222.9316,480.5,234.9316,468.5,246.9316,456.5,234.9316,468.5,222.9316" style="stroke: #383838; stroke-width: 1.5;"/><rect fill="#F8F8F8" filter="url(#f5sf0eoe59m37)" height="80.375" rx="12.5" ry="12.5" style="stroke: #383838; stroke-width: 1.5;" width="202" x="367.5" y="266.9316"/><text fill="#000000" font-family="sans-serif" font-size="12" lengthAdjust="spacingAndGlyphs" textLength="156" x="377.5" y="289.3887">depending on the playmode,</text><text fill="#000000" font-family="sans-serif" font-size="12" lengthAdjust="spacingAndGlyphs" textLength="180" x="377.5" y="304.4824">change the _time to fit inbetween</text><text fill="#000000" font-family="sans-serif" font-size="12" lengthAdjust="spacingAndGlyphs" textLength="182" x="377.5" y="319.5762">0 and totaltime and be in the right</text><text fill="#000000" font-family="sans-serif" font-size="12" lengthAdjust="spacingAndGlyphs" textLength="104" x="377.5" y="334.6699">position in the loop</text><rect fill="#F8F8F8" filter="url(#f5sf0eoe59m37)" height="35.0938" rx="12.5" ry="12.5" style="stroke: #383838; stroke-width: 1.5;" width="272" x="332.5" y="367.3066"/><text fill="#000000" font-family="sans-serif" font-size="12" lengthAdjust="spacingAndGlyphs" textLength="252" x="342.5" y="389.7637">also set runningBackwards depending on that</text><rect fill="#F8F8F8" filter="url(#f5sf0eoe59m37)" height="35.0938" rx="12.5" ry="12.5" style="stroke: #383838; stroke-width: 1.5;" width="427" x="255" y="479.3193"/><text fill="#000000" font-family="sans-serif" font-size="12" lengthAdjust="spacingAndGlyphs" textLength="407" x="265" y="501.7764">animatedObject[key] = sequences[key].evaluate(_time, runningBackwards)</text><polygon fill="#F8F8F8" filter="url(#f5sf0eoe59m37)" points="456.5,422.4004,480.5,422.4004,492.5,434.4004,480.5,446.4004,456.5,446.4004,444.5,434.4004,456.5,422.4004" style="stroke: #383838; stroke-width: 1.5;"/><text fill="#000000" font-family="sans-serif" font-size="11" lengthAdjust="spacingAndGlyphs" textLength="91" x="472.5" y="457.8193">[key in sequences]</text><text fill="#000000" font-family="sans-serif" font-size="11" lengthAdjust="spacingAndGlyphs" textLength="0" x="470" y="438.9014"/><rect fill="#F8F8F8" filter="url(#f5sf0eoe59m37)" height="35.0938" rx="12.5" ry="12.5" style="stroke: #383838; stroke-width: 1.5;" width="283" x="327" y="556.4131"/><text fill="#000000" font-family="sans-serif" font-size="12" lengthAdjust="spacingAndGlyphs" textLength="263" x="337" y="578.8701">animatedObject.updateMutator(animatedObject)</text><rect fill="#F8F8F8" filter="url(#f5sf0eoe59m37)" height="35.0938" rx="12.5" ry="12.5" style="stroke: #383838; stroke-width: 1.5;" width="237" x="350" y="611.5068"/><text fill="#000000" font-family="sans-serif" font-size="12" lengthAdjust="spacingAndGlyphs" textLength="217" x="360" y="633.9639">checkEvents(runningBackwards, _time)</text><rect fill="#F8F8F8" filter="url(#f5sf0eoe59m37)" height="35.0938" rx="12.5" ry="12.5" style="stroke: #383838; stroke-width: 1.5;" width="139" x="399" y="666.6006"/><text fill="#000000" font-family="sans-serif" font-size="12" lengthAdjust="spacingAndGlyphs" textLength="119" x="409" y="689.0576">previousTime = _time</text><ellipse cx="468.5" cy="732.6943" fill="#FFFFFF" filter="url(#f5sf0eoe59m37)" rx="11" ry="11" style="stroke: #000000; stroke-width: 1.0;"/><ellipse cx="468.5" cy="732.6943" fill="#000000" rx="6" ry="6" style="stroke: #7F7F7F; stroke-width: 1.0;"/><rect fill="#FFFFFF" filter="url(#f5sf0eoe59m37)" height="345.7285" style="stroke: #000000; stroke-width: 2.0;" width="885" x="10" y="766.2705"/><path d="M100,767.2705 L100,776.8799 L90,786.8799 L10,786.8799 " fill="none" style="stroke: #000000; stroke-width: 2.0;"/><text fill="#000000" font-family="sans-serif" font-size="14" lengthAdjust="spacingAndGlyphs" textLength="80" x="13" y="781.8037">checkEvents</text><rect fill="#F8F8F8" filter="url(#f5sf0eoe59m37)" height="50.1875" style="stroke: #383838; stroke-width: 1.5;" width="181" x="378" y="796.8799"/><text fill="#000000" font-family="sans-serif" font-size="12" lengthAdjust="spacingAndGlyphs" textLength="161" x="388" y="819.3369">_runningBackwards: boolean</text><text fill="#000000" font-family="sans-serif" font-size="12" lengthAdjust="spacingAndGlyphs" textLength="83" x="388" y="834.4307">:_time: number</text><polygon fill="#F8F8F8" filter="url(#f5sf0eoe59m37)" points="146.5,923.9863,146.5,923.9863,158.5,935.9863,146.5,947.9863,146.5,947.9863,134.5,935.9863,146.5,923.9863" style="stroke: #383838; stroke-width: 1.5;"/><text fill="#000000" font-family="sans-serif" font-size="11" lengthAdjust="spacingAndGlyphs" textLength="288" x="150.5" y="959.4053">[!_runningBackwards &amp;&amp; previousTime &lt; event.time &lt; _time]</text><rect fill="#F8F8F8" filter="url(#f5sf0eoe59m37)" height="35.0938" rx="12.5" ry="12.5" style="stroke: #383838; stroke-width: 1.5;" width="205" x="44" y="980.9053"/><text fill="#000000" font-family="sans-serif" font-size="12" lengthAdjust="spacingAndGlyphs" textLength="185" x="54" y="1003.3623">sendAnimationEvent(event.name)</text><polygon fill="#F8F8F8" filter="url(#f5sf0eoe59m37)" points="557,923.9863,557,923.9863,569,935.9863,557,947.9863,557,947.9863,545,935.9863,557,923.9863" style="stroke: #383838; stroke-width: 1.5;"/><text fill="#000000" font-family="sans-serif" font-size="11" lengthAdjust="spacingAndGlyphs" textLength="286" x="561" y="959.4053">[_runningBackwards &amp;&amp; previousTime &gt; event.time &gt; _time]</text><rect fill="#F8F8F8" filter="url(#f5sf0eoe59m37)" height="35.0938" rx="12.5" ry="12.5" style="stroke: #383838; stroke-width: 1.5;" width="205" x="454.5" y="980.9053"/><text fill="#000000" font-family="sans-serif" font-size="12" lengthAdjust="spacingAndGlyphs" textLength="185" x="464.5" y="1003.3623">sendAnimationEvent(event.name)</text><polygon fill="#F8F8F8" filter="url(#f5sf0eoe59m37)" points="456.5,867.0674,480.5,867.0674,492.5,879.0674,480.5,891.0674,456.5,891.0674,444.5,879.0674,456.5,867.0674" style="stroke: #383838; stroke-width: 1.5;"/><text fill="#000000" font-family="sans-serif" font-size="11" lengthAdjust="spacingAndGlyphs" textLength="82" x="472.5" y="902.4863">[event of events]</text><text fill="#000000" font-family="sans-serif" font-size="11" lengthAdjust="spacingAndGlyphs" textLength="0" x="470" y="883.5684"/><ellipse cx="468.5" cy="1088.999" fill="#FFFFFF" filter="url(#f5sf0eoe59m37)" rx="11" ry="11" style="stroke: #000000; stroke-width: 1.0;"/><ellipse cx="468.5" cy="1088.999" fill="#000000" rx="6" ry="6" style="stroke: #7F7F7F; stroke-width: 1.0;"/><rect fill="#FFFFFF" filter="url(#f5sf0eoe59m37)" height="174.7969" style="stroke: #000000; stroke-width: 2.0;" width="174" x="381.5" y="1122.5752"/><path d="M520.5,1123.5752 L520.5,1133.1846 L510.5,1143.1846 L381.5,1143.1846 " fill="none" style="stroke: #000000; stroke-width: 2.0;"/><text fill="#000000" font-family="sans-serif" font-size="14" lengthAdjust="spacingAndGlyphs" textLength="129" x="384.5" y="1138.1084">sendAnimationEvent</text><rect fill="#F8F8F8" filter="url(#f5sf0eoe59m37)" height="35.0938" style="stroke: #383838; stroke-width: 1.5;" width="96" x="420.5" y="1153.1846"/><text fill="#000000" font-family="sans-serif" font-size="12" lengthAdjust="spacingAndGlyphs" textLength="76" x="430.5" y="1175.6416">_name: string</text><rect fill="#F8F8F8" filter="url(#f5sf0eoe59m37)" height="35.0938" rx="12.5" ry="12.5" style="stroke: #383838; stroke-width: 1.5;" width="154" x="391.5" y="1208.2783"/><text fill="#000000" font-family="sans-serif" font-size="12" lengthAdjust="spacingAndGlyphs" textLength="134" x="401.5" y="1230.7354">fire Event named _name</text><ellipse cx="468.5" cy="1274.3721" fill="#FFFFFF" filter="url(#f5sf0eoe59m37)" rx="11" ry="11" style="stroke: #000000; stroke-width: 1.0;"/><ellipse cx="468.5" cy="1274.3721" fill="#000000" rx="6" ry="6" style="stroke: #7F7F7F; stroke-width: 1.0;"/><line style="stroke: #383838; stroke-width: 1.5;" x1="468.5" x2="468.5" y1="142.9199" y2="167.8379"/><polygon fill="#383838" points="464.5,157.8379,468.5,167.8379,472.5,157.8379,468.5,161.8379" style="stroke: #383838; stroke-width: 1.0;"/><line style="stroke: #383838; stroke-width: 1.5;" x1="480.5" x2="540.5" y1="130.9199" y2="130.9199"/><polygon fill="#383838" points="536.5,175.3848,540.5,185.3848,544.5,175.3848,540.5,179.3848" style="stroke: #383838; stroke-width: 1.5;"/><line style="stroke: #383838; stroke-width: 1.5;" x1="540.5" x2="540.5" y1="130.9199" y2="234.9316"/><line style="stroke: #383838; stroke-width: 1.5;" x1="540.5" x2="480.5" y1="234.9316" y2="234.9316"/><polygon fill="#383838" points="490.5,230.9316,480.5,234.9316,490.5,238.9316,486.5,234.9316" style="stroke: #383838; stroke-width: 1.0;"/><line style="stroke: #383838; stroke-width: 1.5;" x1="468.5" x2="468.5" y1="202.9316" y2="222.9316"/><polygon fill="#383838" points="464.5,212.9316,468.5,222.9316,472.5,212.9316,468.5,216.9316" style="stroke: #383838; stroke-width: 1.0;"/><line style="stroke: #383838; stroke-width: 1.5;" x1="468.5" x2="468.5" y1="98.9199" y2="118.9199"/><polygon fill="#383838" points="464.5,108.9199,468.5,118.9199,472.5,108.9199,468.5,112.9199" style="stroke: #383838; stroke-width: 1.0;"/><line style="stroke: #383838; stroke-width: 1.5;" x1="468.5" x2="468.5" y1="246.9316" y2="266.9316"/><polygon fill="#383838" points="464.5,256.9316,468.5,266.9316,472.5,256.9316,468.5,260.9316" style="stroke: #383838; stroke-width: 1.0;"/><line style="stroke: #383838; stroke-width: 1.5;" x1="468.5" x2="468.5" y1="347.3066" y2="367.3066"/><polygon fill="#383838" points="464.5,357.3066,468.5,367.3066,472.5,357.3066,468.5,361.3066" style="stroke: #383838; stroke-width: 1.0;"/><line style="stroke: #383838; stroke-width: 1.5;" x1="468.5" x2="468.5" y1="446.4004" y2="479.3193"/><polygon fill="#383838" points="464.5,469.3193,468.5,479.3193,472.5,469.3193,468.5,473.3193" style="stroke: #383838; stroke-width: 1.0;"/><line style="stroke: #383838; stroke-width: 1.5;" x1="468.5" x2="468.5" y1="514.4131" y2="524.4131"/><line style="stroke: #383838; stroke-width: 1.5;" x1="468.5" x2="694" y1="524.4131" y2="524.4131"/><polygon fill="#383838" points="690,487.9482,694,477.9482,698,487.9482,694,483.9482" style="stroke: #383838; stroke-width: 1.5;"/><line style="stroke: #383838; stroke-width: 1.5;" x1="694" x2="694" y1="434.4004" y2="524.4131"/><line style="stroke: #383838; stroke-width: 1.5;" x1="694" x2="492.5" y1="434.4004" y2="434.4004"/><polygon fill="#383838" points="502.5,430.4004,492.5,434.4004,502.5,438.4004,498.5,434.4004" style="stroke: #383838; stroke-width: 1.0;"/><line style="stroke: #383838; stroke-width: 1.5;" x1="444.5" x2="243" y1="434.4004" y2="434.4004"/><polygon fill="#383838" points="239,473.9482,243,483.9482,247,473.9482,243,477.9482" style="stroke: #383838; stroke-width: 1.5;"/><line style="stroke: #383838; stroke-width: 1.5;" x1="243" x2="243" y1="434.4004" y2="536.4131"/><line style="stroke: #383838; stroke-width: 1.5;" x1="243" x2="468.5" y1="536.4131" y2="536.4131"/><line style="stroke: #383838; stroke-width: 1.5;" x1="468.5" x2="468.5" y1="536.4131" y2="556.4131"/><polygon fill="#383838" points="464.5,546.4131,468.5,556.4131,472.5,546.4131,468.5,550.4131" style="stroke: #383838; stroke-width: 1.0;"/><line style="stroke: #383838; stroke-width: 1.5;" x1="468.5" x2="468.5" y1="402.4004" y2="422.4004"/><polygon fill="#383838" points="464.5,412.4004,468.5,422.4004,472.5,412.4004,468.5,416.4004" style="stroke: #383838; stroke-width: 1.0;"/><line style="stroke: #383838; stroke-width: 1.5;" x1="468.5" x2="468.5" y1="591.5068" y2="611.5068"/><polygon fill="#383838" points="464.5,601.5068,468.5,611.5068,472.5,601.5068,468.5,605.5068" style="stroke: #383838; stroke-width: 1.0;"/><line style="stroke: #383838; stroke-width: 1.5;" x1="468.5" x2="468.5" y1="646.6006" y2="666.6006"/><polygon fill="#383838" points="464.5,656.6006,468.5,666.6006,472.5,656.6006,468.5,660.6006" style="stroke: #383838; stroke-width: 1.0;"/><line style="stroke: #383838; stroke-width: 1.5;" x1="468.5" x2="468.5" y1="701.6943" y2="721.6943"/><polygon fill="#383838" points="464.5,711.6943,468.5,721.6943,472.5,711.6943,468.5,715.6943" style="stroke: #383838; stroke-width: 1.0;"/><line style="stroke: #383838; stroke-width: 1.5;" x1="146.5" x2="146.5" y1="947.9863" y2="980.9053"/><polygon fill="#383838" points="142.5,970.9053,146.5,980.9053,150.5,970.9053,146.5,974.9053" style="stroke: #383838; stroke-width: 1.0;"/><line style="stroke: #383838; stroke-width: 1.5;" x1="146.5" x2="146.5" y1="1015.999" y2="1035.999"/><polygon fill="#383838" points="142.5,1025.999,146.5,1035.999,150.5,1025.999,146.5,1029.999" style="stroke: #383838; stroke-width: 1.0;"/><line style="stroke: #383838; stroke-width: 1.5;" x1="557" x2="557" y1="947.9863" y2="980.9053"/><polygon fill="#383838" points="553,970.9053,557,980.9053,561,970.9053,557,974.9053" style="stroke: #383838; stroke-width: 1.0;"/><line style="stroke: #383838; stroke-width: 1.5;" x1="557" x2="557" y1="1015.999" y2="1035.999"/><polygon fill="#383838" points="553,1025.999,557,1035.999,561,1025.999,557,1029.999" style="stroke: #383838; stroke-width: 1.0;"/><line style="stroke: #383838; stroke-width: 1.5;" x1="158.5" x2="545" y1="935.9863" y2="935.9863"/><polygon fill="#383838" points="535,931.9863,545,935.9863,535,939.9863,539,935.9863" style="stroke: #383838; stroke-width: 1.0;"/><line style="stroke: #383838; stroke-width: 1.5;" x1="468.5" x2="468.5" y1="891.0674" y2="908.9863"/><line style="stroke: #383838; stroke-width: 1.5;" x1="468.5" x2="146.5" y1="908.9863" y2="908.9863"/><line style="stroke: #383838; stroke-width: 1.5;" x1="146.5" x2="146.5" y1="908.9863" y2="923.9863"/><polygon fill="#383838" points="142.5,913.9863,146.5,923.9863,150.5,913.9863,146.5,917.9863" style="stroke: #383838; stroke-width: 1.0;"/><line style="stroke: #383838; stroke-width: 1.5;" x1="569" x2="861" y1="935.9863" y2="935.9863"/><line style="stroke: #383838; stroke-width: 1.5;" x1="861" x2="861" y1="935.9863" y2="1035.999"/><polygon fill="#383838" points="857,1025.999,861,1035.999,865,1025.999,861,1029.999" style="stroke: #383838; stroke-width: 1.0;"/><line style="stroke: #383838; stroke-width: 1.5;" x1="146.5" x2="861" y1="1035.999" y2="1035.999"/><line style="stroke: #383838; stroke-width: 1.5;" x1="468.5" x2="468.5" y1="1035.999" y2="1045.999"/><line style="stroke: #383838; stroke-width: 1.5;" x1="468.5" x2="879" y1="1045.999" y2="1045.999"/><polygon fill="#383838" points="875,985.6162,879,975.6162,883,985.6162,879,981.6162" style="stroke: #383838; stroke-width: 1.5;"/><line style="stroke: #383838; stroke-width: 1.5;" x1="879" x2="879" y1="879.0674" y2="1045.999"/><line style="stroke: #383838; stroke-width: 1.5;" x1="879" x2="492.5" y1="879.0674" y2="879.0674"/><polygon fill="#383838" points="502.5,875.0674,492.5,879.0674,502.5,883.0674,498.5,879.0674" style="stroke: #383838; stroke-width: 1.0;"/><line style="stroke: #383838; stroke-width: 1.5;" x1="444.5" x2="32" y1="879.0674" y2="879.0674"/><polygon fill="#383838" points="28,971.6162,32,981.6162,36,971.6162,32,975.6162" style="stroke: #383838; stroke-width: 1.5;"/><line style="stroke: #383838; stroke-width: 1.5;" x1="32" x2="32" y1="879.0674" y2="1057.999"/><line style="stroke: #383838; stroke-width: 1.5;" x1="32" x2="468.5" y1="1057.999" y2="1057.999"/><line style="stroke: #383838; stroke-width: 1.5;" x1="468.5" x2="468.5" y1="1057.999" y2="1077.999"/><polygon fill="#383838" points="464.5,1067.999,468.5,1077.999,472.5,1067.999,468.5,1071.999" style="stroke: #383838; stroke-width: 1.0;"/><line style="stroke: #383838; stroke-width: 1.5;" x1="468.5" x2="468.5" y1="847.0674" y2="867.0674"/><polygon fill="#383838" points="464.5,857.0674,468.5,867.0674,472.5,857.0674,468.5,861.0674" style="stroke: #383838; stroke-width: 1.0;"/><line style="stroke: #383838; stroke-width: 1.5;" x1="468.5" x2="468.5" y1="1188.2783" y2="1208.2783"/><polygon fill="#383838" points="464.5,1198.2783,468.5,1208.2783,472.5,1198.2783,468.5,1202.2783" style="stroke: #383838; stroke-width: 1.0;"/><line style="stroke: #383838; stroke-width: 1.5;" x1="468.5" x2="468.5" y1="1243.3721" y2="1263.3721"/><polygon fill="#383838" points="464.5,1253.3721,468.5,1263.3721,472.5,1253.3721,468.5,1257.3721" style="stroke: #383838; stroke-width: 1.0;"/><!--
@startuml Animation
skinparam monochrome true

title Animation

partition update {
	:_time: number]
	
	if() then ([time ])
		:set ranOnce to true;
	endif

	:depending on the playmode,
	change the _time to fit inbetween
	0 and totaltime and be in the right
	position in the loop;
	:also set runningBackwards depending on that;

	while() is ([key in sequences])
		:animatedObject[key] = sequences[key].evaluate(_time, runningBackwards); 
	endwhile
	:animatedObject.updateMutator(animatedObject);

	:checkEvents(runningBackwards, _time);
	
	:previousTime = _time;
	stop
}

partition checkEvents {
	:_runningBackwards: boolean
	:_time: number]
	while () is ([event of events])
		if() then ([!_runningBackwards && previousTime < event.time < _time])
			:sendAnimationEvent(event.name);
		elseif () then ([_runningBackwards && previousTime > event.time > _time])
			:sendAnimationEvent(event.name);
		endif
	endwhile
	stop
}

partition sendAnimationEvent {
	:_name: string]
	:fire Event named _name;
	stop
}

@enduml

PlantUML version 1.2019.05(Sat Apr 20 18:45:36 CEST 2019)
(GPL source distribution)
Java Runtime: Java(TM) SE Runtime Environment
JVM: Java HotSpot(TM) 64-Bit Server VM
Java Version: 1.8.0_181-b13
Operating System: Windows 10
OS Version: 10.0
Default Encoding: Cp1252
Language: de
Country: DE
--></g></svg>