<?xml version="1.0" encoding="UTF-8" standalone="no"?><svg xmlns="http://www.w3.org/2000/svg" xmlns:xlink="http://www.w3.org/1999/xlink" contentScriptType="application/ecmascript" contentStyleType="text/css" height="1193px" preserveAspectRatio="none" style="width:2101px;height:1193px;" version="1.1" viewBox="0 0 2101 1193" width="2101px" zoomAndPan="magnify"><defs/><g><!--cluster FUDGE--><rect fill="#FFFFFF" height="1157.5" style="stroke: #000000; stroke-width: 1.5;" width="1855" x="22" y="24.5"/><text fill="#000000" font-family="sans-serif" font-size="14" font-weight="bold" lengthAdjust="spacingAndGlyphs" textLength="49" x="925" y="41.0332">FUDGE</text><!--cluster Transfer--><polygon fill="#FFFFFF" points="977,424.5,1042,424.5,1049,448.1094,1133,448.1094,1133,592.5,977,592.5,977,424.5" style="stroke: #000000; stroke-width: 1.5;"/><line style="stroke: #000000; stroke-width: 1.5;" x1="977" x2="1049" y1="448.1094" y2="448.1094"/><text fill="#000000" font-family="sans-serif" font-size="14" font-weight="bold" lengthAdjust="spacingAndGlyphs" textLength="59" x="981" y="441.0332">Transfer</text><!--cluster Mutable--><rect fill="#FFFFFF" height="100" style="stroke: #000000; stroke-width: 1.5;" width="108" x="1001" y="468.5"/><text fill="#000000" font-family="sans-serif" font-size="14" font-weight="bold" lengthAdjust="spacingAndGlyphs" textLength="57" x="1026.5" y="485.0332">Mutable</text><!--cluster Components--><rect fill="#FFFFFF" height="444.5" style="stroke: #000000; stroke-width: 1.5;" width="188" x="1157" y="172.5"/><text fill="#000000" font-family="sans-serif" font-size="14" font-weight="bold" lengthAdjust="spacingAndGlyphs" textLength="89" x="1206.5" y="189.0332">Components</text><!--cluster UI--><polygon fill="#FFFFFF" points="1369,145,1389,145,1396,168.6094,1853,168.6094,1853,575.5,1369,575.5,1369,145" style="stroke: #000000; stroke-width: 1.5;"/><line style="stroke: #000000; stroke-width: 1.5;" x1="1369" x2="1396" y1="168.6094" y2="168.6094"/><text fill="#000000" font-family="sans-serif" font-size="14" font-weight="bold" lengthAdjust="spacingAndGlyphs" textLength="14" x="1373" y="161.5332">UI</text><!--cluster Animation--><rect fill="#FFFFFF" height="1089.5" style="stroke: #000000; stroke-width: 1.5;" width="469" x="484" y="68.5"/><text fill="#000000" font-family="sans-serif" font-size="14" font-weight="bold" lengthAdjust="spacingAndGlyphs" textLength="69" x="684" y="85.0332">Animation</text><!--cluster AnimationEditor--><rect fill="#FFFFFF" height="745.5" style="stroke: #000000; stroke-width: 1.5;" width="414" x="46" y="82.5"/><text fill="#000000" font-family="sans-serif" font-size="14" font-weight="bold" lengthAdjust="spacingAndGlyphs" textLength="111" x="197.5" y="99.0332">AnimationEditor</text><!--cluster DOM--><polygon fill="#FFFFFF" points="1901,172.5,1941,172.5,1948,196.1094,2079,196.1094,2079,272.5,1901,272.5,1901,172.5" style="stroke: #000000; stroke-width: 1.5;"/><line style="stroke: #000000; stroke-width: 1.5;" x1="1901" x2="1948" y1="196.1094" y2="196.1094"/><text fill="#000000" font-family="sans-serif" font-size="14" font-weight="bold" lengthAdjust="spacingAndGlyphs" textLength="34" x="1905" y="189.0332">DOM</text><!--class Mutable--><rect fill="#F8F8F8" height="48" id="Mutable" style="stroke: #383838; stroke-width: 1.5;" width="75" x="1017.5" y="504.5"/><ellipse cx="1032.5" cy="520.5" fill="#C2C2C2" rx="11" ry="11" style="stroke: #383838; stroke-width: 1.0;"/><path d="M1035.2656,516.375 Q1035.4219,516.1563 1035.6094,516.0469 Q1035.7969,515.9375 1036.0156,515.9375 Q1036.3906,515.9375 1036.625,516.1953 Q1036.8594,516.4531 1036.8594,517.0625 L1036.8594,518.5156 Q1036.8594,519.125 1036.625,519.3906 Q1036.3906,519.6563 1036.0156,519.6563 Q1035.6719,519.6563 1035.4688,519.4531 Q1035.2656,519.2656 1035.1563,518.75 Q1035.1094,518.3906 1034.9219,518.2031 Q1034.5938,517.8281 1033.9844,517.6094 Q1033.375,517.3906 1032.75,517.3906 Q1031.9844,517.3906 1031.3516,517.7188 Q1030.7188,518.0469 1030.2266,518.7969 Q1029.7344,519.5469 1029.7344,520.5781 L1029.7344,521.6719 Q1029.7344,522.9063 1030.625,523.7266 Q1031.5156,524.5469 1033.1094,524.5469 Q1034.0469,524.5469 1034.7031,524.2969 Q1035.0938,524.1406 1035.5156,523.7031 Q1035.7813,523.4375 1035.9297,523.3594 Q1036.0781,523.2813 1036.2813,523.2813 Q1036.6094,523.2813 1036.8672,523.5391 Q1037.125,523.7969 1037.125,524.1406 Q1037.125,524.4844 1036.7813,524.8906 Q1036.2813,525.4688 1035.4844,525.7969 Q1034.4063,526.25 1033.1094,526.25 Q1031.5938,526.25 1030.3906,525.625 Q1029.4063,525.125 1028.7188,524.0547 Q1028.0313,522.9844 1028.0313,521.7031 L1028.0313,520.5469 Q1028.0313,519.2188 1028.6484,518.0703 Q1029.2656,516.9219 1030.3594,516.3047 Q1031.4531,515.6875 1032.6875,515.6875 Q1033.4219,515.6875 1034.0703,515.8516 Q1034.7188,516.0156 1035.2656,516.375 Z "/><text fill="#000000" font-family="sans-serif" font-size="12" lengthAdjust="spacingAndGlyphs" textLength="43" x="1046.5" y="525.4102">Mutable</text><line style="stroke: #383838; stroke-width: 1.5;" x1="1018.5" x2="1091.5" y1="536.5" y2="536.5"/><line style="stroke: #383838; stroke-width: 1.5;" x1="1018.5" x2="1091.5" y1="544.5" y2="544.5"/><!--class Component--><rect fill="#F8F8F8" height="48" id="Component" style="stroke: #383838; stroke-width: 1.5;" width="97" x="1202.5" y="208.5"/><ellipse cx="1217.5" cy="224.5" fill="#CDCDCD" rx="11" ry="11" style="stroke: #383838; stroke-width: 1.0;"/><path d="M1219.6875,226.2656 L1215.5469,226.2656 L1215.125,227.2969 L1215.5469,227.2969 Q1216.1563,227.2969 1216.4219,227.5313 Q1216.6875,227.7656 1216.6875,228.1563 Q1216.6875,228.5313 1216.4219,228.7656 Q1216.1563,229 1215.5469,229 L1213.25,229 Q1212.6406,229 1212.3828,228.7656 Q1212.125,228.5313 1212.125,228.1406 Q1212.125,227.7656 1212.3984,227.5234 Q1212.6719,227.2813 1213.2969,227.2969 L1215.9688,220.6406 L1214.8594,220.6406 Q1214.25,220.6406 1213.9844,220.4063 Q1213.7188,220.1719 1213.7188,219.7813 Q1213.7188,219.4063 1213.9844,219.1719 Q1214.25,218.9375 1214.8594,218.9375 L1218.5313,218.9375 L1221.9219,227.2969 Q1222.5156,227.2969 1222.7031,227.4375 Q1223.0938,227.7031 1223.0938,228.1563 Q1223.0938,228.5313 1222.8359,228.7656 Q1222.5781,229 1221.9688,229 L1219.6719,229 Q1219.0625,229 1218.7969,228.7656 Q1218.5313,228.5313 1218.5313,228.1406 Q1218.5313,227.7656 1218.7969,227.5313 Q1219.0625,227.2969 1219.6719,227.2969 L1220.0938,227.2969 L1219.6875,226.2656 Z M1218.9688,224.5625 L1217.6094,221.1875 L1216.2344,224.5625 L1218.9688,224.5625 Z "/><text fill="#000000" font-family="sans-serif" font-size="12" font-style="italic" lengthAdjust="spacingAndGlyphs" textLength="65" x="1231.5" y="229.4102">Component</text><line style="stroke: #383838; stroke-width: 1.5;" x1="1203.5" x2="1298.5" y1="240.5" y2="240.5"/><line style="stroke: #383838; stroke-width: 1.5;" x1="1203.5" x2="1298.5" y1="248.5" y2="248.5"/><!--class ComponentAnimator--><rect fill="#F8F8F8" height="144.8516" id="ComponentAnimator" style="stroke: #383838; stroke-width: 1.5;" width="156" x="1173" y="456"/><ellipse cx="1192.5" cy="472" fill="#C2C2C2" rx="11" ry="11" style="stroke: #383838; stroke-width: 1.0;"/><path d="M1195.2656,467.875 Q1195.4219,467.6563 1195.6094,467.5469 Q1195.7969,467.4375 1196.0156,467.4375 Q1196.3906,467.4375 1196.625,467.6953 Q1196.8594,467.9531 1196.8594,468.5625 L1196.8594,470.0156 Q1196.8594,470.625 1196.625,470.8906 Q1196.3906,471.1563 1196.0156,471.1563 Q1195.6719,471.1563 1195.4688,470.9531 Q1195.2656,470.7656 1195.1563,470.25 Q1195.1094,469.8906 1194.9219,469.7031 Q1194.5938,469.3281 1193.9844,469.1094 Q1193.375,468.8906 1192.75,468.8906 Q1191.9844,468.8906 1191.3516,469.2188 Q1190.7188,469.5469 1190.2266,470.2969 Q1189.7344,471.0469 1189.7344,472.0781 L1189.7344,473.1719 Q1189.7344,474.4063 1190.625,475.2266 Q1191.5156,476.0469 1193.1094,476.0469 Q1194.0469,476.0469 1194.7031,475.7969 Q1195.0938,475.6406 1195.5156,475.2031 Q1195.7813,474.9375 1195.9297,474.8594 Q1196.0781,474.7813 1196.2813,474.7813 Q1196.6094,474.7813 1196.8672,475.0391 Q1197.125,475.2969 1197.125,475.6406 Q1197.125,475.9844 1196.7813,476.3906 Q1196.2813,476.9688 1195.4844,477.2969 Q1194.4063,477.75 1193.1094,477.75 Q1191.5938,477.75 1190.3906,477.125 Q1189.4063,476.625 1188.7188,475.5547 Q1188.0313,474.4844 1188.0313,473.2031 L1188.0313,472.0469 Q1188.0313,470.7188 1188.6484,469.5703 Q1189.2656,468.4219 1190.3594,467.8047 Q1191.4531,467.1875 1192.6875,467.1875 Q1193.4219,467.1875 1194.0703,467.3516 Q1194.7188,467.5156 1195.2656,467.875 Z "/><text fill="#000000" font-family="sans-serif" font-size="12" lengthAdjust="spacingAndGlyphs" textLength="114" x="1207.5" y="476.9102">ComponentAnimator</text><line style="stroke: #383838; stroke-width: 1.5;" x1="1174" x2="1328" y1="488" y2="488"/><text fill="#000000" font-family="sans-serif" font-size="11" lengthAdjust="spacingAndGlyphs" textLength="81" x="1179" y="503.4189">+speed: number;</text><text fill="#000000" font-family="sans-serif" font-size="11" lengthAdjust="spacingAndGlyphs" textLength="141" x="1179" y="517.2549">+currentAnimation: Animation</text><text fill="#000000" font-family="sans-serif" font-size="11" lengthAdjust="spacingAndGlyphs" textLength="127" x="1179" y="531.0908">+nextAnimation: Animation</text><text fill="#000000" font-family="sans-serif" font-size="11" lengthAdjust="spacingAndGlyphs" textLength="144" x="1179" y="544.9268">+syncChildrenSpeed: boolean</text><text fill="#000000" font-family="sans-serif" font-size="11" lengthAdjust="spacingAndGlyphs" textLength="108" x="1179" y="558.7627">-parentSpeed: number</text><line style="stroke: #383838; stroke-width: 1.5;" x1="1174" x2="1328" y1="565.1797" y2="565.1797"/><text fill="#000000" font-family="sans-serif" font-size="11" lengthAdjust="spacingAndGlyphs" textLength="112" x="1179" y="580.5986">#setTime(time: number)</text><text fill="#000000" font-family="sans-serif" font-size="11" lengthAdjust="spacingAndGlyphs" textLength="93" x="1179" y="594.4346">+play(name: string)</text><!--class UIElement--><rect fill="#F8F8F8" height="103.3438" id="UIElement" style="stroke: #383838; stroke-width: 1.5;" width="111" x="1725.5" y="181"/><ellipse cx="1749.5" cy="197" fill="#B1B1B1" rx="11" ry="11" style="stroke: #383838; stroke-width: 1.0;"/><path d="M1750.4531,193.6406 L1750.4531,200.2969 L1752.1719,200.2969 Q1752.7813,200.2969 1753.0469,200.5313 Q1753.3125,200.7656 1753.3125,201.1563 Q1753.3125,201.5313 1753.0469,201.7656 Q1752.7813,202 1752.1719,202 L1747.0313,202 Q1746.4219,202 1746.1563,201.7656 Q1745.8906,201.5313 1745.8906,201.1406 Q1745.8906,200.7656 1746.1563,200.5313 Q1746.4219,200.2969 1747.0313,200.2969 L1748.75,200.2969 L1748.75,193.6406 L1747.0313,193.6406 Q1746.4219,193.6406 1746.1563,193.4063 Q1745.8906,193.1719 1745.8906,192.7813 Q1745.8906,192.4063 1746.1563,192.1719 Q1746.4219,191.9375 1747.0313,191.9375 L1752.1719,191.9375 Q1752.7813,191.9375 1753.0469,192.1719 Q1753.3125,192.4063 1753.3125,192.7813 Q1753.3125,193.1719 1753.0469,193.4063 Q1752.7813,193.6406 1752.1719,193.6406 L1750.4531,193.6406 Z "/><text fill="#000000" font-family="sans-serif" font-size="12" font-style="italic" lengthAdjust="spacingAndGlyphs" textLength="59" x="1765.5" y="201.9102">UIElement</text><line style="stroke: #383838; stroke-width: 1.5;" x1="1726.5" x2="1835.5" y1="213" y2="213"/><text fill="#000000" font-family="sans-serif" font-size="11" lengthAdjust="spacingAndGlyphs" textLength="59" x="1731.5" y="228.4189">name: string</text><text fill="#000000" font-family="sans-serif" font-size="11" lengthAdjust="spacingAndGlyphs" textLength="61" x="1731.5" y="242.2549">hover: string</text><text fill="#000000" font-family="sans-serif" font-size="11" lengthAdjust="spacingAndGlyphs" textLength="53" x="1731.5" y="256.0908">help: string</text><text fill="#000000" font-family="sans-serif" font-size="11" lengthAdjust="spacingAndGlyphs" textLength="99" x="1731.5" y="269.9268">extendedHelp: string</text><line style="stroke: #383838; stroke-width: 1.5;" x1="1726.5" x2="1835.5" y1="276.3438" y2="276.3438"/><!--class UIButton--><rect fill="#F8F8F8" height="61.8359" id="UIButton" style="stroke: #383838; stroke-width: 1.5;" width="125" x="1711.5" y="497.5"/><ellipse cx="1747.2" cy="513.5" fill="#C2C2C2" rx="11" ry="11" style="stroke: #383838; stroke-width: 1.0;"/><path d="M1749.9656,509.375 Q1750.1219,509.1563 1750.3094,509.0469 Q1750.4969,508.9375 1750.7156,508.9375 Q1751.0906,508.9375 1751.325,509.1953 Q1751.5594,509.4531 1751.5594,510.0625 L1751.5594,511.5156 Q1751.5594,512.125 1751.325,512.3906 Q1751.0906,512.6563 1750.7156,512.6563 Q1750.3719,512.6563 1750.1688,512.4531 Q1749.9656,512.2656 1749.8563,511.75 Q1749.8094,511.3906 1749.6219,511.2031 Q1749.2938,510.8281 1748.6844,510.6094 Q1748.075,510.3906 1747.45,510.3906 Q1746.6844,510.3906 1746.0516,510.7188 Q1745.4188,511.0469 1744.9266,511.7969 Q1744.4344,512.5469 1744.4344,513.5781 L1744.4344,514.6719 Q1744.4344,515.9063 1745.325,516.7266 Q1746.2156,517.5469 1747.8094,517.5469 Q1748.7469,517.5469 1749.4031,517.2969 Q1749.7938,517.1406 1750.2156,516.7031 Q1750.4813,516.4375 1750.6297,516.3594 Q1750.7781,516.2813 1750.9813,516.2813 Q1751.3094,516.2813 1751.5672,516.5391 Q1751.825,516.7969 1751.825,517.1406 Q1751.825,517.4844 1751.4813,517.8906 Q1750.9813,518.4688 1750.1844,518.7969 Q1749.1063,519.25 1747.8094,519.25 Q1746.2938,519.25 1745.0906,518.625 Q1744.1063,518.125 1743.4188,517.0547 Q1742.7313,515.9844 1742.7313,514.7031 L1742.7313,513.5469 Q1742.7313,512.2188 1743.3484,511.0703 Q1743.9656,509.9219 1745.0594,509.3047 Q1746.1531,508.6875 1747.3875,508.6875 Q1748.1219,508.6875 1748.7703,508.8516 Q1749.4188,509.0156 1749.9656,509.375 Z "/><text fill="#000000" font-family="sans-serif" font-size="12" lengthAdjust="spacingAndGlyphs" textLength="47" x="1765.8" y="518.4102">UIButton</text><line style="stroke: #383838; stroke-width: 1.5;" x1="1712.5" x2="1835.5" y1="529.5" y2="529.5"/><text fill="#000000" font-family="sans-serif" font-size="11" lengthAdjust="spacingAndGlyphs" textLength="113" x="1717.5" y="544.9189">functionToCall: function</text><line style="stroke: #383838; stroke-width: 1.5;" x1="1712.5" x2="1835.5" y1="551.3359" y2="551.3359"/><!--class UIGenerator--><rect fill="#F8F8F8" height="75.6719" id="UIGenerator" style="stroke: #383838; stroke-width: 1.5;" width="305" x="1385.5" y="194.5"/><ellipse cx="1500.25" cy="210.5" fill="#C2C2C2" rx="11" ry="11" style="stroke: #383838; stroke-width: 1.0;"/><path d="M1503.0156,206.375 Q1503.1719,206.1563 1503.3594,206.0469 Q1503.5469,205.9375 1503.7656,205.9375 Q1504.1406,205.9375 1504.375,206.1953 Q1504.6094,206.4531 1504.6094,207.0625 L1504.6094,208.5156 Q1504.6094,209.125 1504.375,209.3906 Q1504.1406,209.6563 1503.7656,209.6563 Q1503.4219,209.6563 1503.2188,209.4531 Q1503.0156,209.2656 1502.9063,208.75 Q1502.8594,208.3906 1502.6719,208.2031 Q1502.3438,207.8281 1501.7344,207.6094 Q1501.125,207.3906 1500.5,207.3906 Q1499.7344,207.3906 1499.1016,207.7188 Q1498.4688,208.0469 1497.9766,208.7969 Q1497.4844,209.5469 1497.4844,210.5781 L1497.4844,211.6719 Q1497.4844,212.9063 1498.375,213.7266 Q1499.2656,214.5469 1500.8594,214.5469 Q1501.7969,214.5469 1502.4531,214.2969 Q1502.8438,214.1406 1503.2656,213.7031 Q1503.5313,213.4375 1503.6797,213.3594 Q1503.8281,213.2813 1504.0313,213.2813 Q1504.3594,213.2813 1504.6172,213.5391 Q1504.875,213.7969 1504.875,214.1406 Q1504.875,214.4844 1504.5313,214.8906 Q1504.0313,215.4688 1503.2344,215.7969 Q1502.1563,216.25 1500.8594,216.25 Q1499.3438,216.25 1498.1406,215.625 Q1497.1563,215.125 1496.4688,214.0547 Q1495.7813,212.9844 1495.7813,211.7031 L1495.7813,210.5469 Q1495.7813,209.2188 1496.3984,208.0703 Q1497.0156,206.9219 1498.1094,206.3047 Q1499.2031,205.6875 1500.4375,205.6875 Q1501.1719,205.6875 1501.8203,205.8516 Q1502.4688,206.0156 1503.0156,206.375 Z "/><text fill="#000000" font-family="sans-serif" font-size="12" lengthAdjust="spacingAndGlyphs" textLength="67" x="1520.75" y="215.4102">UIGenerator</text><line style="stroke: #383838; stroke-width: 1.5;" x1="1386.5" x2="1689.5" y1="226.5" y2="226.5"/><line style="stroke: #383838; stroke-width: 1.5;" x1="1386.5" x2="1689.5" y1="234.5" y2="234.5"/><text fill="#000000" font-family="sans-serif" font-size="11" lengthAdjust="spacingAndGlyphs" textLength="146" x="1391.5" y="249.9189">createButton(...): FudgeButton</text><text fill="#000000" font-family="sans-serif" font-size="11" lengthAdjust="spacingAndGlyphs" textLength="293" x="1391.5" y="263.7549">createUIElementFromMutator(mutator: Mutator): HTMLElement</text><!--class Animation--><rect fill="#F8F8F8" height="255.5391" id="Animation" style="stroke: #383838; stroke-width: 1.5;" width="221" x="706.5" y="104.5"/><ellipse cx="785.25" cy="120.5" fill="#C2C2C2" rx="11" ry="11" style="stroke: #383838; stroke-width: 1.0;"/><path d="M788.0156,116.375 Q788.1719,116.1563 788.3594,116.0469 Q788.5469,115.9375 788.7656,115.9375 Q789.1406,115.9375 789.375,116.1953 Q789.6094,116.4531 789.6094,117.0625 L789.6094,118.5156 Q789.6094,119.125 789.375,119.3906 Q789.1406,119.6563 788.7656,119.6563 Q788.4219,119.6563 788.2188,119.4531 Q788.0156,119.2656 787.9063,118.75 Q787.8594,118.3906 787.6719,118.2031 Q787.3438,117.8281 786.7344,117.6094 Q786.125,117.3906 785.5,117.3906 Q784.7344,117.3906 784.1016,117.7188 Q783.4688,118.0469 782.9766,118.7969 Q782.4844,119.5469 782.4844,120.5781 L782.4844,121.6719 Q782.4844,122.9063 783.375,123.7266 Q784.2656,124.5469 785.8594,124.5469 Q786.7969,124.5469 787.4531,124.2969 Q787.8438,124.1406 788.2656,123.7031 Q788.5313,123.4375 788.6797,123.3594 Q788.8281,123.2813 789.0313,123.2813 Q789.3594,123.2813 789.6172,123.5391 Q789.875,123.7969 789.875,124.1406 Q789.875,124.4844 789.5313,124.8906 Q789.0313,125.4688 788.2344,125.7969 Q787.1563,126.25 785.8594,126.25 Q784.3438,126.25 783.1406,125.625 Q782.1563,125.125 781.4688,124.0547 Q780.7813,122.9844 780.7813,121.7031 L780.7813,120.5469 Q780.7813,119.2188 781.3984,118.0703 Q782.0156,116.9219 783.1094,116.3047 Q784.2031,115.6875 785.4375,115.6875 Q786.1719,115.6875 786.8203,115.8516 Q787.4688,116.0156 788.0156,116.375 Z "/><text fill="#000000" font-family="sans-serif" font-size="12" lengthAdjust="spacingAndGlyphs" textLength="55" x="805.75" y="125.4102">Animation</text><line style="stroke: #383838; stroke-width: 1.5;" x1="707.5" x2="926.5" y1="136.5" y2="136.5"/><text fill="#000000" font-family="sans-serif" font-size="11" lengthAdjust="spacingAndGlyphs" textLength="65" x="712.5" y="151.9189">+name: string</text><text fill="#000000" font-family="sans-serif" font-size="11" lengthAdjust="spacingAndGlyphs" textLength="185" x="712.5" y="165.7549">+animatedObject: MutatorForAnimation</text><text fill="#000000" font-family="sans-serif" font-size="11" lengthAdjust="spacingAndGlyphs" textLength="209" x="712.5" y="179.5908">+sequences: {[property: string]: Sequence}</text><text fill="#000000" font-family="sans-serif" font-size="11" lengthAdjust="spacingAndGlyphs" textLength="92" x="712.5" y="193.4268">+startTime: number</text><text fill="#000000" font-family="sans-serif" font-size="11" lengthAdjust="spacingAndGlyphs" textLength="87" x="712.5" y="207.2627">+totaltime: number</text><text fill="#000000" font-family="sans-serif" font-size="11" lengthAdjust="spacingAndGlyphs" textLength="78" x="712.5" y="221.0986">+events: Event[]</text><text fill="#000000" font-family="sans-serif" font-size="11" lengthAdjust="spacingAndGlyphs" textLength="72" x="712.5" y="234.9346">+labels: Label[]</text><text fill="#000000" font-family="sans-serif" font-size="11" lengthAdjust="spacingAndGlyphs" textLength="115" x="712.5" y="248.7705">+playMode: PLAYMODE</text><text fill="#000000" font-family="sans-serif" font-size="11" lengthAdjust="spacingAndGlyphs" textLength="64" x="712.5" y="262.6064">+fps: number</text><text fill="#000000" font-family="sans-serif" font-size="11" lengthAdjust="spacingAndGlyphs" textLength="66" x="712.5" y="276.4424">+sps: number</text><text fill="#000000" font-family="sans-serif" font-size="11" lengthAdjust="spacingAndGlyphs" textLength="110" x="712.5" y="290.2783">-previousTime: number</text><text fill="#000000" font-family="sans-serif" font-size="11" lengthAdjust="spacingAndGlyphs" textLength="90" x="712.5" y="304.1143">-ranOnce: boolean</text><line style="stroke: #383838; stroke-width: 1.5;" x1="707.5" x2="926.5" y1="310.5313" y2="310.5313"/><text fill="#000000" font-family="sans-serif" font-size="11" lengthAdjust="spacingAndGlyphs" textLength="47" x="712.5" y="325.9502">+update()</text><text fill="#000000" font-family="sans-serif" font-size="11" lengthAdjust="spacingAndGlyphs" textLength="95" x="712.5" y="339.7861">+gotoLabel(l: Label)</text><text fill="#000000" font-family="sans-serif" font-size="11" lengthAdjust="spacingAndGlyphs" textLength="74" x="712.5" y="353.6221">-checkEvents()</text><!--class Sequence--><rect fill="#F8F8F8" height="103.3438" id="Sequence" style="stroke: #383838; stroke-width: 1.5;" width="176" x="500" y="477"/><ellipse cx="555.75" cy="493" fill="#C2C2C2" rx="11" ry="11" style="stroke: #383838; stroke-width: 1.0;"/><path d="M558.5156,488.875 Q558.6719,488.6563 558.8594,488.5469 Q559.0469,488.4375 559.2656,488.4375 Q559.6406,488.4375 559.875,488.6953 Q560.1094,488.9531 560.1094,489.5625 L560.1094,491.0156 Q560.1094,491.625 559.875,491.8906 Q559.6406,492.1563 559.2656,492.1563 Q558.9219,492.1563 558.7188,491.9531 Q558.5156,491.7656 558.4063,491.25 Q558.3594,490.8906 558.1719,490.7031 Q557.8438,490.3281 557.2344,490.1094 Q556.625,489.8906 556,489.8906 Q555.2344,489.8906 554.6016,490.2188 Q553.9688,490.5469 553.4766,491.2969 Q552.9844,492.0469 552.9844,493.0781 L552.9844,494.1719 Q552.9844,495.4063 553.875,496.2266 Q554.7656,497.0469 556.3594,497.0469 Q557.2969,497.0469 557.9531,496.7969 Q558.3438,496.6406 558.7656,496.2031 Q559.0313,495.9375 559.1797,495.8594 Q559.3281,495.7813 559.5313,495.7813 Q559.8594,495.7813 560.1172,496.0391 Q560.375,496.2969 560.375,496.6406 Q560.375,496.9844 560.0313,497.3906 Q559.5313,497.9688 558.7344,498.2969 Q557.6563,498.75 556.3594,498.75 Q554.8438,498.75 553.6406,498.125 Q552.6563,497.625 551.9688,496.5547 Q551.2813,495.4844 551.2813,494.2031 L551.2813,493.0469 Q551.2813,491.7188 551.8984,490.5703 Q552.5156,489.4219 553.6094,488.8047 Q554.7031,488.1875 555.9375,488.1875 Q556.6719,488.1875 557.3203,488.3516 Q557.9688,488.5156 558.5156,488.875 Z "/><text fill="#000000" font-family="sans-serif" font-size="12" lengthAdjust="spacingAndGlyphs" textLength="56" x="576.25" y="497.9102">Sequence</text><line style="stroke: #383838; stroke-width: 1.5;" x1="501" x2="675" y1="509" y2="509"/><text fill="#000000" font-family="sans-serif" font-size="11" lengthAdjust="spacingAndGlyphs" textLength="60" x="506" y="524.4189">+keys: Key[]</text><line style="stroke: #383838; stroke-width: 1.5;" x1="501" x2="675" y1="530.8359" y2="530.8359"/><text fill="#000000" font-family="sans-serif" font-size="11" lengthAdjust="spacingAndGlyphs" textLength="164" x="506" y="546.2549">+evaluate(_time: number): number</text><text fill="#000000" font-family="sans-serif" font-size="11" lengthAdjust="spacingAndGlyphs" textLength="96" x="506" y="560.0908">+addKey(_key:Key)</text><text fill="#000000" font-family="sans-serif" font-size="11" lengthAdjust="spacingAndGlyphs" textLength="114" x="506" y="573.9268">+removeKey(_key:Key)</text><!--class Key--><rect fill="#F8F8F8" height="214.0313" id="Key" style="stroke: #383838; stroke-width: 1.5;" width="156" x="640" y="681"/><ellipse cx="703.75" cy="697" fill="#C2C2C2" rx="11" ry="11" style="stroke: #383838; stroke-width: 1.0;"/><path d="M706.5156,692.875 Q706.6719,692.6563 706.8594,692.5469 Q707.0469,692.4375 707.2656,692.4375 Q707.6406,692.4375 707.875,692.6953 Q708.1094,692.9531 708.1094,693.5625 L708.1094,695.0156 Q708.1094,695.625 707.875,695.8906 Q707.6406,696.1563 707.2656,696.1563 Q706.9219,696.1563 706.7188,695.9531 Q706.5156,695.7656 706.4063,695.25 Q706.3594,694.8906 706.1719,694.7031 Q705.8438,694.3281 705.2344,694.1094 Q704.625,693.8906 704,693.8906 Q703.2344,693.8906 702.6016,694.2188 Q701.9688,694.5469 701.4766,695.2969 Q700.9844,696.0469 700.9844,697.0781 L700.9844,698.1719 Q700.9844,699.4063 701.875,700.2266 Q702.7656,701.0469 704.3594,701.0469 Q705.2969,701.0469 705.9531,700.7969 Q706.3438,700.6406 706.7656,700.2031 Q707.0313,699.9375 707.1797,699.8594 Q707.3281,699.7813 707.5313,699.7813 Q707.8594,699.7813 708.1172,700.0391 Q708.375,700.2969 708.375,700.6406 Q708.375,700.9844 708.0313,701.3906 Q707.5313,701.9688 706.7344,702.2969 Q705.6563,702.75 704.3594,702.75 Q702.8438,702.75 701.6406,702.125 Q700.6563,701.625 699.9688,700.5547 Q699.2813,699.4844 699.2813,698.2031 L699.2813,697.0469 Q699.2813,695.7188 699.8984,694.5703 Q700.5156,693.4219 701.6094,692.8047 Q702.7031,692.1875 703.9375,692.1875 Q704.6719,692.1875 705.3203,692.3516 Q705.9688,692.5156 706.5156,692.875 Z "/><text fill="#000000" font-family="sans-serif" font-size="12" lengthAdjust="spacingAndGlyphs" textLength="20" x="724.25" y="701.9102">Key</text><line style="stroke: #383838; stroke-width: 1.5;" x1="641" x2="795" y1="713" y2="713"/><text fill="#000000" font-family="sans-serif" font-size="11" lengthAdjust="spacingAndGlyphs" textLength="67" x="646" y="728.4189">+time: number</text><text fill="#000000" font-family="sans-serif" font-size="11" lengthAdjust="spacingAndGlyphs" textLength="74" x="646" y="742.2549">+value: number</text><text fill="#000000" font-family="sans-serif" font-size="11" lengthAdjust="spacingAndGlyphs" textLength="80" x="646" y="756.0908">-slopeIn: number</text><text fill="#000000" font-family="sans-serif" font-size="11" lengthAdjust="spacingAndGlyphs" textLength="89" x="646" y="769.9268">-slopeOut: number</text><text fill="#000000" font-family="sans-serif" font-size="11" lengthAdjust="spacingAndGlyphs" textLength="100" x="646" y="783.7627">+functionIn: Function</text><text fill="#000000" font-family="sans-serif" font-size="11" lengthAdjust="spacingAndGlyphs" textLength="109" x="646" y="797.5986">+functionOut: Function</text><text fill="#000000" font-family="sans-serif" font-size="11" lengthAdjust="spacingAndGlyphs" textLength="81" x="646" y="811.4346">-broken: boolean</text><text fill="#000000" font-family="sans-serif" font-size="11" lengthAdjust="spacingAndGlyphs" textLength="79" x="646" y="825.2705">+path2d: Path2D</text><line style="stroke: #383838; stroke-width: 1.5;" x1="641" x2="795" y1="831.6875" y2="831.6875"/><text fill="#000000" font-family="sans-serif" font-size="11" lengthAdjust="spacingAndGlyphs" textLength="135" x="646" y="847.1064">+setSlopeIn(_slope:number)</text><text fill="#000000" font-family="sans-serif" font-size="11" lengthAdjust="spacingAndGlyphs" textLength="144" x="646" y="860.9424">+setSlopeOut(_slope:number)</text><text fill="#000000" font-family="sans-serif" font-size="11" lengthAdjust="spacingAndGlyphs" textLength="91" x="646" y="874.7783">+generatePath2D()</text><text fill="#000000" font-family="sans-serif" font-size="11" lengthAdjust="spacingAndGlyphs" text-decoration="underline" textLength="101" x="646" y="888.6143">+sort(a: Key, b: Key)</text><!--class Function--><rect fill="#F8F8F8" height="186.3594" id="Function" style="stroke: #383838; stroke-width: 1.5;" width="176" x="630" y="956"/><ellipse cx="690.25" cy="972" fill="#C2C2C2" rx="11" ry="11" style="stroke: #383838; stroke-width: 1.0;"/><path d="M693.0156,967.875 Q693.1719,967.6563 693.3594,967.5469 Q693.5469,967.4375 693.7656,967.4375 Q694.1406,967.4375 694.375,967.6953 Q694.6094,967.9531 694.6094,968.5625 L694.6094,970.0156 Q694.6094,970.625 694.375,970.8906 Q694.1406,971.1563 693.7656,971.1563 Q693.4219,971.1563 693.2188,970.9531 Q693.0156,970.7656 692.9063,970.25 Q692.8594,969.8906 692.6719,969.7031 Q692.3438,969.3281 691.7344,969.1094 Q691.125,968.8906 690.5,968.8906 Q689.7344,968.8906 689.1016,969.2188 Q688.4688,969.5469 687.9766,970.2969 Q687.4844,971.0469 687.4844,972.0781 L687.4844,973.1719 Q687.4844,974.4063 688.375,975.2266 Q689.2656,976.0469 690.8594,976.0469 Q691.7969,976.0469 692.4531,975.7969 Q692.8438,975.6406 693.2656,975.2031 Q693.5313,974.9375 693.6797,974.8594 Q693.8281,974.7813 694.0313,974.7813 Q694.3594,974.7813 694.6172,975.0391 Q694.875,975.2969 694.875,975.6406 Q694.875,975.9844 694.5313,976.3906 Q694.0313,976.9688 693.2344,977.2969 Q692.1563,977.75 690.8594,977.75 Q689.3438,977.75 688.1406,977.125 Q687.1563,976.625 686.4688,975.5547 Q685.7813,974.4844 685.7813,973.2031 L685.7813,972.0469 Q685.7813,970.7188 686.3984,969.5703 Q687.0156,968.4219 688.1094,967.8047 Q689.2031,967.1875 690.4375,967.1875 Q691.1719,967.1875 691.8203,967.3516 Q692.4688,967.5156 693.0156,967.875 Z "/><text fill="#000000" font-family="sans-serif" font-size="12" lengthAdjust="spacingAndGlyphs" textLength="47" x="710.75" y="976.9102">Function</text><line style="stroke: #383838; stroke-width: 1.5;" x1="631" x2="805" y1="988" y2="988"/><text fill="#000000" font-family="sans-serif" font-size="11" lengthAdjust="spacingAndGlyphs" textLength="52" x="636" y="1003.4189">-a: number</text><text fill="#000000" font-family="sans-serif" font-size="11" lengthAdjust="spacingAndGlyphs" textLength="52" x="636" y="1017.2549">-b: number</text><text fill="#000000" font-family="sans-serif" font-size="11" lengthAdjust="spacingAndGlyphs" textLength="52" x="636" y="1031.0908">-c: number</text><text fill="#000000" font-family="sans-serif" font-size="11" lengthAdjust="spacingAndGlyphs" textLength="52" x="636" y="1044.9268">-d: number</text><text fill="#000000" font-family="sans-serif" font-size="11" lengthAdjust="spacingAndGlyphs" textLength="63" x="636" y="1058.7627">-keyOut: Key</text><text fill="#000000" font-family="sans-serif" font-size="11" lengthAdjust="spacingAndGlyphs" textLength="54" x="636" y="1072.5986">-keyIn: Key</text><line style="stroke: #383838; stroke-width: 1.5;" x1="631" x2="805" y1="1079.0156" y2="1079.0156"/><text fill="#000000" font-family="sans-serif" font-size="11" lengthAdjust="spacingAndGlyphs" textLength="164" x="636" y="1094.4346">+evaluate(_time: number): number</text><text fill="#000000" font-family="sans-serif" font-size="11" lengthAdjust="spacingAndGlyphs" textLength="55" x="636" y="1108.2705">-calculate()</text><text fill="#000000" font-family="sans-serif" font-size="11" lengthAdjust="spacingAndGlyphs" textLength="77" x="636" y="1122.1064">-setKeyIn(_key)</text><text fill="#000000" font-family="sans-serif" font-size="11" lengthAdjust="spacingAndGlyphs" textLength="86" x="636" y="1135.9424">-setKeyOut(_key)</text><!--class PLAYMODE--><rect fill="#F8F8F8" height="144.8516" id="PLAYMODE" style="stroke: #383838; stroke-width: 1.5;" width="128" x="543" y="160"/><ellipse cx="572.4" cy="176" fill="#ABABAB" rx="11" ry="11" style="stroke: #383838; stroke-width: 1.0;"/><path d="M571.2594,176.7969 L571.2594,179.2969 L575.5875,179.2969 L575.5875,178.375 Q575.5875,177.7656 575.8297,177.5 Q576.0719,177.2344 576.4469,177.2344 Q576.8219,177.2344 577.0563,177.5 Q577.2906,177.7656 577.2906,178.375 L577.2906,181 L569.2906,181 Q568.6656,181 568.4078,180.7656 Q568.15,180.5313 568.15,180.1406 Q568.15,179.7656 568.4156,179.5313 Q568.6813,179.2969 569.2906,179.2969 L569.5563,179.2969 L569.5563,172.6406 L569.2906,172.6406 Q568.6656,172.6406 568.4078,172.4063 Q568.15,172.1719 568.15,171.7813 Q568.15,171.4063 568.4078,171.1719 Q568.6656,170.9375 569.2906,170.9375 L576.9156,170.9375 L576.9156,173.5313 Q576.9156,174.1406 576.6891,174.3984 Q576.4625,174.6563 576.0719,174.6563 Q575.6969,174.6563 575.4625,174.3984 Q575.2281,174.1406 575.2281,173.5313 L575.2281,172.6406 L571.2594,172.6406 L571.2594,175.0938 L572.7438,175.0938 Q572.7438,174.4375 572.8688,174.25 Q573.1344,173.8438 573.6031,173.8438 Q573.9781,173.8438 574.2125,174.1016 Q574.4469,174.3594 574.4469,174.9688 L574.4469,176.9375 Q574.4469,177.4844 574.3219,177.6719 Q574.0563,178.0625 573.6031,178.0625 Q573.1344,178.0625 572.8688,177.6563 Q572.7438,177.4688 572.7438,176.7969 L571.2594,176.7969 Z "/><text fill="#000000" font-family="sans-serif" font-size="12" lengthAdjust="spacingAndGlyphs" textLength="64" x="589.6" y="180.9102">PLAYMODE</text><line style="stroke: #383838; stroke-width: 1.5;" x1="544" x2="670" y1="192" y2="192"/><text fill="#000000" font-family="sans-serif" font-size="11" lengthAdjust="spacingAndGlyphs" textLength="37" x="549" y="207.4189">INHERIT</text><text fill="#000000" font-family="sans-serif" font-size="11" lengthAdjust="spacingAndGlyphs" textLength="28" x="549" y="221.2549">LOOP</text><text fill="#000000" font-family="sans-serif" font-size="11" lengthAdjust="spacingAndGlyphs" textLength="52" x="549" y="235.0908">PINGPONG</text><text fill="#000000" font-family="sans-serif" font-size="11" lengthAdjust="spacingAndGlyphs" textLength="56" x="549" y="248.9268">PLAYONCE</text><text fill="#000000" font-family="sans-serif" font-size="11" lengthAdjust="spacingAndGlyphs" textLength="116" x="549" y="262.7627">PLAYONCESTOPAFTER</text><text fill="#000000" font-family="sans-serif" font-size="11" lengthAdjust="spacingAndGlyphs" textLength="75" x="549" y="276.5986">REVERSELOOP</text><text fill="#000000" font-family="sans-serif" font-size="11" lengthAdjust="spacingAndGlyphs" textLength="27" x="549" y="290.4346">STOP</text><line style="stroke: #383838; stroke-width: 1.5;" x1="544" x2="670" y1="296.8516" y2="296.8516"/><!--class Label--><rect fill="#F8F8F8" height="75.6719" id="Label" style="stroke: #383838; stroke-width: 1.5;" width="73" x="711.5" y="490.5"/><ellipse cx="731" cy="506.5" fill="#C2C2C2" rx="11" ry="11" style="stroke: #383838; stroke-width: 1.0;"/><path d="M733.7656,502.375 Q733.9219,502.1563 734.1094,502.0469 Q734.2969,501.9375 734.5156,501.9375 Q734.8906,501.9375 735.125,502.1953 Q735.3594,502.4531 735.3594,503.0625 L735.3594,504.5156 Q735.3594,505.125 735.125,505.3906 Q734.8906,505.6563 734.5156,505.6563 Q734.1719,505.6563 733.9688,505.4531 Q733.7656,505.2656 733.6563,504.75 Q733.6094,504.3906 733.4219,504.2031 Q733.0938,503.8281 732.4844,503.6094 Q731.875,503.3906 731.25,503.3906 Q730.4844,503.3906 729.8516,503.7188 Q729.2188,504.0469 728.7266,504.7969 Q728.2344,505.5469 728.2344,506.5781 L728.2344,507.6719 Q728.2344,508.9063 729.125,509.7266 Q730.0156,510.5469 731.6094,510.5469 Q732.5469,510.5469 733.2031,510.2969 Q733.5938,510.1406 734.0156,509.7031 Q734.2813,509.4375 734.4297,509.3594 Q734.5781,509.2813 734.7813,509.2813 Q735.1094,509.2813 735.3672,509.5391 Q735.625,509.7969 735.625,510.1406 Q735.625,510.4844 735.2813,510.8906 Q734.7813,511.4688 733.9844,511.7969 Q732.9063,512.25 731.6094,512.25 Q730.0938,512.25 728.8906,511.625 Q727.9063,511.125 727.2188,510.0547 Q726.5313,508.9844 726.5313,507.7031 L726.5313,506.5469 Q726.5313,505.2188 727.1484,504.0703 Q727.7656,502.9219 728.8594,502.3047 Q729.9531,501.6875 731.1875,501.6875 Q731.9219,501.6875 732.5703,501.8516 Q733.2188,502.0156 733.7656,502.375 Z "/><text fill="#000000" font-family="sans-serif" font-size="12" lengthAdjust="spacingAndGlyphs" textLength="31" x="746" y="511.4102">Label</text><line style="stroke: #383838; stroke-width: 1.5;" x1="712.5" x2="783.5" y1="522.5" y2="522.5"/><text fill="#000000" font-family="sans-serif" font-size="11" lengthAdjust="spacingAndGlyphs" textLength="61" x="717.5" y="537.9189">time: number</text><text fill="#000000" font-family="sans-serif" font-size="11" lengthAdjust="spacingAndGlyphs" textLength="59" x="717.5" y="551.7549">name: string</text><line style="stroke: #383838; stroke-width: 1.5;" x1="712.5" x2="783.5" y1="558.1719" y2="558.1719"/><!--class AnimationEvent--><rect fill="#F8F8F8" height="75.6719" id="AnimationEvent" style="stroke: #383838; stroke-width: 1.5;" width="117" x="819.5" y="490.5"/><ellipse cx="834.5" cy="506.5" fill="#C2C2C2" rx="11" ry="11" style="stroke: #383838; stroke-width: 1.0;"/><path d="M837.2656,502.375 Q837.4219,502.1563 837.6094,502.0469 Q837.7969,501.9375 838.0156,501.9375 Q838.3906,501.9375 838.625,502.1953 Q838.8594,502.4531 838.8594,503.0625 L838.8594,504.5156 Q838.8594,505.125 838.625,505.3906 Q838.3906,505.6563 838.0156,505.6563 Q837.6719,505.6563 837.4688,505.4531 Q837.2656,505.2656 837.1563,504.75 Q837.1094,504.3906 836.9219,504.2031 Q836.5938,503.8281 835.9844,503.6094 Q835.375,503.3906 834.75,503.3906 Q833.9844,503.3906 833.3516,503.7188 Q832.7188,504.0469 832.2266,504.7969 Q831.7344,505.5469 831.7344,506.5781 L831.7344,507.6719 Q831.7344,508.9063 832.625,509.7266 Q833.5156,510.5469 835.1094,510.5469 Q836.0469,510.5469 836.7031,510.2969 Q837.0938,510.1406 837.5156,509.7031 Q837.7813,509.4375 837.9297,509.3594 Q838.0781,509.2813 838.2813,509.2813 Q838.6094,509.2813 838.8672,509.5391 Q839.125,509.7969 839.125,510.1406 Q839.125,510.4844 838.7813,510.8906 Q838.2813,511.4688 837.4844,511.7969 Q836.4063,512.25 835.1094,512.25 Q833.5938,512.25 832.3906,511.625 Q831.4063,511.125 830.7188,510.0547 Q830.0313,508.9844 830.0313,507.7031 L830.0313,506.5469 Q830.0313,505.2188 830.6484,504.0703 Q831.2656,502.9219 832.3594,502.3047 Q833.4531,501.6875 834.6875,501.6875 Q835.4219,501.6875 836.0703,501.8516 Q836.7188,502.0156 837.2656,502.375 Z "/><text fill="#000000" font-family="sans-serif" font-size="12" lengthAdjust="spacingAndGlyphs" textLength="85" x="848.5" y="511.4102">AnimationEvent</text><line style="stroke: #383838; stroke-width: 1.5;" x1="820.5" x2="935.5" y1="522.5" y2="522.5"/><text fill="#000000" font-family="sans-serif" font-size="11" lengthAdjust="spacingAndGlyphs" textLength="59" x="825.5" y="537.9189">name: string</text><text fill="#000000" font-family="sans-serif" font-size="11" lengthAdjust="spacingAndGlyphs" textLength="61" x="825.5" y="551.7549">time: number</text><line style="stroke: #383838; stroke-width: 1.5;" x1="820.5" x2="935.5" y1="558.1719" y2="558.1719"/><!--class Editor--><rect fill="#F8F8F8" height="227.8672" id="Editor" style="stroke: #383838; stroke-width: 1.5;" width="170" x="93" y="118.5"/><ellipse cx="157.75" cy="134.5" fill="#C2C2C2" rx="11" ry="11" style="stroke: #383838; stroke-width: 1.0;"/><path d="M160.5156,130.375 Q160.6719,130.1563 160.8594,130.0469 Q161.0469,129.9375 161.2656,129.9375 Q161.6406,129.9375 161.875,130.1953 Q162.1094,130.4531 162.1094,131.0625 L162.1094,132.5156 Q162.1094,133.125 161.875,133.3906 Q161.6406,133.6563 161.2656,133.6563 Q160.9219,133.6563 160.7188,133.4531 Q160.5156,133.2656 160.4063,132.75 Q160.3594,132.3906 160.1719,132.2031 Q159.8438,131.8281 159.2344,131.6094 Q158.625,131.3906 158,131.3906 Q157.2344,131.3906 156.6016,131.7188 Q155.9688,132.0469 155.4766,132.7969 Q154.9844,133.5469 154.9844,134.5781 L154.9844,135.6719 Q154.9844,136.9063 155.875,137.7266 Q156.7656,138.5469 158.3594,138.5469 Q159.2969,138.5469 159.9531,138.2969 Q160.3438,138.1406 160.7656,137.7031 Q161.0313,137.4375 161.1797,137.3594 Q161.3281,137.2813 161.5313,137.2813 Q161.8594,137.2813 162.1172,137.5391 Q162.375,137.7969 162.375,138.1406 Q162.375,138.4844 162.0313,138.8906 Q161.5313,139.4688 160.7344,139.7969 Q159.6563,140.25 158.3594,140.25 Q156.8438,140.25 155.6406,139.625 Q154.6563,139.125 153.9688,138.0547 Q153.2813,136.9844 153.2813,135.7031 L153.2813,134.5469 Q153.2813,133.2188 153.8984,132.0703 Q154.5156,130.9219 155.6094,130.3047 Q156.7031,129.6875 157.9375,129.6875 Q158.6719,129.6875 159.3203,129.8516 Q159.9688,130.0156 160.5156,130.375 Z "/><text fill="#000000" font-family="sans-serif" font-size="12" lengthAdjust="spacingAndGlyphs" textLength="32" x="178.25" y="139.4102">Editor</text><line style="stroke: #383838; stroke-width: 1.5;" x1="94" x2="262" y1="150.5" y2="150.5"/><text fill="#000000" font-family="sans-serif" font-size="11" lengthAdjust="spacingAndGlyphs" textLength="110" x="99" y="165.9189">animations: Animation[]</text><text fill="#000000" font-family="sans-serif" font-size="11" lengthAdjust="spacingAndGlyphs" textLength="111" x="99" y="179.7549">cursorPosition: number</text><text fill="#000000" font-family="sans-serif" font-size="11" lengthAdjust="spacingAndGlyphs" textLength="158" x="99" y="193.5908">crc: CanvasRenderingContext2D</text><text fill="#000000" font-family="sans-serif" font-size="11" lengthAdjust="spacingAndGlyphs" textLength="141" x="99" y="207.4268">selectedAnimation: Animation</text><text fill="#000000" font-family="sans-serif" font-size="11" lengthAdjust="spacingAndGlyphs" text-decoration="underline" textLength="104" x="99" y="221.2627">pressedKeys: string[]</text><text fill="#000000" font-family="sans-serif" font-size="11" lengthAdjust="spacingAndGlyphs" textLength="85" x="99" y="235.0986">selectedKey: Key</text><text fill="#000000" font-family="sans-serif" font-size="11" lengthAdjust="spacingAndGlyphs" textLength="134" x="99" y="248.9346">selectedSlope: "left" | "right"</text><line style="stroke: #383838; stroke-width: 1.5;" x1="94" x2="262" y1="255.3516" y2="255.3516"/><text fill="#000000" font-family="sans-serif" font-size="11" lengthAdjust="spacingAndGlyphs" textLength="68" x="99" y="270.7705">mousedown()</text><text fill="#000000" font-family="sans-serif" font-size="11" lengthAdjust="spacingAndGlyphs" textLength="66" x="99" y="284.6064">mousemove()</text><text fill="#000000" font-family="sans-serif" font-size="11" lengthAdjust="spacingAndGlyphs" textLength="52" x="99" y="298.4424">mouseup()</text><text fill="#000000" font-family="sans-serif" font-size="11" lengthAdjust="spacingAndGlyphs" textLength="53" x="99" y="312.2783">keydown()</text><text fill="#000000" font-family="sans-serif" font-size="11" lengthAdjust="spacingAndGlyphs" textLength="37" x="99" y="326.1143">keyup()</text><text fill="#000000" font-family="sans-serif" font-size="11" lengthAdjust="spacingAndGlyphs" textLength="34" x="99" y="339.9502">scroll()</text><!--class UIHandler--><rect fill="#F8F8F8" height="131.0156" id="UIHandler" style="stroke: #383838; stroke-width: 1.5;" width="141" x="302.5" y="463"/><ellipse cx="341.35" cy="479" fill="#C2C2C2" rx="11" ry="11" style="stroke: #383838; stroke-width: 1.0;"/><path d="M344.1156,474.875 Q344.2719,474.6563 344.4594,474.5469 Q344.6469,474.4375 344.8656,474.4375 Q345.2406,474.4375 345.475,474.6953 Q345.7094,474.9531 345.7094,475.5625 L345.7094,477.0156 Q345.7094,477.625 345.475,477.8906 Q345.2406,478.1563 344.8656,478.1563 Q344.5219,478.1563 344.3188,477.9531 Q344.1156,477.7656 344.0063,477.25 Q343.9594,476.8906 343.7719,476.7031 Q343.4438,476.3281 342.8344,476.1094 Q342.225,475.8906 341.6,475.8906 Q340.8344,475.8906 340.2016,476.2188 Q339.5688,476.5469 339.0766,477.2969 Q338.5844,478.0469 338.5844,479.0781 L338.5844,480.1719 Q338.5844,481.4063 339.475,482.2266 Q340.3656,483.0469 341.9594,483.0469 Q342.8969,483.0469 343.5531,482.7969 Q343.9438,482.6406 344.3656,482.2031 Q344.6313,481.9375 344.7797,481.8594 Q344.9281,481.7813 345.1313,481.7813 Q345.4594,481.7813 345.7172,482.0391 Q345.975,482.2969 345.975,482.6406 Q345.975,482.9844 345.6313,483.3906 Q345.1313,483.9688 344.3344,484.2969 Q343.2563,484.75 341.9594,484.75 Q340.4438,484.75 339.2406,484.125 Q338.2563,483.625 337.5688,482.5547 Q336.8813,481.4844 336.8813,480.2031 L336.8813,479.0469 Q336.8813,477.7188 337.4984,476.5703 Q338.1156,475.4219 339.2094,474.8047 Q340.3031,474.1875 341.5375,474.1875 Q342.2719,474.1875 342.9203,474.3516 Q343.5688,474.5156 344.1156,474.875 Z "/><text fill="#000000" font-family="sans-serif" font-size="12" lengthAdjust="spacingAndGlyphs" textLength="56" x="360.65" y="483.9102">UIHandler</text><line style="stroke: #383838; stroke-width: 1.5;" x1="303.5" x2="442.5" y1="495" y2="495"/><text fill="#000000" font-family="sans-serif" font-size="11" lengthAdjust="spacingAndGlyphs" text-decoration="underline" textLength="129" x="308.5" y="510.4189">views: typeof EditorView[]</text><text fill="#000000" font-family="sans-serif" font-size="11" lengthAdjust="spacingAndGlyphs" textLength="126" x="308.5" y="524.2549">selectedView: EditorView</text><line style="stroke: #383838; stroke-width: 1.5;" x1="303.5" x2="442.5" y1="530.6719" y2="530.6719"/><text fill="#000000" font-family="sans-serif" font-size="11" lengthAdjust="spacingAndGlyphs" textLength="48" x="308.5" y="546.0908">createUI()</text><text fill="#000000" font-family="sans-serif" font-size="11" lengthAdjust="spacingAndGlyphs" textLength="50" x="308.5" y="559.9268">updateUI()</text><text fill="#000000" font-family="sans-serif" font-size="11" lengthAdjust="spacingAndGlyphs" textLength="67" x="308.5" y="573.7627">switchView()</text><text fill="#000000" font-family="sans-serif" font-size="11" lengthAdjust="spacingAndGlyphs" text-decoration="underline" textLength="71" x="308.5" y="587.5986">registerView()</text><!--class EditorView--><rect fill="#F8F8F8" height="103.3438" id="EditorView" style="stroke: #383838; stroke-width: 1.5;" width="176" x="62" y="477"/><ellipse cx="116.75" cy="493" fill="#B1B1B1" rx="11" ry="11" style="stroke: #383838; stroke-width: 1.0;"/><path d="M117.7031,489.6406 L117.7031,496.2969 L119.4219,496.2969 Q120.0313,496.2969 120.2969,496.5313 Q120.5625,496.7656 120.5625,497.1563 Q120.5625,497.5313 120.2969,497.7656 Q120.0313,498 119.4219,498 L114.2813,498 Q113.6719,498 113.4063,497.7656 Q113.1406,497.5313 113.1406,497.1406 Q113.1406,496.7656 113.4063,496.5313 Q113.6719,496.2969 114.2813,496.2969 L116,496.2969 L116,489.6406 L114.2813,489.6406 Q113.6719,489.6406 113.4063,489.4063 Q113.1406,489.1719 113.1406,488.7813 Q113.1406,488.4063 113.4063,488.1719 Q113.6719,487.9375 114.2813,487.9375 L119.4219,487.9375 Q120.0313,487.9375 120.2969,488.1719 Q120.5625,488.4063 120.5625,488.7813 Q120.5625,489.1719 120.2969,489.4063 Q120.0313,489.6406 119.4219,489.6406 L117.7031,489.6406 Z "/><text fill="#000000" font-family="sans-serif" font-size="12" font-style="italic" lengthAdjust="spacingAndGlyphs" textLength="58" x="137.25" y="497.9102">EditorView</text><line style="stroke: #383838; stroke-width: 1.5;" x1="63" x2="237" y1="509" y2="509"/><text fill="#000000" font-family="sans-serif" font-size="11" lengthAdjust="spacingAndGlyphs" textLength="71" x="68" y="524.4189">scale: Vector2</text><line style="stroke: #383838; stroke-width: 1.5;" x1="63" x2="237" y1="530.8359" y2="530.8359"/><text fill="#000000" font-family="sans-serif" font-size="11" lengthAdjust="spacingAndGlyphs" textLength="164" x="68" y="546.2549">moveKeyTo(k: Key, pos: Vector2)</text><text fill="#000000" font-family="sans-serif" font-size="11" lengthAdjust="spacingAndGlyphs" textLength="67" x="68" y="560.0908">updateView()</text><text fill="#000000" font-family="sans-serif" font-size="11" lengthAdjust="spacingAndGlyphs" textLength="34" x="68" y="573.9268">scroll()</text><!--class Dopesheet--><rect fill="#F8F8F8" height="48" id="Dopesheet" style="stroke: #383838; stroke-width: 1.5;" width="93" x="72.5" y="764"/><ellipse cx="87.5" cy="780" fill="#C2C2C2" rx="11" ry="11" style="stroke: #383838; stroke-width: 1.0;"/><path d="M90.2656,775.875 Q90.4219,775.6563 90.6094,775.5469 Q90.7969,775.4375 91.0156,775.4375 Q91.3906,775.4375 91.625,775.6953 Q91.8594,775.9531 91.8594,776.5625 L91.8594,778.0156 Q91.8594,778.625 91.625,778.8906 Q91.3906,779.1563 91.0156,779.1563 Q90.6719,779.1563 90.4688,778.9531 Q90.2656,778.7656 90.1563,778.25 Q90.1094,777.8906 89.9219,777.7031 Q89.5938,777.3281 88.9844,777.1094 Q88.375,776.8906 87.75,776.8906 Q86.9844,776.8906 86.3516,777.2188 Q85.7188,777.5469 85.2266,778.2969 Q84.7344,779.0469 84.7344,780.0781 L84.7344,781.1719 Q84.7344,782.4063 85.625,783.2266 Q86.5156,784.0469 88.1094,784.0469 Q89.0469,784.0469 89.7031,783.7969 Q90.0938,783.6406 90.5156,783.2031 Q90.7813,782.9375 90.9297,782.8594 Q91.0781,782.7813 91.2813,782.7813 Q91.6094,782.7813 91.8672,783.0391 Q92.125,783.2969 92.125,783.6406 Q92.125,783.9844 91.7813,784.3906 Q91.2813,784.9688 90.4844,785.2969 Q89.4063,785.75 88.1094,785.75 Q86.5938,785.75 85.3906,785.125 Q84.4063,784.625 83.7188,783.5547 Q83.0313,782.4844 83.0313,781.2031 L83.0313,780.0469 Q83.0313,778.7188 83.6484,777.5703 Q84.2656,776.4219 85.3594,775.8047 Q86.4531,775.1875 87.6875,775.1875 Q88.4219,775.1875 89.0703,775.3516 Q89.7188,775.5156 90.2656,775.875 Z "/><text fill="#000000" font-family="sans-serif" font-size="12" lengthAdjust="spacingAndGlyphs" textLength="61" x="101.5" y="784.9102">Dopesheet</text><line style="stroke: #383838; stroke-width: 1.5;" x1="73.5" x2="164.5" y1="796" y2="796"/><line style="stroke: #383838; stroke-width: 1.5;" x1="73.5" x2="164.5" y1="804" y2="804"/><!--class CurveView--><rect fill="#F8F8F8" height="48" id="CurveView" style="stroke: #383838; stroke-width: 1.5;" width="90" x="201" y="764"/><ellipse cx="216" cy="780" fill="#C2C2C2" rx="11" ry="11" style="stroke: #383838; stroke-width: 1.0;"/><path d="M218.7656,775.875 Q218.9219,775.6563 219.1094,775.5469 Q219.2969,775.4375 219.5156,775.4375 Q219.8906,775.4375 220.125,775.6953 Q220.3594,775.9531 220.3594,776.5625 L220.3594,778.0156 Q220.3594,778.625 220.125,778.8906 Q219.8906,779.1563 219.5156,779.1563 Q219.1719,779.1563 218.9688,778.9531 Q218.7656,778.7656 218.6563,778.25 Q218.6094,777.8906 218.4219,777.7031 Q218.0938,777.3281 217.4844,777.1094 Q216.875,776.8906 216.25,776.8906 Q215.4844,776.8906 214.8516,777.2188 Q214.2188,777.5469 213.7266,778.2969 Q213.2344,779.0469 213.2344,780.0781 L213.2344,781.1719 Q213.2344,782.4063 214.125,783.2266 Q215.0156,784.0469 216.6094,784.0469 Q217.5469,784.0469 218.2031,783.7969 Q218.5938,783.6406 219.0156,783.2031 Q219.2813,782.9375 219.4297,782.8594 Q219.5781,782.7813 219.7813,782.7813 Q220.1094,782.7813 220.3672,783.0391 Q220.625,783.2969 220.625,783.6406 Q220.625,783.9844 220.2813,784.3906 Q219.7813,784.9688 218.9844,785.2969 Q217.9063,785.75 216.6094,785.75 Q215.0938,785.75 213.8906,785.125 Q212.9063,784.625 212.2188,783.5547 Q211.5313,782.4844 211.5313,781.2031 L211.5313,780.0469 Q211.5313,778.7188 212.1484,777.5703 Q212.7656,776.4219 213.8594,775.8047 Q214.9531,775.1875 216.1875,775.1875 Q216.9219,775.1875 217.5703,775.3516 Q218.2188,775.5156 218.7656,775.875 Z "/><text fill="#000000" font-family="sans-serif" font-size="12" lengthAdjust="spacingAndGlyphs" textLength="58" x="230" y="784.9102">CurveView</text><line style="stroke: #383838; stroke-width: 1.5;" x1="202" x2="290" y1="796" y2="796"/><line style="stroke: #383838; stroke-width: 1.5;" x1="202" x2="290" y1="804" y2="804"/><!--class Animation.Animation--><rect fill="#F8F8F8" height="48" id="Animation.Animation" style="stroke: #383838; stroke-width: 1.5;" width="145" x="298.5" y="208.5"/><ellipse cx="313.5" cy="224.5" fill="#C2C2C2" rx="11" ry="11" style="stroke: #383838; stroke-width: 1.0;"/><path d="M316.2656,220.375 Q316.4219,220.1563 316.6094,220.0469 Q316.7969,219.9375 317.0156,219.9375 Q317.3906,219.9375 317.625,220.1953 Q317.8594,220.4531 317.8594,221.0625 L317.8594,222.5156 Q317.8594,223.125 317.625,223.3906 Q317.3906,223.6563 317.0156,223.6563 Q316.6719,223.6563 316.4688,223.4531 Q316.2656,223.2656 316.1563,222.75 Q316.1094,222.3906 315.9219,222.2031 Q315.5938,221.8281 314.9844,221.6094 Q314.375,221.3906 313.75,221.3906 Q312.9844,221.3906 312.3516,221.7188 Q311.7188,222.0469 311.2266,222.7969 Q310.7344,223.5469 310.7344,224.5781 L310.7344,225.6719 Q310.7344,226.9063 311.625,227.7266 Q312.5156,228.5469 314.1094,228.5469 Q315.0469,228.5469 315.7031,228.2969 Q316.0938,228.1406 316.5156,227.7031 Q316.7813,227.4375 316.9297,227.3594 Q317.0781,227.2813 317.2813,227.2813 Q317.6094,227.2813 317.8672,227.5391 Q318.125,227.7969 318.125,228.1406 Q318.125,228.4844 317.7813,228.8906 Q317.2813,229.4688 316.4844,229.7969 Q315.4063,230.25 314.1094,230.25 Q312.5938,230.25 311.3906,229.625 Q310.4063,229.125 309.7188,228.0547 Q309.0313,226.9844 309.0313,225.7031 L309.0313,224.5469 Q309.0313,223.2188 309.6484,222.0703 Q310.2656,220.9219 311.3594,220.3047 Q312.4531,219.6875 313.6875,219.6875 Q314.4219,219.6875 315.0703,219.8516 Q315.7188,220.0156 316.2656,220.375 Z "/><text fill="#000000" font-family="sans-serif" font-size="12" lengthAdjust="spacingAndGlyphs" textLength="113" x="327.5" y="229.4102">Animation.Animation</text><line style="stroke: #383838; stroke-width: 1.5;" x1="299.5" x2="442.5" y1="240.5" y2="240.5"/><line style="stroke: #383838; stroke-width: 1.5;" x1="299.5" x2="442.5" y1="248.5" y2="248.5"/><!--class DOM.HTMLButtonElement--><rect fill="#F8F8F8" height="48" id="DOM.HTMLButtonElement" style="stroke: #383838; stroke-width: 1.5;" width="145" x="1917.5" y="208.5"/><ellipse cx="1932.5" cy="224.5" fill="#C2C2C2" rx="11" ry="11" style="stroke: #383838; stroke-width: 1.0;"/><path d="M1935.2656,220.375 Q1935.4219,220.1563 1935.6094,220.0469 Q1935.7969,219.9375 1936.0156,219.9375 Q1936.3906,219.9375 1936.625,220.1953 Q1936.8594,220.4531 1936.8594,221.0625 L1936.8594,222.5156 Q1936.8594,223.125 1936.625,223.3906 Q1936.3906,223.6563 1936.0156,223.6563 Q1935.6719,223.6563 1935.4688,223.4531 Q1935.2656,223.2656 1935.1563,222.75 Q1935.1094,222.3906 1934.9219,222.2031 Q1934.5938,221.8281 1933.9844,221.6094 Q1933.375,221.3906 1932.75,221.3906 Q1931.9844,221.3906 1931.3516,221.7188 Q1930.7188,222.0469 1930.2266,222.7969 Q1929.7344,223.5469 1929.7344,224.5781 L1929.7344,225.6719 Q1929.7344,226.9063 1930.625,227.7266 Q1931.5156,228.5469 1933.1094,228.5469 Q1934.0469,228.5469 1934.7031,228.2969 Q1935.0938,228.1406 1935.5156,227.7031 Q1935.7813,227.4375 1935.9297,227.3594 Q1936.0781,227.2813 1936.2813,227.2813 Q1936.6094,227.2813 1936.8672,227.5391 Q1937.125,227.7969 1937.125,228.1406 Q1937.125,228.4844 1936.7813,228.8906 Q1936.2813,229.4688 1935.4844,229.7969 Q1934.4063,230.25 1933.1094,230.25 Q1931.5938,230.25 1930.3906,229.625 Q1929.4063,229.125 1928.7188,228.0547 Q1928.0313,226.9844 1928.0313,225.7031 L1928.0313,224.5469 Q1928.0313,223.2188 1928.6484,222.0703 Q1929.2656,220.9219 1930.3594,220.3047 Q1931.4531,219.6875 1932.6875,219.6875 Q1933.4219,219.6875 1934.0703,219.8516 Q1934.7188,220.0156 1935.2656,220.375 Z "/><text fill="#000000" font-family="sans-serif" font-size="12" lengthAdjust="spacingAndGlyphs" textLength="113" x="1946.5" y="229.4102">HTMLButtonElement</text><line style="stroke: #383838; stroke-width: 1.5;" x1="1918.5" x2="2061.5" y1="240.5" y2="240.5"/><line style="stroke: #383838; stroke-width: 1.5;" x1="1918.5" x2="2061.5" y1="248.5" y2="248.5"/><!--link Component to ComponentAnimator--><path d="M1251,276.845 C1251,323.889 1251,399.768 1251,455.732 " fill="none" id="Component-ComponentAnimator" style="stroke: #383838; stroke-width: 1.0;"/><polygon fill="none" points="1244,276.57,1251,256.57,1258,276.57,1244,276.57" style="stroke: #383838; stroke-width: 1.0;"/><!--link DOM.HTMLButtonElement to UIButton--><path d="M1961.06,272.889 C1917.39,332.327 1835.59,443.675 1796.25,497.221 " fill="none" id="DOM.HTMLButtonElement-UIButton" style="stroke: #383838; stroke-width: 1.0;"/><polygon fill="none" points="1955.57,268.543,1973.05,256.57,1966.85,276.832,1955.57,268.543" style="stroke: #383838; stroke-width: 1.0;"/><!--link UIElement to UIButton--><path d="M1779.31,304.3 C1777.85,365.928 1775.79,452.254 1774.72,497.356 " fill="none" id="UIElement-UIButton" style="stroke: #383838; stroke-width: 1.0; stroke-dasharray: 7.0,7.0;"/><polygon fill="none" points="1772.32,303.868,1779.8,284.04,1786.32,304.201,1772.32,303.868" style="stroke: #383838; stroke-width: 1.0;"/><!--link Mutable to Sequence--><path d="M1032.86,486.635 C1012.53,453.137 979.002,408.563 935.5,388.5 C890.298,367.653 756.871,368.022 711.5,388.5 C671.471,406.567 639.218,444.73 617.723,476.654 " fill="none" id="Mutable-Sequence" style="stroke: #383838; stroke-width: 1.0;"/><polygon fill="none" points="1039.13,483.513,1043.02,504.344,1026.99,490.481,1039.13,483.513" style="stroke: #383838; stroke-width: 1.0;"/><!--link Mutable to Key--><path d="M1018.11,566.562 C999.24,584.857 975.547,606.84 953,625 C902.733,665.485 842.783,706.71 796.016,737.441 " fill="none" id="Mutable-Key" style="stroke: #383838; stroke-width: 1.0;"/><polygon fill="none" points="1013.22,561.551,1032.39,552.526,1023.03,571.537,1013.22,561.551" style="stroke: #383838; stroke-width: 1.0;"/><!--link Animation to ComponentAnimator--><path d="M927.599,299.086 C982.955,332.845 1050.47,375.447 1109,416.5 C1130.13,431.324 1152.39,448.121 1172.86,464.08 " fill="none" id="Animation-ComponentAnimator" style="stroke: #383838; stroke-width: 1.0;"/><text fill="#000000" font-family="sans-serif" font-size="13" lengthAdjust="spacingAndGlyphs" textLength="7" x="935.6216" y="300.729">n</text><text fill="#000000" font-family="sans-serif" font-size="13" lengthAdjust="spacingAndGlyphs" textLength="7" x="1158.0787" y="454.6964">1</text><!--link Animation to Sequence--><path d="M717.889,360.743 C685.977,401.713 652.441,444.768 627.44,476.866 " fill="none" id="Animation-Sequence" style="stroke: #383838; stroke-width: 1.0;"/><text fill="#000000" font-family="sans-serif" font-size="13" lengthAdjust="spacingAndGlyphs" textLength="36" x="690" y="404.9951">stores</text><text fill="#000000" font-family="sans-serif" font-size="13" lengthAdjust="spacingAndGlyphs" textLength="7" x="625.4941" y="465.9756">n</text><!--link Animation to Mutable--><path d="M927.86,330.383 C946.692,349.352 965.231,369.81 981,390.5 C1003.657,420.228 1023.43,457.809 1036.82,486.088 " fill="none" id="Animation-Mutable" style="stroke: #383838; stroke-width: 1.0;"/><polygon fill="none" points="1043.23,483.282,1045.21,504.379,1030.51,489.12,1043.23,483.282" style="stroke: #383838; stroke-width: 1.0;"/><!--link Sequence to Key--><path d="M613.529,580.066 C628.059,608.847 646.824,646.016 664.433,680.896 " fill="none" id="Sequence-Key" style="stroke: #383838; stroke-width: 1.0;"/><text fill="#000000" font-family="sans-serif" font-size="13" lengthAdjust="spacingAndGlyphs" textLength="53" x="651" y="647.4951">manages</text><text fill="#000000" font-family="sans-serif" font-size="13" lengthAdjust="spacingAndGlyphs" textLength="7" x="653.4205" y="670.3091">n</text><!--link Key to Function--><path d="M718,895.093 C718,915.209 718,936.106 718,955.752 " fill="none" id="Key-Function" style="stroke: #383838; stroke-width: 1.0;"/><text fill="#000000" font-family="sans-serif" font-size="13" lengthAdjust="spacingAndGlyphs" textLength="7" x="710.7539" y="916.6919">2</text><text fill="#000000" font-family="sans-serif" font-size="13" lengthAdjust="spacingAndGlyphs" textLength="7" x="710.7211" y="945.1786">2</text><!--link Animation to AnimationEvent--><path d="M843.401,360.743 C853.157,407.765 863.483,457.534 870.288,490.331 " fill="none" id="Animation-AnimationEvent" style="stroke: #383838; stroke-width: 1.0;"/><text fill="#000000" font-family="sans-serif" font-size="13" lengthAdjust="spacingAndGlyphs" textLength="118" x="854" y="404.9951">stores and executes</text><text fill="#000000" font-family="sans-serif" font-size="13" lengthAdjust="spacingAndGlyphs" textLength="7" x="861.2909" y="479.6628">n</text><!--link Animation to Label--><path d="M787.137,360.743 C776.101,407.765 764.42,457.534 756.723,490.331 " fill="none" id="Animation-Label" style="stroke: #383838; stroke-width: 1.0;"/><text fill="#000000" font-family="sans-serif" font-size="13" lengthAdjust="spacingAndGlyphs" textLength="36" x="780" y="404.9951">stores</text><text fill="#000000" font-family="sans-serif" font-size="13" lengthAdjust="spacingAndGlyphs" textLength="7" x="750.6533" y="479.6628">n</text><!--link PLAYMODE to Animation--><path d="M671.395,232.5 C683.054,232.5 694.714,232.5 706.374,232.5 " fill="none" id="PLAYMODE-Animation" style="stroke: #383838; stroke-width: 1.0;"/><!--link EditorView to Dopesheet--><path d="M141.503,600.077 C134.909,654.853 126.173,727.417 121.778,763.927 " fill="none" id="EditorView-Dopesheet" style="stroke: #383838; stroke-width: 1.0; stroke-dasharray: 7.0,7.0;"/><polygon fill="none" points="134.572,599.086,143.912,580.066,148.472,600.76,134.572,599.086" style="stroke: #383838; stroke-width: 1.0;"/><!--link EditorView to CurveView--><path d="M175.908,598.993 C196.375,653.892 223.697,727.176 237.398,763.927 " fill="none" id="EditorView-CurveView" style="stroke: #383838; stroke-width: 1.0; stroke-dasharray: 7.0,7.0;"/><polygon fill="none" points="169.28,601.252,168.852,580.066,182.398,596.361,169.28,601.252" style="stroke: #383838; stroke-width: 1.0;"/><!--link Editor to Animation.Animation--><path d="M263.191,232.5 C274.843,232.5 286.494,232.5 298.145,232.5 " fill="none" id="Editor-Animation.Animation" style="stroke: #383838; stroke-width: 1.0;"/><text fill="#000000" font-family="sans-serif" font-size="13" lengthAdjust="spacingAndGlyphs" textLength="7" x="283.2709" y="229.1882">n</text><!--link Editor to UIHandler--><path d="M253.113,346.748 C279.185,386.055 307.513,428.766 330.084,462.796 " fill="none" id="Editor-UIHandler" style="stroke: #383838; stroke-width: 1.0;"/><text fill="#000000" font-family="sans-serif" font-size="13" lengthAdjust="spacingAndGlyphs" textLength="7" x="250.4769" y="367.7074">1</text><text fill="#000000" font-family="sans-serif" font-size="13" lengthAdjust="spacingAndGlyphs" textLength="7" x="318.0073" y="452.2481">1</text><!--link EditorView to UIHandler--><path d="M238.136,528.5 C259.441,528.5 281.937,528.5 302.322,528.5 " fill="none" id="EditorView-UIHandler" style="stroke: #383838; stroke-width: 1.0;"/><text fill="#000000" font-family="sans-serif" font-size="13" lengthAdjust="spacingAndGlyphs" textLength="28" x="256.25" y="521.9951">uses</text><!--
@startuml Animation Editor Class Diagram
skinparam monochrome true
skinparam componentStyle uml2
skinparam classAttributeIconSize 0
skinparam shadowing false
skinparam handwritten false


package FUDGE <<Rectangle>> {
	package Transfer {
		package Mutable <<Rectangle>>{
			class Mutable {

			}
		}
	}
	package Components <<Rectangle>> {
		abstract Component {

		}
		class ComponentAnimator extends Component{
			+ speed: number;
			+ currentAnimation: Animation
			+ nextAnimation: Animation
			+ syncChildrenSpeed: boolean
			- parentSpeed: number
			# setTime(time: number)
			+ play(name: string)
		}
	}

	package UI {
		package UI {
		interface UIElement{
			name: string
			hover: string
			help: string
			extendedHelp: string
		}
		class UIButton extends DOM.HTMLButtonElement implements UIElement {
			functionToCall: function
		}

		class UIGenerator {
			createButton(...): FudgeButton
			createUIElementFromMutator(mutator: Mutator): HTMLElement
		}
	}

	package Animation <<Rectangle>> {

		class Animation {
			+ name: string
			+ animatedObject: MutatorForAnimation
			+ sequences: {[property: string]: Sequence}
			+ startTime: number
			+ totaltime: number
			+ events: Event[]
			+ labels: Label[]
			+ playMode: PLAYMODE
			+ fps: number
			+ sps: number
			- previousTime: number
			- ranOnce: boolean
			+ update()
			+ gotoLabel(l: Label)
			- checkEvents()
		}

		class Sequence extends Mutable {
			+ keys: Key[]
			+ evaluate(_time: number): number
			+ addKey(_key:Key)
			+ removeKey(_key:Key)
		}

		class Key extends Mutable {
			+ time: number
			+ value: number
			- slopeIn: number
			- slopeOut: number
			+ functionIn: Function
			+ functionOut: Function
			- broken: boolean
			+ path2d: Path2D
			+ setSlopeIn(_slope:number)
			+ setSlopeOut(_slope:number)
			+ generatePath2D()
			{static} + sort(a: Key, b: Key)
		}

		class Function {
			- a: number
			- b: number
			- c: number
			- d: number
			- keyOut: Key
			- keyIn: Key
			+ evaluate(_time: number): number
			- calculate()
			- setKeyIn(_key)
			- setKeyOut(_key)
		}

		enum PLAYMODE{
			INHERIT
			LOOP
			PINGPONG
			PLAYONCE
			PLAYONCESTOPAFTER
			REVERSELOOP
			STOP
		}

		class Label {
			time: number
			name: string
		}

		class AnimationEvent {
			name: string
			time: number
		}

		ComponentAnimator "1" -up- "n" Animation
		Animation - - "n" Sequence : stores
		Animation - -|> Mutable
		Sequence - - "n" Key : manages
		Key "2" - - "2" Function
		Animation - - "n" AnimationEvent : stores and executes
		Animation - - "n" Label : stores
		Animation -left- PLAYMODE
	}
	package AnimationEditor <<Rectangle>> {
		class Editor {
			animations: Animation[]
			cursorPosition: number
			crc: CanvasRenderingContext2D
			selectedAnimation: Animation
			{static} pressedKeys: string[]
			selectedKey: Key
			selectedSlope: "left" | "right"
			mousedown()
			mousemove()
			mouseup()
			keydown()
			keyup()
			scroll()
		}

		class UIHandler {
			{static} views: typeof EditorView[]
			selectedView: EditorView
			
			createUI()
			updateUI()
			switchView()
			{static} registerView()
		}

		interface EditorView{
			scale: Vector2
			moveKeyTo(k: Key, pos: Vector2)
			updateView()
			scroll()
		}
		class Dopesheet implements EditorView {
		
		}
		 
		class CurveView implements EditorView {
		
		}
		
		Editor -right- "n" Animation.Animation
		Editor "1" - - "1" UIHandler
		UIHandler -left- EditorView: uses
	}
}
@enduml

PlantUML version 1.2019.05(Sat Apr 20 18:45:36 CEST 2019)
(GPL source distribution)
Java Runtime: Java(TM) SE Runtime Environment
JVM: Java HotSpot(TM) 64-Bit Server VM
Java Version: 1.8.0_181-b13
Operating System: Windows 10
OS Version: 10.0
Default Encoding: Cp1252
Language: de
Country: DE
--></g></svg>