<?xml version="1.0" encoding="UTF-8" standalone="no"?><svg xmlns="http://www.w3.org/2000/svg" xmlns:xlink="http://www.w3.org/1999/xlink" contentScriptType="application/ecmascript" contentStyleType="text/css" height="1772px" preserveAspectRatio="none" style="width:958px;height:1772px;" version="1.1" viewBox="0 0 958 1772" width="958px" zoomAndPan="magnify"><defs><filter height="300%" id="fsy5i4we0p087" width="300%" x="-1" y="-1"><feGaussianBlur result="blurOut" stdDeviation="2.0"/><feColorMatrix in="blurOut" result="blurOut2" type="matrix" values="0 0 0 0 0 0 0 0 0 0 0 0 0 0 0 0 0 0 .4 0"/><feOffset dx="4.0" dy="4.0" in="blurOut2" result="blurOut3"/><feBlend in="SourceGraphic" in2="blurOut3" mode="normal"/></filter></defs><g><text fill="#000000" font-family="sans-serif" font-size="18" lengthAdjust="spacingAndGlyphs" textLength="47" x="454.5" y="28.6855">Editor</text><rect fill="#FFFFFF" filter="url(#fsy5i4we0p087)" height="267.7266" style="stroke: #000000; stroke-width: 2.0;" width="937" x="10" y="33.2168"/><path d="M95,34.2168 L95,43.8262 L85,53.8262 L10,53.8262 " fill="none" style="stroke: #000000; stroke-width: 2.0;"/><text fill="#000000" font-family="sans-serif" font-size="14" lengthAdjust="spacingAndGlyphs" textLength="75" x="13" y="48.75">mousedown</text><rect fill="#F8F8F8" filter="url(#fsy5i4we0p087)" height="35.0938" style="stroke: #383838; stroke-width: 1.5;" width="129" x="417" y="63.8262"/><text fill="#000000" font-family="sans-serif" font-size="12" lengthAdjust="spacingAndGlyphs" textLength="109" x="427" y="86.2832">_event: MouseEvent</text><polygon fill="#F8F8F8" filter="url(#fsy5i4we0p087)" points="80,118.9199,80,118.9199,92,130.9199,80,142.9199,80,142.9199,68,130.9199,80,118.9199" style="stroke: #383838; stroke-width: 1.5;"/><text fill="#000000" font-family="sans-serif" font-size="11" lengthAdjust="spacingAndGlyphs" textLength="141" x="84" y="154.3389">[mouse above key in canvas]</text><rect fill="#F8F8F8" filter="url(#fsy5i4we0p087)" height="50.1875" rx="12.5" ry="12.5" style="stroke: #383838; stroke-width: 1.5;" width="120" x="20" y="176.7559"/><text fill="#000000" font-family="sans-serif" font-size="12" lengthAdjust="spacingAndGlyphs" textLength="98" x="30" y="199.2129">selectedKey = key</text><text fill="#000000" font-family="sans-serif" font-size="12" lengthAdjust="spacingAndGlyphs" textLength="100" x="30" y="214.3066">selectedSlope = ""</text><polygon fill="#F8F8F8" filter="url(#fsy5i4we0p087)" points="309,118.9199,309,118.9199,321,130.9199,309,142.9199,309,142.9199,297,130.9199,309,118.9199" style="stroke: #383838; stroke-width: 1.5;"/><text fill="#000000" font-family="sans-serif" font-size="11" lengthAdjust="spacingAndGlyphs" textLength="198" x="313" y="154.3389">[mouse above left slope anker in canvas]</text><rect fill="#F8F8F8" filter="url(#fsy5i4we0p087)" height="35.0938" rx="12.5" ry="12.5" style="stroke: #383838; stroke-width: 1.5;" width="136" x="241" y="176.7559"/><text fill="#000000" font-family="sans-serif" font-size="12" lengthAdjust="spacingAndGlyphs" textLength="116" x="251" y="199.2129">selectedSlope = "left"</text><polygon fill="#F8F8F8" filter="url(#fsy5i4we0p087)" points="599,118.9199,599,118.9199,611,130.9199,599,142.9199,599,142.9199,587,130.9199,599,118.9199" style="stroke: #383838; stroke-width: 1.5;"/><text fill="#000000" font-family="sans-serif" font-size="11" lengthAdjust="spacingAndGlyphs" textLength="204" x="603" y="154.3389">[mouse above right slope anker in canvas]</text><rect fill="#F8F8F8" filter="url(#fsy5i4we0p087)" height="35.0938" rx="12.5" ry="12.5" style="stroke: #383838; stroke-width: 1.5;" width="144" x="527" y="176.7559"/><text fill="#000000" font-family="sans-serif" font-size="12" lengthAdjust="spacingAndGlyphs" textLength="124" x="537" y="199.2129">selectedSlope = "right"</text><rect fill="#F8F8F8" filter="url(#fsy5i4we0p087)" height="50.1875" rx="12.5" ry="12.5" style="stroke: #383838; stroke-width: 1.5;" width="120" x="817" y="172.8379"/><text fill="#000000" font-family="sans-serif" font-size="12" lengthAdjust="spacingAndGlyphs" textLength="100" x="827" y="195.2949">selectedKey = null</text><text fill="#000000" font-family="sans-serif" font-size="12" lengthAdjust="spacingAndGlyphs" textLength="100" x="827" y="210.3887">selectedSlope = ""</text><ellipse cx="481.5" cy="277.9434" fill="#FFFFFF" filter="url(#fsy5i4we0p087)" rx="11" ry="11" style="stroke: #000000; stroke-width: 1.0;"/><ellipse cx="481.5" cy="277.9434" fill="#000000" rx="6" ry="6" style="stroke: #7F7F7F; stroke-width: 1.0;"/><rect fill="#FFFFFF" filter="url(#fsy5i4we0p087)" height="452.0781" style="stroke: #000000; stroke-width: 2.0;" width="669" x="109.75" y="311.5195"/><path d="M195.75,312.5195 L195.75,322.1289 L185.75,332.1289 L109.75,332.1289 " fill="none" style="stroke: #000000; stroke-width: 2.0;"/><text fill="#000000" font-family="sans-serif" font-size="14" lengthAdjust="spacingAndGlyphs" textLength="76" x="112.75" y="327.0527">mousemove</text><rect fill="#F8F8F8" filter="url(#fsy5i4we0p087)" height="35.0938" style="stroke: #383838; stroke-width: 1.5;" width="129" x="417" y="342.1289"/><text fill="#000000" font-family="sans-serif" font-size="12" lengthAdjust="spacingAndGlyphs" textLength="109" x="427" y="364.5859">_event: MouseEvent</text><polygon fill="#F8F8F8" filter="url(#fsy5i4we0p087)" points="481.5,397.2227,481.5,397.2227,493.5,409.2227,481.5,421.2227,481.5,421.2227,469.5,409.2227,481.5,397.2227" style="stroke: #383838; stroke-width: 1.5;"/><text fill="#000000" font-family="sans-serif" font-size="11" lengthAdjust="spacingAndGlyphs" textLength="99" x="493.5" y="406.8057">[!left button pressed]</text><ellipse cx="614.5" cy="409.2227" fill="#FFFFFF" filter="url(#fsy5i4we0p087)" rx="11" ry="11" style="stroke: #000000; stroke-width: 1.0;"/><ellipse cx="614.5" cy="409.2227" fill="#000000" rx="6" ry="6" style="stroke: #7F7F7F; stroke-width: 1.0;"/><polygon fill="#F8F8F8" filter="url(#fsy5i4we0p087)" points="481.5,441.2227,481.5,441.2227,493.5,453.2227,481.5,465.2227,481.5,465.2227,469.5,453.2227,481.5,441.2227" style="stroke: #383838; stroke-width: 1.5;"/><text fill="#000000" font-family="sans-serif" font-size="11" lengthAdjust="spacingAndGlyphs" textLength="68" x="493.5" y="450.8057">[!selectedKey]</text><ellipse cx="583.5" cy="453.2227" fill="#FFFFFF" filter="url(#fsy5i4we0p087)" rx="11" ry="11" style="stroke: #000000; stroke-width: 1.0;"/><ellipse cx="583.5" cy="453.2227" fill="#000000" rx="6" ry="6" style="stroke: #7F7F7F; stroke-width: 1.0;"/><rect fill="#F8F8F8" filter="url(#fsy5i4we0p087)" height="35.0938" rx="12.5" ry="12.5" style="stroke: #383838; stroke-width: 1.5;" width="251" x="356" y="485.2227"/><text fill="#000000" font-family="sans-serif" font-size="12" lengthAdjust="spacingAndGlyphs" textLength="231" x="366" y="507.6797">adjust mouse x position to closest Section</text><polygon fill="#F8F8F8" filter="url(#fsy5i4we0p087)" points="481.5,540.3164,481.5,540.3164,493.5,552.3164,481.5,564.3164,481.5,564.3164,469.5,552.3164,481.5,540.3164" style="stroke: #383838; stroke-width: 1.5;"/><text fill="#000000" font-family="sans-serif" font-size="11" lengthAdjust="spacingAndGlyphs" textLength="94" x="375.5" y="549.8994">[selectedSlope = ""]</text><rect fill="#F8F8F8" filter="url(#fsy5i4we0p087)" height="35.0938" rx="12.5" ry="12.5" style="stroke: #383838; stroke-width: 1.5;" width="379" x="129.75" y="574.3164"/><text fill="#000000" font-family="sans-serif" font-size="12" lengthAdjust="spacingAndGlyphs" textLength="359" x="139.75" y="596.7734">uiHandler.selectedView.moveKeyTo(selectedKey, Mouseposition)</text><rect fill="#F8F8F8" filter="url(#fsy5i4we0p087)" height="50.1875" rx="12.5" ry="12.5" style="stroke: #383838; stroke-width: 1.5;" width="230" x="528.75" y="574.3164"/><text fill="#000000" font-family="sans-serif" font-size="12" lengthAdjust="spacingAndGlyphs" textLength="210" x="538.75" y="596.7734">set selectedSlope value depending on</text><text fill="#000000" font-family="sans-serif" font-size="12" lengthAdjust="spacingAndGlyphs" textLength="202" x="538.75" y="611.8672">the relative mouse position to the key</text><polygon fill="#F8F8F8" filter="url(#fsy5i4we0p087)" points="481.5,630.5039,493.5,642.5039,481.5,654.5039,469.5,642.5039,481.5,630.5039" style="stroke: #383838; stroke-width: 1.5;"/><rect fill="#F8F8F8" filter="url(#fsy5i4we0p087)" height="35.0938" rx="12.5" ry="12.5" style="stroke: #383838; stroke-width: 1.5;" width="225" x="369" y="674.5039"/><text fill="#000000" font-family="sans-serif" font-size="12" lengthAdjust="spacingAndGlyphs" textLength="205" x="379" y="696.9609">uiHandler.selectedView.updateView()</text><ellipse cx="481.5" cy="740.5977" fill="#FFFFFF" filter="url(#fsy5i4we0p087)" rx="11" ry="11" style="stroke: #000000; stroke-width: 1.0;"/><ellipse cx="481.5" cy="740.5977" fill="#000000" rx="6" ry="6" style="stroke: #7F7F7F; stroke-width: 1.0;"/><rect fill="#FFFFFF" filter="url(#fsy5i4we0p087)" height="119.7031" style="stroke: #000000; stroke-width: 2.0;" width="149" x="407" y="774.1738"/><path d="M475,775.1738 L475,784.7832 L465,794.7832 L407,794.7832 " fill="none" style="stroke: #000000; stroke-width: 2.0;"/><text fill="#000000" font-family="sans-serif" font-size="14" lengthAdjust="spacingAndGlyphs" textLength="58" x="410" y="789.707">mouseup</text><rect fill="#F8F8F8" filter="url(#fsy5i4we0p087)" height="35.0938" style="stroke: #383838; stroke-width: 1.5;" width="129" x="417" y="804.7832"/><text fill="#000000" font-family="sans-serif" font-size="12" lengthAdjust="spacingAndGlyphs" textLength="109" x="427" y="827.2402">_event: MouseEvent</text><ellipse cx="481.5" cy="870.877" fill="#FFFFFF" filter="url(#fsy5i4we0p087)" rx="11" ry="11" style="stroke: #000000; stroke-width: 1.0;"/><ellipse cx="481.5" cy="870.877" fill="#000000" rx="6" ry="6" style="stroke: #7F7F7F; stroke-width: 1.0;"/><rect fill="#FFFFFF" filter="url(#fsy5i4we0p087)" height="322.8086" style="stroke: #000000; stroke-width: 2.0;" width="313.5" x="352" y="904.4531"/><path d="M417,905.4531 L417,915.0625 L407,925.0625 L352,925.0625 " fill="none" style="stroke: #000000; stroke-width: 2.0;"/><text fill="#000000" font-family="sans-serif" font-size="14" lengthAdjust="spacingAndGlyphs" textLength="55" x="355" y="919.9863">keydown</text><rect fill="#F8F8F8" filter="url(#fsy5i4we0p087)" height="35.0938" style="stroke: #383838; stroke-width: 1.5;" width="144" x="409.5" y="935.0625"/><text fill="#000000" font-family="sans-serif" font-size="12" lengthAdjust="spacingAndGlyphs" textLength="124" x="419.5" y="957.5195">_event: KeyboardEvent</text><rect fill="#F8F8F8" filter="url(#fsy5i4we0p087)" height="35.0938" rx="12.5" ry="12.5" style="stroke: #383838; stroke-width: 1.5;" width="146" x="408.5" y="990.1563"/><text fill="#000000" font-family="sans-serif" font-size="12" lengthAdjust="spacingAndGlyphs" textLength="126" x="418.5" y="1012.6133">_event.preventDefault()</text><rect fill="#F8F8F8" filter="url(#fsy5i4we0p087)" height="35.0938" rx="12.5" ry="12.5" style="stroke: #383838; stroke-width: 1.5;" width="219" x="372" y="1094.168"/><text fill="#000000" font-family="sans-serif" font-size="12" lengthAdjust="spacingAndGlyphs" textLength="199" x="382" y="1116.625">pressedKeys.push(_event.keyCode)</text><polygon fill="#F8F8F8" filter="url(#fsy5i4we0p087)" points="481.5,1045.25,481.5,1045.25,493.5,1057.25,481.5,1069.25,481.5,1069.25,469.5,1057.25,481.5,1045.25" style="stroke: #383838; stroke-width: 1.5;"/><text fill="#000000" font-family="sans-serif" font-size="11" lengthAdjust="spacingAndGlyphs" textLength="175" x="485.5" y="1080.6689">[!pressedKeys has _event.keyCode]</text><polygon fill="#F8F8F8" filter="url(#fsy5i4we0p087)" points="481.5,1149.2617,493.5,1161.2617,481.5,1173.2617,469.5,1161.2617,481.5,1149.2617" style="stroke: #383838; stroke-width: 1.5;"/><ellipse cx="481.5" cy="1204.2617" fill="#FFFFFF" filter="url(#fsy5i4we0p087)" rx="11" ry="11" style="stroke: #000000; stroke-width: 1.0;"/><ellipse cx="481.5" cy="1204.2617" fill="#000000" rx="6" ry="6" style="stroke: #7F7F7F; stroke-width: 1.0;"/><rect fill="#FFFFFF" filter="url(#fsy5i4we0p087)" height="322.8086" style="stroke: #000000; stroke-width: 2.0;" width="318" x="345.5" y="1237.8379"/><path d="M393.5,1238.8379 L393.5,1248.4473 L383.5,1258.4473 L345.5,1258.4473 " fill="none" style="stroke: #000000; stroke-width: 2.0;"/><text fill="#000000" font-family="sans-serif" font-size="14" lengthAdjust="spacingAndGlyphs" textLength="38" x="348.5" y="1253.3711">keyup</text><rect fill="#F8F8F8" filter="url(#fsy5i4we0p087)" height="35.0938" style="stroke: #383838; stroke-width: 1.5;" width="144" x="409.5" y="1268.4473"/><text fill="#000000" font-family="sans-serif" font-size="12" lengthAdjust="spacingAndGlyphs" textLength="124" x="419.5" y="1290.9043">_event: KeyboardEvent</text><rect fill="#F8F8F8" filter="url(#fsy5i4we0p087)" height="35.0938" rx="12.5" ry="12.5" style="stroke: #383838; stroke-width: 1.5;" width="146" x="408.5" y="1323.541"/><text fill="#000000" font-family="sans-serif" font-size="12" lengthAdjust="spacingAndGlyphs" textLength="126" x="418.5" y="1345.998">_event.preventDefault()</text><rect fill="#F8F8F8" filter="url(#fsy5i4we0p087)" height="35.0938" rx="12.5" ry="12.5" style="stroke: #383838; stroke-width: 1.5;" width="232" x="365.5" y="1427.5527"/><text fill="#000000" font-family="sans-serif" font-size="12" lengthAdjust="spacingAndGlyphs" textLength="212" x="375.5" y="1450.0098">pressedKeys.remove(_event.keyCode)</text><polygon fill="#F8F8F8" filter="url(#fsy5i4we0p087)" points="481.5,1378.6348,481.5,1378.6348,493.5,1390.6348,481.5,1402.6348,481.5,1402.6348,469.5,1390.6348,481.5,1378.6348" style="stroke: #383838; stroke-width: 1.5;"/><text fill="#000000" font-family="sans-serif" font-size="11" lengthAdjust="spacingAndGlyphs" textLength="173" x="485.5" y="1414.0537">[pressedKeys has _event.keyCode]</text><polygon fill="#F8F8F8" filter="url(#fsy5i4we0p087)" points="481.5,1482.6465,493.5,1494.6465,481.5,1506.6465,469.5,1494.6465,481.5,1482.6465" style="stroke: #383838; stroke-width: 1.5;"/><ellipse cx="481.5" cy="1537.6465" fill="#FFFFFF" filter="url(#fsy5i4we0p087)" rx="11" ry="11" style="stroke: #000000; stroke-width: 1.0;"/><ellipse cx="481.5" cy="1537.6465" fill="#000000" rx="6" ry="6" style="stroke: #7F7F7F; stroke-width: 1.0;"/><rect fill="#FFFFFF" filter="url(#fsy5i4we0p087)" height="189.8906" style="stroke: #000000; stroke-width: 2.0;" width="346" x="308.5" y="1571.2227"/><path d="M351.5,1572.2227 L351.5,1581.832 L341.5,1591.832 L308.5,1591.832 " fill="none" style="stroke: #000000; stroke-width: 2.0;"/><text fill="#000000" font-family="sans-serif" font-size="14" lengthAdjust="spacingAndGlyphs" textLength="33" x="311.5" y="1586.7559">scroll</text><rect fill="#F8F8F8" filter="url(#fsy5i4we0p087)" height="35.0938" style="stroke: #383838; stroke-width: 1.5;" width="127" x="418" y="1601.832"/><text fill="#000000" font-family="sans-serif" font-size="12" lengthAdjust="spacingAndGlyphs" textLength="107" x="428" y="1624.2891">_event: WheelEvent</text><rect fill="#F8F8F8" filter="url(#fsy5i4we0p087)" height="50.1875" rx="12.5" ry="12.5" style="stroke: #383838; stroke-width: 1.5;" width="326" x="318.5" y="1656.9258"/><text fill="#000000" font-family="sans-serif" font-size="12" lengthAdjust="spacingAndGlyphs" textLength="242" x="328.5" y="1679.3828">depending on pressed keys, make it a zoom</text><text fill="#000000" font-family="sans-serif" font-size="12" lengthAdjust="spacingAndGlyphs" textLength="306" x="328.5" y="1694.4766">or a scroll and propagate that to uiHandler.selectedView</text><ellipse cx="481.5" cy="1738.1133" fill="#FFFFFF" filter="url(#fsy5i4we0p087)" rx="11" ry="11" style="stroke: #000000; stroke-width: 1.0;"/><ellipse cx="481.5" cy="1738.1133" fill="#000000" rx="6" ry="6" style="stroke: #7F7F7F; stroke-width: 1.0;"/><line style="stroke: #383838; stroke-width: 1.5;" x1="80" x2="80" y1="142.9199" y2="176.7559"/><polygon fill="#383838" points="76,166.7559,80,176.7559,84,166.7559,80,170.7559" style="stroke: #383838; stroke-width: 1.0;"/><line style="stroke: #383838; stroke-width: 1.5;" x1="80" x2="80" y1="226.9434" y2="246.9434"/><polygon fill="#383838" points="76,236.9434,80,246.9434,84,236.9434,80,240.9434" style="stroke: #383838; stroke-width: 1.0;"/><line style="stroke: #383838; stroke-width: 1.5;" x1="309" x2="309" y1="142.9199" y2="176.7559"/><polygon fill="#383838" points="305,166.7559,309,176.7559,313,166.7559,309,170.7559" style="stroke: #383838; stroke-width: 1.0;"/><line style="stroke: #383838; stroke-width: 1.5;" x1="309" x2="309" y1="211.8496" y2="246.9434"/><polygon fill="#383838" points="305,236.9434,309,246.9434,313,236.9434,309,240.9434" style="stroke: #383838; stroke-width: 1.0;"/><line style="stroke: #383838; stroke-width: 1.5;" x1="599" x2="599" y1="142.9199" y2="176.7559"/><polygon fill="#383838" points="595,166.7559,599,176.7559,603,166.7559,599,170.7559" style="stroke: #383838; stroke-width: 1.0;"/><line style="stroke: #383838; stroke-width: 1.5;" x1="599" x2="599" y1="211.8496" y2="246.9434"/><polygon fill="#383838" points="595,236.9434,599,246.9434,603,236.9434,599,240.9434" style="stroke: #383838; stroke-width: 1.0;"/><line style="stroke: #383838; stroke-width: 1.5;" x1="92" x2="297" y1="130.9199" y2="130.9199"/><polygon fill="#383838" points="287,126.9199,297,130.9199,287,134.9199,291,130.9199" style="stroke: #383838; stroke-width: 1.0;"/><line style="stroke: #383838; stroke-width: 1.5;" x1="321" x2="587" y1="130.9199" y2="130.9199"/><polygon fill="#383838" points="577,126.9199,587,130.9199,577,134.9199,581,130.9199" style="stroke: #383838; stroke-width: 1.0;"/><line style="stroke: #383838; stroke-width: 1.5;" x1="481.5" x2="481.5" y1="98.9199" y2="103.9199"/><line style="stroke: #383838; stroke-width: 1.5;" x1="481.5" x2="80" y1="103.9199" y2="103.9199"/><line style="stroke: #383838; stroke-width: 1.5;" x1="80" x2="80" y1="103.9199" y2="118.9199"/><polygon fill="#383838" points="76,108.9199,80,118.9199,84,108.9199,80,112.9199" style="stroke: #383838; stroke-width: 1.0;"/><line style="stroke: #383838; stroke-width: 1.5;" x1="611" x2="877" y1="130.9199" y2="130.9199"/><line style="stroke: #383838; stroke-width: 1.5;" x1="877" x2="877" y1="130.9199" y2="172.8379"/><polygon fill="#383838" points="873,162.8379,877,172.8379,881,162.8379,877,166.8379" style="stroke: #383838; stroke-width: 1.0;"/><line style="stroke: #383838; stroke-width: 1.5;" x1="877" x2="877" y1="223.0254" y2="246.9434"/><polygon fill="#383838" points="873,236.9434,877,246.9434,881,236.9434,877,240.9434" style="stroke: #383838; stroke-width: 1.0;"/><line style="stroke: #383838; stroke-width: 1.5;" x1="80" x2="877" y1="246.9434" y2="246.9434"/><line style="stroke: #383838; stroke-width: 1.5;" x1="481.5" x2="481.5" y1="246.9434" y2="266.9434"/><polygon fill="#383838" points="477.5,256.9434,481.5,266.9434,485.5,256.9434,481.5,260.9434" style="stroke: #383838; stroke-width: 1.0;"/><line style="stroke: #383838; stroke-width: 1.5;" x1="481.5" x2="481.5" y1="421.2227" y2="441.2227"/><polygon fill="#383838" points="477.5,431.2227,481.5,441.2227,485.5,431.2227,481.5,435.2227" style="stroke: #383838; stroke-width: 1.0;"/><line style="stroke: #383838; stroke-width: 1.5;" x1="493.5" x2="603.5" y1="409.2227" y2="409.2227"/><polygon fill="#383838" points="593.5,405.2227,603.5,409.2227,593.5,413.2227,597.5,409.2227" style="stroke: #383838; stroke-width: 1.0;"/><line style="stroke: #383838; stroke-width: 1.5;" x1="481.5" x2="481.5" y1="377.2227" y2="397.2227"/><polygon fill="#383838" points="477.5,387.2227,481.5,397.2227,485.5,387.2227,481.5,391.2227" style="stroke: #383838; stroke-width: 1.0;"/><line style="stroke: #383838; stroke-width: 1.5;" x1="481.5" x2="481.5" y1="465.2227" y2="485.2227"/><polygon fill="#383838" points="477.5,475.2227,481.5,485.2227,485.5,475.2227,481.5,479.2227" style="stroke: #383838; stroke-width: 1.0;"/><line style="stroke: #383838; stroke-width: 1.5;" x1="493.5" x2="572.5" y1="453.2227" y2="453.2227"/><polygon fill="#383838" points="562.5,449.2227,572.5,453.2227,562.5,457.2227,566.5,453.2227" style="stroke: #383838; stroke-width: 1.0;"/><line style="stroke: #383838; stroke-width: 1.5;" x1="469.5" x2="319.25" y1="552.3164" y2="552.3164"/><line style="stroke: #383838; stroke-width: 1.5;" x1="319.25" x2="319.25" y1="552.3164" y2="574.3164"/><polygon fill="#383838" points="315.25,564.3164,319.25,574.3164,323.25,564.3164,319.25,568.3164" style="stroke: #383838; stroke-width: 1.0;"/><line style="stroke: #383838; stroke-width: 1.5;" x1="493.5" x2="643.75" y1="552.3164" y2="552.3164"/><line style="stroke: #383838; stroke-width: 1.5;" x1="643.75" x2="643.75" y1="552.3164" y2="574.3164"/><polygon fill="#383838" points="639.75,564.3164,643.75,574.3164,647.75,564.3164,643.75,568.3164" style="stroke: #383838; stroke-width: 1.0;"/><line style="stroke: #383838; stroke-width: 1.5;" x1="319.25" x2="319.25" y1="609.4102" y2="642.5039"/><line style="stroke: #383838; stroke-width: 1.5;" x1="319.25" x2="469.5" y1="642.5039" y2="642.5039"/><polygon fill="#383838" points="459.5,638.5039,469.5,642.5039,459.5,646.5039,463.5,642.5039" style="stroke: #383838; stroke-width: 1.0;"/><line style="stroke: #383838; stroke-width: 1.5;" x1="643.75" x2="643.75" y1="624.5039" y2="642.5039"/><line style="stroke: #383838; stroke-width: 1.5;" x1="643.75" x2="493.5" y1="642.5039" y2="642.5039"/><polygon fill="#383838" points="503.5,638.5039,493.5,642.5039,503.5,646.5039,499.5,642.5039" style="stroke: #383838; stroke-width: 1.0;"/><line style="stroke: #383838; stroke-width: 1.5;" x1="481.5" x2="481.5" y1="520.3164" y2="540.3164"/><polygon fill="#383838" points="477.5,530.3164,481.5,540.3164,485.5,530.3164,481.5,534.3164" style="stroke: #383838; stroke-width: 1.0;"/><line style="stroke: #383838; stroke-width: 1.5;" x1="481.5" x2="481.5" y1="654.5039" y2="674.5039"/><polygon fill="#383838" points="477.5,664.5039,481.5,674.5039,485.5,664.5039,481.5,668.5039" style="stroke: #383838; stroke-width: 1.0;"/><line style="stroke: #383838; stroke-width: 1.5;" x1="481.5" x2="481.5" y1="709.5977" y2="729.5977"/><polygon fill="#383838" points="477.5,719.5977,481.5,729.5977,485.5,719.5977,481.5,723.5977" style="stroke: #383838; stroke-width: 1.0;"/><line style="stroke: #383838; stroke-width: 1.5;" x1="481.5" x2="481.5" y1="839.877" y2="859.877"/><polygon fill="#383838" points="477.5,849.877,481.5,859.877,485.5,849.877,481.5,853.877" style="stroke: #383838; stroke-width: 1.0;"/><line style="stroke: #383838; stroke-width: 1.5;" x1="481.5" x2="481.5" y1="970.1563" y2="990.1563"/><polygon fill="#383838" points="477.5,980.1563,481.5,990.1563,485.5,980.1563,481.5,984.1563" style="stroke: #383838; stroke-width: 1.0;"/><line style="stroke: #383838; stroke-width: 1.5;" x1="481.5" x2="481.5" y1="1069.25" y2="1094.168"/><polygon fill="#383838" points="477.5,1084.168,481.5,1094.168,485.5,1084.168,481.5,1088.168" style="stroke: #383838; stroke-width: 1.0;"/><line style="stroke: #383838; stroke-width: 1.5;" x1="493.5" x2="601" y1="1057.25" y2="1057.25"/><polygon fill="#383838" points="597,1101.7148,601,1111.7148,605,1101.7148,601,1105.7148" style="stroke: #383838; stroke-width: 1.5;"/><line style="stroke: #383838; stroke-width: 1.5;" x1="601" x2="601" y1="1057.25" y2="1161.2617"/><line style="stroke: #383838; stroke-width: 1.5;" x1="601" x2="493.5" y1="1161.2617" y2="1161.2617"/><polygon fill="#383838" points="503.5,1157.2617,493.5,1161.2617,503.5,1165.2617,499.5,1161.2617" style="stroke: #383838; stroke-width: 1.0;"/><line style="stroke: #383838; stroke-width: 1.5;" x1="481.5" x2="481.5" y1="1129.2617" y2="1149.2617"/><polygon fill="#383838" points="477.5,1139.2617,481.5,1149.2617,485.5,1139.2617,481.5,1143.2617" style="stroke: #383838; stroke-width: 1.0;"/><line style="stroke: #383838; stroke-width: 1.5;" x1="481.5" x2="481.5" y1="1025.25" y2="1045.25"/><polygon fill="#383838" points="477.5,1035.25,481.5,1045.25,485.5,1035.25,481.5,1039.25" style="stroke: #383838; stroke-width: 1.0;"/><line style="stroke: #383838; stroke-width: 1.5;" x1="481.5" x2="481.5" y1="1173.2617" y2="1193.2617"/><polygon fill="#383838" points="477.5,1183.2617,481.5,1193.2617,485.5,1183.2617,481.5,1187.2617" style="stroke: #383838; stroke-width: 1.0;"/><line style="stroke: #383838; stroke-width: 1.5;" x1="481.5" x2="481.5" y1="1303.541" y2="1323.541"/><polygon fill="#383838" points="477.5,1313.541,481.5,1323.541,485.5,1313.541,481.5,1317.541" style="stroke: #383838; stroke-width: 1.0;"/><line style="stroke: #383838; stroke-width: 1.5;" x1="481.5" x2="481.5" y1="1402.6348" y2="1427.5527"/><polygon fill="#383838" points="477.5,1417.5527,481.5,1427.5527,485.5,1417.5527,481.5,1421.5527" style="stroke: #383838; stroke-width: 1.0;"/><line style="stroke: #383838; stroke-width: 1.5;" x1="493.5" x2="607.5" y1="1390.6348" y2="1390.6348"/><polygon fill="#383838" points="603.5,1435.0996,607.5,1445.0996,611.5,1435.0996,607.5,1439.0996" style="stroke: #383838; stroke-width: 1.5;"/><line style="stroke: #383838; stroke-width: 1.5;" x1="607.5" x2="607.5" y1="1390.6348" y2="1494.6465"/><line style="stroke: #383838; stroke-width: 1.5;" x1="607.5" x2="493.5" y1="1494.6465" y2="1494.6465"/><polygon fill="#383838" points="503.5,1490.6465,493.5,1494.6465,503.5,1498.6465,499.5,1494.6465" style="stroke: #383838; stroke-width: 1.0;"/><line style="stroke: #383838; stroke-width: 1.5;" x1="481.5" x2="481.5" y1="1462.6465" y2="1482.6465"/><polygon fill="#383838" points="477.5,1472.6465,481.5,1482.6465,485.5,1472.6465,481.5,1476.6465" style="stroke: #383838; stroke-width: 1.0;"/><line style="stroke: #383838; stroke-width: 1.5;" x1="481.5" x2="481.5" y1="1358.6348" y2="1378.6348"/><polygon fill="#383838" points="477.5,1368.6348,481.5,1378.6348,485.5,1368.6348,481.5,1372.6348" style="stroke: #383838; stroke-width: 1.0;"/><line style="stroke: #383838; stroke-width: 1.5;" x1="481.5" x2="481.5" y1="1506.6465" y2="1526.6465"/><polygon fill="#383838" points="477.5,1516.6465,481.5,1526.6465,485.5,1516.6465,481.5,1520.6465" style="stroke: #383838; stroke-width: 1.0;"/><line style="stroke: #383838; stroke-width: 1.5;" x1="481.5" x2="481.5" y1="1636.9258" y2="1656.9258"/><polygon fill="#383838" points="477.5,1646.9258,481.5,1656.9258,485.5,1646.9258,481.5,1650.9258" style="stroke: #383838; stroke-width: 1.0;"/><line style="stroke: #383838; stroke-width: 1.5;" x1="481.5" x2="481.5" y1="1707.1133" y2="1727.1133"/><polygon fill="#383838" points="477.5,1717.1133,481.5,1727.1133,485.5,1717.1133,481.5,1721.1133" style="stroke: #383838; stroke-width: 1.0;"/><!--
@startuml AnimationEditor
skinparam monochrome true

title Editor

partition mousedown {
	:_event: MouseEvent]
	if() then ([mouse above key in canvas])
		:selectedKey = key
		selectedSlope = "";
	else if() then ([mouse above left slope anker in canvas])
		:selectedSlope = "left";
	else if() then ([mouse above right slope anker in canvas])
		:selectedSlope = "right";
	else
		:selectedKey = null
		selectedSlope = "";
	endif
	stop
}

partition mousemove {
	:_event: MouseEvent]
	if() then ([!left button pressed])
		stop
	endif
	if() then ([!selectedKey])
		stop
	endif
	:adjust mouse x position to closest Section;
	if() then ([selectedSlope = ""])
		:uiHandler.selectedView.moveKeyTo(selectedKey, Mouseposition);
	else
		:set selectedSlope value depending on
		the relative mouse position to the key;
	endif
	:uiHandler.selectedView.updateView();
	stop
}

partition mouseup {
	:_event: MouseEvent]
	stop
}

partition keydown {
	:_event: KeyboardEvent]
	:_event.preventDefault();
	if() then ([!pressedKeys has _event.keyCode])
		:pressedKeys.push(_event.keyCode);
	endif
	stop 
}
break

partition keyup {
	:_event: KeyboardEvent]
	:_event.preventDefault();
	if() then ([pressedKeys has _event.keyCode])
		:pressedKeys.remove(_event.keyCode);
	endif
	stop
}

partition scroll {
	:_event: WheelEvent]
	:depending on pressed keys, make it a zoom
	or a scroll and propagate that to uiHandler.selectedView;
	stop
}

@enduml

PlantUML version 1.2019.05(Sat Apr 20 18:45:36 CEST 2019)
(GPL source distribution)
Java Runtime: Java(TM) SE Runtime Environment
JVM: Java HotSpot(TM) 64-Bit Server VM
Java Version: 1.8.0_181-b13
Operating System: Windows 10
OS Version: 10.0
Default Encoding: Cp1252
Language: de
Country: DE
--></g></svg>