<?xml version="1.0" encoding="UTF-8" standalone="no"?><svg xmlns="http://www.w3.org/2000/svg" xmlns:xlink="http://www.w3.org/1999/xlink" contentScriptType="application/ecmascript" contentStyleType="text/css" height="684px" preserveAspectRatio="none" style="width:650px;height:684px;" version="1.1" viewBox="0 0 650 684" width="650px" zoomAndPan="magnify"><defs/><g><!--cluster FUDGE--><rect fill="#FFFFFF" height="649" style="stroke: #000000; stroke-width: 1.5;" width="462" x="22" y="24"/><text fill="#000000" font-family="sans-serif" font-size="14" font-weight="bold" lengthAdjust="spacingAndGlyphs" textLength="49" x="228.5" y="40.5332">FUDGE</text><!--cluster AnimationEditor--><rect fill="#FFFFFF" height="581" style="stroke: #000000; stroke-width: 1.5;" width="414" x="46" y="68"/><text fill="#000000" font-family="sans-serif" font-size="14" font-weight="bold" lengthAdjust="spacingAndGlyphs" textLength="111" x="197.5" y="84.5332">AnimationEditor</text><!--cluster Animation--><polygon fill="#FFFFFF" points="508,158,583,158,590,181.6094,628,181.6094,628,258,508,258,508,158" style="stroke: #000000; stroke-width: 1.5;"/><line style="stroke: #000000; stroke-width: 1.5;" x1="508" x2="590" y1="181.6094" y2="181.6094"/><text fill="#000000" font-family="sans-serif" font-size="14" font-weight="bold" lengthAdjust="spacingAndGlyphs" textLength="69" x="512" y="174.5332">Animation</text><!--class Editor--><rect fill="#F8F8F8" height="227.8672" id="Editor" style="stroke: #383838; stroke-width: 1.5;" width="170" x="274" y="104"/><ellipse cx="338.75" cy="120" fill="#C2C2C2" rx="11" ry="11" style="stroke: #383838; stroke-width: 1.0;"/><path d="M341.5156,115.875 Q341.6719,115.6563 341.8594,115.5469 Q342.0469,115.4375 342.2656,115.4375 Q342.6406,115.4375 342.875,115.6953 Q343.1094,115.9531 343.1094,116.5625 L343.1094,118.0156 Q343.1094,118.625 342.875,118.8906 Q342.6406,119.1563 342.2656,119.1563 Q341.9219,119.1563 341.7188,118.9531 Q341.5156,118.7656 341.4063,118.25 Q341.3594,117.8906 341.1719,117.7031 Q340.8438,117.3281 340.2344,117.1094 Q339.625,116.8906 339,116.8906 Q338.2344,116.8906 337.6016,117.2188 Q336.9688,117.5469 336.4766,118.2969 Q335.9844,119.0469 335.9844,120.0781 L335.9844,121.1719 Q335.9844,122.4063 336.875,123.2266 Q337.7656,124.0469 339.3594,124.0469 Q340.2969,124.0469 340.9531,123.7969 Q341.3438,123.6406 341.7656,123.2031 Q342.0313,122.9375 342.1797,122.8594 Q342.3281,122.7813 342.5313,122.7813 Q342.8594,122.7813 343.1172,123.0391 Q343.375,123.2969 343.375,123.6406 Q343.375,123.9844 343.0313,124.3906 Q342.5313,124.9688 341.7344,125.2969 Q340.6563,125.75 339.3594,125.75 Q337.8438,125.75 336.6406,125.125 Q335.6563,124.625 334.9688,123.5547 Q334.2813,122.4844 334.2813,121.2031 L334.2813,120.0469 Q334.2813,118.7188 334.8984,117.5703 Q335.5156,116.4219 336.6094,115.8047 Q337.7031,115.1875 338.9375,115.1875 Q339.6719,115.1875 340.3203,115.3516 Q340.9688,115.5156 341.5156,115.875 Z "/><text fill="#000000" font-family="sans-serif" font-size="12" lengthAdjust="spacingAndGlyphs" textLength="32" x="359.25" y="124.9102">Editor</text><line style="stroke: #383838; stroke-width: 1.5;" x1="275" x2="443" y1="136" y2="136"/><text fill="#000000" font-family="sans-serif" font-size="11" lengthAdjust="spacingAndGlyphs" textLength="110" x="280" y="151.4189">animations: Animation[]</text><text fill="#000000" font-family="sans-serif" font-size="11" lengthAdjust="spacingAndGlyphs" textLength="111" x="280" y="165.2549">cursorPosition: number</text><text fill="#000000" font-family="sans-serif" font-size="11" lengthAdjust="spacingAndGlyphs" textLength="158" x="280" y="179.0908">crc: CanvasRenderingContext2D</text><text fill="#000000" font-family="sans-serif" font-size="11" lengthAdjust="spacingAndGlyphs" textLength="141" x="280" y="192.9268">selectedAnimation: Animation</text><text fill="#000000" font-family="sans-serif" font-size="11" lengthAdjust="spacingAndGlyphs" text-decoration="underline" textLength="104" x="280" y="206.7627">pressedKeys: string[]</text><text fill="#000000" font-family="sans-serif" font-size="11" lengthAdjust="spacingAndGlyphs" textLength="85" x="280" y="220.5986">selectedKey: Key</text><text fill="#000000" font-family="sans-serif" font-size="11" lengthAdjust="spacingAndGlyphs" textLength="134" x="280" y="234.4346">selectedSlope: "left" | "right"</text><line style="stroke: #383838; stroke-width: 1.5;" x1="275" x2="443" y1="240.8516" y2="240.8516"/><text fill="#000000" font-family="sans-serif" font-size="11" lengthAdjust="spacingAndGlyphs" textLength="68" x="280" y="256.2705">mousedown()</text><text fill="#000000" font-family="sans-serif" font-size="11" lengthAdjust="spacingAndGlyphs" textLength="66" x="280" y="270.1064">mousemove()</text><text fill="#000000" font-family="sans-serif" font-size="11" lengthAdjust="spacingAndGlyphs" textLength="52" x="280" y="283.9424">mouseup()</text><text fill="#000000" font-family="sans-serif" font-size="11" lengthAdjust="spacingAndGlyphs" textLength="53" x="280" y="297.7783">keydown()</text><text fill="#000000" font-family="sans-serif" font-size="11" lengthAdjust="spacingAndGlyphs" textLength="37" x="280" y="311.6143">keyup()</text><text fill="#000000" font-family="sans-serif" font-size="11" lengthAdjust="spacingAndGlyphs" textLength="34" x="280" y="325.4502">scroll()</text><!--class UIHandler--><rect fill="#F8F8F8" height="131.0156" id="UIHandler" style="stroke: #383838; stroke-width: 1.5;" width="141" x="302.5" y="393"/><ellipse cx="341.35" cy="409" fill="#C2C2C2" rx="11" ry="11" style="stroke: #383838; stroke-width: 1.0;"/><path d="M344.1156,404.875 Q344.2719,404.6563 344.4594,404.5469 Q344.6469,404.4375 344.8656,404.4375 Q345.2406,404.4375 345.475,404.6953 Q345.7094,404.9531 345.7094,405.5625 L345.7094,407.0156 Q345.7094,407.625 345.475,407.8906 Q345.2406,408.1563 344.8656,408.1563 Q344.5219,408.1563 344.3188,407.9531 Q344.1156,407.7656 344.0063,407.25 Q343.9594,406.8906 343.7719,406.7031 Q343.4438,406.3281 342.8344,406.1094 Q342.225,405.8906 341.6,405.8906 Q340.8344,405.8906 340.2016,406.2188 Q339.5688,406.5469 339.0766,407.2969 Q338.5844,408.0469 338.5844,409.0781 L338.5844,410.1719 Q338.5844,411.4063 339.475,412.2266 Q340.3656,413.0469 341.9594,413.0469 Q342.8969,413.0469 343.5531,412.7969 Q343.9438,412.6406 344.3656,412.2031 Q344.6313,411.9375 344.7797,411.8594 Q344.9281,411.7813 345.1313,411.7813 Q345.4594,411.7813 345.7172,412.0391 Q345.975,412.2969 345.975,412.6406 Q345.975,412.9844 345.6313,413.3906 Q345.1313,413.9688 344.3344,414.2969 Q343.2563,414.75 341.9594,414.75 Q340.4438,414.75 339.2406,414.125 Q338.2563,413.625 337.5688,412.5547 Q336.8813,411.4844 336.8813,410.2031 L336.8813,409.0469 Q336.8813,407.7188 337.4984,406.5703 Q338.1156,405.4219 339.2094,404.8047 Q340.3031,404.1875 341.5375,404.1875 Q342.2719,404.1875 342.9203,404.3516 Q343.5688,404.5156 344.1156,404.875 Z "/><text fill="#000000" font-family="sans-serif" font-size="12" lengthAdjust="spacingAndGlyphs" textLength="56" x="360.65" y="413.9102">UIHandler</text><line style="stroke: #383838; stroke-width: 1.5;" x1="303.5" x2="442.5" y1="425" y2="425"/><text fill="#000000" font-family="sans-serif" font-size="11" lengthAdjust="spacingAndGlyphs" text-decoration="underline" textLength="129" x="308.5" y="440.4189">views: typeof EditorView[]</text><text fill="#000000" font-family="sans-serif" font-size="11" lengthAdjust="spacingAndGlyphs" textLength="126" x="308.5" y="454.2549">selectedView: EditorView</text><line style="stroke: #383838; stroke-width: 1.5;" x1="303.5" x2="442.5" y1="460.6719" y2="460.6719"/><text fill="#000000" font-family="sans-serif" font-size="11" lengthAdjust="spacingAndGlyphs" textLength="48" x="308.5" y="476.0908">createUI()</text><text fill="#000000" font-family="sans-serif" font-size="11" lengthAdjust="spacingAndGlyphs" textLength="50" x="308.5" y="489.9268">updateUI()</text><text fill="#000000" font-family="sans-serif" font-size="11" lengthAdjust="spacingAndGlyphs" textLength="67" x="308.5" y="503.7627">switchView()</text><text fill="#000000" font-family="sans-serif" font-size="11" lengthAdjust="spacingAndGlyphs" text-decoration="underline" textLength="71" x="308.5" y="517.5986">registerView()</text><!--class EditorView--><rect fill="#F8F8F8" height="103.3438" id="EditorView" style="stroke: #383838; stroke-width: 1.5;" width="176" x="62" y="407"/><ellipse cx="116.75" cy="423" fill="#B1B1B1" rx="11" ry="11" style="stroke: #383838; stroke-width: 1.0;"/><path d="M117.7031,419.6406 L117.7031,426.2969 L119.4219,426.2969 Q120.0313,426.2969 120.2969,426.5313 Q120.5625,426.7656 120.5625,427.1563 Q120.5625,427.5313 120.2969,427.7656 Q120.0313,428 119.4219,428 L114.2813,428 Q113.6719,428 113.4063,427.7656 Q113.1406,427.5313 113.1406,427.1406 Q113.1406,426.7656 113.4063,426.5313 Q113.6719,426.2969 114.2813,426.2969 L116,426.2969 L116,419.6406 L114.2813,419.6406 Q113.6719,419.6406 113.4063,419.4063 Q113.1406,419.1719 113.1406,418.7813 Q113.1406,418.4063 113.4063,418.1719 Q113.6719,417.9375 114.2813,417.9375 L119.4219,417.9375 Q120.0313,417.9375 120.2969,418.1719 Q120.5625,418.4063 120.5625,418.7813 Q120.5625,419.1719 120.2969,419.4063 Q120.0313,419.6406 119.4219,419.6406 L117.7031,419.6406 Z "/><text fill="#000000" font-family="sans-serif" font-size="12" font-style="italic" lengthAdjust="spacingAndGlyphs" textLength="58" x="137.25" y="427.9102">EditorView</text><line style="stroke: #383838; stroke-width: 1.5;" x1="63" x2="237" y1="439" y2="439"/><text fill="#000000" font-family="sans-serif" font-size="11" lengthAdjust="spacingAndGlyphs" textLength="71" x="68" y="454.4189">scale: Vector2</text><line style="stroke: #383838; stroke-width: 1.5;" x1="63" x2="237" y1="460.8359" y2="460.8359"/><text fill="#000000" font-family="sans-serif" font-size="11" lengthAdjust="spacingAndGlyphs" textLength="164" x="68" y="476.2549">moveKeyTo(k: Key, pos: Vector2)</text><text fill="#000000" font-family="sans-serif" font-size="11" lengthAdjust="spacingAndGlyphs" textLength="67" x="68" y="490.0908">updateView()</text><text fill="#000000" font-family="sans-serif" font-size="11" lengthAdjust="spacingAndGlyphs" textLength="34" x="68" y="503.9268">scroll()</text><!--class Dopesheet--><rect fill="#F8F8F8" height="48" id="Dopesheet" style="stroke: #383838; stroke-width: 1.5;" width="93" x="72.5" y="585"/><ellipse cx="87.5" cy="601" fill="#C2C2C2" rx="11" ry="11" style="stroke: #383838; stroke-width: 1.0;"/><path d="M90.2656,596.875 Q90.4219,596.6563 90.6094,596.5469 Q90.7969,596.4375 91.0156,596.4375 Q91.3906,596.4375 91.625,596.6953 Q91.8594,596.9531 91.8594,597.5625 L91.8594,599.0156 Q91.8594,599.625 91.625,599.8906 Q91.3906,600.1563 91.0156,600.1563 Q90.6719,600.1563 90.4688,599.9531 Q90.2656,599.7656 90.1563,599.25 Q90.1094,598.8906 89.9219,598.7031 Q89.5938,598.3281 88.9844,598.1094 Q88.375,597.8906 87.75,597.8906 Q86.9844,597.8906 86.3516,598.2188 Q85.7188,598.5469 85.2266,599.2969 Q84.7344,600.0469 84.7344,601.0781 L84.7344,602.1719 Q84.7344,603.4063 85.625,604.2266 Q86.5156,605.0469 88.1094,605.0469 Q89.0469,605.0469 89.7031,604.7969 Q90.0938,604.6406 90.5156,604.2031 Q90.7813,603.9375 90.9297,603.8594 Q91.0781,603.7813 91.2813,603.7813 Q91.6094,603.7813 91.8672,604.0391 Q92.125,604.2969 92.125,604.6406 Q92.125,604.9844 91.7813,605.3906 Q91.2813,605.9688 90.4844,606.2969 Q89.4063,606.75 88.1094,606.75 Q86.5938,606.75 85.3906,606.125 Q84.4063,605.625 83.7188,604.5547 Q83.0313,603.4844 83.0313,602.2031 L83.0313,601.0469 Q83.0313,599.7188 83.6484,598.5703 Q84.2656,597.4219 85.3594,596.8047 Q86.4531,596.1875 87.6875,596.1875 Q88.4219,596.1875 89.0703,596.3516 Q89.7188,596.5156 90.2656,596.875 Z "/><text fill="#000000" font-family="sans-serif" font-size="12" lengthAdjust="spacingAndGlyphs" textLength="61" x="101.5" y="605.9102">Dopesheet</text><line style="stroke: #383838; stroke-width: 1.5;" x1="73.5" x2="164.5" y1="617" y2="617"/><line style="stroke: #383838; stroke-width: 1.5;" x1="73.5" x2="164.5" y1="625" y2="625"/><!--class CurveView--><rect fill="#F8F8F8" height="48" id="CurveView" style="stroke: #383838; stroke-width: 1.5;" width="90" x="201" y="585"/><ellipse cx="216" cy="601" fill="#C2C2C2" rx="11" ry="11" style="stroke: #383838; stroke-width: 1.0;"/><path d="M218.7656,596.875 Q218.9219,596.6563 219.1094,596.5469 Q219.2969,596.4375 219.5156,596.4375 Q219.8906,596.4375 220.125,596.6953 Q220.3594,596.9531 220.3594,597.5625 L220.3594,599.0156 Q220.3594,599.625 220.125,599.8906 Q219.8906,600.1563 219.5156,600.1563 Q219.1719,600.1563 218.9688,599.9531 Q218.7656,599.7656 218.6563,599.25 Q218.6094,598.8906 218.4219,598.7031 Q218.0938,598.3281 217.4844,598.1094 Q216.875,597.8906 216.25,597.8906 Q215.4844,597.8906 214.8516,598.2188 Q214.2188,598.5469 213.7266,599.2969 Q213.2344,600.0469 213.2344,601.0781 L213.2344,602.1719 Q213.2344,603.4063 214.125,604.2266 Q215.0156,605.0469 216.6094,605.0469 Q217.5469,605.0469 218.2031,604.7969 Q218.5938,604.6406 219.0156,604.2031 Q219.2813,603.9375 219.4297,603.8594 Q219.5781,603.7813 219.7813,603.7813 Q220.1094,603.7813 220.3672,604.0391 Q220.625,604.2969 220.625,604.6406 Q220.625,604.9844 220.2813,605.3906 Q219.7813,605.9688 218.9844,606.2969 Q217.9063,606.75 216.6094,606.75 Q215.0938,606.75 213.8906,606.125 Q212.9063,605.625 212.2188,604.5547 Q211.5313,603.4844 211.5313,602.2031 L211.5313,601.0469 Q211.5313,599.7188 212.1484,598.5703 Q212.7656,597.4219 213.8594,596.8047 Q214.9531,596.1875 216.1875,596.1875 Q216.9219,596.1875 217.5703,596.3516 Q218.2188,596.5156 218.7656,596.875 Z "/><text fill="#000000" font-family="sans-serif" font-size="12" lengthAdjust="spacingAndGlyphs" textLength="58" x="230" y="605.9102">CurveView</text><line style="stroke: #383838; stroke-width: 1.5;" x1="202" x2="290" y1="617" y2="617"/><line style="stroke: #383838; stroke-width: 1.5;" x1="202" x2="290" y1="625" y2="625"/><!--class Animation.Animation--><rect fill="#F8F8F8" height="48" id="Animation.Animation" style="stroke: #383838; stroke-width: 1.5;" width="87" x="524.5" y="194"/><ellipse cx="539.5" cy="210" fill="#C2C2C2" rx="11" ry="11" style="stroke: #383838; stroke-width: 1.0;"/><path d="M542.2656,205.875 Q542.4219,205.6563 542.6094,205.5469 Q542.7969,205.4375 543.0156,205.4375 Q543.3906,205.4375 543.625,205.6953 Q543.8594,205.9531 543.8594,206.5625 L543.8594,208.0156 Q543.8594,208.625 543.625,208.8906 Q543.3906,209.1563 543.0156,209.1563 Q542.6719,209.1563 542.4688,208.9531 Q542.2656,208.7656 542.1563,208.25 Q542.1094,207.8906 541.9219,207.7031 Q541.5938,207.3281 540.9844,207.1094 Q540.375,206.8906 539.75,206.8906 Q538.9844,206.8906 538.3516,207.2188 Q537.7188,207.5469 537.2266,208.2969 Q536.7344,209.0469 536.7344,210.0781 L536.7344,211.1719 Q536.7344,212.4063 537.625,213.2266 Q538.5156,214.0469 540.1094,214.0469 Q541.0469,214.0469 541.7031,213.7969 Q542.0938,213.6406 542.5156,213.2031 Q542.7813,212.9375 542.9297,212.8594 Q543.0781,212.7813 543.2813,212.7813 Q543.6094,212.7813 543.8672,213.0391 Q544.125,213.2969 544.125,213.6406 Q544.125,213.9844 543.7813,214.3906 Q543.2813,214.9688 542.4844,215.2969 Q541.4063,215.75 540.1094,215.75 Q538.5938,215.75 537.3906,215.125 Q536.4063,214.625 535.7188,213.5547 Q535.0313,212.4844 535.0313,211.2031 L535.0313,210.0469 Q535.0313,208.7188 535.6484,207.5703 Q536.2656,206.4219 537.3594,205.8047 Q538.4531,205.1875 539.6875,205.1875 Q540.4219,205.1875 541.0703,205.3516 Q541.7188,205.5156 542.2656,205.875 Z "/><text fill="#000000" font-family="sans-serif" font-size="12" lengthAdjust="spacingAndGlyphs" textLength="55" x="553.5" y="214.9102">Animation</text><line style="stroke: #383838; stroke-width: 1.5;" x1="525.5" x2="610.5" y1="226" y2="226"/><line style="stroke: #383838; stroke-width: 1.5;" x1="525.5" x2="610.5" y1="234" y2="234"/><!--link EditorView to Dopesheet--><path d="M135.33,529.775 C131.17,549.702 126.93,570.011 123.814,584.941 " fill="none" id="EditorView-Dopesheet" style="stroke: #383838; stroke-width: 1.0; stroke-dasharray: 7.0,7.0;"/><polygon fill="none" points="128.479,528.337,139.418,510.19,142.183,531.198,128.479,528.337" style="stroke: #383838; stroke-width: 1.0;"/><!--link EditorView to CurveView--><path d="M193.822,527.287 C207.212,548 221.039,569.389 231.093,584.941 " fill="none" id="EditorView-CurveView" style="stroke: #383838; stroke-width: 1.0; stroke-dasharray: 7.0,7.0;"/><polygon fill="none" points="187.749,530.786,182.769,510.19,199.506,523.186,187.749,530.786" style="stroke: #383838; stroke-width: 1.0;"/><!--link Editor to Animation.Animation--><path d="M444.314,218 C470.888,218 497.461,218 524.034,218 " fill="none" id="Editor-Animation.Animation" style="stroke: #383838; stroke-width: 1.0;"/><text fill="#000000" font-family="sans-serif" font-size="13" lengthAdjust="spacingAndGlyphs" textLength="7" x="509.4691" y="214.2481">n</text><!--link Editor to UIHandler--><path d="M365.651,332.313 C366.872,353.106 368.107,374.14 369.207,392.878 " fill="none" id="Editor-UIHandler" style="stroke: #383838; stroke-width: 1.0;"/><text fill="#000000" font-family="sans-serif" font-size="13" lengthAdjust="spacingAndGlyphs" textLength="7" x="358.843" y="353.2763">1</text><text fill="#000000" font-family="sans-serif" font-size="13" lengthAdjust="spacingAndGlyphs" textLength="7" x="361.4093" y="382.3391">1</text><!--link EditorView to UIHandler--><path d="M238.136,458.5 C259.441,458.5 281.937,458.5 302.322,458.5 " fill="none" id="EditorView-UIHandler" style="stroke: #383838; stroke-width: 1.0;"/><text fill="#000000" font-family="sans-serif" font-size="13" lengthAdjust="spacingAndGlyphs" textLength="28" x="256.25" y="451.9951">uses</text><!--
@startuml Animation Editor Class Diagram
skinparam monochrome true
skinparam componentStyle uml2
skinparam classAttributeIconSize 0
skinparam shadowing false
skinparam handwritten false


package FUDGE <<Rectangle>> {













	package AnimationEditor <<Rectangle>> {
		class Editor {
			animations: Animation[]
			cursorPosition: number
			crc: CanvasRenderingContext2D
			selectedAnimation: Animation
			{static} pressedKeys: string[]
			selectedKey: Key
			selectedSlope: "left" | "right"
			mousedown()
			mousemove()
			mouseup()
			keydown()
			keyup()
			scroll()
		}

		class UIHandler {
			{static} views: typeof EditorView[]
			selectedView: EditorView
			
			createUI()
			updateUI()
			switchView()
			{static} registerView()
		}

		interface EditorView{
			scale: Vector2
			moveKeyTo(k: Key, pos: Vector2)
			updateView()
			scroll()
		}
		class Dopesheet implements EditorView {
		
		}
		 
		class CurveView implements EditorView {
		
		}
		
		Editor -right- "n" Animation.Animation
		Editor "1" - - "1" UIHandler
		UIHandler -left- EditorView: uses
	}
}
@enduml

PlantUML version 1.2019.05(Sat Apr 20 18:45:36 CEST 2019)
(GPL source distribution)
Java Runtime: Java(TM) SE Runtime Environment
JVM: Java HotSpot(TM) 64-Bit Server VM
Java Version: 1.8.0_181-b13
Operating System: Windows 10
OS Version: 10.0
Default Encoding: Cp1252
Language: de
Country: DE
--></g></svg>