<?xml version="1.0" encoding="UTF-8" standalone="no"?><svg xmlns="http://www.w3.org/2000/svg" xmlns:xlink="http://www.w3.org/1999/xlink" contentScriptType="application/ecmascript" contentStyleType="text/css" height="2846px" preserveAspectRatio="none" style="width:548px;height:2846px;" version="1.1" viewBox="0 0 548 2846" width="548px" zoomAndPan="magnify"><defs><filter height="300%" id="f10s5xznrtfqhi" width="300%" x="-1" y="-1"><feGaussianBlur result="blurOut" stdDeviation="2.0"/><feColorMatrix in="blurOut" result="blurOut2" type="matrix" values="0 0 0 0 0 0 0 0 0 0 0 0 0 0 0 0 0 0 .4 0"/><feOffset dx="4.0" dy="4.0" in="blurOut2" result="blurOut3"/><feBlend in="SourceGraphic" in2="blurOut3" mode="normal"/></filter></defs><g><text fill="#000000" font-family="sans-serif" font-size="18" lengthAdjust="spacingAndGlyphs" textLength="81" x="232.75" y="28.6855">Sequence</text><rect fill="#FFFFFF" filter="url(#f10s5xznrtfqhi)" height="967.9619" style="stroke: #000000; stroke-width: 2.0;" width="527.5" x="10" y="33.2168"/><path d="M74,34.2168 L74,43.8262 L64,53.8262 L10,53.8262 " fill="none" style="stroke: #000000; stroke-width: 2.0;"/><text fill="#000000" font-family="sans-serif" font-size="14" lengthAdjust="spacingAndGlyphs" textLength="54" x="13" y="48.75">evaluate</text><rect fill="#F8F8F8" filter="url(#f10s5xznrtfqhi)" height="50.1875" style="stroke: #383838; stroke-width: 1.5;" width="221" x="141.25" y="63.8262"/><text fill="#000000" font-family="sans-serif" font-size="12" lengthAdjust="spacingAndGlyphs" textLength="80" x="151.25" y="86.2832">_time: number</text><text fill="#000000" font-family="sans-serif" font-size="12" lengthAdjust="spacingAndGlyphs" textLength="201" x="151.25" y="101.377">_runningBackwards: boolean = false</text><rect fill="#F8F8F8" filter="url(#f10s5xznrtfqhi)" height="35.0938" style="stroke: #383838; stroke-width: 1.5;" width="84" x="209.75" y="182.9316"/><text fill="#000000" font-family="sans-serif" font-size="12" lengthAdjust="spacingAndGlyphs" textLength="64" x="219.75" y="205.3887">Throw Error</text><polygon fill="#F8F8F8" filter="url(#f10s5xznrtfqhi)" points="251.75,134.0137,251.75,134.0137,263.75,146.0137,251.75,158.0137,251.75,158.0137,239.75,146.0137,251.75,134.0137" style="stroke: #383838; stroke-width: 1.5;"/><text fill="#000000" font-family="sans-serif" font-size="11" lengthAdjust="spacingAndGlyphs" textLength="79" x="255.75" y="169.4326">[keys.length = 0]</text><rect fill="#F8F8F8" filter="url(#f10s5xznrtfqhi)" height="35.0938" style="stroke: #383838; stroke-width: 1.5;" width="90" x="206.75" y="308.9434"/><text fill="#000000" font-family="sans-serif" font-size="12" lengthAdjust="spacingAndGlyphs" textLength="70" x="216.75" y="331.4004">keys[0].value</text><polygon fill="#F8F8F8" filter="url(#f10s5xznrtfqhi)" points="251.75,260.0254,251.75,260.0254,263.75,272.0254,251.75,284.0254,251.75,284.0254,239.75,272.0254,251.75,260.0254" style="stroke: #383838; stroke-width: 1.5;"/><text fill="#000000" font-family="sans-serif" font-size="11" lengthAdjust="spacingAndGlyphs" textLength="79" x="255.75" y="295.4443">[keys.length = 1]</text><rect fill="#F8F8F8" filter="url(#f10s5xznrtfqhi)" height="35.0938" style="stroke: #383838; stroke-width: 1.5;" width="90" x="206.75" y="434.9551"/><text fill="#000000" font-family="sans-serif" font-size="12" lengthAdjust="spacingAndGlyphs" textLength="70" x="216.75" y="457.4121">keys[0].value</text><polygon fill="#F8F8F8" filter="url(#f10s5xznrtfqhi)" points="251.75,386.0371,251.75,386.0371,263.75,398.0371,251.75,410.0371,251.75,410.0371,239.75,398.0371,251.75,386.0371" style="stroke: #383838; stroke-width: 1.5;"/><text fill="#000000" font-family="sans-serif" font-size="11" lengthAdjust="spacingAndGlyphs" textLength="226" x="255.75" y="421.4561">[!_runningBackwards &amp;&amp; [keys[0].time &lt; _time]]</text><rect fill="#F8F8F8" filter="url(#f10s5xznrtfqhi)" height="35.0938" style="stroke: #383838; stroke-width: 1.5;" width="94" x="204.75" y="560.9668"/><text fill="#000000" font-family="sans-serif" font-size="12" lengthAdjust="spacingAndGlyphs" textLength="74" x="214.75" y="583.4238">keys[-1].value</text><polygon fill="#F8F8F8" filter="url(#f10s5xznrtfqhi)" points="251.75,512.0488,251.75,512.0488,263.75,524.0488,251.75,536.0488,251.75,536.0488,239.75,524.0488,251.75,512.0488" style="stroke: #383838; stroke-width: 1.5;"/><text fill="#000000" font-family="sans-serif" font-size="11" lengthAdjust="spacingAndGlyphs" textLength="228" x="255.75" y="547.4678">[_runningBackwards &amp;&amp; [keys[-1].time &gt; _time]]</text><polygon fill="#F8F8F8" filter="url(#f10s5xznrtfqhi)" points="251.75,638.0605,251.75,638.0605,263.75,650.0605,251.75,662.0605,251.75,662.0605,239.75,650.0605,251.75,638.0605" style="stroke: #383838; stroke-width: 1.5;"/><text fill="#000000" font-family="sans-serif" font-size="11" lengthAdjust="spacingAndGlyphs" textLength="106" x="133.75" y="647.6436">[!_runningBackwards]</text><rect fill="#F8F8F8" filter="url(#f10s5xznrtfqhi)" height="35.0938" style="stroke: #383838; stroke-width: 1.5;" width="110" x="81" y="672.0605"/><text fill="#000000" font-family="sans-serif" font-size="12" lengthAdjust="spacingAndGlyphs" textLength="87" x="91" y="694.5176">leftKey = keys[0]</text><rect fill="#F8F8F8" filter="url(#f10s5xznrtfqhi)" height="35.0938" rx="12.5" ry="12.5" style="stroke: #383838; stroke-width: 1.5;" width="87" x="92.5" y="832.9912"/><text fill="#000000" font-family="sans-serif" font-size="12" lengthAdjust="spacingAndGlyphs" textLength="67" x="102.5" y="855.4482">leftKey = key</text><polygon fill="#F8F8F8" filter="url(#f10s5xznrtfqhi)" points="136,784.0732,136,784.0732,148,796.0732,136,808.0732,136,808.0732,124,796.0732,136,784.0732" style="stroke: #383838; stroke-width: 1.5;"/><text fill="#000000" font-family="sans-serif" font-size="11" lengthAdjust="spacingAndGlyphs" textLength="155" x="140" y="819.4922">[k.time &gt; leftKey.time &amp;&amp; &lt; _time]</text><polygon fill="#F8F8F8" filter="url(#f10s5xznrtfqhi)" points="136,888.085,148,900.085,136,912.085,124,900.085,136,888.085" style="stroke: #383838; stroke-width: 1.5;"/><polygon fill="#F8F8F8" filter="url(#f10s5xznrtfqhi)" points="124,727.1543,148,727.1543,160,739.1543,148,751.1543,124,751.1543,112,739.1543,124,727.1543" style="stroke: #383838; stroke-width: 1.5;"/><text fill="#000000" font-family="sans-serif" font-size="11" lengthAdjust="spacingAndGlyphs" textLength="50" x="140" y="762.5732">[k of keys]</text><text fill="#000000" font-family="sans-serif" font-size="11" lengthAdjust="spacingAndGlyphs" textLength="0" x="137.5" y="743.6553"/><rect fill="#F8F8F8" filter="url(#f10s5xznrtfqhi)" height="35.0938" style="stroke: #383838; stroke-width: 1.5;" width="212" x="30" y="954.085"/><text fill="#000000" font-family="sans-serif" font-size="12" lengthAdjust="spacingAndGlyphs" textLength="189" x="40" y="976.542">leftKey.functionOut.evaluate(_time)</text><rect fill="#F8F8F8" filter="url(#f10s5xznrtfqhi)" height="35.0938" style="stroke: #383838; stroke-width: 1.5;" width="122" x="306.5" y="672.0605"/><text fill="#000000" font-family="sans-serif" font-size="12" lengthAdjust="spacingAndGlyphs" textLength="99" x="316.5" y="694.5176">rightKey = keys[-1]</text><rect fill="#F8F8F8" filter="url(#f10s5xznrtfqhi)" height="35.0938" rx="12.5" ry="12.5" style="stroke: #383838; stroke-width: 1.5;" width="95" x="320" y="832.9912"/><text fill="#000000" font-family="sans-serif" font-size="12" lengthAdjust="spacingAndGlyphs" textLength="75" x="330" y="855.4482">rightKey = key</text><polygon fill="#F8F8F8" filter="url(#f10s5xznrtfqhi)" points="367.5,784.0732,367.5,784.0732,379.5,796.0732,367.5,808.0732,367.5,808.0732,355.5,796.0732,367.5,784.0732" style="stroke: #383838; stroke-width: 1.5;"/><text fill="#000000" font-family="sans-serif" font-size="11" lengthAdjust="spacingAndGlyphs" textLength="161" x="371.5" y="819.4922">[k.time &lt; rightKey.time &amp;&amp; &gt; _time]</text><polygon fill="#F8F8F8" filter="url(#f10s5xznrtfqhi)" points="367.5,888.085,379.5,900.085,367.5,912.085,355.5,900.085,367.5,888.085" style="stroke: #383838; stroke-width: 1.5;"/><polygon fill="#F8F8F8" filter="url(#f10s5xznrtfqhi)" points="355.5,727.1543,379.5,727.1543,391.5,739.1543,379.5,751.1543,355.5,751.1543,343.5,739.1543,355.5,727.1543" style="stroke: #383838; stroke-width: 1.5;"/><text fill="#000000" font-family="sans-serif" font-size="11" lengthAdjust="spacingAndGlyphs" textLength="50" x="371.5" y="762.5732">[k of keys]</text><text fill="#000000" font-family="sans-serif" font-size="11" lengthAdjust="spacingAndGlyphs" textLength="0" x="369" y="743.6553"/><rect fill="#F8F8F8" filter="url(#f10s5xznrtfqhi)" height="35.0938" style="stroke: #383838; stroke-width: 1.5;" width="211" x="262" y="954.085"/><text fill="#000000" font-family="sans-serif" font-size="12" lengthAdjust="spacingAndGlyphs" textLength="188" x="272" y="976.542">rightKey.functionIn.evaluate(_time)</text><rect fill="#FFFFFF" filter="url(#f10s5xznrtfqhi)" height="756.6963" style="stroke: #000000; stroke-width: 2.0;" width="253" x="129.75" y="1011.7549"/><path d="M187.75,1012.7549 L187.75,1022.3643 L177.75,1032.3643 L129.75,1032.3643 " fill="none" style="stroke: #000000; stroke-width: 2.0;"/><text fill="#000000" font-family="sans-serif" font-size="14" lengthAdjust="spacingAndGlyphs" textLength="48" x="132.75" y="1027.2881">addKey</text><rect fill="#F8F8F8" filter="url(#f10s5xznrtfqhi)" height="35.0938" style="stroke: #383838; stroke-width: 1.5;" width="71" x="216.25" y="1042.3643"/><text fill="#000000" font-family="sans-serif" font-size="12" lengthAdjust="spacingAndGlyphs" textLength="51" x="226.25" y="1064.8213">_key: Key</text><rect fill="#F8F8F8" filter="url(#f10s5xznrtfqhi)" height="35.0938" rx="12.5" ry="12.5" style="stroke: #383838; stroke-width: 1.5;" width="102" x="200.75" y="1146.376"/><text fill="#000000" font-family="sans-serif" font-size="12" lengthAdjust="spacingAndGlyphs" textLength="82" x="210.75" y="1168.833">keys.push(key)</text><polygon fill="#F8F8F8" filter="url(#f10s5xznrtfqhi)" points="251.75,1097.458,251.75,1097.458,263.75,1109.458,251.75,1121.458,251.75,1121.458,239.75,1109.458,251.75,1097.458" style="stroke: #383838; stroke-width: 1.5;"/><text fill="#000000" font-family="sans-serif" font-size="11" lengthAdjust="spacingAndGlyphs" textLength="79" x="255.75" y="1132.877">[keys.length = 0]</text><rect fill="#F8F8F8" filter="url(#f10s5xznrtfqhi)" height="35.0938" rx="12.5" ry="12.5" style="stroke: #383838; stroke-width: 1.5;" width="121" x="191.25" y="1223.4697"/><text fill="#000000" font-family="sans-serif" font-size="12" lengthAdjust="spacingAndGlyphs" textLength="101" x="201.25" y="1245.9268">keys.sort(Key.sort)</text><rect fill="#F8F8F8" filter="url(#f10s5xznrtfqhi)" height="35.0938" style="stroke: #383838; stroke-width: 1.5;" width="92" x="205.75" y="1278.5635"/><text fill="#000000" font-family="sans-serif" font-size="12" lengthAdjust="spacingAndGlyphs" textLength="72" x="215.75" y="1301.0205">i: number = 0</text><rect fill="#F8F8F8" filter="url(#f10s5xznrtfqhi)" height="35.0938" rx="12.5" ry="12.5" style="stroke: #383838; stroke-width: 1.5;" width="130" x="186.75" y="1439.4941"/><text fill="#000000" font-family="sans-serif" font-size="12" lengthAdjust="spacingAndGlyphs" textLength="110" x="196.75" y="1461.9512">insert k into keys at i</text><rect fill="#F8F8F8" filter="url(#f10s5xznrtfqhi)" height="35.0938" rx="12.5" ry="12.5" style="stroke: #383838; stroke-width: 1.5;" width="156" x="173.75" y="1494.5879"/><text fill="#000000" font-family="sans-serif" font-size="12" lengthAdjust="spacingAndGlyphs" textLength="136" x="183.75" y="1517.0449">generateNewFunctions()</text><rect fill="#F8F8F8" filter="url(#f10s5xznrtfqhi)" height="35.0938" rx="12.5" ry="12.5" style="stroke: #383838; stroke-width: 1.5;" width="51" x="226.25" y="1558.2637"/><text fill="#000000" font-family="sans-serif" font-size="12" lengthAdjust="spacingAndGlyphs" textLength="31" x="236.25" y="1580.7207">break</text><polygon fill="#F8F8F8" filter="url(#f10s5xznrtfqhi)" points="251.75,1390.5762,251.75,1390.5762,263.75,1402.5762,251.75,1414.5762,251.75,1414.5762,239.75,1402.5762,251.75,1390.5762" style="stroke: #383838; stroke-width: 1.5;"/><text fill="#000000" font-family="sans-serif" font-size="11" lengthAdjust="spacingAndGlyphs" textLength="116" x="255.75" y="1425.9951">[keys[i].time &gt; _key.time]</text><polygon fill="#F8F8F8" filter="url(#f10s5xznrtfqhi)" points="251.75,1613.3574,263.75,1625.3574,251.75,1637.3574,239.75,1625.3574,251.75,1613.3574" style="stroke: #383838; stroke-width: 1.5;"/><rect fill="#F8F8F8" filter="url(#f10s5xznrtfqhi)" height="35.0938" rx="12.5" ry="12.5" style="stroke: #383838; stroke-width: 1.5;" width="37" x="233.25" y="1657.3574"/><text fill="#000000" font-family="sans-serif" font-size="12" lengthAdjust="spacingAndGlyphs" textLength="17" x="243.25" y="1679.8145">i++</text><polygon fill="#F8F8F8" filter="url(#f10s5xznrtfqhi)" points="239.75,1333.6572,263.75,1333.6572,275.75,1345.6572,263.75,1357.6572,239.75,1357.6572,227.75,1345.6572,239.75,1333.6572" style="stroke: #383838; stroke-width: 1.5;"/><text fill="#000000" font-family="sans-serif" font-size="11" lengthAdjust="spacingAndGlyphs" textLength="75" x="255.75" y="1369.0762">[i &lt; keys.length]</text><text fill="#000000" font-family="sans-serif" font-size="11" lengthAdjust="spacingAndGlyphs" textLength="0" x="253.25" y="1350.1582"/><ellipse cx="251.75" cy="1745.4512" fill="#FFFFFF" filter="url(#f10s5xznrtfqhi)" rx="11" ry="11" style="stroke: #000000; stroke-width: 1.0;"/><ellipse cx="251.75" cy="1745.4512" fill="#000000" rx="6" ry="6" style="stroke: #7F7F7F; stroke-width: 1.0;"/><rect fill="#FFFFFF" filter="url(#f10s5xznrtfqhi)" height="340.0781" style="stroke: #000000; stroke-width: 2.0;" width="182" x="160.75" y="1779.0273"/><path d="M241.75,1780.0273 L241.75,1789.6367 L231.75,1799.6367 L160.75,1799.6367 " fill="none" style="stroke: #000000; stroke-width: 2.0;"/><text fill="#000000" font-family="sans-serif" font-size="14" lengthAdjust="spacingAndGlyphs" textLength="71" x="163.75" y="1794.5605">removeKey</text><rect fill="#F8F8F8" filter="url(#f10s5xznrtfqhi)" height="35.0938" style="stroke: #383838; stroke-width: 1.5;" width="71" x="216.25" y="1809.6367"/><text fill="#000000" font-family="sans-serif" font-size="12" lengthAdjust="spacingAndGlyphs" textLength="51" x="226.25" y="1832.0938">_key: Key</text><rect fill="#F8F8F8" filter="url(#f10s5xznrtfqhi)" height="35.0938" style="stroke: #383838; stroke-width: 1.5;" width="162" x="170.75" y="1864.7305"/><text fill="#000000" font-family="sans-serif" font-size="12" lengthAdjust="spacingAndGlyphs" textLength="142" x="180.75" y="1887.1875">ind: keys.getIndexOf(_key)</text><rect fill="#F8F8F8" filter="url(#f10s5xznrtfqhi)" height="35.0938" rx="12.5" ry="12.5" style="stroke: #383838; stroke-width: 1.5;" width="116" x="193.75" y="1919.8242"/><text fill="#000000" font-family="sans-serif" font-size="12" lengthAdjust="spacingAndGlyphs" textLength="96" x="203.75" y="1942.2813">keys.splice(ind,1)</text><rect fill="#F8F8F8" filter="url(#f10s5xznrtfqhi)" height="35.0938" rx="12.5" ry="12.5" style="stroke: #383838; stroke-width: 1.5;" width="121" x="191.25" y="1974.918"/><text fill="#000000" font-family="sans-serif" font-size="12" lengthAdjust="spacingAndGlyphs" textLength="101" x="201.25" y="1997.375">keys.sort(Key.sort)</text><rect fill="#F8F8F8" filter="url(#f10s5xznrtfqhi)" height="35.0938" rx="12.5" ry="12.5" style="stroke: #383838; stroke-width: 1.5;" width="156" x="173.75" y="2030.0117"/><text fill="#000000" font-family="sans-serif" font-size="12" lengthAdjust="spacingAndGlyphs" textLength="136" x="183.75" y="2052.4688">generateNewFunctions()</text><ellipse cx="251.75" cy="2096.1055" fill="#FFFFFF" filter="url(#f10s5xznrtfqhi)" rx="11" ry="11" style="stroke: #000000; stroke-width: 1.0;"/><ellipse cx="251.75" cy="2096.1055" fill="#000000" rx="6" ry="6" style="stroke: #7F7F7F; stroke-width: 1.0;"/><rect fill="#FFFFFF" filter="url(#f10s5xznrtfqhi)" height="706.0205" style="stroke: #000000; stroke-width: 2.0;" width="329" x="87.25" y="2129.6816"/><path d="M242.25,2130.6816 L242.25,2140.291 L232.25,2150.291 L87.25,2150.291 " fill="none" style="stroke: #000000; stroke-width: 2.0;"/><text fill="#000000" font-family="sans-serif" font-size="14" lengthAdjust="spacingAndGlyphs" textLength="145" x="90.25" y="2145.2148">generateNewFunctions</text><ellipse cx="251.75" cy="2170.291" fill="#000000" filter="url(#f10s5xznrtfqhi)" rx="10" ry="10" style="stroke: none; stroke-width: 1.0;"/><rect fill="#F8F8F8" filter="url(#f10s5xznrtfqhi)" height="35.0938" rx="12.5" ry="12.5" style="stroke: #383838; stroke-width: 1.5;" width="80" x="211.75" y="2249.209"/><text fill="#000000" font-family="sans-serif" font-size="12" lengthAdjust="spacingAndGlyphs" textLength="60" x="221.75" y="2271.666">throw Error</text><polygon fill="#F8F8F8" filter="url(#f10s5xznrtfqhi)" points="251.75,2200.291,251.75,2200.291,263.75,2212.291,251.75,2224.291,251.75,2224.291,239.75,2212.291,251.75,2200.291" style="stroke: #383838; stroke-width: 1.5;"/><text fill="#000000" font-family="sans-serif" font-size="11" lengthAdjust="spacingAndGlyphs" textLength="79" x="255.75" y="2235.71">[keys.length = 0]</text><rect fill="#F8F8F8" filter="url(#f10s5xznrtfqhi)" height="35.0938" style="stroke: #383838; stroke-width: 1.5;" width="92" x="205.75" y="2326.3027"/><text fill="#000000" font-family="sans-serif" font-size="12" lengthAdjust="spacingAndGlyphs" textLength="72" x="215.75" y="2348.7598">i: number = 0</text><rect fill="#F8F8F8" filter="url(#f10s5xznrtfqhi)" height="35.0938" rx="12.5" ry="12.5" style="stroke: #383838; stroke-width: 1.5;" width="258" x="122.75" y="2438.3154"/><text fill="#000000" font-family="sans-serif" font-size="12" lengthAdjust="spacingAndGlyphs" textLength="238" x="132.75" y="2460.7725">f: Function = new Function (keys[i-1], keys[i])</text><rect fill="#F8F8F8" filter="url(#f10s5xznrtfqhi)" height="35.0938" rx="12.5" ry="12.5" style="stroke: #383838; stroke-width: 1.5;" width="126" x="188.75" y="2493.4092"/><text fill="#000000" font-family="sans-serif" font-size="12" lengthAdjust="spacingAndGlyphs" textLength="106" x="198.75" y="2515.8662">keys[i].functionIn = f</text><rect fill="#F8F8F8" filter="url(#f10s5xznrtfqhi)" height="35.0938" rx="12.5" ry="12.5" style="stroke: #383838; stroke-width: 1.5;" width="146" x="178.75" y="2612.4209"/><text fill="#000000" font-family="sans-serif" font-size="12" lengthAdjust="spacingAndGlyphs" textLength="126" x="188.75" y="2634.8779">keys[i-1].functionOut = f</text><polygon fill="#F8F8F8" filter="url(#f10s5xznrtfqhi)" points="251.75,2563.5029,251.75,2563.5029,263.75,2575.5029,251.75,2587.5029,251.75,2587.5029,239.75,2575.5029,251.75,2563.5029" style="stroke: #383838; stroke-width: 1.5;"/><text fill="#000000" font-family="sans-serif" font-size="11" lengthAdjust="spacingAndGlyphs" textLength="26" x="255.75" y="2598.9219">[i &gt; 0]</text><polygon fill="#F8F8F8" filter="url(#f10s5xznrtfqhi)" points="251.75,2667.5146,263.75,2679.5146,251.75,2691.5146,239.75,2679.5146,251.75,2667.5146" style="stroke: #383838; stroke-width: 1.5;"/><polygon fill="#F8F8F8" filter="url(#f10s5xznrtfqhi)" points="239.75,2381.3965,263.75,2381.3965,275.75,2393.3965,263.75,2405.3965,239.75,2405.3965,227.75,2393.3965,239.75,2381.3965" style="stroke: #383838; stroke-width: 1.5;"/><text fill="#000000" font-family="sans-serif" font-size="11" lengthAdjust="spacingAndGlyphs" textLength="75" x="255.75" y="2416.8154">[i &lt; keys.length]</text><text fill="#000000" font-family="sans-serif" font-size="11" lengthAdjust="spacingAndGlyphs" textLength="0" x="253.25" y="2397.8975"/><rect fill="#F8F8F8" filter="url(#f10s5xznrtfqhi)" height="35.0938" rx="12.5" ry="12.5" style="stroke: #383838; stroke-width: 1.5;" width="309" x="97.25" y="2733.5146"/><text fill="#000000" font-family="sans-serif" font-size="12" lengthAdjust="spacingAndGlyphs" textLength="289" x="107.25" y="2755.9717">f: Function = new Function (keys[keys.length - 1], null)</text><rect fill="#F8F8F8" filter="url(#f10s5xznrtfqhi)" height="35.0938" rx="12.5" ry="12.5" style="stroke: #383838; stroke-width: 1.5;" width="211" x="146.25" y="2788.6084"/><text fill="#000000" font-family="sans-serif" font-size="12" lengthAdjust="spacingAndGlyphs" textLength="191" x="156.25" y="2811.0654">keys[keys.length - 1].functionOut = f</text><line style="stroke: #383838; stroke-width: 1.5;" x1="251.75" x2="251.75" y1="158.0137" y2="182.9316"/><polygon fill="#383838" points="247.75,172.9316,251.75,182.9316,255.75,172.9316,251.75,176.9316" style="stroke: #383838; stroke-width: 1.0;"/><line style="stroke: #383838; stroke-width: 1.5;" x1="263.75" x2="303.75" y1="146.0137" y2="146.0137"/><polygon fill="#383838" points="299.75,187.4785,303.75,197.4785,307.75,187.4785,303.75,191.4785" style="stroke: #383838; stroke-width: 1.5;"/><line style="stroke: #383838; stroke-width: 1.5;" x1="303.75" x2="303.75" y1="146.0137" y2="240.0254"/><line style="stroke: #383838; stroke-width: 1.5;" x1="303.75" x2="251.75" y1="240.0254" y2="240.0254"/><line style="stroke: #383838; stroke-width: 1.5;" x1="251.75" x2="251.75" y1="240.0254" y2="260.0254"/><polygon fill="#383838" points="247.75,250.0254,251.75,260.0254,255.75,250.0254,251.75,254.0254" style="stroke: #383838; stroke-width: 1.0;"/><line style="stroke: #383838; stroke-width: 1.5;" x1="251.75" x2="251.75" y1="114.0137" y2="134.0137"/><polygon fill="#383838" points="247.75,124.0137,251.75,134.0137,255.75,124.0137,251.75,128.0137" style="stroke: #383838; stroke-width: 1.0;"/><line style="stroke: #383838; stroke-width: 1.5;" x1="251.75" x2="251.75" y1="284.0254" y2="308.9434"/><polygon fill="#383838" points="247.75,298.9434,251.75,308.9434,255.75,298.9434,251.75,302.9434" style="stroke: #383838; stroke-width: 1.0;"/><line style="stroke: #383838; stroke-width: 1.5;" x1="263.75" x2="306.75" y1="272.0254" y2="272.0254"/><polygon fill="#383838" points="302.75,313.4902,306.75,323.4902,310.75,313.4902,306.75,317.4902" style="stroke: #383838; stroke-width: 1.5;"/><line style="stroke: #383838; stroke-width: 1.5;" x1="306.75" x2="306.75" y1="272.0254" y2="366.0371"/><line style="stroke: #383838; stroke-width: 1.5;" x1="306.75" x2="251.75" y1="366.0371" y2="366.0371"/><line style="stroke: #383838; stroke-width: 1.5;" x1="251.75" x2="251.75" y1="366.0371" y2="386.0371"/><polygon fill="#383838" points="247.75,376.0371,251.75,386.0371,255.75,376.0371,251.75,380.0371" style="stroke: #383838; stroke-width: 1.0;"/><line style="stroke: #383838; stroke-width: 1.5;" x1="251.75" x2="251.75" y1="410.0371" y2="434.9551"/><polygon fill="#383838" points="247.75,424.9551,251.75,434.9551,255.75,424.9551,251.75,428.9551" style="stroke: #383838; stroke-width: 1.0;"/><line style="stroke: #383838; stroke-width: 1.5;" x1="263.75" x2="306.75" y1="398.0371" y2="398.0371"/><polygon fill="#383838" points="302.75,439.502,306.75,449.502,310.75,439.502,306.75,443.502" style="stroke: #383838; stroke-width: 1.5;"/><line style="stroke: #383838; stroke-width: 1.5;" x1="306.75" x2="306.75" y1="398.0371" y2="492.0488"/><line style="stroke: #383838; stroke-width: 1.5;" x1="306.75" x2="251.75" y1="492.0488" y2="492.0488"/><line style="stroke: #383838; stroke-width: 1.5;" x1="251.75" x2="251.75" y1="492.0488" y2="512.0488"/><polygon fill="#383838" points="247.75,502.0488,251.75,512.0488,255.75,502.0488,251.75,506.0488" style="stroke: #383838; stroke-width: 1.0;"/><line style="stroke: #383838; stroke-width: 1.5;" x1="251.75" x2="251.75" y1="536.0488" y2="560.9668"/><polygon fill="#383838" points="247.75,550.9668,251.75,560.9668,255.75,550.9668,251.75,554.9668" style="stroke: #383838; stroke-width: 1.0;"/><line style="stroke: #383838; stroke-width: 1.5;" x1="263.75" x2="308.75" y1="524.0488" y2="524.0488"/><polygon fill="#383838" points="304.75,565.5137,308.75,575.5137,312.75,565.5137,308.75,569.5137" style="stroke: #383838; stroke-width: 1.5;"/><line style="stroke: #383838; stroke-width: 1.5;" x1="308.75" x2="308.75" y1="524.0488" y2="618.0605"/><line style="stroke: #383838; stroke-width: 1.5;" x1="308.75" x2="251.75" y1="618.0605" y2="618.0605"/><line style="stroke: #383838; stroke-width: 1.5;" x1="251.75" x2="251.75" y1="618.0605" y2="638.0605"/><polygon fill="#383838" points="247.75,628.0605,251.75,638.0605,255.75,628.0605,251.75,632.0605" style="stroke: #383838; stroke-width: 1.0;"/><line style="stroke: #383838; stroke-width: 1.5;" x1="136" x2="136" y1="808.0732" y2="832.9912"/><polygon fill="#383838" points="132,822.9912,136,832.9912,140,822.9912,136,826.9912" style="stroke: #383838; stroke-width: 1.0;"/><line style="stroke: #383838; stroke-width: 1.5;" x1="148" x2="189.5" y1="796.0732" y2="796.0732"/><polygon fill="#383838" points="185.5,840.5381,189.5,850.5381,193.5,840.5381,189.5,844.5381" style="stroke: #383838; stroke-width: 1.5;"/><line style="stroke: #383838; stroke-width: 1.5;" x1="189.5" x2="189.5" y1="796.0732" y2="900.085"/><line style="stroke: #383838; stroke-width: 1.5;" x1="189.5" x2="148" y1="900.085" y2="900.085"/><polygon fill="#383838" points="158,896.085,148,900.085,158,904.085,154,900.085" style="stroke: #383838; stroke-width: 1.0;"/><line style="stroke: #383838; stroke-width: 1.5;" x1="136" x2="136" y1="868.085" y2="888.085"/><polygon fill="#383838" points="132,878.085,136,888.085,140,878.085,136,882.085" style="stroke: #383838; stroke-width: 1.0;"/><line style="stroke: #383838; stroke-width: 1.5;" x1="136" x2="136" y1="751.1543" y2="784.0732"/><polygon fill="#383838" points="132,774.0732,136,784.0732,140,774.0732,136,778.0732" style="stroke: #383838; stroke-width: 1.0;"/><line style="stroke: #383838; stroke-width: 1.5;" x1="136" x2="136" y1="912.085" y2="922.085"/><line style="stroke: #383838; stroke-width: 1.5;" x1="136" x2="213.5" y1="922.085" y2="922.085"/><polygon fill="#383838" points="209.5,841.6201,213.5,831.6201,217.5,841.6201,213.5,837.6201" style="stroke: #383838; stroke-width: 1.5;"/><line style="stroke: #383838; stroke-width: 1.5;" x1="213.5" x2="213.5" y1="739.1543" y2="922.085"/><line style="stroke: #383838; stroke-width: 1.5;" x1="213.5" x2="160" y1="739.1543" y2="739.1543"/><polygon fill="#383838" points="170,735.1543,160,739.1543,170,743.1543,166,739.1543" style="stroke: #383838; stroke-width: 1.0;"/><line style="stroke: #383838; stroke-width: 1.5;" x1="112" x2="70.5" y1="739.1543" y2="739.1543"/><polygon fill="#383838" points="66.5,827.6201,70.5,837.6201,74.5,827.6201,70.5,831.6201" style="stroke: #383838; stroke-width: 1.5;"/><line style="stroke: #383838; stroke-width: 1.5;" x1="70.5" x2="70.5" y1="739.1543" y2="934.085"/><line style="stroke: #383838; stroke-width: 1.5;" x1="70.5" x2="136" y1="934.085" y2="934.085"/><line style="stroke: #383838; stroke-width: 1.5;" x1="136" x2="136" y1="934.085" y2="954.085"/><polygon fill="#383838" points="132,944.085,136,954.085,140,944.085,136,948.085" style="stroke: #383838; stroke-width: 1.0;"/><line style="stroke: #383838; stroke-width: 1.5;" x1="136" x2="136" y1="707.1543" y2="727.1543"/><polygon fill="#383838" points="132,717.1543,136,727.1543,140,717.1543,136,721.1543" style="stroke: #383838; stroke-width: 1.0;"/><line style="stroke: #383838; stroke-width: 1.5;" x1="367.5" x2="367.5" y1="808.0732" y2="832.9912"/><polygon fill="#383838" points="363.5,822.9912,367.5,832.9912,371.5,822.9912,367.5,826.9912" style="stroke: #383838; stroke-width: 1.0;"/><line style="stroke: #383838; stroke-width: 1.5;" x1="379.5" x2="425" y1="796.0732" y2="796.0732"/><polygon fill="#383838" points="421,840.5381,425,850.5381,429,840.5381,425,844.5381" style="stroke: #383838; stroke-width: 1.5;"/><line style="stroke: #383838; stroke-width: 1.5;" x1="425" x2="425" y1="796.0732" y2="900.085"/><line style="stroke: #383838; stroke-width: 1.5;" x1="425" x2="379.5" y1="900.085" y2="900.085"/><polygon fill="#383838" points="389.5,896.085,379.5,900.085,389.5,904.085,385.5,900.085" style="stroke: #383838; stroke-width: 1.0;"/><line style="stroke: #383838; stroke-width: 1.5;" x1="367.5" x2="367.5" y1="868.085" y2="888.085"/><polygon fill="#383838" points="363.5,878.085,367.5,888.085,371.5,878.085,367.5,882.085" style="stroke: #383838; stroke-width: 1.0;"/><line style="stroke: #383838; stroke-width: 1.5;" x1="367.5" x2="367.5" y1="751.1543" y2="784.0732"/><polygon fill="#383838" points="363.5,774.0732,367.5,784.0732,371.5,774.0732,367.5,778.0732" style="stroke: #383838; stroke-width: 1.0;"/><line style="stroke: #383838; stroke-width: 1.5;" x1="367.5" x2="367.5" y1="912.085" y2="922.085"/><line style="stroke: #383838; stroke-width: 1.5;" x1="367.5" x2="449" y1="922.085" y2="922.085"/><polygon fill="#383838" points="445,841.6201,449,831.6201,453,841.6201,449,837.6201" style="stroke: #383838; stroke-width: 1.5;"/><line style="stroke: #383838; stroke-width: 1.5;" x1="449" x2="449" y1="739.1543" y2="922.085"/><line style="stroke: #383838; stroke-width: 1.5;" x1="449" x2="391.5" y1="739.1543" y2="739.1543"/><polygon fill="#383838" points="401.5,735.1543,391.5,739.1543,401.5,743.1543,397.5,739.1543" style="stroke: #383838; stroke-width: 1.0;"/><line style="stroke: #383838; stroke-width: 1.5;" x1="343.5" x2="298" y1="739.1543" y2="739.1543"/><polygon fill="#383838" points="294,827.6201,298,837.6201,302,827.6201,298,831.6201" style="stroke: #383838; stroke-width: 1.5;"/><line style="stroke: #383838; stroke-width: 1.5;" x1="298" x2="298" y1="739.1543" y2="934.085"/><line style="stroke: #383838; stroke-width: 1.5;" x1="298" x2="367.5" y1="934.085" y2="934.085"/><line style="stroke: #383838; stroke-width: 1.5;" x1="367.5" x2="367.5" y1="934.085" y2="954.085"/><polygon fill="#383838" points="363.5,944.085,367.5,954.085,371.5,944.085,367.5,948.085" style="stroke: #383838; stroke-width: 1.0;"/><line style="stroke: #383838; stroke-width: 1.5;" x1="367.5" x2="367.5" y1="707.1543" y2="727.1543"/><polygon fill="#383838" points="363.5,717.1543,367.5,727.1543,371.5,717.1543,367.5,721.1543" style="stroke: #383838; stroke-width: 1.0;"/><line style="stroke: #383838; stroke-width: 1.5;" x1="239.75" x2="136" y1="650.0605" y2="650.0605"/><line style="stroke: #383838; stroke-width: 1.5;" x1="136" x2="136" y1="650.0605" y2="672.0605"/><polygon fill="#383838" points="132,662.0605,136,672.0605,140,662.0605,136,666.0605" style="stroke: #383838; stroke-width: 1.0;"/><line style="stroke: #383838; stroke-width: 1.5;" x1="263.75" x2="367.5" y1="650.0605" y2="650.0605"/><line style="stroke: #383838; stroke-width: 1.5;" x1="367.5" x2="367.5" y1="650.0605" y2="672.0605"/><polygon fill="#383838" points="363.5,662.0605,367.5,672.0605,371.5,662.0605,367.5,666.0605" style="stroke: #383838; stroke-width: 1.0;"/><line style="stroke: #383838; stroke-width: 1.5;" x1="251.75" x2="251.75" y1="1121.458" y2="1146.376"/><polygon fill="#383838" points="247.75,1136.376,251.75,1146.376,255.75,1136.376,251.75,1140.376" style="stroke: #383838; stroke-width: 1.0;"/><line style="stroke: #383838; stroke-width: 1.5;" x1="263.75" x2="312.75" y1="1109.458" y2="1109.458"/><polygon fill="#383838" points="308.75,1150.9229,312.75,1160.9229,316.75,1150.9229,312.75,1154.9229" style="stroke: #383838; stroke-width: 1.5;"/><line style="stroke: #383838; stroke-width: 1.5;" x1="312.75" x2="312.75" y1="1109.458" y2="1203.4697"/><line style="stroke: #383838; stroke-width: 1.5;" x1="312.75" x2="251.75" y1="1203.4697" y2="1203.4697"/><line style="stroke: #383838; stroke-width: 1.5;" x1="251.75" x2="251.75" y1="1203.4697" y2="1223.4697"/><polygon fill="#383838" points="247.75,1213.4697,251.75,1223.4697,255.75,1213.4697,251.75,1217.4697" style="stroke: #383838; stroke-width: 1.0;"/><line style="stroke: #383838; stroke-width: 1.5;" x1="251.75" x2="251.75" y1="1077.458" y2="1097.458"/><polygon fill="#383838" points="247.75,1087.458,251.75,1097.458,255.75,1087.458,251.75,1091.458" style="stroke: #383838; stroke-width: 1.0;"/><line style="stroke: #383838; stroke-width: 1.5;" x1="251.75" x2="251.75" y1="1258.5635" y2="1278.5635"/><polygon fill="#383838" points="247.75,1268.5635,251.75,1278.5635,255.75,1268.5635,251.75,1272.5635" style="stroke: #383838; stroke-width: 1.0;"/><line style="stroke: #383838; stroke-width: 1.5;" x1="251.75" x2="251.75" y1="1474.5879" y2="1494.5879"/><polygon fill="#383838" points="247.75,1484.5879,251.75,1494.5879,255.75,1484.5879,251.75,1488.5879" style="stroke: #383838; stroke-width: 1.0;"/><line style="stroke: #383838; stroke-width: 1.5;" x1="251.75" x2="251.75" y1="1529.6816" y2="1558.2637"/><polygon fill="#383838" points="247.75,1548.2637,251.75,1558.2637,255.75,1548.2637,251.75,1552.2637" style="stroke: #383838; stroke-width: 1.0;"/><line style="stroke: #383838; stroke-width: 1.5;" x1="251.75" x2="251.75" y1="1414.5762" y2="1439.4941"/><polygon fill="#383838" points="247.75,1429.4941,251.75,1439.4941,255.75,1429.4941,251.75,1433.4941" style="stroke: #383838; stroke-width: 1.0;"/><line style="stroke: #383838; stroke-width: 1.5;" x1="263.75" x2="339.75" y1="1402.5762" y2="1402.5762"/><polygon fill="#383838" points="335.75,1502.1348,339.75,1512.1348,343.75,1502.1348,339.75,1506.1348" style="stroke: #383838; stroke-width: 1.5;"/><line style="stroke: #383838; stroke-width: 1.5;" x1="339.75" x2="339.75" y1="1402.5762" y2="1625.3574"/><line style="stroke: #383838; stroke-width: 1.5;" x1="339.75" x2="263.75" y1="1625.3574" y2="1625.3574"/><polygon fill="#383838" points="273.75,1621.3574,263.75,1625.3574,273.75,1629.3574,269.75,1625.3574" style="stroke: #383838; stroke-width: 1.0;"/><line style="stroke: #383838; stroke-width: 1.5;" x1="251.75" x2="251.75" y1="1593.3574" y2="1613.3574"/><polygon fill="#383838" points="247.75,1603.3574,251.75,1613.3574,255.75,1603.3574,251.75,1607.3574" style="stroke: #383838; stroke-width: 1.0;"/><line style="stroke: #383838; stroke-width: 1.5;" x1="251.75" x2="251.75" y1="1637.3574" y2="1657.3574"/><polygon fill="#383838" points="247.75,1647.3574,251.75,1657.3574,255.75,1647.3574,251.75,1651.3574" style="stroke: #383838; stroke-width: 1.0;"/><line style="stroke: #383838; stroke-width: 1.5;" x1="251.75" x2="251.75" y1="1357.6572" y2="1390.5762"/><polygon fill="#383838" points="247.75,1380.5762,251.75,1390.5762,255.75,1380.5762,251.75,1384.5762" style="stroke: #383838; stroke-width: 1.0;"/><line style="stroke: #383838; stroke-width: 1.5;" x1="251.75" x2="251.75" y1="1692.4512" y2="1702.4512"/><line style="stroke: #383838; stroke-width: 1.5;" x1="251.75" x2="363.75" y1="1702.4512" y2="1702.4512"/><polygon fill="#383838" points="359.75,1538.2637,363.75,1528.2637,367.75,1538.2637,363.75,1534.2637" style="stroke: #383838; stroke-width: 1.5;"/><line style="stroke: #383838; stroke-width: 1.5;" x1="363.75" x2="363.75" y1="1345.6572" y2="1702.4512"/><line style="stroke: #383838; stroke-width: 1.5;" x1="363.75" x2="275.75" y1="1345.6572" y2="1345.6572"/><polygon fill="#383838" points="285.75,1341.6572,275.75,1345.6572,285.75,1349.6572,281.75,1345.6572" style="stroke: #383838; stroke-width: 1.0;"/><line style="stroke: #383838; stroke-width: 1.5;" x1="227.75" x2="151.75" y1="1345.6572" y2="1345.6572"/><polygon fill="#383838" points="147.75,1524.2637,151.75,1534.2637,155.75,1524.2637,151.75,1528.2637" style="stroke: #383838; stroke-width: 1.5;"/><line style="stroke: #383838; stroke-width: 1.5;" x1="151.75" x2="151.75" y1="1345.6572" y2="1714.4512"/><line style="stroke: #383838; stroke-width: 1.5;" x1="151.75" x2="251.75" y1="1714.4512" y2="1714.4512"/><line style="stroke: #383838; stroke-width: 1.5;" x1="251.75" x2="251.75" y1="1714.4512" y2="1734.4512"/><polygon fill="#383838" points="247.75,1724.4512,251.75,1734.4512,255.75,1724.4512,251.75,1728.4512" style="stroke: #383838; stroke-width: 1.0;"/><line style="stroke: #383838; stroke-width: 1.5;" x1="251.75" x2="251.75" y1="1313.6572" y2="1333.6572"/><polygon fill="#383838" points="247.75,1323.6572,251.75,1333.6572,255.75,1323.6572,251.75,1327.6572" style="stroke: #383838; stroke-width: 1.0;"/><line style="stroke: #383838; stroke-width: 1.5;" x1="251.75" x2="251.75" y1="1844.7305" y2="1864.7305"/><polygon fill="#383838" points="247.75,1854.7305,251.75,1864.7305,255.75,1854.7305,251.75,1858.7305" style="stroke: #383838; stroke-width: 1.0;"/><line style="stroke: #383838; stroke-width: 1.5;" x1="251.75" x2="251.75" y1="1899.8242" y2="1919.8242"/><polygon fill="#383838" points="247.75,1909.8242,251.75,1919.8242,255.75,1909.8242,251.75,1913.8242" style="stroke: #383838; stroke-width: 1.0;"/><line style="stroke: #383838; stroke-width: 1.5;" x1="251.75" x2="251.75" y1="1954.918" y2="1974.918"/><polygon fill="#383838" points="247.75,1964.918,251.75,1974.918,255.75,1964.918,251.75,1968.918" style="stroke: #383838; stroke-width: 1.0;"/><line style="stroke: #383838; stroke-width: 1.5;" x1="251.75" x2="251.75" y1="2010.0117" y2="2030.0117"/><polygon fill="#383838" points="247.75,2020.0117,251.75,2030.0117,255.75,2020.0117,251.75,2024.0117" style="stroke: #383838; stroke-width: 1.0;"/><line style="stroke: #383838; stroke-width: 1.5;" x1="251.75" x2="251.75" y1="2065.1055" y2="2085.1055"/><polygon fill="#383838" points="247.75,2075.1055,251.75,2085.1055,255.75,2075.1055,251.75,2079.1055" style="stroke: #383838; stroke-width: 1.0;"/><line style="stroke: #383838; stroke-width: 1.5;" x1="251.75" x2="251.75" y1="2224.291" y2="2249.209"/><polygon fill="#383838" points="247.75,2239.209,251.75,2249.209,255.75,2239.209,251.75,2243.209" style="stroke: #383838; stroke-width: 1.0;"/><line style="stroke: #383838; stroke-width: 1.5;" x1="263.75" x2="301.75" y1="2212.291" y2="2212.291"/><polygon fill="#383838" points="297.75,2253.7559,301.75,2263.7559,305.75,2253.7559,301.75,2257.7559" style="stroke: #383838; stroke-width: 1.5;"/><line style="stroke: #383838; stroke-width: 1.5;" x1="301.75" x2="301.75" y1="2212.291" y2="2306.3027"/><line style="stroke: #383838; stroke-width: 1.5;" x1="301.75" x2="251.75" y1="2306.3027" y2="2306.3027"/><line style="stroke: #383838; stroke-width: 1.5;" x1="251.75" x2="251.75" y1="2306.3027" y2="2326.3027"/><polygon fill="#383838" points="247.75,2316.3027,251.75,2326.3027,255.75,2316.3027,251.75,2320.3027" style="stroke: #383838; stroke-width: 1.0;"/><line style="stroke: #383838; stroke-width: 1.5;" x1="251.75" x2="251.75" y1="2180.291" y2="2200.291"/><polygon fill="#383838" points="247.75,2190.291,251.75,2200.291,255.75,2190.291,251.75,2194.291" style="stroke: #383838; stroke-width: 1.0;"/><line style="stroke: #383838; stroke-width: 1.5;" x1="251.75" x2="251.75" y1="2473.4092" y2="2493.4092"/><polygon fill="#383838" points="247.75,2483.4092,251.75,2493.4092,255.75,2483.4092,251.75,2487.4092" style="stroke: #383838; stroke-width: 1.0;"/><line style="stroke: #383838; stroke-width: 1.5;" x1="251.75" x2="251.75" y1="2587.5029" y2="2612.4209"/><polygon fill="#383838" points="247.75,2602.4209,251.75,2612.4209,255.75,2602.4209,251.75,2606.4209" style="stroke: #383838; stroke-width: 1.0;"/><line style="stroke: #383838; stroke-width: 1.5;" x1="263.75" x2="334.75" y1="2575.5029" y2="2575.5029"/><polygon fill="#383838" points="330.75,2619.9678,334.75,2629.9678,338.75,2619.9678,334.75,2623.9678" style="stroke: #383838; stroke-width: 1.5;"/><line style="stroke: #383838; stroke-width: 1.5;" x1="334.75" x2="334.75" y1="2575.5029" y2="2679.5146"/><line style="stroke: #383838; stroke-width: 1.5;" x1="334.75" x2="263.75" y1="2679.5146" y2="2679.5146"/><polygon fill="#383838" points="273.75,2675.5146,263.75,2679.5146,273.75,2683.5146,269.75,2679.5146" style="stroke: #383838; stroke-width: 1.0;"/><line style="stroke: #383838; stroke-width: 1.5;" x1="251.75" x2="251.75" y1="2647.5146" y2="2667.5146"/><polygon fill="#383838" points="247.75,2657.5146,251.75,2667.5146,255.75,2657.5146,251.75,2661.5146" style="stroke: #383838; stroke-width: 1.0;"/><line style="stroke: #383838; stroke-width: 1.5;" x1="251.75" x2="251.75" y1="2528.5029" y2="2563.5029"/><polygon fill="#383838" points="247.75,2553.5029,251.75,2563.5029,255.75,2553.5029,251.75,2557.5029" style="stroke: #383838; stroke-width: 1.0;"/><line style="stroke: #383838; stroke-width: 1.5;" x1="251.75" x2="251.75" y1="2405.3965" y2="2438.3154"/><polygon fill="#383838" points="247.75,2428.3154,251.75,2438.3154,255.75,2428.3154,251.75,2432.3154" style="stroke: #383838; stroke-width: 1.0;"/><line style="stroke: #383838; stroke-width: 1.5;" x1="251.75" x2="251.75" y1="2691.5146" y2="2701.5146"/><line style="stroke: #383838; stroke-width: 1.5;" x1="251.75" x2="392.75" y1="2701.5146" y2="2701.5146"/><polygon fill="#383838" points="388.75,2550.9561,392.75,2540.9561,396.75,2550.9561,392.75,2546.9561" style="stroke: #383838; stroke-width: 1.5;"/><line style="stroke: #383838; stroke-width: 1.5;" x1="392.75" x2="392.75" y1="2393.3965" y2="2701.5146"/><line style="stroke: #383838; stroke-width: 1.5;" x1="392.75" x2="275.75" y1="2393.3965" y2="2393.3965"/><polygon fill="#383838" points="285.75,2389.3965,275.75,2393.3965,285.75,2397.3965,281.75,2393.3965" style="stroke: #383838; stroke-width: 1.0;"/><line style="stroke: #383838; stroke-width: 1.5;" x1="227.75" x2="110.75" y1="2393.3965" y2="2393.3965"/><polygon fill="#383838" points="106.75,2536.9561,110.75,2546.9561,114.75,2536.9561,110.75,2540.9561" style="stroke: #383838; stroke-width: 1.5;"/><line style="stroke: #383838; stroke-width: 1.5;" x1="110.75" x2="110.75" y1="2393.3965" y2="2713.5146"/><line style="stroke: #383838; stroke-width: 1.5;" x1="110.75" x2="251.75" y1="2713.5146" y2="2713.5146"/><line style="stroke: #383838; stroke-width: 1.5;" x1="251.75" x2="251.75" y1="2713.5146" y2="2733.5146"/><polygon fill="#383838" points="247.75,2723.5146,251.75,2733.5146,255.75,2723.5146,251.75,2727.5146" style="stroke: #383838; stroke-width: 1.0;"/><line style="stroke: #383838; stroke-width: 1.5;" x1="251.75" x2="251.75" y1="2361.3965" y2="2381.3965"/><polygon fill="#383838" points="247.75,2371.3965,251.75,2381.3965,255.75,2371.3965,251.75,2375.3965" style="stroke: #383838; stroke-width: 1.0;"/><line style="stroke: #383838; stroke-width: 1.5;" x1="251.75" x2="251.75" y1="2768.6084" y2="2788.6084"/><polygon fill="#383838" points="247.75,2778.6084,251.75,2788.6084,255.75,2778.6084,251.75,2782.6084" style="stroke: #383838; stroke-width: 1.0;"/><!--
@startuml Sequence
skinparam monochrome true

title Sequence

partition evaluate {
	:_time: number
	_runningBackwards: boolean = false]

	if () then ([keys.length = 0])
		:Throw Error]
	detach
	endif
	if () then ([keys.length = 1])
		:keys[0].value]
	detach
	endif

	if () then ([!_runningBackwards && [keys[0].time < _time]])
		:keys[0].value]
		detach
	endif

	if () then ([_runningBackwards && [keys[-1].time > _time]])
		:keys[-1].value]
		detach
	endif

	if() then ([!_runningBackwards])
		:leftKey = keys[0] ]
		while () is ([k of keys])
			if() then ([k.time > leftKey.time && < _time])
				:leftKey = key;
			endif
		endwhile
		:leftKey.functionOut.evaluate(_time) ]
	else
		:rightKey = keys[-1] ]
		while () is ([k of keys])
			if() then ([k.time < rightKey.time && > _time])
				:rightKey = key;
			endif
		endwhile
		:rightKey.functionIn.evaluate(_time) ]
	endif
	detach
}

partition addKey {
	:_key: Key]
	if() then ([keys.length = 0])
		:keys.push(key);
		detach
	endif
	:keys.sort(Key.sort);
	:i: number = 0]
	while() is ([i < keys.length])
		if() then ([keys[i].time > _key.time])
			:insert k into keys at i;
			:generateNewFunctions();
			:break;
		endif
		:i++;
	endwhile
	stop
}

partition removeKey {
	:_key: Key]
	:ind: keys.getIndexOf(_key)]
	:keys.splice(ind,1);
	:keys.sort(Key.sort);
	:generateNewFunctions();
	stop
}

partition generateNewFunctions {
	start
	if() then ([keys.length = 0])
		:throw Error;
		detach
	endif
	:i: number = 0]
	while() is ([i < keys.length])
		:f: Function = new Function (keys[i-1], keys[i]);
		:keys[i].functionIn = f;
		if() then ([i > 0])
			:keys[i-1].functionOut = f;
		endif
	endwhile
	:f: Function = new Function (keys[keys.length - 1], null);
	:keys[keys.length - 1].functionOut = f;
}

@enduml

PlantUML version 1.2019.05(Sat Apr 20 18:45:36 CEST 2019)
(GPL source distribution)
Java Runtime: Java(TM) SE Runtime Environment
JVM: Java HotSpot(TM) 64-Bit Server VM
Java Version: 1.8.0_181-b13
Operating System: Windows 10
OS Version: 10.0
Default Encoding: Cp1252
Language: de
Country: DE
--></g></svg>