<?xml version="1.0" encoding="UTF-8" standalone="no"?><svg xmlns="http://www.w3.org/2000/svg" xmlns:xlink="http://www.w3.org/1999/xlink" contentScriptType="application/ecmascript" contentStyleType="text/css" height="1228px" preserveAspectRatio="none" style="width:343px;height:1228px;" version="1.1" viewBox="0 0 343 1228" width="343px" zoomAndPan="magnify"><defs><filter height="300%" id="f1wxnfr3tp34v" width="300%" x="-1" y="-1"><feGaussianBlur result="blurOut" stdDeviation="2.0"/><feColorMatrix in="blurOut" result="blurOut2" type="matrix" values="0 0 0 0 0 0 0 0 0 0 0 0 0 0 0 0 0 0 .4 0"/><feOffset dx="4.0" dy="4.0" in="blurOut2" result="blurOut3"/><feBlend in="SourceGraphic" in2="blurOut3" mode="normal"/></filter></defs><g><text fill="#000000" font-family="sans-serif" font-size="18" lengthAdjust="spacingAndGlyphs" textLength="80" x="130.5" y="28.6855">UIHandler</text><rect fill="#FFFFFF" filter="url(#f1wxnfr3tp34v)" height="315.1719" style="stroke: #000000; stroke-width: 2.0;" width="250" x="46" y="33.2168"/><path d="M108,34.2168 L108,43.8262 L98,53.8262 L46,53.8262 " fill="none" style="stroke: #000000; stroke-width: 2.0;"/><text fill="#000000" font-family="sans-serif" font-size="14" lengthAdjust="spacingAndGlyphs" textLength="52" x="49" y="48.75">createUI</text><rect fill="#F8F8F8" filter="url(#f1wxnfr3tp34v)" height="50.1875" rx="12.5" ry="12.5" style="stroke: #383838; stroke-width: 1.5;" width="230" x="56" y="63.8262"/><text fill="#000000" font-family="sans-serif" font-size="12" lengthAdjust="spacingAndGlyphs" textLength="210" x="66" y="86.2832">use editor.selectedAnimation to create</text><text fill="#000000" font-family="sans-serif" font-size="12" lengthAdjust="spacingAndGlyphs" textLength="149" x="66" y="101.377">list of animated sequences</text><rect fill="#F8F8F8" filter="url(#f1wxnfr3tp34v)" height="35.0938" rx="12.5" ry="12.5" style="stroke: #383838; stroke-width: 1.5;" width="222" x="60" y="134.0137"/><text fill="#000000" font-family="sans-serif" font-size="12" lengthAdjust="spacingAndGlyphs" textLength="202" x="70" y="156.4707">add Eventlisteners to various buttons</text><rect fill="#F8F8F8" filter="url(#f1wxnfr3tp34v)" height="50.1875" rx="12.5" ry="12.5" style="stroke: #383838; stroke-width: 1.5;" width="230" x="56" y="189.1074"/><text fill="#000000" font-family="sans-serif" font-size="12" lengthAdjust="spacingAndGlyphs" textLength="210" x="66" y="211.5645">set values saved in Animation such as</text><text fill="#000000" font-family="sans-serif" font-size="12" lengthAdjust="spacingAndGlyphs" textLength="151" x="66" y="226.6582">SPS, FPS, name, playmode</text><rect fill="#F8F8F8" filter="url(#f1wxnfr3tp34v)" height="35.0938" rx="12.5" ry="12.5" style="stroke: #383838; stroke-width: 1.5;" width="78" x="132" y="259.2949"/><text fill="#000000" font-family="sans-serif" font-size="12" lengthAdjust="spacingAndGlyphs" textLength="58" x="142" y="281.752">updateUI()</text><ellipse cx="171" cy="325.3887" fill="#FFFFFF" filter="url(#f1wxnfr3tp34v)" rx="11" ry="11" style="stroke: #000000; stroke-width: 1.0;"/><ellipse cx="171" cy="325.3887" fill="#000000" rx="6" ry="6" style="stroke: #7F7F7F; stroke-width: 1.0;"/><rect fill="#FFFFFF" filter="url(#f1wxnfr3tp34v)" height="229.8906" style="stroke: #000000; stroke-width: 2.0;" width="293" x="24.5" y="358.9648"/><path d="M90.5,359.9648 L90.5,369.5742 L80.5,379.5742 L24.5,379.5742 " fill="none" style="stroke: #000000; stroke-width: 2.0;"/><text fill="#000000" font-family="sans-serif" font-size="14" lengthAdjust="spacingAndGlyphs" textLength="56" x="27.5" y="374.498">updateUI</text><rect fill="#F8F8F8" filter="url(#f1wxnfr3tp34v)" height="35.0938" rx="12.5" ry="12.5" style="stroke: #383838; stroke-width: 1.5;" width="273" x="34.5" y="389.5742"/><text fill="#000000" font-family="sans-serif" font-size="12" lengthAdjust="spacingAndGlyphs" textLength="253" x="44.5" y="412.0313">draw timeline according to selectedView.scale</text><rect fill="#F8F8F8" filter="url(#f1wxnfr3tp34v)" height="35.0938" rx="12.5" ry="12.5" style="stroke: #383838; stroke-width: 1.5;" width="259" x="41.5" y="444.668"/><text fill="#000000" font-family="sans-serif" font-size="12" lengthAdjust="spacingAndGlyphs" textLength="239" x="51.5" y="467.125">add Labels and Events underneath timeline</text><rect fill="#F8F8F8" filter="url(#f1wxnfr3tp34v)" height="35.0938" rx="12.5" ry="12.5" style="stroke: #383838; stroke-width: 1.5;" width="168" x="87" y="499.7617"/><text fill="#000000" font-family="sans-serif" font-size="12" lengthAdjust="spacingAndGlyphs" textLength="148" x="97" y="522.2188">selectedView.updateView()</text><ellipse cx="171" cy="565.8555" fill="#FFFFFF" filter="url(#f1wxnfr3tp34v)" rx="11" ry="11" style="stroke: #000000; stroke-width: 1.0;"/><ellipse cx="171" cy="565.8555" fill="#000000" rx="6" ry="6" style="stroke: #7F7F7F; stroke-width: 1.0;"/><rect fill="#FFFFFF" filter="url(#f1wxnfr3tp34v)" height="432.9961" style="stroke: #000000; stroke-width: 2.0;" width="322" x="10" y="599.4316"/><path d="M87,600.4316 L87,610.041 L77,620.041 L10,620.041 " fill="none" style="stroke: #000000; stroke-width: 2.0;"/><text fill="#000000" font-family="sans-serif" font-size="14" lengthAdjust="spacingAndGlyphs" textLength="67" x="13" y="614.9648">switchView</text><rect fill="#F8F8F8" filter="url(#f1wxnfr3tp34v)" height="35.0938" style="stroke: #383838; stroke-width: 1.5;" width="302" x="20" y="630.041"/><text fill="#000000" font-family="sans-serif" font-size="12" lengthAdjust="spacingAndGlyphs" textLength="282" x="30" y="652.498">index: number = views.indexOf(typeof selectedView)</text><rect fill="#F8F8F8" filter="url(#f1wxnfr3tp34v)" height="35.0938" rx="12.5" ry="12.5" style="stroke: #383838; stroke-width: 1.5;" width="63" x="139.5" y="685.1348"/><text fill="#000000" font-family="sans-serif" font-size="12" lengthAdjust="spacingAndGlyphs" textLength="43" x="149.5" y="707.5918">index++</text><rect fill="#F8F8F8" filter="url(#f1wxnfr3tp34v)" height="35.0938" rx="12.5" ry="12.5" style="stroke: #383838; stroke-width: 1.5;" width="69" x="136.5" y="789.1465"/><text fill="#000000" font-family="sans-serif" font-size="12" lengthAdjust="spacingAndGlyphs" textLength="49" x="146.5" y="811.6035">index = 0</text><polygon fill="#F8F8F8" filter="url(#f1wxnfr3tp34v)" points="171,740.2285,171,740.2285,183,752.2285,171,764.2285,171,764.2285,159,752.2285,171,740.2285" style="stroke: #383838; stroke-width: 1.5;"/><text fill="#000000" font-family="sans-serif" font-size="11" lengthAdjust="spacingAndGlyphs" textLength="112" x="175" y="775.6475">[index &lt;= views.length]</text><polygon fill="#F8F8F8" filter="url(#f1wxnfr3tp34v)" points="171,844.2402,183,856.2402,171,868.2402,159,856.2402,171,844.2402" style="stroke: #383838; stroke-width: 1.5;"/><rect fill="#F8F8F8" filter="url(#f1wxnfr3tp34v)" height="35.0938" rx="12.5" ry="12.5" style="stroke: #383838; stroke-width: 1.5;" width="206" x="68" y="888.2402"/><text fill="#000000" font-family="sans-serif" font-size="12" lengthAdjust="spacingAndGlyphs" textLength="186" x="78" y="910.6973">selectedView = new views[index]()</text><rect fill="#F8F8F8" filter="url(#f1wxnfr3tp34v)" height="35.0938" rx="12.5" ry="12.5" style="stroke: #383838; stroke-width: 1.5;" width="168" x="87" y="943.334"/><text fill="#000000" font-family="sans-serif" font-size="12" lengthAdjust="spacingAndGlyphs" textLength="148" x="97" y="965.791">selectedView.updateView()</text><ellipse cx="171" cy="1009.4277" fill="#FFFFFF" filter="url(#f1wxnfr3tp34v)" rx="11" ry="11" style="stroke: #000000; stroke-width: 1.0;"/><ellipse cx="171" cy="1009.4277" fill="#000000" rx="6" ry="6" style="stroke: #7F7F7F; stroke-width: 1.0;"/><rect fill="#FFFFFF" filter="url(#f1wxnfr3tp34v)" height="174.7969" style="stroke: #000000; stroke-width: 2.0;" width="170" x="86" y="1043.0039"/><path d="M173,1044.0039 L173,1053.6133 L163,1063.6133 L86,1063.6133 " fill="none" style="stroke: #000000; stroke-width: 2.0;"/><text fill="#000000" font-family="sans-serif" font-size="14" lengthAdjust="spacingAndGlyphs" textLength="77" x="89" y="1058.5371">registerView</text><rect fill="#F8F8F8" filter="url(#f1wxnfr3tp34v)" height="35.0938" style="stroke: #383838; stroke-width: 1.5;" width="150" x="96" y="1073.6133"/><text fill="#000000" font-family="sans-serif" font-size="12" lengthAdjust="spacingAndGlyphs" textLength="130" x="106" y="1096.0703">_view: typeof EditorView</text><rect fill="#F8F8F8" filter="url(#f1wxnfr3tp34v)" height="35.0938" rx="12.5" ry="12.5" style="stroke: #383838; stroke-width: 1.5;" width="121" x="110.5" y="1128.707"/><text fill="#000000" font-family="sans-serif" font-size="12" lengthAdjust="spacingAndGlyphs" textLength="101" x="120.5" y="1151.1641">views.push(_view)</text><ellipse cx="171" cy="1194.8008" fill="#FFFFFF" filter="url(#f1wxnfr3tp34v)" rx="11" ry="11" style="stroke: #000000; stroke-width: 1.0;"/><ellipse cx="171" cy="1194.8008" fill="#000000" rx="6" ry="6" style="stroke: #7F7F7F; stroke-width: 1.0;"/><line style="stroke: #383838; stroke-width: 1.5;" x1="171" x2="171" y1="114.0137" y2="134.0137"/><polygon fill="#383838" points="167,124.0137,171,134.0137,175,124.0137,171,128.0137" style="stroke: #383838; stroke-width: 1.0;"/><line style="stroke: #383838; stroke-width: 1.5;" x1="171" x2="171" y1="169.1074" y2="189.1074"/><polygon fill="#383838" points="167,179.1074,171,189.1074,175,179.1074,171,183.1074" style="stroke: #383838; stroke-width: 1.0;"/><line style="stroke: #383838; stroke-width: 1.5;" x1="171" x2="171" y1="239.2949" y2="259.2949"/><polygon fill="#383838" points="167,249.2949,171,259.2949,175,249.2949,171,253.2949" style="stroke: #383838; stroke-width: 1.0;"/><line style="stroke: #383838; stroke-width: 1.5;" x1="171" x2="171" y1="294.3887" y2="314.3887"/><polygon fill="#383838" points="167,304.3887,171,314.3887,175,304.3887,171,308.3887" style="stroke: #383838; stroke-width: 1.0;"/><line style="stroke: #383838; stroke-width: 1.5;" x1="171" x2="171" y1="424.668" y2="444.668"/><polygon fill="#383838" points="167,434.668,171,444.668,175,434.668,171,438.668" style="stroke: #383838; stroke-width: 1.0;"/><line style="stroke: #383838; stroke-width: 1.5;" x1="171" x2="171" y1="479.7617" y2="499.7617"/><polygon fill="#383838" points="167,489.7617,171,499.7617,175,489.7617,171,493.7617" style="stroke: #383838; stroke-width: 1.0;"/><line style="stroke: #383838; stroke-width: 1.5;" x1="171" x2="171" y1="534.8555" y2="554.8555"/><polygon fill="#383838" points="167,544.8555,171,554.8555,175,544.8555,171,548.8555" style="stroke: #383838; stroke-width: 1.0;"/><line style="stroke: #383838; stroke-width: 1.5;" x1="171" x2="171" y1="665.1348" y2="685.1348"/><polygon fill="#383838" points="167,675.1348,171,685.1348,175,675.1348,171,679.1348" style="stroke: #383838; stroke-width: 1.0;"/><line style="stroke: #383838; stroke-width: 1.5;" x1="171" x2="171" y1="764.2285" y2="789.1465"/><polygon fill="#383838" points="167,779.1465,171,789.1465,175,779.1465,171,783.1465" style="stroke: #383838; stroke-width: 1.0;"/><line style="stroke: #383838; stroke-width: 1.5;" x1="183" x2="215.5" y1="752.2285" y2="752.2285"/><polygon fill="#383838" points="211.5,796.6934,215.5,806.6934,219.5,796.6934,215.5,800.6934" style="stroke: #383838; stroke-width: 1.5;"/><line style="stroke: #383838; stroke-width: 1.5;" x1="215.5" x2="215.5" y1="752.2285" y2="856.2402"/><line style="stroke: #383838; stroke-width: 1.5;" x1="215.5" x2="183" y1="856.2402" y2="856.2402"/><polygon fill="#383838" points="193,852.2402,183,856.2402,193,860.2402,189,856.2402" style="stroke: #383838; stroke-width: 1.0;"/><line style="stroke: #383838; stroke-width: 1.5;" x1="171" x2="171" y1="824.2402" y2="844.2402"/><polygon fill="#383838" points="167,834.2402,171,844.2402,175,834.2402,171,838.2402" style="stroke: #383838; stroke-width: 1.0;"/><line style="stroke: #383838; stroke-width: 1.5;" x1="171" x2="171" y1="720.2285" y2="740.2285"/><polygon fill="#383838" points="167,730.2285,171,740.2285,175,730.2285,171,734.2285" style="stroke: #383838; stroke-width: 1.0;"/><line style="stroke: #383838; stroke-width: 1.5;" x1="171" x2="171" y1="868.2402" y2="888.2402"/><polygon fill="#383838" points="167,878.2402,171,888.2402,175,878.2402,171,882.2402" style="stroke: #383838; stroke-width: 1.0;"/><line style="stroke: #383838; stroke-width: 1.5;" x1="171" x2="171" y1="923.334" y2="943.334"/><polygon fill="#383838" points="167,933.334,171,943.334,175,933.334,171,937.334" style="stroke: #383838; stroke-width: 1.0;"/><line style="stroke: #383838; stroke-width: 1.5;" x1="171" x2="171" y1="978.4277" y2="998.4277"/><polygon fill="#383838" points="167,988.4277,171,998.4277,175,988.4277,171,992.4277" style="stroke: #383838; stroke-width: 1.0;"/><line style="stroke: #383838; stroke-width: 1.5;" x1="171" x2="171" y1="1108.707" y2="1128.707"/><polygon fill="#383838" points="167,1118.707,171,1128.707,175,1118.707,171,1122.707" style="stroke: #383838; stroke-width: 1.0;"/><line style="stroke: #383838; stroke-width: 1.5;" x1="171" x2="171" y1="1163.8008" y2="1183.8008"/><polygon fill="#383838" points="167,1173.8008,171,1183.8008,175,1173.8008,171,1177.8008" style="stroke: #383838; stroke-width: 1.0;"/><!--
@startuml UIHandler
skinparam monochrome true

title UIHandler

partition createUI {
	:use editor.selectedAnimation to create
	list of animated sequences;
	:add Eventlisteners to various buttons;
	:set values saved in Animation such as
	SPS, FPS, name, playmode;
	:updateUI();
	stop
}

partition updateUI {
	:draw timeline according to selectedView.scale;
	:add Labels and Events underneath timeline;
	:selectedView.updateView();
	stop
}

partition switchView {
	:index: number = views.indexOf(typeof selectedView)]
	:index++;
	if() then ([index <= views.length])
		:index = 0;
	endif
	:selectedView = new views[index]();
	:selectedView.updateView();
	stop
}

partition registerView {
	:_view: typeof EditorView]
	:views.push(_view);
	stop
}

@enduml

PlantUML version 1.2019.05(Sat Apr 20 18:45:36 CEST 2019)
(GPL source distribution)
Java Runtime: Java(TM) SE Runtime Environment
JVM: Java HotSpot(TM) 64-Bit Server VM
Java Version: 1.8.0_181-b13
Operating System: Windows 10
OS Version: 10.0
Default Encoding: Cp1252
Language: de
Country: DE
--></g></svg>