<svg xmlns="http://www.w3.org/2000/svg" width="183" height="183" viewBox="0 0 183 183" class="undefined">
<style>
  .IconMainColor{
    fill:#010101;
  }
</style>
  <path d="M164.6 87.2c0 19.8-3.1 36.8-3.4 56.6 -0.2 11.3-10.2 20.3-23 20.4 -18.1 0.2-36.2-1.6-54.3-0.4 -6.8 0.4-11.3-3.7-15.6-7.2 -15-12.2-29.8-24.7-44.4-37.3 -5-4.2-8.4-9.6-2.6-14.9 5.5-5.1 10.9-2.4 15.8 1.8 4.6 3.9 9.5 7.7 14.3 11.4 2.8 2.1 5.3 5.2 9.8 3 4-1.9 6.2-4.6 5.8-8.9 -1.3-14.3-2.4-28.7-3.6-43 -0.6-7.4-1.3-14.7-1.7-22.1 -0.3-6.2 1.4-12.5 9.4-12.5 7.6 0 8.3 6.1 8.5 12 0.4 11.7 1.5 23.4 2.6 35.1 0.2 2.7-0.9 7.2 4.2 6.7 4.4-0.4 3.4-4.7 3.4-7.5 0.2-14.4 0.2-28.9 0.2-43.3 0-2.7-0.2-5.4 0.2-8.1 0.9-5.1 1.9-10.4 9.8-10.1 7.2 0.3 8.5 5.5 8.5 10.1 0.2 12.1-0.5 24.1-0.8 36.2 -0.1 5-0.1 10.1 0 15.1 0 3.2 0.6 6.5 5.1 6.3 3.8-0.2 4.1-3.2 4.3-6.1 0.6-11.7 1.4-23.4 2-35.2 0.2-3.4-0.2-6.8 0.3-10.1 0.7-4.7 1.6-10 8.8-9.9 7.5 0.1 8.9 5 8.8 10.6 -0.2 13.8-0.3 27.5-0.4 41.3 0 1.7 0 3.4 0.1 5 0.2 2.7 0.8 6.2 4.1 6.4 4.1 0.2 5.2-3.4 5.3-6.4 0.4-8.4 0.4-16.8 0.7-25.2 0.2-5.9 2.4-11.5 10.1-10.9 7.4 0.6 8.6 6 8.2 12.1C164.4 67 164.6 78.4 164.6 87.2 163.5 87.2 165.8 87.2 164.6 87.2z" class="IconMainColor"/>
</svg>
