<?xml version="1.0" encoding="UTF-8" standalone="no"?><svg xmlns="http://www.w3.org/2000/svg" xmlns:xlink="http://www.w3.org/1999/xlink" contentScriptType="application/ecmascript" contentStyleType="text/css" height="539px" preserveAspectRatio="none" style="width:1210px;height:539px;" version="1.1" viewBox="0 0 1210 539" width="1210px" zoomAndPan="magnify"><defs><filter height="300%" id="f121hv2okjp43j" width="300%" x="-1" y="-1"><feGaussianBlur result="blurOut" stdDeviation="2.0"/><feColorMatrix in="blurOut" result="blurOut2" type="matrix" values="0 0 0 0 0 0 0 0 0 0 0 0 0 0 0 0 0 0 .4 0"/><feOffset dx="4.0" dy="4.0" in="blurOut2" result="blurOut3"/><feBlend in="SourceGraphic" in2="blurOut3" mode="normal"/></filter></defs><g><rect fill="#FEFECE" filter="url(#f121hv2okjp43j)" height="50" rx="12.5" ry="12.5" style="stroke: #A80036; stroke-width: 1.5;" width="200" x="170" y="127.667"/><text fill="#000000" font-family="sans-serif" font-size="12" lengthAdjust="spacingAndGlyphs" textLength="152" x="180" y="148.8057">getMutatorForAnimation</text><rect fill="#FEFECE" filter="url(#f121hv2okjp43j)" height="33.9688" rx="12.5" ry="12.5" style="stroke: #A80036; stroke-width: 1.5;" width="313" x="99.5" y="181.6357"/><text fill="#000000" font-family="sans-serif" font-size="12" lengthAdjust="spacingAndGlyphs" textLength="293" x="109.5" y="202.7744">getMutator collects all primitives and mutables</text><rect fill="#FEFECE" filter="url(#f121hv2okjp43j)" height="33.9688" rx="12.5" ry="12.5" style="stroke: #A80036; stroke-width: 1.5;" width="472" x="20" y="343.542"/><text fill="#000000" font-family="sans-serif" font-size="12" lengthAdjust="spacingAndGlyphs" textLength="452" x="30" y="364.6807">replace references of mutables with references to copies -&gt; getMutator</text><rect fill="#FEFECE" filter="url(#f121hv2okjp43j)" height="33.9688" rx="12.5" ry="12.5" style="stroke: #A80036; stroke-width: 1.5;" width="70" x="221" y="451.4795"/><text fill="#000000" font-family="sans-serif" font-size="12" lengthAdjust="spacingAndGlyphs" textLength="50" x="231" y="472.6182">mutator</text><rect fill="#FEFECE" filter="url(#f121hv2okjp43j)" height="33.9688" rx="12.5" ry="12.5" style="stroke: #A80036; stroke-width: 1.5;" width="219" x="502" y="289.5732"/><text fill="#000000" font-family="sans-serif" font-size="12" lengthAdjust="spacingAndGlyphs" textLength="199" x="512" y="310.7119">reduceMutator delete singleton</text><rect fill="#FEFECE" filter="url(#f121hv2okjp43j)" height="33.9688" rx="12.5" ry="12.5" style="stroke: #A80036; stroke-width: 1.5;" width="147" x="735" y="397.5107"/><text fill="#000000" font-family="sans-serif" font-size="12" lengthAdjust="spacingAndGlyphs" textLength="127" x="745" y="418.6494">getMutator of Matrix</text><rect fill="#FEFECE" filter="url(#f121hv2okjp43j)" height="33.9688" rx="12.5" ry="12.5" style="stroke: #A80036; stroke-width: 1.5;" width="140" x="940.5" y="73.6982"/><text fill="#000000" font-family="sans-serif" font-size="12" lengthAdjust="spacingAndGlyphs" textLength="120" x="950.5" y="94.8369">getMutatorForAnim</text><rect fill="#FEFECE" filter="url(#f121hv2okjp43j)" height="33.9688" rx="12.5" ry="12.5" style="stroke: #A80036; stroke-width: 1.5;" width="231" x="895" y="235.6045"/><text fill="#000000" font-family="sans-serif" font-size="12" lengthAdjust="spacingAndGlyphs" textLength="211" x="905" y="256.7432">reduceMutator delete worldMatrix</text><ellipse cx="1162.5" cy="43.6982" fill="#000000" filter="url(#f121hv2okjp43j)" rx="10" ry="10" style="stroke: none; stroke-width: 1.0;"/><ellipse cx="1162.5" cy="516.4482" fill="#FFFFFF" filter="url(#f121hv2okjp43j)" rx="11" ry="11" style="stroke: #000000; stroke-width: 1.0;"/><ellipse cx="1162.5" cy="516.4482" fill="#000000" rx="6" ry="6" style="stroke: #7F7F7F; stroke-width: 1.0;"/><line style="stroke: #A80036; stroke-width: 1.5;" x1="256" x2="256" y1="161.6357" y2="181.6357"/><polygon fill="#A80036" points="252,171.6357,256,181.6357,260,171.6357,256,175.6357" style="stroke: #A80036; stroke-width: 1.0;"/><line style="stroke: #A80036; stroke-width: 1.5;" x1="1162.5" x2="1162.5" y1="53.6982" y2="58.6982"/><line style="stroke: #A80036; stroke-width: 1.5;" x1="1162.5" x2="1010.5" y1="58.6982" y2="58.6982"/><line style="stroke: #A80036; stroke-width: 1.5;" x1="1010.5" x2="1010.5" y1="58.6982" y2="73.6982"/><polygon fill="#A80036" points="1006.5,63.6982,1010.5,73.6982,1014.5,63.6982,1010.5,67.6982" style="stroke: #A80036; stroke-width: 1.0;"/><line style="stroke: #A80036; stroke-width: 1.5;" x1="1010.5" x2="1010.5" y1="107.667" y2="112.667"/><line style="stroke: #A80036; stroke-width: 1.5;" x1="1010.5" x2="256" y1="112.667" y2="112.667"/><line style="stroke: #A80036; stroke-width: 1.5;" x1="256" x2="256" y1="112.667" y2="127.667"/><polygon fill="#A80036" points="252,117.667,256,127.667,260,117.667,256,121.667" style="stroke: #A80036; stroke-width: 1.0;"/><line style="stroke: #A80036; stroke-width: 1.5;" x1="256" x2="256" y1="215.6045" y2="220.6045"/><line style="stroke: #A80036; stroke-width: 1.5;" x1="256" x2="1010.5" y1="220.6045" y2="220.6045"/><line style="stroke: #A80036; stroke-width: 1.5;" x1="1010.5" x2="1010.5" y1="220.6045" y2="235.6045"/><polygon fill="#A80036" points="1006.5,225.6045,1010.5,235.6045,1014.5,225.6045,1010.5,229.6045" style="stroke: #A80036; stroke-width: 1.0;"/><line style="stroke: #A80036; stroke-width: 1.5;" x1="1010.5" x2="1010.5" y1="269.5732" y2="274.5732"/><line style="stroke: #A80036; stroke-width: 1.5;" x1="1010.5" x2="611.5" y1="274.5732" y2="274.5732"/><line style="stroke: #A80036; stroke-width: 1.5;" x1="611.5" x2="611.5" y1="274.5732" y2="289.5732"/><polygon fill="#A80036" points="607.5,279.5732,611.5,289.5732,615.5,279.5732,611.5,283.5732" style="stroke: #A80036; stroke-width: 1.0;"/><line style="stroke: #A80036; stroke-width: 1.5;" x1="611.5" x2="611.5" y1="323.542" y2="328.542"/><line style="stroke: #A80036; stroke-width: 1.5;" x1="611.5" x2="256" y1="328.542" y2="328.542"/><line style="stroke: #A80036; stroke-width: 1.5;" x1="256" x2="256" y1="328.542" y2="343.542"/><polygon fill="#A80036" points="252,333.542,256,343.542,260,333.542,256,337.542" style="stroke: #A80036; stroke-width: 1.0;"/><line style="stroke: #A80036; stroke-width: 1.5;" x1="256" x2="256" y1="377.5107" y2="382.5107"/><line style="stroke: #A80036; stroke-width: 1.5;" x1="256" x2="808.5" y1="382.5107" y2="382.5107"/><line style="stroke: #A80036; stroke-width: 1.5;" x1="808.5" x2="808.5" y1="382.5107" y2="397.5107"/><polygon fill="#A80036" points="804.5,387.5107,808.5,397.5107,812.5,387.5107,808.5,391.5107" style="stroke: #A80036; stroke-width: 1.0;"/><line style="stroke: #A80036; stroke-width: 1.5;" x1="808.5" x2="808.5" y1="431.4795" y2="436.4795"/><line style="stroke: #A80036; stroke-width: 1.5;" x1="808.5" x2="256" y1="436.4795" y2="436.4795"/><line style="stroke: #A80036; stroke-width: 1.5;" x1="256" x2="256" y1="436.4795" y2="451.4795"/><polygon fill="#A80036" points="252,441.4795,256,451.4795,260,441.4795,256,445.4795" style="stroke: #A80036; stroke-width: 1.0;"/><line style="stroke: #A80036; stroke-width: 1.5;" x1="256" x2="256" y1="485.4482" y2="490.4482"/><line style="stroke: #A80036; stroke-width: 1.5;" x1="256" x2="1162.5" y1="490.4482" y2="490.4482"/><line style="stroke: #A80036; stroke-width: 1.5;" x1="1162.5" x2="1162.5" y1="490.4482" y2="505.4482"/><polygon fill="#A80036" points="1158.5,495.4482,1162.5,505.4482,1166.5,495.4482,1162.5,499.4482" style="stroke: #A80036; stroke-width: 1.0;"/><text fill="#000000" font-family="sans-serif" font-size="18" lengthAdjust="spacingAndGlyphs" textLength="71" x="220" y="29.4531">Mutable</text><text fill="#000000" font-family="sans-serif" font-size="18" lengthAdjust="spacingAndGlyphs" textLength="103" x="559.5" y="29.4531">Component</text><text fill="#000000" font-family="sans-serif" font-size="18" lengthAdjust="spacingAndGlyphs" textLength="154" x="731" y="29.4531">Component Pivot</text><text fill="#000000" font-family="sans-serif" font-size="18" lengthAdjust="spacingAndGlyphs" textLength="183" x="918.5" y="29.4531">Component Transfer</text><text fill="#000000" font-family="sans-serif" font-size="18" lengthAdjust="spacingAndGlyphs" textLength="52" x="1136" y="29.4531">Caller</text><line style="stroke: #000000; stroke-width: 2.0;" x1="10" x2="10" y1="12.7451" y2="527.4482"/><line style="stroke: #000000; stroke-width: 2.0;" x1="497" x2="497" y1="12.7451" y2="527.4482"/><line style="stroke: #000000; stroke-width: 2.0;" x1="726" x2="726" y1="12.7451" y2="527.4482"/><line style="stroke: #000000; stroke-width: 2.0;" x1="890" x2="890" y1="12.7451" y2="527.4482"/><line style="stroke: #000000; stroke-width: 2.0;" x1="1131" x2="1131" y1="12.7451" y2="527.4482"/><line style="stroke: #000000; stroke-width: 2.0;" x1="1198" x2="1198" y1="12.7451" y2="527.4482"/><!--
@startuml
|Mutable|
|Component|
|Component Pivot|
|Component Transfer|
|Caller|
start
|Component Transfer|
:getMutatorForAnim;
|Mutable|
:getMutatorForAnimation;
:getMutator collects all primitives and mutables;
|Component Transfer|
:reduceMutator delete worldMatrix;
|Component|
:reduceMutator delete singleton;
|Mutable|
:replace references of mutables with references to copies -> getMutator;
|Component Pivot|
:getMutator of Matrix;
|Mutable|
:mutator;
|Caller|
stop
@enduml

PlantUML version 1.2019.05(Sat Apr 20 16:45:36 UTC 2019)
(GPL source distribution)
Java Runtime: Java(TM) SE Runtime Environment
JVM: Java HotSpot(TM) 64-Bit Server VM
Java Version: 1.7.0_25-b15
Operating System: Linux
Default Encoding: UTF-8
Language: en
Country: US
--></g></svg>
