<?xml version="1.0" encoding="utf-8"?>
<!-- Generator: Adobe Illustrator 16.0.0, SVG Export Plug-In . SVG Version: 6.00 Build 0)  -->
<!DOCTYPE svg PUBLIC "-//W3C//DTD SVG 1.1//EN" "http://www.w3.org/Graphics/SVG/1.1/DTD/svg11.dtd">
<svg version="1.1" id="Ebene_1" xmlns="http://www.w3.org/2000/svg" xmlns:xlink="http://www.w3.org/1999/xlink" x="0px" y="0px"
	 width="300px" height="300px" viewBox="0 0 300 300" enable-background="new 0 0 300 300" xml:space="preserve">
<g>
	<g>
		<path fill-rule="evenodd" clip-rule="evenodd" d="M71.417,181.823c51.333,0,101.612,0,153.609,0c0,17.079,0,34.175,0,52.771
			c-50.63,0-101.466,0-153.609,0C71.417,217.648,71.417,201.073,71.417,181.823z"/>
		<path fill-rule="evenodd" clip-rule="evenodd" d="M112.051,142.592c0-24.598,0-46.73,0-70.644c23.626,0,46.856,0,71.679,0
			c0,22.816,0,46.038,0,70.644C160.312,142.592,137.087,142.592,112.051,142.592z"/>
	</g>
</g>
<line fill="none" stroke="#FFFFFF" stroke-width="12.2854" x1="147.895" y1="32.339" x2="147.895" y2="268.829"/>
</svg>
