<?xml version="1.0" encoding="utf-8"?>
<!-- Generator: Adobe Illustrator 16.0.0, SVG Export Plug-In . SVG Version: 6.00 Build 0)  -->
<!DOCTYPE svg PUBLIC "-//W3C//DTD SVG 1.1//EN" "http://www.w3.org/Graphics/SVG/1.1/DTD/svg11.dtd">
<svg version="1.1" id="Ebene_1" xmlns="http://www.w3.org/2000/svg" xmlns:xlink="http://www.w3.org/1999/xlink" x="0px" y="0px"
	 width="300px" height="300px" viewBox="0 0 300 300" enable-background="new 0 0 300 300" xml:space="preserve">
<g>
	<path fill-rule="evenodd" clip-rule="evenodd" fill="#010101" stroke="#FFFFFF" stroke-miterlimit="10" d="M159.772,21.458
		c11.875,21.028,23.611,42.14,35.662,63.07c11.865,20.605,14.347,42.656,0.094,61.529c-25.901,34.301-25.085,72.98-23.001,112.133
		c0.913,17.069-1.426,25.021-22.103,24.902c-19.947-0.117-23.81-6.565-22.525-24.415c2.887-40.155,1.806-79.439-23.898-114.39
		c-12.833-17.447-11.221-37.733-0.324-56.899c12.349-21.721,24.316-43.659,36.446-65.508c13.894,0.28,9.255,11.235,9.442,18.04
		c0.659,24.031,0.963,48.092,0.148,72.133c-0.241-23.279-0.241-46.563,0.466-69.813C150.409,34.59,145.607,23.223,159.772,21.458z"
		/>
	<path fill-rule="evenodd" clip-rule="evenodd" fill="#FFFFFF" stroke="#FFFFFF" stroke-miterlimit="10" d="M153.772,21.458
		l-0.041,80.494c0,0,4.921-0.302,8.096,2.873s3.199,14.058-3.598,19.342c-6.479,5.033-13.338,2.377-17.863-2.148
		s-4.791-13.463-1.546-16.708s7.2-3.009,7.2-3.009v-80.42L153.772,21.458z"/>
</g>
</svg>
