<?xml version="1.0" encoding="utf-8"?>
<!-- Generator: Adobe Illustrator 16.0.0, SVG Export Plug-In . SVG Version: 6.00 Build 0)  -->
<!DOCTYPE svg PUBLIC "-//W3C//DTD SVG 1.1//EN" "http://www.w3.org/Graphics/SVG/1.1/DTD/svg11.dtd">
<svg version="1.1" id="Ebene_1" xmlns="http://www.w3.org/2000/svg" xmlns:xlink="http://www.w3.org/1999/xlink" x="0px" y="0px"
	 width="353.956px" height="353.956px" viewBox="0 0 353.956 353.956" enable-background="new 0 0 353.956 353.956"
	 xml:space="preserve">
<g>
	<path fill-rule="evenodd" clip-rule="evenodd" fill="#FFFFFF" d="M1,1.021c118.263,0,236.525,0,354.872,0
		c0,118.2,0,236.421,0,354.788c-118.234,0-236.554,0-354.872,0C1,237.597,1,119.319,1,1.021z M257.742,113.335
		c-54.079,0-107.779,0-161.364,0c0,77.711,0,155.071,0,232.365c53.974,0,107.556,0,161.364,0
		C257.742,268.194,257.742,190.953,257.742,113.335z M96.2,94.628c54.137,0,107.826,0,161.532,0c0-14.624,0-28.886,0-43.413
		c-2.946-0.162-5.681-0.313-8.914-0.492c0-3.03,0-5.763,0-9.025c-3.247,0-5.971,0-8.663,0c-0.142-3.15-0.259-5.752-0.376-8.361
		c-9.102,0-17.819,0-27.076,0c0,6.074,0,11.805,0,17.375c-24.137,0-47.725,0-71.857,0c0-5.993,0-11.719,0-17.329
		c-9.274,0-17.996,0-27.063,0c0,2.999,0,5.604,0,8.737c-3.073,0-5.802,0-9.045,0c0,3.263,0,5.995,0,9.058c-3.133,0-5.736,0-8.538,0
		C96.2,65.795,96.2,80.058,96.2,94.628z M195.062,6.349c-12.414,0-24.113,0-36.334,0c0,6.066,0,11.792,0,17.835
		c-3.135,0-5.739,0-8.424,0c0,3.069,0,5.78,0,8.479c18.022,0,35.718,0,53.296,0c0-3.067,0-5.783,0-8.835c-2.99,0-5.59,0-8.538,0
		C195.062,17.892,195.062,12.292,195.062,6.349z"/>
	<path fill-rule="evenodd" clip-rule="evenodd" d="M257.742,113.335c0,77.618,0,154.859,0,232.365c-53.808,0-107.39,0-161.364,0
		c0-77.294,0-154.653,0-232.365C149.963,113.335,203.663,113.335,257.742,113.335z M185.619,318.742c0-59.796,0-119.148,0-178.518
		c-5.958,0-11.556,0-17.371,0c0,59.595,0,118.947,0,178.518C174.112,318.742,179.71,318.742,185.619,318.742z M123.334,140.193
		c0,59.808,0,119.171,0,178.532c2.959,0,5.563,0,8.382,0c0-59.596,0-118.959,0-178.532
		C128.85,140.193,126.247,140.193,123.334,140.193z M222.312,140.206c0,59.769,0,119.132,0,178.533c2.942,0,5.546,0,8.403,0
		c0-59.584,0-118.946,0-178.533C227.861,140.206,225.258,140.206,222.312,140.206z"/>
	<path fill-rule="evenodd" clip-rule="evenodd" d="M96.2,94.628c0-14.57,0-28.833,0-43.45c2.801,0,5.404,0,8.538,0
		c0-3.063,0-5.794,0-9.058c3.243,0,5.972,0,9.045,0c0-3.132,0-5.738,0-8.737c9.067,0,17.789,0,27.063,0c0,5.609,0,11.335,0,17.329
		c24.133,0,47.721,0,71.857,0c0-5.571,0-11.301,0-17.375c9.257,0,17.975,0,27.076,0c0.117,2.609,0.234,5.211,0.376,8.361
		c2.692,0,5.416,0,8.663,0c0,3.263,0,5.996,0,9.025c3.233,0.179,5.968,0.33,8.914,0.492c0,14.526,0,28.789,0,43.413
		C204.026,94.628,150.337,94.628,96.2,94.628z"/>
	<path fill-rule="evenodd" clip-rule="evenodd" d="M195.062,6.349c0,5.944,0,11.543,0,17.479c2.948,0,5.548,0,8.538,0
		c0,3.052,0,5.768,0,8.835c-17.578,0-35.274,0-53.296,0c0-2.699,0-5.411,0-8.479c2.685,0,5.289,0,8.424,0c0-6.043,0-11.769,0-17.835
		C170.949,6.349,182.647,6.349,195.062,6.349z"/>
	<path fill-rule="evenodd" clip-rule="evenodd" fill="#FFFFFF" d="M185.619,318.742c-5.909,0-11.507,0-17.371,0
		c0-59.57,0-118.923,0-178.518c5.815,0,11.413,0,17.371,0C185.619,199.594,185.619,258.946,185.619,318.742z"/>
	<path fill-rule="evenodd" clip-rule="evenodd" fill="#FFFFFF" d="M123.334,140.193c2.913,0,5.516,0,8.382,0
		c0,59.573,0,118.937,0,178.532c-2.82,0-5.423,0-8.382,0C123.334,259.364,123.334,200.001,123.334,140.193z"/>
	<path fill-rule="evenodd" clip-rule="evenodd" fill="#FFFFFF" d="M222.312,140.206c2.946,0,5.55,0,8.403,0
		c0,59.587,0,118.949,0,178.533c-2.857,0-5.461,0-8.403,0C222.312,259.338,222.312,199.975,222.312,140.206z"/>
</g>
</svg>
