<svg xmlns="http://www.w3.org/2000/svg" width="183" height="183" viewBox="0 0 183 183" class="undefined">
<style>
  .IconMainColor{
    fill:#010101;
    stroke-width:0.6;
    stroke:#FFF;
  }
  .IconSecondaryColor{
    fill:#FFF;
    stroke-width:0.6;
    stroke:#FFF;
  }
</style>
    <path d="M97 17.3c6.7 11.9 13.4 23.9 20.2 35.8 6.7 11.7 8.1 24.2 0.1 34.9 -14.7 19.4-14.2 41.4-13 63.6 0.5 9.7-0.8 14.2-12.5 14.1 -11.3-0.1-13.5-3.7-12.8-13.8 1.6-22.8 1-45-13.5-64.8 -7.3-9.9-6.4-21.4-0.2-32.3 7-12.3 13.8-24.8 20.7-37.1 7.9 0.2 5.2 6.4 5.4 10.2 0.4 13.6 0.5 27.3 0.1 40.9C91.1 55.5 91.1 42.3 91.5 29.1 91.7 24.8 88.9 18.3 97 17.3z" class="IconMainColor"/>
    <path d="M93.6 17.3l0 45.6c0 0 2.8-0.2 4.6 1.6 1.8 1.8 1.8 8-2 11 -3.7 2.9-7.6 1.3-10.1-1.2s-2.7-7.6-0.9-9.5c1.8-1.8 4.1-1.7 4.1-1.7v-45.6L93.6 17.3z" class="IconSecondaryColor"/>
</svg>